<?xml version="1.0" encoding="UTF-8"?>
<svg width="30px" height="22px" viewBox="0 0 30 22" version="1.1" xmlns="http://www.w3.org/2000/svg" xmlns:xlink="http://www.w3.org/1999/xlink">
    <!-- Generator: Sketch 50.2 (55047) - http://www.bohemiancoding.com/sketch -->
    <title>Shape</title>
    <desc>Created with Sketch.</desc>
    <defs></defs>
    <g id="Page-1" stroke="none" stroke-width="1" fill="none" fill-rule="evenodd">
        <g id="market-site" transform="translate(-1196.000000, -6692.000000)" fill="#000000" fill-rule="nonzero">
            <g id="youtube-play" transform="translate(1195.000000, 6692.000000)">
                <path d="M12.902902,15.075893 L21.00558,10.890625 L12.902902,6.655134 L12.902902,15.075893 Z M16,0.645089 C17.875,0.645089 19.685826,0.670201 21.432478,0.720424 C23.179129,0.770647 24.459821,0.823661 25.274554,0.879464 L26.496652,0.946429 C26.507812,0.946429 26.602679,0.954799 26.78125,0.97154 C26.959821,0.988281 27.08817,1.005022 27.166295,1.021763 C27.24442,1.038504 27.375558,1.063616 27.55971,1.097098 C27.743862,1.13058 27.902902,1.175223 28.03683,1.231027 C28.170759,1.28683 28.327009,1.359375 28.50558,1.448661 C28.684152,1.537946 28.857143,1.646763 29.024554,1.775112 C29.191964,1.90346 29.353795,2.051339 29.510045,2.21875 C29.577009,2.285714 29.663504,2.388951 29.769531,2.52846 C29.875558,2.667969 30.037388,2.99442 30.255022,3.507812 C30.472656,4.021205 30.620536,4.584821 30.698661,5.198661 C30.787946,5.912946 30.857701,6.674665 30.907924,7.483817 C30.958147,8.292969 30.988839,8.926339 31,9.383929 L31,10.053571 L31,12.330357 C31.011161,13.948661 30.910714,15.566964 30.698661,17.185268 C30.620536,17.799107 30.481027,18.354353 30.280134,18.851004 C30.079241,19.347656 29.90067,19.690848 29.74442,19.88058 L29.510045,20.165179 C29.353795,20.332589 29.191964,20.480469 29.024554,20.608817 C28.857143,20.737165 28.684152,20.843192 28.50558,20.926897 C28.327009,21.010603 28.170759,21.080357 28.03683,21.136161 C27.902902,21.191964 27.743862,21.236607 27.55971,21.270089 C27.375558,21.303571 27.241629,21.328683 27.157924,21.345424 C27.074219,21.362165 26.945871,21.378906 26.772879,21.395647 C26.599888,21.412388 26.507812,21.420759 26.496652,21.420759 C23.695312,21.632812 20.196429,21.738839 16,21.738839 C13.689732,21.716518 11.683594,21.680246 9.981585,21.630022 C8.279576,21.579799 7.160714,21.537946 6.625,21.504464 L5.804688,21.4375 L5.202009,21.370536 C4.800223,21.314732 4.496094,21.258929 4.289621,21.203125 C4.083147,21.147321 3.798549,21.030134 3.435826,20.851562 C3.073103,20.672991 2.757812,20.444196 2.489955,20.165179 C2.422991,20.098214 2.336496,19.994978 2.230469,19.855469 C2.124442,19.71596 1.962612,19.389509 1.744978,18.876116 C1.527344,18.362723 1.379464,17.799107 1.301339,17.185268 C1.212054,16.470982 1.142299,15.709263 1.092076,14.900112 C1.041853,14.09096 1.011161,13.457589 1,13 L1,12.330357 L1,10.053571 C0.988839,8.435268 1.089286,6.816964 1.301339,5.198661 C1.379464,4.584821 1.518973,4.029576 1.719866,3.532924 C1.920759,3.036272 2.09933,2.69308 2.25558,2.503348 L2.489955,2.21875 C2.646205,2.051339 2.808036,1.90346 2.975446,1.775112 C3.142857,1.646763 3.315848,1.537946 3.49442,1.448661 C3.672991,1.359375 3.829241,1.28683 3.96317,1.231027 C4.097098,1.175223 4.256138,1.13058 4.44029,1.097098 C4.624442,1.063616 4.75558,1.038504 4.833705,1.021763 C4.91183,1.005022 5.040179,0.988281 5.21875,0.97154 C5.397321,0.954799 5.492188,0.946429 5.503348,0.946429 C8.304688,0.745536 11.803571,0.645089 16,0.645089 Z" id="Shape"></path>
            </g>
        </g>
    </g>
</svg>