<?xml version="1.0" encoding="UTF-8"?>
<svg width="781px" height="731px" viewBox="0 0 781 731" version="1.1" xmlns="http://www.w3.org/2000/svg" xmlns:xlink="http://www.w3.org/1999/xlink">
    <!-- Generator: Sketch 49 (51002) - http://www.bohemiancoding.com/sketch -->
    <title>Group 2</title>
    <desc>Created with Sketch.</desc>
    <defs>
        <filter x="-68.6%" y="-57.1%" width="237.1%" height="328.6%" filterUnits="objectBoundingBox" id="filter-1">
            <feOffset dx="0" dy="48" in="SourceAlpha" result="shadowOffsetOuter1"></feOffset>
            <feGaussianBlur stdDeviation="24" in="shadowOffsetOuter1" result="shadowBlurOuter1"></feGaussianBlur>
            <feColorMatrix values="0 0 0 0 0   0 0 0 0 0   0 0 0 0 0  0 0 0 0.5 0" type="matrix" in="shadowBlurOuter1" result="shadowMatrixOuter1"></feColorMatrix>
            <feMerge>
                <feMergeNode in="shadowMatrixOuter1"></feMergeNode>
                <feMergeNode in="SourceGraphic"></feMergeNode>
            </feMerge>
        </filter>
        <filter x="-68.6%" y="-57.1%" width="237.1%" height="328.6%" filterUnits="objectBoundingBox" id="filter-2">
            <feOffset dx="0" dy="48" in="SourceAlpha" result="shadowOffsetOuter1"></feOffset>
            <feGaussianBlur stdDeviation="24" in="shadowOffsetOuter1" result="shadowBlurOuter1"></feGaussianBlur>
            <feColorMatrix values="0 0 0 0 0   0 0 0 0 0   0 0 0 0 0  0 0 0 0.5 0" type="matrix" in="shadowBlurOuter1" result="shadowMatrixOuter1"></feColorMatrix>
            <feMerge>
                <feMergeNode in="shadowMatrixOuter1"></feMergeNode>
                <feMergeNode in="SourceGraphic"></feMergeNode>
            </feMerge>
        </filter>
        <filter x="-68.6%" y="-57.1%" width="237.1%" height="328.6%" filterUnits="objectBoundingBox" id="filter-3">
            <feOffset dx="0" dy="48" in="SourceAlpha" result="shadowOffsetOuter1"></feOffset>
            <feGaussianBlur stdDeviation="24" in="shadowOffsetOuter1" result="shadowBlurOuter1"></feGaussianBlur>
            <feColorMatrix values="0 0 0 0 0   0 0 0 0 0   0 0 0 0 0  0 0 0 0.5 0" type="matrix" in="shadowBlurOuter1" result="shadowMatrixOuter1"></feColorMatrix>
            <feMerge>
                <feMergeNode in="shadowMatrixOuter1"></feMergeNode>
                <feMergeNode in="SourceGraphic"></feMergeNode>
            </feMerge>
        </filter>
        <filter x="-68.6%" y="-57.1%" width="237.1%" height="328.6%" filterUnits="objectBoundingBox" id="filter-4">
            <feOffset dx="0" dy="48" in="SourceAlpha" result="shadowOffsetOuter1"></feOffset>
            <feGaussianBlur stdDeviation="24" in="shadowOffsetOuter1" result="shadowBlurOuter1"></feGaussianBlur>
            <feColorMatrix values="0 0 0 0 0   0 0 0 0 0   0 0 0 0 0  0 0 0 0.5 0" type="matrix" in="shadowBlurOuter1" result="shadowMatrixOuter1"></feColorMatrix>
            <feMerge>
                <feMergeNode in="shadowMatrixOuter1"></feMergeNode>
                <feMergeNode in="SourceGraphic"></feMergeNode>
            </feMerge>
        </filter>
        <filter x="-68.6%" y="-57.1%" width="237.1%" height="328.6%" filterUnits="objectBoundingBox" id="filter-5">
            <feOffset dx="0" dy="48" in="SourceAlpha" result="shadowOffsetOuter1"></feOffset>
            <feGaussianBlur stdDeviation="24" in="shadowOffsetOuter1" result="shadowBlurOuter1"></feGaussianBlur>
            <feColorMatrix values="0 0 0 0 0   0 0 0 0 0   0 0 0 0 0  0 0 0 0.5 0" type="matrix" in="shadowBlurOuter1" result="shadowMatrixOuter1"></feColorMatrix>
            <feMerge>
                <feMergeNode in="shadowMatrixOuter1"></feMergeNode>
                <feMergeNode in="SourceGraphic"></feMergeNode>
            </feMerge>
        </filter>
        <filter x="-68.6%" y="-57.1%" width="237.1%" height="328.6%" filterUnits="objectBoundingBox" id="filter-6">
            <feOffset dx="0" dy="48" in="SourceAlpha" result="shadowOffsetOuter1"></feOffset>
            <feGaussianBlur stdDeviation="24" in="shadowOffsetOuter1" result="shadowBlurOuter1"></feGaussianBlur>
            <feColorMatrix values="0 0 0 0 0   0 0 0 0 0   0 0 0 0 0  0 0 0 0.5 0" type="matrix" in="shadowBlurOuter1" result="shadowMatrixOuter1"></feColorMatrix>
            <feMerge>
                <feMergeNode in="shadowMatrixOuter1"></feMergeNode>
                <feMergeNode in="SourceGraphic"></feMergeNode>
            </feMerge>
        </filter>
    </defs>
    <g id="Page-1" stroke="none" stroke-width="1" fill="none" fill-rule="evenodd">
        <g id="Market-v2" transform="translate(-1.000000, -751.000000)">
            <g id="explore-contracts" transform="translate(1.000000, 722.000000)">
                <g id="Group-2" transform="translate(0.000000, 29.000000)">
                    <polygon id="big-base" fill="#DEDEDE" opacity="0.200000003" points="57.9653351 0.0550478984 759 351.447751 0 731 0 0.0550478984"></polygon>
                    <polygon id="base" fill="#3A3A3A" points="184 351 471.5 207 759 351 471.5 495"></polygon>
                    <g id="illustration" transform="translate(211.000000, 167.000000)">
                        <g id="Rectangle-7_Isometric" transform="translate(0.000000, 133.000000)">
                            <polygon id="Rectangle-7_Left_Isometric" fill="#616161" points="70 84 0 49 0 35 70 70"></polygon>
                            <polygon id="Rectangle-7_Right_Isometric" fill="#9C9C9C" points="70 84 140 49 140 35 70 70"></polygon>
                            <polygon id="Rectangle-7_Top_Isometric" fill="#3A97F7" points="0 35 70 0 140 35 70 70"></polygon>
                            <g id="contracts" transform="translate(42.000000, 18.000000)" opacity="0.300000012">
                                <g id="ic_blur_on_24px">
                                    <path d="M12.7368421,17.8157895 C11.5210526,17.8157895 10.5263158,18.4078947 10.5263158,19.1315789 C10.5263158,19.8552632 11.5210526,20.4473684 12.7368421,20.4473684 C13.9526316,20.4473684 14.9473684,19.8552632 14.9473684,19.1315789 C14.9473684,18.4078947 13.9526316,17.8157895 12.7368421,17.8157895 Z M12.7368421,23.0789474 C11.5210526,23.0789474 10.5263158,23.6710526 10.5263158,24.3947368 C10.5263158,25.1184211 11.5210526,25.7105263 12.7368421,25.7105263 C13.9526316,25.7105263 14.9473684,25.1184211 14.9473684,24.3947368 C14.9473684,23.6710526 13.9526316,23.0789474 12.7368421,23.0789474 Z M12.7368421,12.5526316 C11.5210526,12.5526316 10.5263158,13.1447368 10.5263158,13.8684211 C10.5263158,14.5921053 11.5210526,15.1842105 12.7368421,15.1842105 C13.9526316,15.1842105 14.9473684,14.5921053 14.9473684,13.8684211 C14.9473684,13.1447368 13.9526316,12.5526316 12.7368421,12.5526316 Z M6.10526316,13.2105263 C5.48631579,13.2105263 5,13.5 5,13.8684211 C5,14.2368421 5.48631579,14.5263158 6.10526316,14.5263158 C6.72421053,14.5263158 7.21052632,14.2368421 7.21052632,13.8684211 C7.21052632,13.5 6.72421053,13.2105263 6.10526316,13.2105263 Z M12.7368421,7.28947368 C11.5210526,7.28947368 10.5263158,7.88157895 10.5263158,8.60526316 C10.5263158,9.32894737 11.5210526,9.92105263 12.7368421,9.92105263 C13.9526316,9.92105263 14.9473684,9.32894737 14.9473684,8.60526316 C14.9473684,7.88157895 13.9526316,7.28947368 12.7368421,7.28947368 Z M45.8947368,14.5263158 C46.5136842,14.5263158 47,14.2368421 47,13.8684211 C47,13.5 46.5136842,13.2105263 45.8947368,13.2105263 C45.2757895,13.2105263 44.7894737,13.5 44.7894737,13.8684211 C44.7894737,14.2368421 45.2757895,14.5263158 45.8947368,14.5263158 Z M30.4210526,9.92105263 C31.6368421,9.92105263 32.6315789,9.32894737 32.6315789,8.60526316 C32.6315789,7.88157895 31.6368421,7.28947368 30.4210526,7.28947368 C29.2052632,7.28947368 28.2105263,7.88157895 28.2105263,8.60526316 C28.2105263,9.32894737 29.2052632,9.92105263 30.4210526,9.92105263 Z M30.4210526,5.31578947 C31.04,5.31578947 31.5263158,5.02631579 31.5263158,4.65789474 C31.5263158,4.28947368 31.04,4 30.4210526,4 C29.8021053,4 29.3157895,4.28947368 29.3157895,4.65789474 C29.3157895,5.02631579 29.8021053,5.31578947 30.4210526,5.31578947 Z M6.10526316,18.4736842 C5.48631579,18.4736842 5,18.7631579 5,19.1315789 C5,19.5 5.48631579,19.7894737 6.10526316,19.7894737 C6.72421053,19.7894737 7.21052632,19.5 7.21052632,19.1315789 C7.21052632,18.7631579 6.72421053,18.4736842 6.10526316,18.4736842 Z M21.5789474,27.6842105 C20.96,27.6842105 20.4736842,27.9736842 20.4736842,28.3421053 C20.4736842,28.7105263 20.96,29 21.5789474,29 C22.1978947,29 22.6842105,28.7105263 22.6842105,28.3421053 C22.6842105,27.9736842 22.1978947,27.6842105 21.5789474,27.6842105 Z M21.5789474,5.31578947 C22.1978947,5.31578947 22.6842105,5.02631579 22.6842105,4.65789474 C22.6842105,4.28947368 22.1978947,4 21.5789474,4 C20.96,4 20.4736842,4.28947368 20.4736842,4.65789474 C20.4736842,5.02631579 20.96,5.31578947 21.5789474,5.31578947 Z M21.5789474,9.92105263 C22.7947368,9.92105263 23.7894737,9.32894737 23.7894737,8.60526316 C23.7894737,7.88157895 22.7947368,7.28947368 21.5789474,7.28947368 C20.3631579,7.28947368 19.3684211,7.88157895 19.3684211,8.60526316 C19.3684211,9.32894737 20.3631579,9.92105263 21.5789474,9.92105263 Z M21.5789474,17.1578947 C19.7442105,17.1578947 18.2631579,18.0394737 18.2631579,19.1315789 C18.2631579,20.2236842 19.7442105,21.1052632 21.5789474,21.1052632 C23.4136842,21.1052632 24.8947368,20.2236842 24.8947368,19.1315789 C24.8947368,18.0394737 23.4136842,17.1578947 21.5789474,17.1578947 Z M39.2631579,17.8157895 C38.0473684,17.8157895 37.0526316,18.4078947 37.0526316,19.1315789 C37.0526316,19.8552632 38.0473684,20.4473684 39.2631579,20.4473684 C40.4789474,20.4473684 41.4736842,19.8552632 41.4736842,19.1315789 C41.4736842,18.4078947 40.4789474,17.8157895 39.2631579,17.8157895 Z M39.2631579,23.0789474 C38.0473684,23.0789474 37.0526316,23.6710526 37.0526316,24.3947368 C37.0526316,25.1184211 38.0473684,25.7105263 39.2631579,25.7105263 C40.4789474,25.7105263 41.4736842,25.1184211 41.4736842,24.3947368 C41.4736842,23.6710526 40.4789474,23.0789474 39.2631579,23.0789474 Z M39.2631579,12.5526316 C38.0473684,12.5526316 37.0526316,13.1447368 37.0526316,13.8684211 C37.0526316,14.5921053 38.0473684,15.1842105 39.2631579,15.1842105 C40.4789474,15.1842105 41.4736842,14.5921053 41.4736842,13.8684211 C41.4736842,13.1447368 40.4789474,12.5526316 39.2631579,12.5526316 Z M39.2631579,7.28947368 C38.0473684,7.28947368 37.0526316,7.88157895 37.0526316,8.60526316 C37.0526316,9.32894737 38.0473684,9.92105263 39.2631579,9.92105263 C40.4789474,9.92105263 41.4736842,9.32894737 41.4736842,8.60526316 C41.4736842,7.88157895 40.4789474,7.28947368 39.2631579,7.28947368 Z M45.8947368,18.4736842 C45.2757895,18.4736842 44.7894737,18.7631579 44.7894737,19.1315789 C44.7894737,19.5 45.2757895,19.7894737 45.8947368,19.7894737 C46.5136842,19.7894737 47,19.5 47,19.1315789 C47,18.7631579 46.5136842,18.4736842 45.8947368,18.4736842 Z M30.4210526,23.0789474 C29.2052632,23.0789474 28.2105263,23.6710526 28.2105263,24.3947368 C28.2105263,25.1184211 29.2052632,25.7105263 30.4210526,25.7105263 C31.6368421,25.7105263 32.6315789,25.1184211 32.6315789,24.3947368 C32.6315789,23.6710526 31.6368421,23.0789474 30.4210526,23.0789474 Z M30.4210526,27.6842105 C29.8021053,27.6842105 29.3157895,27.9736842 29.3157895,28.3421053 C29.3157895,28.7105263 29.8021053,29 30.4210526,29 C31.04,29 31.5263158,28.7105263 31.5263158,28.3421053 C31.5263158,27.9736842 31.04,27.6842105 30.4210526,27.6842105 Z M21.5789474,11.8947368 C19.7442105,11.8947368 18.2631579,12.7763158 18.2631579,13.8684211 C18.2631579,14.9605263 19.7442105,15.8421053 21.5789474,15.8421053 C23.4136842,15.8421053 24.8947368,14.9605263 24.8947368,13.8684211 C24.8947368,12.7763158 23.4136842,11.8947368 21.5789474,11.8947368 Z M21.5789474,23.0789474 C20.3631579,23.0789474 19.3684211,23.6710526 19.3684211,24.3947368 C19.3684211,25.1184211 20.3631579,25.7105263 21.5789474,25.7105263 C22.7947368,25.7105263 23.7894737,25.1184211 23.7894737,24.3947368 C23.7894737,23.6710526 22.7947368,23.0789474 21.5789474,23.0789474 Z M30.4210526,17.1578947 C28.5863158,17.1578947 27.1052632,18.0394737 27.1052632,19.1315789 C27.1052632,20.2236842 28.5863158,21.1052632 30.4210526,21.1052632 C32.2557895,21.1052632 33.7368421,20.2236842 33.7368421,19.1315789 C33.7368421,18.0394737 32.2557895,17.1578947 30.4210526,17.1578947 Z M30.4210526,11.8947368 C28.5863158,11.8947368 27.1052632,12.7763158 27.1052632,13.8684211 C27.1052632,14.9605263 28.5863158,15.8421053 30.4210526,15.8421053 C32.2557895,15.8421053 33.7368421,14.9605263 33.7368421,13.8684211 C33.7368421,12.7763158 32.2557895,11.8947368 30.4210526,11.8947368 Z" id="Shape" fill="#FFFFFF" fill-rule="nonzero"></path>
                                    <polygon id="Shape" points="0 0 52 0 52 31 0 31"></polygon>
                                </g>
                            </g>
                        </g>
                        <g id="Rectangle-7_Isometric" filter="url(#filter-1)" transform="translate(95.000000, 63.000000)">
                            <polygon id="Rectangle-7_Left_Isometric" fill="#616161" points="70 84 0 49 0 35 70 70"></polygon>
                            <polygon id="Rectangle-7_Right_Isometric" fill="#9C9C9C" points="70 84 140 49 140 35 70 70"></polygon>
                            <polygon id="Rectangle-7_Top_Isometric" fill="#3A97F7" points="0 35 70 0 140 35 70 70"></polygon>
                            <g id="contracts" transform="translate(43.000000, 17.000000)" opacity="0.300000012">
                                <g id="ic_blur_on_24px">
                                    <path d="M12.7368421,17.8157895 C11.5210526,17.8157895 10.5263158,18.4078947 10.5263158,19.1315789 C10.5263158,19.8552632 11.5210526,20.4473684 12.7368421,20.4473684 C13.9526316,20.4473684 14.9473684,19.8552632 14.9473684,19.1315789 C14.9473684,18.4078947 13.9526316,17.8157895 12.7368421,17.8157895 Z M12.7368421,23.0789474 C11.5210526,23.0789474 10.5263158,23.6710526 10.5263158,24.3947368 C10.5263158,25.1184211 11.5210526,25.7105263 12.7368421,25.7105263 C13.9526316,25.7105263 14.9473684,25.1184211 14.9473684,24.3947368 C14.9473684,23.6710526 13.9526316,23.0789474 12.7368421,23.0789474 Z M12.7368421,12.5526316 C11.5210526,12.5526316 10.5263158,13.1447368 10.5263158,13.8684211 C10.5263158,14.5921053 11.5210526,15.1842105 12.7368421,15.1842105 C13.9526316,15.1842105 14.9473684,14.5921053 14.9473684,13.8684211 C14.9473684,13.1447368 13.9526316,12.5526316 12.7368421,12.5526316 Z M6.10526316,13.2105263 C5.48631579,13.2105263 5,13.5 5,13.8684211 C5,14.2368421 5.48631579,14.5263158 6.10526316,14.5263158 C6.72421053,14.5263158 7.21052632,14.2368421 7.21052632,13.8684211 C7.21052632,13.5 6.72421053,13.2105263 6.10526316,13.2105263 Z M12.7368421,7.28947368 C11.5210526,7.28947368 10.5263158,7.88157895 10.5263158,8.60526316 C10.5263158,9.32894737 11.5210526,9.92105263 12.7368421,9.92105263 C13.9526316,9.92105263 14.9473684,9.32894737 14.9473684,8.60526316 C14.9473684,7.88157895 13.9526316,7.28947368 12.7368421,7.28947368 Z M45.8947368,14.5263158 C46.5136842,14.5263158 47,14.2368421 47,13.8684211 C47,13.5 46.5136842,13.2105263 45.8947368,13.2105263 C45.2757895,13.2105263 44.7894737,13.5 44.7894737,13.8684211 C44.7894737,14.2368421 45.2757895,14.5263158 45.8947368,14.5263158 Z M30.4210526,9.92105263 C31.6368421,9.92105263 32.6315789,9.32894737 32.6315789,8.60526316 C32.6315789,7.88157895 31.6368421,7.28947368 30.4210526,7.28947368 C29.2052632,7.28947368 28.2105263,7.88157895 28.2105263,8.60526316 C28.2105263,9.32894737 29.2052632,9.92105263 30.4210526,9.92105263 Z M30.4210526,5.31578947 C31.04,5.31578947 31.5263158,5.02631579 31.5263158,4.65789474 C31.5263158,4.28947368 31.04,4 30.4210526,4 C29.8021053,4 29.3157895,4.28947368 29.3157895,4.65789474 C29.3157895,5.02631579 29.8021053,5.31578947 30.4210526,5.31578947 Z M6.10526316,18.4736842 C5.48631579,18.4736842 5,18.7631579 5,19.1315789 C5,19.5 5.48631579,19.7894737 6.10526316,19.7894737 C6.72421053,19.7894737 7.21052632,19.5 7.21052632,19.1315789 C7.21052632,18.7631579 6.72421053,18.4736842 6.10526316,18.4736842 Z M21.5789474,27.6842105 C20.96,27.6842105 20.4736842,27.9736842 20.4736842,28.3421053 C20.4736842,28.7105263 20.96,29 21.5789474,29 C22.1978947,29 22.6842105,28.7105263 22.6842105,28.3421053 C22.6842105,27.9736842 22.1978947,27.6842105 21.5789474,27.6842105 Z M21.5789474,5.31578947 C22.1978947,5.31578947 22.6842105,5.02631579 22.6842105,4.65789474 C22.6842105,4.28947368 22.1978947,4 21.5789474,4 C20.96,4 20.4736842,4.28947368 20.4736842,4.65789474 C20.4736842,5.02631579 20.96,5.31578947 21.5789474,5.31578947 Z M21.5789474,9.92105263 C22.7947368,9.92105263 23.7894737,9.32894737 23.7894737,8.60526316 C23.7894737,7.88157895 22.7947368,7.28947368 21.5789474,7.28947368 C20.3631579,7.28947368 19.3684211,7.88157895 19.3684211,8.60526316 C19.3684211,9.32894737 20.3631579,9.92105263 21.5789474,9.92105263 Z M21.5789474,17.1578947 C19.7442105,17.1578947 18.2631579,18.0394737 18.2631579,19.1315789 C18.2631579,20.2236842 19.7442105,21.1052632 21.5789474,21.1052632 C23.4136842,21.1052632 24.8947368,20.2236842 24.8947368,19.1315789 C24.8947368,18.0394737 23.4136842,17.1578947 21.5789474,17.1578947 Z M39.2631579,17.8157895 C38.0473684,17.8157895 37.0526316,18.4078947 37.0526316,19.1315789 C37.0526316,19.8552632 38.0473684,20.4473684 39.2631579,20.4473684 C40.4789474,20.4473684 41.4736842,19.8552632 41.4736842,19.1315789 C41.4736842,18.4078947 40.4789474,17.8157895 39.2631579,17.8157895 Z M39.2631579,23.0789474 C38.0473684,23.0789474 37.0526316,23.6710526 37.0526316,24.3947368 C37.0526316,25.1184211 38.0473684,25.7105263 39.2631579,25.7105263 C40.4789474,25.7105263 41.4736842,25.1184211 41.4736842,24.3947368 C41.4736842,23.6710526 40.4789474,23.0789474 39.2631579,23.0789474 Z M39.2631579,12.5526316 C38.0473684,12.5526316 37.0526316,13.1447368 37.0526316,13.8684211 C37.0526316,14.5921053 38.0473684,15.1842105 39.2631579,15.1842105 C40.4789474,15.1842105 41.4736842,14.5921053 41.4736842,13.8684211 C41.4736842,13.1447368 40.4789474,12.5526316 39.2631579,12.5526316 Z M39.2631579,7.28947368 C38.0473684,7.28947368 37.0526316,7.88157895 37.0526316,8.60526316 C37.0526316,9.32894737 38.0473684,9.92105263 39.2631579,9.92105263 C40.4789474,9.92105263 41.4736842,9.32894737 41.4736842,8.60526316 C41.4736842,7.88157895 40.4789474,7.28947368 39.2631579,7.28947368 Z M45.8947368,18.4736842 C45.2757895,18.4736842 44.7894737,18.7631579 44.7894737,19.1315789 C44.7894737,19.5 45.2757895,19.7894737 45.8947368,19.7894737 C46.5136842,19.7894737 47,19.5 47,19.1315789 C47,18.7631579 46.5136842,18.4736842 45.8947368,18.4736842 Z M30.4210526,23.0789474 C29.2052632,23.0789474 28.2105263,23.6710526 28.2105263,24.3947368 C28.2105263,25.1184211 29.2052632,25.7105263 30.4210526,25.7105263 C31.6368421,25.7105263 32.6315789,25.1184211 32.6315789,24.3947368 C32.6315789,23.6710526 31.6368421,23.0789474 30.4210526,23.0789474 Z M30.4210526,27.6842105 C29.8021053,27.6842105 29.3157895,27.9736842 29.3157895,28.3421053 C29.3157895,28.7105263 29.8021053,29 30.4210526,29 C31.04,29 31.5263158,28.7105263 31.5263158,28.3421053 C31.5263158,27.9736842 31.04,27.6842105 30.4210526,27.6842105 Z M21.5789474,11.8947368 C19.7442105,11.8947368 18.2631579,12.7763158 18.2631579,13.8684211 C18.2631579,14.9605263 19.7442105,15.8421053 21.5789474,15.8421053 C23.4136842,15.8421053 24.8947368,14.9605263 24.8947368,13.8684211 C24.8947368,12.7763158 23.4136842,11.8947368 21.5789474,11.8947368 Z M21.5789474,23.0789474 C20.3631579,23.0789474 19.3684211,23.6710526 19.3684211,24.3947368 C19.3684211,25.1184211 20.3631579,25.7105263 21.5789474,25.7105263 C22.7947368,25.7105263 23.7894737,25.1184211 23.7894737,24.3947368 C23.7894737,23.6710526 22.7947368,23.0789474 21.5789474,23.0789474 Z M30.4210526,17.1578947 C28.5863158,17.1578947 27.1052632,18.0394737 27.1052632,19.1315789 C27.1052632,20.2236842 28.5863158,21.1052632 30.4210526,21.1052632 C32.2557895,21.1052632 33.7368421,20.2236842 33.7368421,19.1315789 C33.7368421,18.0394737 32.2557895,17.1578947 30.4210526,17.1578947 Z M30.4210526,11.8947368 C28.5863158,11.8947368 27.1052632,12.7763158 27.1052632,13.8684211 C27.1052632,14.9605263 28.5863158,15.8421053 30.4210526,15.8421053 C32.2557895,15.8421053 33.7368421,14.9605263 33.7368421,13.8684211 C33.7368421,12.7763158 32.2557895,11.8947368 30.4210526,11.8947368 Z" id="Shape" fill="#FFFFFF" fill-rule="nonzero"></path>
                                    <polygon id="Shape" points="0 0 52 0 52 31 0 31"></polygon>
                                </g>
                            </g>
                        </g>
                        <g id="Rectangle-7_Isometric" filter="url(#filter-2)" transform="translate(193.000000, 120.000000)">
                            <polygon id="Rectangle-7_Left_Isometric" fill="#616161" points="70 84 0 49 0 35 70 70"></polygon>
                            <polygon id="Rectangle-7_Right_Isometric" fill="#9C9C9C" points="70 84 140 49 140 35 70 70"></polygon>
                            <polygon id="Rectangle-7_Top_Isometric" fill="#3A97F7" points="0 35 70 0 140 35 70 70"></polygon>
                            <g id="contracts" transform="translate(43.000000, 18.000000)" opacity="0.300000012">
                                <g id="ic_blur_on_24px">
                                    <path d="M12.7368421,17.8157895 C11.5210526,17.8157895 10.5263158,18.4078947 10.5263158,19.1315789 C10.5263158,19.8552632 11.5210526,20.4473684 12.7368421,20.4473684 C13.9526316,20.4473684 14.9473684,19.8552632 14.9473684,19.1315789 C14.9473684,18.4078947 13.9526316,17.8157895 12.7368421,17.8157895 Z M12.7368421,23.0789474 C11.5210526,23.0789474 10.5263158,23.6710526 10.5263158,24.3947368 C10.5263158,25.1184211 11.5210526,25.7105263 12.7368421,25.7105263 C13.9526316,25.7105263 14.9473684,25.1184211 14.9473684,24.3947368 C14.9473684,23.6710526 13.9526316,23.0789474 12.7368421,23.0789474 Z M12.7368421,12.5526316 C11.5210526,12.5526316 10.5263158,13.1447368 10.5263158,13.8684211 C10.5263158,14.5921053 11.5210526,15.1842105 12.7368421,15.1842105 C13.9526316,15.1842105 14.9473684,14.5921053 14.9473684,13.8684211 C14.9473684,13.1447368 13.9526316,12.5526316 12.7368421,12.5526316 Z M6.10526316,13.2105263 C5.48631579,13.2105263 5,13.5 5,13.8684211 C5,14.2368421 5.48631579,14.5263158 6.10526316,14.5263158 C6.72421053,14.5263158 7.21052632,14.2368421 7.21052632,13.8684211 C7.21052632,13.5 6.72421053,13.2105263 6.10526316,13.2105263 Z M12.7368421,7.28947368 C11.5210526,7.28947368 10.5263158,7.88157895 10.5263158,8.60526316 C10.5263158,9.32894737 11.5210526,9.92105263 12.7368421,9.92105263 C13.9526316,9.92105263 14.9473684,9.32894737 14.9473684,8.60526316 C14.9473684,7.88157895 13.9526316,7.28947368 12.7368421,7.28947368 Z M45.8947368,14.5263158 C46.5136842,14.5263158 47,14.2368421 47,13.8684211 C47,13.5 46.5136842,13.2105263 45.8947368,13.2105263 C45.2757895,13.2105263 44.7894737,13.5 44.7894737,13.8684211 C44.7894737,14.2368421 45.2757895,14.5263158 45.8947368,14.5263158 Z M30.4210526,9.92105263 C31.6368421,9.92105263 32.6315789,9.32894737 32.6315789,8.60526316 C32.6315789,7.88157895 31.6368421,7.28947368 30.4210526,7.28947368 C29.2052632,7.28947368 28.2105263,7.88157895 28.2105263,8.60526316 C28.2105263,9.32894737 29.2052632,9.92105263 30.4210526,9.92105263 Z M30.4210526,5.31578947 C31.04,5.31578947 31.5263158,5.02631579 31.5263158,4.65789474 C31.5263158,4.28947368 31.04,4 30.4210526,4 C29.8021053,4 29.3157895,4.28947368 29.3157895,4.65789474 C29.3157895,5.02631579 29.8021053,5.31578947 30.4210526,5.31578947 Z M6.10526316,18.4736842 C5.48631579,18.4736842 5,18.7631579 5,19.1315789 C5,19.5 5.48631579,19.7894737 6.10526316,19.7894737 C6.72421053,19.7894737 7.21052632,19.5 7.21052632,19.1315789 C7.21052632,18.7631579 6.72421053,18.4736842 6.10526316,18.4736842 Z M21.5789474,27.6842105 C20.96,27.6842105 20.4736842,27.9736842 20.4736842,28.3421053 C20.4736842,28.7105263 20.96,29 21.5789474,29 C22.1978947,29 22.6842105,28.7105263 22.6842105,28.3421053 C22.6842105,27.9736842 22.1978947,27.6842105 21.5789474,27.6842105 Z M21.5789474,5.31578947 C22.1978947,5.31578947 22.6842105,5.02631579 22.6842105,4.65789474 C22.6842105,4.28947368 22.1978947,4 21.5789474,4 C20.96,4 20.4736842,4.28947368 20.4736842,4.65789474 C20.4736842,5.02631579 20.96,5.31578947 21.5789474,5.31578947 Z M21.5789474,9.92105263 C22.7947368,9.92105263 23.7894737,9.32894737 23.7894737,8.60526316 C23.7894737,7.88157895 22.7947368,7.28947368 21.5789474,7.28947368 C20.3631579,7.28947368 19.3684211,7.88157895 19.3684211,8.60526316 C19.3684211,9.32894737 20.3631579,9.92105263 21.5789474,9.92105263 Z M21.5789474,17.1578947 C19.7442105,17.1578947 18.2631579,18.0394737 18.2631579,19.1315789 C18.2631579,20.2236842 19.7442105,21.1052632 21.5789474,21.1052632 C23.4136842,21.1052632 24.8947368,20.2236842 24.8947368,19.1315789 C24.8947368,18.0394737 23.4136842,17.1578947 21.5789474,17.1578947 Z M39.2631579,17.8157895 C38.0473684,17.8157895 37.0526316,18.4078947 37.0526316,19.1315789 C37.0526316,19.8552632 38.0473684,20.4473684 39.2631579,20.4473684 C40.4789474,20.4473684 41.4736842,19.8552632 41.4736842,19.1315789 C41.4736842,18.4078947 40.4789474,17.8157895 39.2631579,17.8157895 Z M39.2631579,23.0789474 C38.0473684,23.0789474 37.0526316,23.6710526 37.0526316,24.3947368 C37.0526316,25.1184211 38.0473684,25.7105263 39.2631579,25.7105263 C40.4789474,25.7105263 41.4736842,25.1184211 41.4736842,24.3947368 C41.4736842,23.6710526 40.4789474,23.0789474 39.2631579,23.0789474 Z M39.2631579,12.5526316 C38.0473684,12.5526316 37.0526316,13.1447368 37.0526316,13.8684211 C37.0526316,14.5921053 38.0473684,15.1842105 39.2631579,15.1842105 C40.4789474,15.1842105 41.4736842,14.5921053 41.4736842,13.8684211 C41.4736842,13.1447368 40.4789474,12.5526316 39.2631579,12.5526316 Z M39.2631579,7.28947368 C38.0473684,7.28947368 37.0526316,7.88157895 37.0526316,8.60526316 C37.0526316,9.32894737 38.0473684,9.92105263 39.2631579,9.92105263 C40.4789474,9.92105263 41.4736842,9.32894737 41.4736842,8.60526316 C41.4736842,7.88157895 40.4789474,7.28947368 39.2631579,7.28947368 Z M45.8947368,18.4736842 C45.2757895,18.4736842 44.7894737,18.7631579 44.7894737,19.1315789 C44.7894737,19.5 45.2757895,19.7894737 45.8947368,19.7894737 C46.5136842,19.7894737 47,19.5 47,19.1315789 C47,18.7631579 46.5136842,18.4736842 45.8947368,18.4736842 Z M30.4210526,23.0789474 C29.2052632,23.0789474 28.2105263,23.6710526 28.2105263,24.3947368 C28.2105263,25.1184211 29.2052632,25.7105263 30.4210526,25.7105263 C31.6368421,25.7105263 32.6315789,25.1184211 32.6315789,24.3947368 C32.6315789,23.6710526 31.6368421,23.0789474 30.4210526,23.0789474 Z M30.4210526,27.6842105 C29.8021053,27.6842105 29.3157895,27.9736842 29.3157895,28.3421053 C29.3157895,28.7105263 29.8021053,29 30.4210526,29 C31.04,29 31.5263158,28.7105263 31.5263158,28.3421053 C31.5263158,27.9736842 31.04,27.6842105 30.4210526,27.6842105 Z M21.5789474,11.8947368 C19.7442105,11.8947368 18.2631579,12.7763158 18.2631579,13.8684211 C18.2631579,14.9605263 19.7442105,15.8421053 21.5789474,15.8421053 C23.4136842,15.8421053 24.8947368,14.9605263 24.8947368,13.8684211 C24.8947368,12.7763158 23.4136842,11.8947368 21.5789474,11.8947368 Z M21.5789474,23.0789474 C20.3631579,23.0789474 19.3684211,23.6710526 19.3684211,24.3947368 C19.3684211,25.1184211 20.3631579,25.7105263 21.5789474,25.7105263 C22.7947368,25.7105263 23.7894737,25.1184211 23.7894737,24.3947368 C23.7894737,23.6710526 22.7947368,23.0789474 21.5789474,23.0789474 Z M30.4210526,17.1578947 C28.5863158,17.1578947 27.1052632,18.0394737 27.1052632,19.1315789 C27.1052632,20.2236842 28.5863158,21.1052632 30.4210526,21.1052632 C32.2557895,21.1052632 33.7368421,20.2236842 33.7368421,19.1315789 C33.7368421,18.0394737 32.2557895,17.1578947 30.4210526,17.1578947 Z M30.4210526,11.8947368 C28.5863158,11.8947368 27.1052632,12.7763158 27.1052632,13.8684211 C27.1052632,14.9605263 28.5863158,15.8421053 30.4210526,15.8421053 C32.2557895,15.8421053 33.7368421,14.9605263 33.7368421,13.8684211 C33.7368421,12.7763158 32.2557895,11.8947368 30.4210526,11.8947368 Z" id="Shape" fill="#FFFFFF" fill-rule="nonzero"></path>
                                    <polygon id="Shape" points="0 0 52 0 52 31 0 31"></polygon>
                                </g>
                            </g>
                        </g>
                        <g id="Rectangle-7_Isometric" filter="url(#filter-3)" transform="translate(291.000000, 167.000000)">
                            <polygon id="Rectangle-7_Left_Isometric" fill="#616161" points="70 84 0 49 0 35 70 70"></polygon>
                            <polygon id="Rectangle-7_Right_Isometric" fill="#9C9C9C" points="70 84 140 49 140 35 70 70"></polygon>
                            <polygon id="Rectangle-7_Top_Isometric" fill="#3A97F7" points="0 35 70 0 140 35 70 70"></polygon>
                            <g id="contracts" transform="translate(42.000000, 18.000000)" opacity="0.300000012">
                                <g id="ic_blur_on_24px">
                                    <path d="M12.7368421,17.8157895 C11.5210526,17.8157895 10.5263158,18.4078947 10.5263158,19.1315789 C10.5263158,19.8552632 11.5210526,20.4473684 12.7368421,20.4473684 C13.9526316,20.4473684 14.9473684,19.8552632 14.9473684,19.1315789 C14.9473684,18.4078947 13.9526316,17.8157895 12.7368421,17.8157895 Z M12.7368421,23.0789474 C11.5210526,23.0789474 10.5263158,23.6710526 10.5263158,24.3947368 C10.5263158,25.1184211 11.5210526,25.7105263 12.7368421,25.7105263 C13.9526316,25.7105263 14.9473684,25.1184211 14.9473684,24.3947368 C14.9473684,23.6710526 13.9526316,23.0789474 12.7368421,23.0789474 Z M12.7368421,12.5526316 C11.5210526,12.5526316 10.5263158,13.1447368 10.5263158,13.8684211 C10.5263158,14.5921053 11.5210526,15.1842105 12.7368421,15.1842105 C13.9526316,15.1842105 14.9473684,14.5921053 14.9473684,13.8684211 C14.9473684,13.1447368 13.9526316,12.5526316 12.7368421,12.5526316 Z M6.10526316,13.2105263 C5.48631579,13.2105263 5,13.5 5,13.8684211 C5,14.2368421 5.48631579,14.5263158 6.10526316,14.5263158 C6.72421053,14.5263158 7.21052632,14.2368421 7.21052632,13.8684211 C7.21052632,13.5 6.72421053,13.2105263 6.10526316,13.2105263 Z M12.7368421,7.28947368 C11.5210526,7.28947368 10.5263158,7.88157895 10.5263158,8.60526316 C10.5263158,9.32894737 11.5210526,9.92105263 12.7368421,9.92105263 C13.9526316,9.92105263 14.9473684,9.32894737 14.9473684,8.60526316 C14.9473684,7.88157895 13.9526316,7.28947368 12.7368421,7.28947368 Z M45.8947368,14.5263158 C46.5136842,14.5263158 47,14.2368421 47,13.8684211 C47,13.5 46.5136842,13.2105263 45.8947368,13.2105263 C45.2757895,13.2105263 44.7894737,13.5 44.7894737,13.8684211 C44.7894737,14.2368421 45.2757895,14.5263158 45.8947368,14.5263158 Z M30.4210526,9.92105263 C31.6368421,9.92105263 32.6315789,9.32894737 32.6315789,8.60526316 C32.6315789,7.88157895 31.6368421,7.28947368 30.4210526,7.28947368 C29.2052632,7.28947368 28.2105263,7.88157895 28.2105263,8.60526316 C28.2105263,9.32894737 29.2052632,9.92105263 30.4210526,9.92105263 Z M30.4210526,5.31578947 C31.04,5.31578947 31.5263158,5.02631579 31.5263158,4.65789474 C31.5263158,4.28947368 31.04,4 30.4210526,4 C29.8021053,4 29.3157895,4.28947368 29.3157895,4.65789474 C29.3157895,5.02631579 29.8021053,5.31578947 30.4210526,5.31578947 Z M6.10526316,18.4736842 C5.48631579,18.4736842 5,18.7631579 5,19.1315789 C5,19.5 5.48631579,19.7894737 6.10526316,19.7894737 C6.72421053,19.7894737 7.21052632,19.5 7.21052632,19.1315789 C7.21052632,18.7631579 6.72421053,18.4736842 6.10526316,18.4736842 Z M21.5789474,27.6842105 C20.96,27.6842105 20.4736842,27.9736842 20.4736842,28.3421053 C20.4736842,28.7105263 20.96,29 21.5789474,29 C22.1978947,29 22.6842105,28.7105263 22.6842105,28.3421053 C22.6842105,27.9736842 22.1978947,27.6842105 21.5789474,27.6842105 Z M21.5789474,5.31578947 C22.1978947,5.31578947 22.6842105,5.02631579 22.6842105,4.65789474 C22.6842105,4.28947368 22.1978947,4 21.5789474,4 C20.96,4 20.4736842,4.28947368 20.4736842,4.65789474 C20.4736842,5.02631579 20.96,5.31578947 21.5789474,5.31578947 Z M21.5789474,9.92105263 C22.7947368,9.92105263 23.7894737,9.32894737 23.7894737,8.60526316 C23.7894737,7.88157895 22.7947368,7.28947368 21.5789474,7.28947368 C20.3631579,7.28947368 19.3684211,7.88157895 19.3684211,8.60526316 C19.3684211,9.32894737 20.3631579,9.92105263 21.5789474,9.92105263 Z M21.5789474,17.1578947 C19.7442105,17.1578947 18.2631579,18.0394737 18.2631579,19.1315789 C18.2631579,20.2236842 19.7442105,21.1052632 21.5789474,21.1052632 C23.4136842,21.1052632 24.8947368,20.2236842 24.8947368,19.1315789 C24.8947368,18.0394737 23.4136842,17.1578947 21.5789474,17.1578947 Z M39.2631579,17.8157895 C38.0473684,17.8157895 37.0526316,18.4078947 37.0526316,19.1315789 C37.0526316,19.8552632 38.0473684,20.4473684 39.2631579,20.4473684 C40.4789474,20.4473684 41.4736842,19.8552632 41.4736842,19.1315789 C41.4736842,18.4078947 40.4789474,17.8157895 39.2631579,17.8157895 Z M39.2631579,23.0789474 C38.0473684,23.0789474 37.0526316,23.6710526 37.0526316,24.3947368 C37.0526316,25.1184211 38.0473684,25.7105263 39.2631579,25.7105263 C40.4789474,25.7105263 41.4736842,25.1184211 41.4736842,24.3947368 C41.4736842,23.6710526 40.4789474,23.0789474 39.2631579,23.0789474 Z M39.2631579,12.5526316 C38.0473684,12.5526316 37.0526316,13.1447368 37.0526316,13.8684211 C37.0526316,14.5921053 38.0473684,15.1842105 39.2631579,15.1842105 C40.4789474,15.1842105 41.4736842,14.5921053 41.4736842,13.8684211 C41.4736842,13.1447368 40.4789474,12.5526316 39.2631579,12.5526316 Z M39.2631579,7.28947368 C38.0473684,7.28947368 37.0526316,7.88157895 37.0526316,8.60526316 C37.0526316,9.32894737 38.0473684,9.92105263 39.2631579,9.92105263 C40.4789474,9.92105263 41.4736842,9.32894737 41.4736842,8.60526316 C41.4736842,7.88157895 40.4789474,7.28947368 39.2631579,7.28947368 Z M45.8947368,18.4736842 C45.2757895,18.4736842 44.7894737,18.7631579 44.7894737,19.1315789 C44.7894737,19.5 45.2757895,19.7894737 45.8947368,19.7894737 C46.5136842,19.7894737 47,19.5 47,19.1315789 C47,18.7631579 46.5136842,18.4736842 45.8947368,18.4736842 Z M30.4210526,23.0789474 C29.2052632,23.0789474 28.2105263,23.6710526 28.2105263,24.3947368 C28.2105263,25.1184211 29.2052632,25.7105263 30.4210526,25.7105263 C31.6368421,25.7105263 32.6315789,25.1184211 32.6315789,24.3947368 C32.6315789,23.6710526 31.6368421,23.0789474 30.4210526,23.0789474 Z M30.4210526,27.6842105 C29.8021053,27.6842105 29.3157895,27.9736842 29.3157895,28.3421053 C29.3157895,28.7105263 29.8021053,29 30.4210526,29 C31.04,29 31.5263158,28.7105263 31.5263158,28.3421053 C31.5263158,27.9736842 31.04,27.6842105 30.4210526,27.6842105 Z M21.5789474,11.8947368 C19.7442105,11.8947368 18.2631579,12.7763158 18.2631579,13.8684211 C18.2631579,14.9605263 19.7442105,15.8421053 21.5789474,15.8421053 C23.4136842,15.8421053 24.8947368,14.9605263 24.8947368,13.8684211 C24.8947368,12.7763158 23.4136842,11.8947368 21.5789474,11.8947368 Z M21.5789474,23.0789474 C20.3631579,23.0789474 19.3684211,23.6710526 19.3684211,24.3947368 C19.3684211,25.1184211 20.3631579,25.7105263 21.5789474,25.7105263 C22.7947368,25.7105263 23.7894737,25.1184211 23.7894737,24.3947368 C23.7894737,23.6710526 22.7947368,23.0789474 21.5789474,23.0789474 Z M30.4210526,17.1578947 C28.5863158,17.1578947 27.1052632,18.0394737 27.1052632,19.1315789 C27.1052632,20.2236842 28.5863158,21.1052632 30.4210526,21.1052632 C32.2557895,21.1052632 33.7368421,20.2236842 33.7368421,19.1315789 C33.7368421,18.0394737 32.2557895,17.1578947 30.4210526,17.1578947 Z M30.4210526,11.8947368 C28.5863158,11.8947368 27.1052632,12.7763158 27.1052632,13.8684211 C27.1052632,14.9605263 28.5863158,15.8421053 30.4210526,15.8421053 C32.2557895,15.8421053 33.7368421,14.9605263 33.7368421,13.8684211 C33.7368421,12.7763158 32.2557895,11.8947368 30.4210526,11.8947368 Z" id="Shape" fill="#FFFFFF" fill-rule="nonzero"></path>
                                    <polygon id="Shape" points="0 0 52 0 52 31 0 31"></polygon>
                                </g>
                            </g>
                        </g>
                        <g id="Rectangle-7_Isometric" filter="url(#filter-4)" transform="translate(286.000000, 48.000000)">
                            <polygon id="Rectangle-7_Left_Isometric" fill="#616161" points="70 84 0 49 0 35 70 70"></polygon>
                            <polygon id="Rectangle-7_Right_Isometric" fill="#9C9C9C" points="70 84 140 49 140 35 70 70"></polygon>
                            <polygon id="Rectangle-7_Top_Isometric" fill="#3A97F7" points="0 35 70 0 140 35 70 70"></polygon>
                            <g id="contracts" transform="translate(43.000000, 17.000000)" opacity="0.300000012">
                                <g id="ic_blur_on_24px">
                                    <path d="M12.7368421,17.8157895 C11.5210526,17.8157895 10.5263158,18.4078947 10.5263158,19.1315789 C10.5263158,19.8552632 11.5210526,20.4473684 12.7368421,20.4473684 C13.9526316,20.4473684 14.9473684,19.8552632 14.9473684,19.1315789 C14.9473684,18.4078947 13.9526316,17.8157895 12.7368421,17.8157895 Z M12.7368421,23.0789474 C11.5210526,23.0789474 10.5263158,23.6710526 10.5263158,24.3947368 C10.5263158,25.1184211 11.5210526,25.7105263 12.7368421,25.7105263 C13.9526316,25.7105263 14.9473684,25.1184211 14.9473684,24.3947368 C14.9473684,23.6710526 13.9526316,23.0789474 12.7368421,23.0789474 Z M12.7368421,12.5526316 C11.5210526,12.5526316 10.5263158,13.1447368 10.5263158,13.8684211 C10.5263158,14.5921053 11.5210526,15.1842105 12.7368421,15.1842105 C13.9526316,15.1842105 14.9473684,14.5921053 14.9473684,13.8684211 C14.9473684,13.1447368 13.9526316,12.5526316 12.7368421,12.5526316 Z M6.10526316,13.2105263 C5.48631579,13.2105263 5,13.5 5,13.8684211 C5,14.2368421 5.48631579,14.5263158 6.10526316,14.5263158 C6.72421053,14.5263158 7.21052632,14.2368421 7.21052632,13.8684211 C7.21052632,13.5 6.72421053,13.2105263 6.10526316,13.2105263 Z M12.7368421,7.28947368 C11.5210526,7.28947368 10.5263158,7.88157895 10.5263158,8.60526316 C10.5263158,9.32894737 11.5210526,9.92105263 12.7368421,9.92105263 C13.9526316,9.92105263 14.9473684,9.32894737 14.9473684,8.60526316 C14.9473684,7.88157895 13.9526316,7.28947368 12.7368421,7.28947368 Z M45.8947368,14.5263158 C46.5136842,14.5263158 47,14.2368421 47,13.8684211 C47,13.5 46.5136842,13.2105263 45.8947368,13.2105263 C45.2757895,13.2105263 44.7894737,13.5 44.7894737,13.8684211 C44.7894737,14.2368421 45.2757895,14.5263158 45.8947368,14.5263158 Z M30.4210526,9.92105263 C31.6368421,9.92105263 32.6315789,9.32894737 32.6315789,8.60526316 C32.6315789,7.88157895 31.6368421,7.28947368 30.4210526,7.28947368 C29.2052632,7.28947368 28.2105263,7.88157895 28.2105263,8.60526316 C28.2105263,9.32894737 29.2052632,9.92105263 30.4210526,9.92105263 Z M30.4210526,5.31578947 C31.04,5.31578947 31.5263158,5.02631579 31.5263158,4.65789474 C31.5263158,4.28947368 31.04,4 30.4210526,4 C29.8021053,4 29.3157895,4.28947368 29.3157895,4.65789474 C29.3157895,5.02631579 29.8021053,5.31578947 30.4210526,5.31578947 Z M6.10526316,18.4736842 C5.48631579,18.4736842 5,18.7631579 5,19.1315789 C5,19.5 5.48631579,19.7894737 6.10526316,19.7894737 C6.72421053,19.7894737 7.21052632,19.5 7.21052632,19.1315789 C7.21052632,18.7631579 6.72421053,18.4736842 6.10526316,18.4736842 Z M21.5789474,27.6842105 C20.96,27.6842105 20.4736842,27.9736842 20.4736842,28.3421053 C20.4736842,28.7105263 20.96,29 21.5789474,29 C22.1978947,29 22.6842105,28.7105263 22.6842105,28.3421053 C22.6842105,27.9736842 22.1978947,27.6842105 21.5789474,27.6842105 Z M21.5789474,5.31578947 C22.1978947,5.31578947 22.6842105,5.02631579 22.6842105,4.65789474 C22.6842105,4.28947368 22.1978947,4 21.5789474,4 C20.96,4 20.4736842,4.28947368 20.4736842,4.65789474 C20.4736842,5.02631579 20.96,5.31578947 21.5789474,5.31578947 Z M21.5789474,9.92105263 C22.7947368,9.92105263 23.7894737,9.32894737 23.7894737,8.60526316 C23.7894737,7.88157895 22.7947368,7.28947368 21.5789474,7.28947368 C20.3631579,7.28947368 19.3684211,7.88157895 19.3684211,8.60526316 C19.3684211,9.32894737 20.3631579,9.92105263 21.5789474,9.92105263 Z M21.5789474,17.1578947 C19.7442105,17.1578947 18.2631579,18.0394737 18.2631579,19.1315789 C18.2631579,20.2236842 19.7442105,21.1052632 21.5789474,21.1052632 C23.4136842,21.1052632 24.8947368,20.2236842 24.8947368,19.1315789 C24.8947368,18.0394737 23.4136842,17.1578947 21.5789474,17.1578947 Z M39.2631579,17.8157895 C38.0473684,17.8157895 37.0526316,18.4078947 37.0526316,19.1315789 C37.0526316,19.8552632 38.0473684,20.4473684 39.2631579,20.4473684 C40.4789474,20.4473684 41.4736842,19.8552632 41.4736842,19.1315789 C41.4736842,18.4078947 40.4789474,17.8157895 39.2631579,17.8157895 Z M39.2631579,23.0789474 C38.0473684,23.0789474 37.0526316,23.6710526 37.0526316,24.3947368 C37.0526316,25.1184211 38.0473684,25.7105263 39.2631579,25.7105263 C40.4789474,25.7105263 41.4736842,25.1184211 41.4736842,24.3947368 C41.4736842,23.6710526 40.4789474,23.0789474 39.2631579,23.0789474 Z M39.2631579,12.5526316 C38.0473684,12.5526316 37.0526316,13.1447368 37.0526316,13.8684211 C37.0526316,14.5921053 38.0473684,15.1842105 39.2631579,15.1842105 C40.4789474,15.1842105 41.4736842,14.5921053 41.4736842,13.8684211 C41.4736842,13.1447368 40.4789474,12.5526316 39.2631579,12.5526316 Z M39.2631579,7.28947368 C38.0473684,7.28947368 37.0526316,7.88157895 37.0526316,8.60526316 C37.0526316,9.32894737 38.0473684,9.92105263 39.2631579,9.92105263 C40.4789474,9.92105263 41.4736842,9.32894737 41.4736842,8.60526316 C41.4736842,7.88157895 40.4789474,7.28947368 39.2631579,7.28947368 Z M45.8947368,18.4736842 C45.2757895,18.4736842 44.7894737,18.7631579 44.7894737,19.1315789 C44.7894737,19.5 45.2757895,19.7894737 45.8947368,19.7894737 C46.5136842,19.7894737 47,19.5 47,19.1315789 C47,18.7631579 46.5136842,18.4736842 45.8947368,18.4736842 Z M30.4210526,23.0789474 C29.2052632,23.0789474 28.2105263,23.6710526 28.2105263,24.3947368 C28.2105263,25.1184211 29.2052632,25.7105263 30.4210526,25.7105263 C31.6368421,25.7105263 32.6315789,25.1184211 32.6315789,24.3947368 C32.6315789,23.6710526 31.6368421,23.0789474 30.4210526,23.0789474 Z M30.4210526,27.6842105 C29.8021053,27.6842105 29.3157895,27.9736842 29.3157895,28.3421053 C29.3157895,28.7105263 29.8021053,29 30.4210526,29 C31.04,29 31.5263158,28.7105263 31.5263158,28.3421053 C31.5263158,27.9736842 31.04,27.6842105 30.4210526,27.6842105 Z M21.5789474,11.8947368 C19.7442105,11.8947368 18.2631579,12.7763158 18.2631579,13.8684211 C18.2631579,14.9605263 19.7442105,15.8421053 21.5789474,15.8421053 C23.4136842,15.8421053 24.8947368,14.9605263 24.8947368,13.8684211 C24.8947368,12.7763158 23.4136842,11.8947368 21.5789474,11.8947368 Z M21.5789474,23.0789474 C20.3631579,23.0789474 19.3684211,23.6710526 19.3684211,24.3947368 C19.3684211,25.1184211 20.3631579,25.7105263 21.5789474,25.7105263 C22.7947368,25.7105263 23.7894737,25.1184211 23.7894737,24.3947368 C23.7894737,23.6710526 22.7947368,23.0789474 21.5789474,23.0789474 Z M30.4210526,17.1578947 C28.5863158,17.1578947 27.1052632,18.0394737 27.1052632,19.1315789 C27.1052632,20.2236842 28.5863158,21.1052632 30.4210526,21.1052632 C32.2557895,21.1052632 33.7368421,20.2236842 33.7368421,19.1315789 C33.7368421,18.0394737 32.2557895,17.1578947 30.4210526,17.1578947 Z M30.4210526,11.8947368 C28.5863158,11.8947368 27.1052632,12.7763158 27.1052632,13.8684211 C27.1052632,14.9605263 28.5863158,15.8421053 30.4210526,15.8421053 C32.2557895,15.8421053 33.7368421,14.9605263 33.7368421,13.8684211 C33.7368421,12.7763158 32.2557895,11.8947368 30.4210526,11.8947368 Z" id="Shape" fill="#FFFFFF" fill-rule="nonzero"></path>
                                    <polygon id="Shape" points="0 0 52 0 52 31 0 31"></polygon>
                                </g>
                            </g>
                        </g>
                        <g id="Rectangle-7_Isometric" filter="url(#filter-5)" transform="translate(384.000000, 95.000000)">
                            <polygon id="Rectangle-7_Left_Isometric" fill="#616161" points="70 84 0 49 0 35 70 70"></polygon>
                            <polygon id="Rectangle-7_Right_Isometric" fill="#9C9C9C" points="70 84 140 49 140 35 70 70"></polygon>
                            <polygon id="Rectangle-7_Top_Isometric" fill="#3A97F7" points="0 35 70 0 140 35 70 70"></polygon>
                            <g id="contracts" transform="translate(44.000000, 18.000000)" opacity="0.300000012">
                                <g id="ic_blur_on_24px">
                                    <path d="M12.7368421,17.8157895 C11.5210526,17.8157895 10.5263158,18.4078947 10.5263158,19.1315789 C10.5263158,19.8552632 11.5210526,20.4473684 12.7368421,20.4473684 C13.9526316,20.4473684 14.9473684,19.8552632 14.9473684,19.1315789 C14.9473684,18.4078947 13.9526316,17.8157895 12.7368421,17.8157895 Z M12.7368421,23.0789474 C11.5210526,23.0789474 10.5263158,23.6710526 10.5263158,24.3947368 C10.5263158,25.1184211 11.5210526,25.7105263 12.7368421,25.7105263 C13.9526316,25.7105263 14.9473684,25.1184211 14.9473684,24.3947368 C14.9473684,23.6710526 13.9526316,23.0789474 12.7368421,23.0789474 Z M12.7368421,12.5526316 C11.5210526,12.5526316 10.5263158,13.1447368 10.5263158,13.8684211 C10.5263158,14.5921053 11.5210526,15.1842105 12.7368421,15.1842105 C13.9526316,15.1842105 14.9473684,14.5921053 14.9473684,13.8684211 C14.9473684,13.1447368 13.9526316,12.5526316 12.7368421,12.5526316 Z M6.10526316,13.2105263 C5.48631579,13.2105263 5,13.5 5,13.8684211 C5,14.2368421 5.48631579,14.5263158 6.10526316,14.5263158 C6.72421053,14.5263158 7.21052632,14.2368421 7.21052632,13.8684211 C7.21052632,13.5 6.72421053,13.2105263 6.10526316,13.2105263 Z M12.7368421,7.28947368 C11.5210526,7.28947368 10.5263158,7.88157895 10.5263158,8.60526316 C10.5263158,9.32894737 11.5210526,9.92105263 12.7368421,9.92105263 C13.9526316,9.92105263 14.9473684,9.32894737 14.9473684,8.60526316 C14.9473684,7.88157895 13.9526316,7.28947368 12.7368421,7.28947368 Z M45.8947368,14.5263158 C46.5136842,14.5263158 47,14.2368421 47,13.8684211 C47,13.5 46.5136842,13.2105263 45.8947368,13.2105263 C45.2757895,13.2105263 44.7894737,13.5 44.7894737,13.8684211 C44.7894737,14.2368421 45.2757895,14.5263158 45.8947368,14.5263158 Z M30.4210526,9.92105263 C31.6368421,9.92105263 32.6315789,9.32894737 32.6315789,8.60526316 C32.6315789,7.88157895 31.6368421,7.28947368 30.4210526,7.28947368 C29.2052632,7.28947368 28.2105263,7.88157895 28.2105263,8.60526316 C28.2105263,9.32894737 29.2052632,9.92105263 30.4210526,9.92105263 Z M30.4210526,5.31578947 C31.04,5.31578947 31.5263158,5.02631579 31.5263158,4.65789474 C31.5263158,4.28947368 31.04,4 30.4210526,4 C29.8021053,4 29.3157895,4.28947368 29.3157895,4.65789474 C29.3157895,5.02631579 29.8021053,5.31578947 30.4210526,5.31578947 Z M6.10526316,18.4736842 C5.48631579,18.4736842 5,18.7631579 5,19.1315789 C5,19.5 5.48631579,19.7894737 6.10526316,19.7894737 C6.72421053,19.7894737 7.21052632,19.5 7.21052632,19.1315789 C7.21052632,18.7631579 6.72421053,18.4736842 6.10526316,18.4736842 Z M21.5789474,27.6842105 C20.96,27.6842105 20.4736842,27.9736842 20.4736842,28.3421053 C20.4736842,28.7105263 20.96,29 21.5789474,29 C22.1978947,29 22.6842105,28.7105263 22.6842105,28.3421053 C22.6842105,27.9736842 22.1978947,27.6842105 21.5789474,27.6842105 Z M21.5789474,5.31578947 C22.1978947,5.31578947 22.6842105,5.02631579 22.6842105,4.65789474 C22.6842105,4.28947368 22.1978947,4 21.5789474,4 C20.96,4 20.4736842,4.28947368 20.4736842,4.65789474 C20.4736842,5.02631579 20.96,5.31578947 21.5789474,5.31578947 Z M21.5789474,9.92105263 C22.7947368,9.92105263 23.7894737,9.32894737 23.7894737,8.60526316 C23.7894737,7.88157895 22.7947368,7.28947368 21.5789474,7.28947368 C20.3631579,7.28947368 19.3684211,7.88157895 19.3684211,8.60526316 C19.3684211,9.32894737 20.3631579,9.92105263 21.5789474,9.92105263 Z M21.5789474,17.1578947 C19.7442105,17.1578947 18.2631579,18.0394737 18.2631579,19.1315789 C18.2631579,20.2236842 19.7442105,21.1052632 21.5789474,21.1052632 C23.4136842,21.1052632 24.8947368,20.2236842 24.8947368,19.1315789 C24.8947368,18.0394737 23.4136842,17.1578947 21.5789474,17.1578947 Z M39.2631579,17.8157895 C38.0473684,17.8157895 37.0526316,18.4078947 37.0526316,19.1315789 C37.0526316,19.8552632 38.0473684,20.4473684 39.2631579,20.4473684 C40.4789474,20.4473684 41.4736842,19.8552632 41.4736842,19.1315789 C41.4736842,18.4078947 40.4789474,17.8157895 39.2631579,17.8157895 Z M39.2631579,23.0789474 C38.0473684,23.0789474 37.0526316,23.6710526 37.0526316,24.3947368 C37.0526316,25.1184211 38.0473684,25.7105263 39.2631579,25.7105263 C40.4789474,25.7105263 41.4736842,25.1184211 41.4736842,24.3947368 C41.4736842,23.6710526 40.4789474,23.0789474 39.2631579,23.0789474 Z M39.2631579,12.5526316 C38.0473684,12.5526316 37.0526316,13.1447368 37.0526316,13.8684211 C37.0526316,14.5921053 38.0473684,15.1842105 39.2631579,15.1842105 C40.4789474,15.1842105 41.4736842,14.5921053 41.4736842,13.8684211 C41.4736842,13.1447368 40.4789474,12.5526316 39.2631579,12.5526316 Z M39.2631579,7.28947368 C38.0473684,7.28947368 37.0526316,7.88157895 37.0526316,8.60526316 C37.0526316,9.32894737 38.0473684,9.92105263 39.2631579,9.92105263 C40.4789474,9.92105263 41.4736842,9.32894737 41.4736842,8.60526316 C41.4736842,7.88157895 40.4789474,7.28947368 39.2631579,7.28947368 Z M45.8947368,18.4736842 C45.2757895,18.4736842 44.7894737,18.7631579 44.7894737,19.1315789 C44.7894737,19.5 45.2757895,19.7894737 45.8947368,19.7894737 C46.5136842,19.7894737 47,19.5 47,19.1315789 C47,18.7631579 46.5136842,18.4736842 45.8947368,18.4736842 Z M30.4210526,23.0789474 C29.2052632,23.0789474 28.2105263,23.6710526 28.2105263,24.3947368 C28.2105263,25.1184211 29.2052632,25.7105263 30.4210526,25.7105263 C31.6368421,25.7105263 32.6315789,25.1184211 32.6315789,24.3947368 C32.6315789,23.6710526 31.6368421,23.0789474 30.4210526,23.0789474 Z M30.4210526,27.6842105 C29.8021053,27.6842105 29.3157895,27.9736842 29.3157895,28.3421053 C29.3157895,28.7105263 29.8021053,29 30.4210526,29 C31.04,29 31.5263158,28.7105263 31.5263158,28.3421053 C31.5263158,27.9736842 31.04,27.6842105 30.4210526,27.6842105 Z M21.5789474,11.8947368 C19.7442105,11.8947368 18.2631579,12.7763158 18.2631579,13.8684211 C18.2631579,14.9605263 19.7442105,15.8421053 21.5789474,15.8421053 C23.4136842,15.8421053 24.8947368,14.9605263 24.8947368,13.8684211 C24.8947368,12.7763158 23.4136842,11.8947368 21.5789474,11.8947368 Z M21.5789474,23.0789474 C20.3631579,23.0789474 19.3684211,23.6710526 19.3684211,24.3947368 C19.3684211,25.1184211 20.3631579,25.7105263 21.5789474,25.7105263 C22.7947368,25.7105263 23.7894737,25.1184211 23.7894737,24.3947368 C23.7894737,23.6710526 22.7947368,23.0789474 21.5789474,23.0789474 Z M30.4210526,17.1578947 C28.5863158,17.1578947 27.1052632,18.0394737 27.1052632,19.1315789 C27.1052632,20.2236842 28.5863158,21.1052632 30.4210526,21.1052632 C32.2557895,21.1052632 33.7368421,20.2236842 33.7368421,19.1315789 C33.7368421,18.0394737 32.2557895,17.1578947 30.4210526,17.1578947 Z M30.4210526,11.8947368 C28.5863158,11.8947368 27.1052632,12.7763158 27.1052632,13.8684211 C27.1052632,14.9605263 28.5863158,15.8421053 30.4210526,15.8421053 C32.2557895,15.8421053 33.7368421,14.9605263 33.7368421,13.8684211 C33.7368421,12.7763158 32.2557895,11.8947368 30.4210526,11.8947368 Z" id="Shape" fill="#FFFFFF" fill-rule="nonzero"></path>
                                    <polygon id="Shape" points="0 0 52 0 52 31 0 31"></polygon>
                                </g>
                            </g>
                        </g>
                        <g id="Rectangle-7_Isometric" filter="url(#filter-6)" transform="translate(193.000000, 0.000000)">
                            <polygon id="Rectangle-7_Left_Isometric" fill="#616161" points="70 84 0 49 0 35 70 70"></polygon>
                            <polygon id="Rectangle-7_Right_Isometric" fill="#9C9C9C" points="70 84 140 49 140 35 70 70"></polygon>
                            <polygon id="Rectangle-7_Top_Isometric" fill="#3A97F7" points="0 35 70 0 140 35 70 70"></polygon>
                            <g id="contracts" transform="translate(41.000000, 16.000000)" opacity="0.300000012">
                                <g id="ic_blur_on_24px">
                                    <path d="M12.7368421,17.8157895 C11.5210526,17.8157895 10.5263158,18.4078947 10.5263158,19.1315789 C10.5263158,19.8552632 11.5210526,20.4473684 12.7368421,20.4473684 C13.9526316,20.4473684 14.9473684,19.8552632 14.9473684,19.1315789 C14.9473684,18.4078947 13.9526316,17.8157895 12.7368421,17.8157895 Z M12.7368421,23.0789474 C11.5210526,23.0789474 10.5263158,23.6710526 10.5263158,24.3947368 C10.5263158,25.1184211 11.5210526,25.7105263 12.7368421,25.7105263 C13.9526316,25.7105263 14.9473684,25.1184211 14.9473684,24.3947368 C14.9473684,23.6710526 13.9526316,23.0789474 12.7368421,23.0789474 Z M12.7368421,12.5526316 C11.5210526,12.5526316 10.5263158,13.1447368 10.5263158,13.8684211 C10.5263158,14.5921053 11.5210526,15.1842105 12.7368421,15.1842105 C13.9526316,15.1842105 14.9473684,14.5921053 14.9473684,13.8684211 C14.9473684,13.1447368 13.9526316,12.5526316 12.7368421,12.5526316 Z M6.10526316,13.2105263 C5.48631579,13.2105263 5,13.5 5,13.8684211 C5,14.2368421 5.48631579,14.5263158 6.10526316,14.5263158 C6.72421053,14.5263158 7.21052632,14.2368421 7.21052632,13.8684211 C7.21052632,13.5 6.72421053,13.2105263 6.10526316,13.2105263 Z M12.7368421,7.28947368 C11.5210526,7.28947368 10.5263158,7.88157895 10.5263158,8.60526316 C10.5263158,9.32894737 11.5210526,9.92105263 12.7368421,9.92105263 C13.9526316,9.92105263 14.9473684,9.32894737 14.9473684,8.60526316 C14.9473684,7.88157895 13.9526316,7.28947368 12.7368421,7.28947368 Z M45.8947368,14.5263158 C46.5136842,14.5263158 47,14.2368421 47,13.8684211 C47,13.5 46.5136842,13.2105263 45.8947368,13.2105263 C45.2757895,13.2105263 44.7894737,13.5 44.7894737,13.8684211 C44.7894737,14.2368421 45.2757895,14.5263158 45.8947368,14.5263158 Z M30.4210526,9.92105263 C31.6368421,9.92105263 32.6315789,9.32894737 32.6315789,8.60526316 C32.6315789,7.88157895 31.6368421,7.28947368 30.4210526,7.28947368 C29.2052632,7.28947368 28.2105263,7.88157895 28.2105263,8.60526316 C28.2105263,9.32894737 29.2052632,9.92105263 30.4210526,9.92105263 Z M30.4210526,5.31578947 C31.04,5.31578947 31.5263158,5.02631579 31.5263158,4.65789474 C31.5263158,4.28947368 31.04,4 30.4210526,4 C29.8021053,4 29.3157895,4.28947368 29.3157895,4.65789474 C29.3157895,5.02631579 29.8021053,5.31578947 30.4210526,5.31578947 Z M6.10526316,18.4736842 C5.48631579,18.4736842 5,18.7631579 5,19.1315789 C5,19.5 5.48631579,19.7894737 6.10526316,19.7894737 C6.72421053,19.7894737 7.21052632,19.5 7.21052632,19.1315789 C7.21052632,18.7631579 6.72421053,18.4736842 6.10526316,18.4736842 Z M21.5789474,27.6842105 C20.96,27.6842105 20.4736842,27.9736842 20.4736842,28.3421053 C20.4736842,28.7105263 20.96,29 21.5789474,29 C22.1978947,29 22.6842105,28.7105263 22.6842105,28.3421053 C22.6842105,27.9736842 22.1978947,27.6842105 21.5789474,27.6842105 Z M21.5789474,5.31578947 C22.1978947,5.31578947 22.6842105,5.02631579 22.6842105,4.65789474 C22.6842105,4.28947368 22.1978947,4 21.5789474,4 C20.96,4 20.4736842,4.28947368 20.4736842,4.65789474 C20.4736842,5.02631579 20.96,5.31578947 21.5789474,5.31578947 Z M21.5789474,9.92105263 C22.7947368,9.92105263 23.7894737,9.32894737 23.7894737,8.60526316 C23.7894737,7.88157895 22.7947368,7.28947368 21.5789474,7.28947368 C20.3631579,7.28947368 19.3684211,7.88157895 19.3684211,8.60526316 C19.3684211,9.32894737 20.3631579,9.92105263 21.5789474,9.92105263 Z M21.5789474,17.1578947 C19.7442105,17.1578947 18.2631579,18.0394737 18.2631579,19.1315789 C18.2631579,20.2236842 19.7442105,21.1052632 21.5789474,21.1052632 C23.4136842,21.1052632 24.8947368,20.2236842 24.8947368,19.1315789 C24.8947368,18.0394737 23.4136842,17.1578947 21.5789474,17.1578947 Z M39.2631579,17.8157895 C38.0473684,17.8157895 37.0526316,18.4078947 37.0526316,19.1315789 C37.0526316,19.8552632 38.0473684,20.4473684 39.2631579,20.4473684 C40.4789474,20.4473684 41.4736842,19.8552632 41.4736842,19.1315789 C41.4736842,18.4078947 40.4789474,17.8157895 39.2631579,17.8157895 Z M39.2631579,23.0789474 C38.0473684,23.0789474 37.0526316,23.6710526 37.0526316,24.3947368 C37.0526316,25.1184211 38.0473684,25.7105263 39.2631579,25.7105263 C40.4789474,25.7105263 41.4736842,25.1184211 41.4736842,24.3947368 C41.4736842,23.6710526 40.4789474,23.0789474 39.2631579,23.0789474 Z M39.2631579,12.5526316 C38.0473684,12.5526316 37.0526316,13.1447368 37.0526316,13.8684211 C37.0526316,14.5921053 38.0473684,15.1842105 39.2631579,15.1842105 C40.4789474,15.1842105 41.4736842,14.5921053 41.4736842,13.8684211 C41.4736842,13.1447368 40.4789474,12.5526316 39.2631579,12.5526316 Z M39.2631579,7.28947368 C38.0473684,7.28947368 37.0526316,7.88157895 37.0526316,8.60526316 C37.0526316,9.32894737 38.0473684,9.92105263 39.2631579,9.92105263 C40.4789474,9.92105263 41.4736842,9.32894737 41.4736842,8.60526316 C41.4736842,7.88157895 40.4789474,7.28947368 39.2631579,7.28947368 Z M45.8947368,18.4736842 C45.2757895,18.4736842 44.7894737,18.7631579 44.7894737,19.1315789 C44.7894737,19.5 45.2757895,19.7894737 45.8947368,19.7894737 C46.5136842,19.7894737 47,19.5 47,19.1315789 C47,18.7631579 46.5136842,18.4736842 45.8947368,18.4736842 Z M30.4210526,23.0789474 C29.2052632,23.0789474 28.2105263,23.6710526 28.2105263,24.3947368 C28.2105263,25.1184211 29.2052632,25.7105263 30.4210526,25.7105263 C31.6368421,25.7105263 32.6315789,25.1184211 32.6315789,24.3947368 C32.6315789,23.6710526 31.6368421,23.0789474 30.4210526,23.0789474 Z M30.4210526,27.6842105 C29.8021053,27.6842105 29.3157895,27.9736842 29.3157895,28.3421053 C29.3157895,28.7105263 29.8021053,29 30.4210526,29 C31.04,29 31.5263158,28.7105263 31.5263158,28.3421053 C31.5263158,27.9736842 31.04,27.6842105 30.4210526,27.6842105 Z M21.5789474,11.8947368 C19.7442105,11.8947368 18.2631579,12.7763158 18.2631579,13.8684211 C18.2631579,14.9605263 19.7442105,15.8421053 21.5789474,15.8421053 C23.4136842,15.8421053 24.8947368,14.9605263 24.8947368,13.8684211 C24.8947368,12.7763158 23.4136842,11.8947368 21.5789474,11.8947368 Z M21.5789474,23.0789474 C20.3631579,23.0789474 19.3684211,23.6710526 19.3684211,24.3947368 C19.3684211,25.1184211 20.3631579,25.7105263 21.5789474,25.7105263 C22.7947368,25.7105263 23.7894737,25.1184211 23.7894737,24.3947368 C23.7894737,23.6710526 22.7947368,23.0789474 21.5789474,23.0789474 Z M30.4210526,17.1578947 C28.5863158,17.1578947 27.1052632,18.0394737 27.1052632,19.1315789 C27.1052632,20.2236842 28.5863158,21.1052632 30.4210526,21.1052632 C32.2557895,21.1052632 33.7368421,20.2236842 33.7368421,19.1315789 C33.7368421,18.0394737 32.2557895,17.1578947 30.4210526,17.1578947 Z M30.4210526,11.8947368 C28.5863158,11.8947368 27.1052632,12.7763158 27.1052632,13.8684211 C27.1052632,14.9605263 28.5863158,15.8421053 30.4210526,15.8421053 C32.2557895,15.8421053 33.7368421,14.9605263 33.7368421,13.8684211 C33.7368421,12.7763158 32.2557895,11.8947368 30.4210526,11.8947368 Z" id="Shape" fill="#FFFFFF" fill-rule="nonzero"></path>
                                    <polygon id="Shape" points="0 0 52 0 52 31 0 31"></polygon>
                                </g>
                            </g>
                        </g>
                        <g id="Rectangle-7_Isometric" transform="translate(96.000000, 183.000000)">
                            <polygon id="Rectangle-7_Left_Isometric" fill="#616161" points="70 84 0 49 0 35 70 70"></polygon>
                            <polygon id="Rectangle-7_Right_Isometric" fill="#9C9C9C" points="70 84 140 49 140 35 70 70"></polygon>
                            <polygon id="Rectangle-7_Top_Isometric" fill="#3A97F7" points="0 35 70 0 140 35 70 70"></polygon>
                            <g id="contracts" transform="translate(43.000000, 19.000000)" opacity="0.300000012">
                                <g id="ic_blur_on_24px">
                                    <path d="M12.7368421,17.8157895 C11.5210526,17.8157895 10.5263158,18.4078947 10.5263158,19.1315789 C10.5263158,19.8552632 11.5210526,20.4473684 12.7368421,20.4473684 C13.9526316,20.4473684 14.9473684,19.8552632 14.9473684,19.1315789 C14.9473684,18.4078947 13.9526316,17.8157895 12.7368421,17.8157895 Z M12.7368421,23.0789474 C11.5210526,23.0789474 10.5263158,23.6710526 10.5263158,24.3947368 C10.5263158,25.1184211 11.5210526,25.7105263 12.7368421,25.7105263 C13.9526316,25.7105263 14.9473684,25.1184211 14.9473684,24.3947368 C14.9473684,23.6710526 13.9526316,23.0789474 12.7368421,23.0789474 Z M12.7368421,12.5526316 C11.5210526,12.5526316 10.5263158,13.1447368 10.5263158,13.8684211 C10.5263158,14.5921053 11.5210526,15.1842105 12.7368421,15.1842105 C13.9526316,15.1842105 14.9473684,14.5921053 14.9473684,13.8684211 C14.9473684,13.1447368 13.9526316,12.5526316 12.7368421,12.5526316 Z M6.10526316,13.2105263 C5.48631579,13.2105263 5,13.5 5,13.8684211 C5,14.2368421 5.48631579,14.5263158 6.10526316,14.5263158 C6.72421053,14.5263158 7.21052632,14.2368421 7.21052632,13.8684211 C7.21052632,13.5 6.72421053,13.2105263 6.10526316,13.2105263 Z M12.7368421,7.28947368 C11.5210526,7.28947368 10.5263158,7.88157895 10.5263158,8.60526316 C10.5263158,9.32894737 11.5210526,9.92105263 12.7368421,9.92105263 C13.9526316,9.92105263 14.9473684,9.32894737 14.9473684,8.60526316 C14.9473684,7.88157895 13.9526316,7.28947368 12.7368421,7.28947368 Z M45.8947368,14.5263158 C46.5136842,14.5263158 47,14.2368421 47,13.8684211 C47,13.5 46.5136842,13.2105263 45.8947368,13.2105263 C45.2757895,13.2105263 44.7894737,13.5 44.7894737,13.8684211 C44.7894737,14.2368421 45.2757895,14.5263158 45.8947368,14.5263158 Z M30.4210526,9.92105263 C31.6368421,9.92105263 32.6315789,9.32894737 32.6315789,8.60526316 C32.6315789,7.88157895 31.6368421,7.28947368 30.4210526,7.28947368 C29.2052632,7.28947368 28.2105263,7.88157895 28.2105263,8.60526316 C28.2105263,9.32894737 29.2052632,9.92105263 30.4210526,9.92105263 Z M30.4210526,5.31578947 C31.04,5.31578947 31.5263158,5.02631579 31.5263158,4.65789474 C31.5263158,4.28947368 31.04,4 30.4210526,4 C29.8021053,4 29.3157895,4.28947368 29.3157895,4.65789474 C29.3157895,5.02631579 29.8021053,5.31578947 30.4210526,5.31578947 Z M6.10526316,18.4736842 C5.48631579,18.4736842 5,18.7631579 5,19.1315789 C5,19.5 5.48631579,19.7894737 6.10526316,19.7894737 C6.72421053,19.7894737 7.21052632,19.5 7.21052632,19.1315789 C7.21052632,18.7631579 6.72421053,18.4736842 6.10526316,18.4736842 Z M21.5789474,27.6842105 C20.96,27.6842105 20.4736842,27.9736842 20.4736842,28.3421053 C20.4736842,28.7105263 20.96,29 21.5789474,29 C22.1978947,29 22.6842105,28.7105263 22.6842105,28.3421053 C22.6842105,27.9736842 22.1978947,27.6842105 21.5789474,27.6842105 Z M21.5789474,5.31578947 C22.1978947,5.31578947 22.6842105,5.02631579 22.6842105,4.65789474 C22.6842105,4.28947368 22.1978947,4 21.5789474,4 C20.96,4 20.4736842,4.28947368 20.4736842,4.65789474 C20.4736842,5.02631579 20.96,5.31578947 21.5789474,5.31578947 Z M21.5789474,9.92105263 C22.7947368,9.92105263 23.7894737,9.32894737 23.7894737,8.60526316 C23.7894737,7.88157895 22.7947368,7.28947368 21.5789474,7.28947368 C20.3631579,7.28947368 19.3684211,7.88157895 19.3684211,8.60526316 C19.3684211,9.32894737 20.3631579,9.92105263 21.5789474,9.92105263 Z M21.5789474,17.1578947 C19.7442105,17.1578947 18.2631579,18.0394737 18.2631579,19.1315789 C18.2631579,20.2236842 19.7442105,21.1052632 21.5789474,21.1052632 C23.4136842,21.1052632 24.8947368,20.2236842 24.8947368,19.1315789 C24.8947368,18.0394737 23.4136842,17.1578947 21.5789474,17.1578947 Z M39.2631579,17.8157895 C38.0473684,17.8157895 37.0526316,18.4078947 37.0526316,19.1315789 C37.0526316,19.8552632 38.0473684,20.4473684 39.2631579,20.4473684 C40.4789474,20.4473684 41.4736842,19.8552632 41.4736842,19.1315789 C41.4736842,18.4078947 40.4789474,17.8157895 39.2631579,17.8157895 Z M39.2631579,23.0789474 C38.0473684,23.0789474 37.0526316,23.6710526 37.0526316,24.3947368 C37.0526316,25.1184211 38.0473684,25.7105263 39.2631579,25.7105263 C40.4789474,25.7105263 41.4736842,25.1184211 41.4736842,24.3947368 C41.4736842,23.6710526 40.4789474,23.0789474 39.2631579,23.0789474 Z M39.2631579,12.5526316 C38.0473684,12.5526316 37.0526316,13.1447368 37.0526316,13.8684211 C37.0526316,14.5921053 38.0473684,15.1842105 39.2631579,15.1842105 C40.4789474,15.1842105 41.4736842,14.5921053 41.4736842,13.8684211 C41.4736842,13.1447368 40.4789474,12.5526316 39.2631579,12.5526316 Z M39.2631579,7.28947368 C38.0473684,7.28947368 37.0526316,7.88157895 37.0526316,8.60526316 C37.0526316,9.32894737 38.0473684,9.92105263 39.2631579,9.92105263 C40.4789474,9.92105263 41.4736842,9.32894737 41.4736842,8.60526316 C41.4736842,7.88157895 40.4789474,7.28947368 39.2631579,7.28947368 Z M45.8947368,18.4736842 C45.2757895,18.4736842 44.7894737,18.7631579 44.7894737,19.1315789 C44.7894737,19.5 45.2757895,19.7894737 45.8947368,19.7894737 C46.5136842,19.7894737 47,19.5 47,19.1315789 C47,18.7631579 46.5136842,18.4736842 45.8947368,18.4736842 Z M30.4210526,23.0789474 C29.2052632,23.0789474 28.2105263,23.6710526 28.2105263,24.3947368 C28.2105263,25.1184211 29.2052632,25.7105263 30.4210526,25.7105263 C31.6368421,25.7105263 32.6315789,25.1184211 32.6315789,24.3947368 C32.6315789,23.6710526 31.6368421,23.0789474 30.4210526,23.0789474 Z M30.4210526,27.6842105 C29.8021053,27.6842105 29.3157895,27.9736842 29.3157895,28.3421053 C29.3157895,28.7105263 29.8021053,29 30.4210526,29 C31.04,29 31.5263158,28.7105263 31.5263158,28.3421053 C31.5263158,27.9736842 31.04,27.6842105 30.4210526,27.6842105 Z M21.5789474,11.8947368 C19.7442105,11.8947368 18.2631579,12.7763158 18.2631579,13.8684211 C18.2631579,14.9605263 19.7442105,15.8421053 21.5789474,15.8421053 C23.4136842,15.8421053 24.8947368,14.9605263 24.8947368,13.8684211 C24.8947368,12.7763158 23.4136842,11.8947368 21.5789474,11.8947368 Z M21.5789474,23.0789474 C20.3631579,23.0789474 19.3684211,23.6710526 19.3684211,24.3947368 C19.3684211,25.1184211 20.3631579,25.7105263 21.5789474,25.7105263 C22.7947368,25.7105263 23.7894737,25.1184211 23.7894737,24.3947368 C23.7894737,23.6710526 22.7947368,23.0789474 21.5789474,23.0789474 Z M30.4210526,17.1578947 C28.5863158,17.1578947 27.1052632,18.0394737 27.1052632,19.1315789 C27.1052632,20.2236842 28.5863158,21.1052632 30.4210526,21.1052632 C32.2557895,21.1052632 33.7368421,20.2236842 33.7368421,19.1315789 C33.7368421,18.0394737 32.2557895,17.1578947 30.4210526,17.1578947 Z M30.4210526,11.8947368 C28.5863158,11.8947368 27.1052632,12.7763158 27.1052632,13.8684211 C27.1052632,14.9605263 28.5863158,15.8421053 30.4210526,15.8421053 C32.2557895,15.8421053 33.7368421,14.9605263 33.7368421,13.8684211 C33.7368421,12.7763158 32.2557895,11.8947368 30.4210526,11.8947368 Z" id="Shape" fill="#FFFFFF" fill-rule="nonzero"></path>
                                    <polygon id="Shape" points="0 0 52 0 52 31 0 31"></polygon>
                                </g>
                            </g>
                        </g>
                        <g id="Rectangle-7_Isometric" transform="translate(193.000000, 230.000000)">
                            <polygon id="Rectangle-7_Left_Isometric" fill="#616161" points="70 84 0 49 0 35 70 70"></polygon>
                            <polygon id="Rectangle-7_Right_Isometric" fill="#9C9C9C" points="70 84 140 49 140 35 70 70"></polygon>
                            <polygon id="Rectangle-7_Top_Isometric" fill="#3A97F7" points="0 35 70 0 140 35 70 70"></polygon>
                            <g id="contracts" transform="translate(43.000000, 19.000000)" opacity="0.300000012">
                                <g id="ic_blur_on_24px">
                                    <path d="M12.7368421,17.8157895 C11.5210526,17.8157895 10.5263158,18.4078947 10.5263158,19.1315789 C10.5263158,19.8552632 11.5210526,20.4473684 12.7368421,20.4473684 C13.9526316,20.4473684 14.9473684,19.8552632 14.9473684,19.1315789 C14.9473684,18.4078947 13.9526316,17.8157895 12.7368421,17.8157895 Z M12.7368421,23.0789474 C11.5210526,23.0789474 10.5263158,23.6710526 10.5263158,24.3947368 C10.5263158,25.1184211 11.5210526,25.7105263 12.7368421,25.7105263 C13.9526316,25.7105263 14.9473684,25.1184211 14.9473684,24.3947368 C14.9473684,23.6710526 13.9526316,23.0789474 12.7368421,23.0789474 Z M12.7368421,12.5526316 C11.5210526,12.5526316 10.5263158,13.1447368 10.5263158,13.8684211 C10.5263158,14.5921053 11.5210526,15.1842105 12.7368421,15.1842105 C13.9526316,15.1842105 14.9473684,14.5921053 14.9473684,13.8684211 C14.9473684,13.1447368 13.9526316,12.5526316 12.7368421,12.5526316 Z M6.10526316,13.2105263 C5.48631579,13.2105263 5,13.5 5,13.8684211 C5,14.2368421 5.48631579,14.5263158 6.10526316,14.5263158 C6.72421053,14.5263158 7.21052632,14.2368421 7.21052632,13.8684211 C7.21052632,13.5 6.72421053,13.2105263 6.10526316,13.2105263 Z M12.7368421,7.28947368 C11.5210526,7.28947368 10.5263158,7.88157895 10.5263158,8.60526316 C10.5263158,9.32894737 11.5210526,9.92105263 12.7368421,9.92105263 C13.9526316,9.92105263 14.9473684,9.32894737 14.9473684,8.60526316 C14.9473684,7.88157895 13.9526316,7.28947368 12.7368421,7.28947368 Z M45.8947368,14.5263158 C46.5136842,14.5263158 47,14.2368421 47,13.8684211 C47,13.5 46.5136842,13.2105263 45.8947368,13.2105263 C45.2757895,13.2105263 44.7894737,13.5 44.7894737,13.8684211 C44.7894737,14.2368421 45.2757895,14.5263158 45.8947368,14.5263158 Z M30.4210526,9.92105263 C31.6368421,9.92105263 32.6315789,9.32894737 32.6315789,8.60526316 C32.6315789,7.88157895 31.6368421,7.28947368 30.4210526,7.28947368 C29.2052632,7.28947368 28.2105263,7.88157895 28.2105263,8.60526316 C28.2105263,9.32894737 29.2052632,9.92105263 30.4210526,9.92105263 Z M30.4210526,5.31578947 C31.04,5.31578947 31.5263158,5.02631579 31.5263158,4.65789474 C31.5263158,4.28947368 31.04,4 30.4210526,4 C29.8021053,4 29.3157895,4.28947368 29.3157895,4.65789474 C29.3157895,5.02631579 29.8021053,5.31578947 30.4210526,5.31578947 Z M6.10526316,18.4736842 C5.48631579,18.4736842 5,18.7631579 5,19.1315789 C5,19.5 5.48631579,19.7894737 6.10526316,19.7894737 C6.72421053,19.7894737 7.21052632,19.5 7.21052632,19.1315789 C7.21052632,18.7631579 6.72421053,18.4736842 6.10526316,18.4736842 Z M21.5789474,27.6842105 C20.96,27.6842105 20.4736842,27.9736842 20.4736842,28.3421053 C20.4736842,28.7105263 20.96,29 21.5789474,29 C22.1978947,29 22.6842105,28.7105263 22.6842105,28.3421053 C22.6842105,27.9736842 22.1978947,27.6842105 21.5789474,27.6842105 Z M21.5789474,5.31578947 C22.1978947,5.31578947 22.6842105,5.02631579 22.6842105,4.65789474 C22.6842105,4.28947368 22.1978947,4 21.5789474,4 C20.96,4 20.4736842,4.28947368 20.4736842,4.65789474 C20.4736842,5.02631579 20.96,5.31578947 21.5789474,5.31578947 Z M21.5789474,9.92105263 C22.7947368,9.92105263 23.7894737,9.32894737 23.7894737,8.60526316 C23.7894737,7.88157895 22.7947368,7.28947368 21.5789474,7.28947368 C20.3631579,7.28947368 19.3684211,7.88157895 19.3684211,8.60526316 C19.3684211,9.32894737 20.3631579,9.92105263 21.5789474,9.92105263 Z M21.5789474,17.1578947 C19.7442105,17.1578947 18.2631579,18.0394737 18.2631579,19.1315789 C18.2631579,20.2236842 19.7442105,21.1052632 21.5789474,21.1052632 C23.4136842,21.1052632 24.8947368,20.2236842 24.8947368,19.1315789 C24.8947368,18.0394737 23.4136842,17.1578947 21.5789474,17.1578947 Z M39.2631579,17.8157895 C38.0473684,17.8157895 37.0526316,18.4078947 37.0526316,19.1315789 C37.0526316,19.8552632 38.0473684,20.4473684 39.2631579,20.4473684 C40.4789474,20.4473684 41.4736842,19.8552632 41.4736842,19.1315789 C41.4736842,18.4078947 40.4789474,17.8157895 39.2631579,17.8157895 Z M39.2631579,23.0789474 C38.0473684,23.0789474 37.0526316,23.6710526 37.0526316,24.3947368 C37.0526316,25.1184211 38.0473684,25.7105263 39.2631579,25.7105263 C40.4789474,25.7105263 41.4736842,25.1184211 41.4736842,24.3947368 C41.4736842,23.6710526 40.4789474,23.0789474 39.2631579,23.0789474 Z M39.2631579,12.5526316 C38.0473684,12.5526316 37.0526316,13.1447368 37.0526316,13.8684211 C37.0526316,14.5921053 38.0473684,15.1842105 39.2631579,15.1842105 C40.4789474,15.1842105 41.4736842,14.5921053 41.4736842,13.8684211 C41.4736842,13.1447368 40.4789474,12.5526316 39.2631579,12.5526316 Z M39.2631579,7.28947368 C38.0473684,7.28947368 37.0526316,7.88157895 37.0526316,8.60526316 C37.0526316,9.32894737 38.0473684,9.92105263 39.2631579,9.92105263 C40.4789474,9.92105263 41.4736842,9.32894737 41.4736842,8.60526316 C41.4736842,7.88157895 40.4789474,7.28947368 39.2631579,7.28947368 Z M45.8947368,18.4736842 C45.2757895,18.4736842 44.7894737,18.7631579 44.7894737,19.1315789 C44.7894737,19.5 45.2757895,19.7894737 45.8947368,19.7894737 C46.5136842,19.7894737 47,19.5 47,19.1315789 C47,18.7631579 46.5136842,18.4736842 45.8947368,18.4736842 Z M30.4210526,23.0789474 C29.2052632,23.0789474 28.2105263,23.6710526 28.2105263,24.3947368 C28.2105263,25.1184211 29.2052632,25.7105263 30.4210526,25.7105263 C31.6368421,25.7105263 32.6315789,25.1184211 32.6315789,24.3947368 C32.6315789,23.6710526 31.6368421,23.0789474 30.4210526,23.0789474 Z M30.4210526,27.6842105 C29.8021053,27.6842105 29.3157895,27.9736842 29.3157895,28.3421053 C29.3157895,28.7105263 29.8021053,29 30.4210526,29 C31.04,29 31.5263158,28.7105263 31.5263158,28.3421053 C31.5263158,27.9736842 31.04,27.6842105 30.4210526,27.6842105 Z M21.5789474,11.8947368 C19.7442105,11.8947368 18.2631579,12.7763158 18.2631579,13.8684211 C18.2631579,14.9605263 19.7442105,15.8421053 21.5789474,15.8421053 C23.4136842,15.8421053 24.8947368,14.9605263 24.8947368,13.8684211 C24.8947368,12.7763158 23.4136842,11.8947368 21.5789474,11.8947368 Z M21.5789474,23.0789474 C20.3631579,23.0789474 19.3684211,23.6710526 19.3684211,24.3947368 C19.3684211,25.1184211 20.3631579,25.7105263 21.5789474,25.7105263 C22.7947368,25.7105263 23.7894737,25.1184211 23.7894737,24.3947368 C23.7894737,23.6710526 22.7947368,23.0789474 21.5789474,23.0789474 Z M30.4210526,17.1578947 C28.5863158,17.1578947 27.1052632,18.0394737 27.1052632,19.1315789 C27.1052632,20.2236842 28.5863158,21.1052632 30.4210526,21.1052632 C32.2557895,21.1052632 33.7368421,20.2236842 33.7368421,19.1315789 C33.7368421,18.0394737 32.2557895,17.1578947 30.4210526,17.1578947 Z M30.4210526,11.8947368 C28.5863158,11.8947368 27.1052632,12.7763158 27.1052632,13.8684211 C27.1052632,14.9605263 28.5863158,15.8421053 30.4210526,15.8421053 C32.2557895,15.8421053 33.7368421,14.9605263 33.7368421,13.8684211 C33.7368421,12.7763158 32.2557895,11.8947368 30.4210526,11.8947368 Z" id="Shape" fill="#FFFFFF" fill-rule="nonzero"></path>
                                    <polygon id="Shape" points="0 0 52 0 52 31 0 31"></polygon>
                                </g>
                            </g>
                        </g>
                    </g>
                </g>
            </g>
        </g>
    </g>
</svg>