<?xml version="1.0" encoding="UTF-8"?>
<svg width="344px" height="393px" viewBox="0 0 344 393" version="1.1" xmlns="http://www.w3.org/2000/svg" xmlns:xlink="http://www.w3.org/1999/xlink">
    <!-- Generator: Sketch 50.2 (55047) - http://www.bohemiancoding.com/sketch -->
    <title>Asset 4</title>
    <desc>Created with Sketch.</desc>
    <defs>
        <linearGradient x1="50%" y1="12.5638558%" x2="50%" y2="86.802521%" id="linearGradient-1">
            <stop stop-color="#FFFFFF" offset="0%"></stop>
            <stop stop-color="#D8D8D8" offset="99%"></stop>
        </linearGradient>
        <linearGradient x1="50%" y1="12.5630633%" x2="50%" y2="86.8024014%" id="linearGradient-2">
            <stop stop-color="#FFFFFF" offset="0%"></stop>
            <stop stop-color="#D8D8D8" offset="99%"></stop>
        </linearGradient>
        <linearGradient x1="50.0039305%" y1="12.5630633%" x2="50.0039305%" y2="86.8024014%" id="linearGradient-3">
            <stop stop-color="#FFFFFF" offset="0%"></stop>
            <stop stop-color="#D8D8D8" offset="99%"></stop>
        </linearGradient>
        <linearGradient x1="59.9293112%" y1="47.9575245%" x2="32.3424273%" y2="58.0035288%" id="linearGradient-4">
            <stop stop-color="#83858A" offset="0%"></stop>
            <stop stop-color="#000000" offset="100%"></stop>
        </linearGradient>
        <linearGradient x1="174.653516%" y1="278.828473%" x2="293.28988%" y2="347.010292%" id="linearGradient-5">
            <stop stop-color="#00FFE2" offset="0%"></stop>
            <stop stop-color="#00CDB3" offset="99%"></stop>
        </linearGradient>
    </defs>
    <g id="Page-1" stroke="none" stroke-width="1" fill="none" fill-rule="evenodd">
        <g id="market-dApp" transform="translate(-224.000000, -957.000000)" fill-rule="nonzero">
            <g id="Asset-4" transform="translate(224.000000, 957.000000)">
                <polygon id="Shape" fill="#000000" opacity="0.1" points="132.636226 299.005099 7.87641509 227.1125 23.160566 218.315954 147.907358 290.208553"></polygon>
                <path d="M41.1396226,1.07894737 C43.079434,2.24835526 44.2641509,4.678125 44.2641509,8.09539474 L172.04434,81.7291118 C172.04434,78.2988487 170.846604,75.8690789 168.919811,74.6996711 L41.1396226,1.07894737 Z" id="Shape" fill="#181E26"></path>
                <path d="M22.1320755,177.893421 L22.1320755,20.8679276 C22.1320755,13.8644737 27.0922642,5.27582237 33.1981132,1.81957237 C36.3096226,0.0264802632 39.1216981,-0.129440789 41.1396226,1.07894737 L168.919811,74.7126645 C166.914906,73.5042763 164.10283,73.6472039 160.978302,75.4402961 C154.872453,78.9615132 149.912264,87.4981908 149.912264,94.4886513 L149.912264,251.527138 C149.912264,258.530592 144.952075,267.119243 138.846226,270.575493 C135.81283,272.316612 133.065849,272.511513 131.034906,271.394079 L3.29377358,197.799342 C5.29867925,198.903783 8.04566038,198.721875 11.1050943,196.980757 C17.1849057,193.433553 22.1320755,184.896875 22.1320755,177.893421 Z" id="Shape" fill="url(#linearGradient-1)"></path>
                <path d="M3.29377358,197.799342 C1.30188679,196.642928 0,194.187171 0,190.652961 L127.780189,264.286678 C127.780189,267.807895 129.082075,270.276645 131.073962,271.407072 L3.29377358,197.799342 Z" id="Shape" fill="#181E26"></path>
                <polygon id="Shape" fill="#181E26" points="40.1762264 87.7710526 126.84283 137.70477 126.84283 135.612829 40.1762264 85.6791118"></polygon>
                <polygon id="Shape" fill="#181E26" points="40.1762264 105.091283 126.84283 155.025 126.84283 152.933059 40.1762264 102.986349"></polygon>
                <polygon id="Shape" fill="#181E26" points="40.1762264 122.39852 126.84283 172.34523 126.84283 170.240296 40.1762264 120.306579"></polygon>
                <polygon id="Shape" fill="#181E26" points="40.1762264 139.71875 126.84283 189.652467 126.84283 187.560526 40.1762264 137.613816"></polygon>
                <polygon id="Shape" fill="#181E26" points="40.1762264 157.025987 107.731132 195.96727 107.731132 193.862336 40.1762264 154.934046"></polygon>
                <path d="M49.7971698,64.3699013 C49.7103774,66.1543311 49.2764151,67.2934211 48.495283,67.7871711 C47.7141509,68.2809211 46.5554717,68.0990132 45.0192453,67.2414474 C43.4478507,66.2936342 42.1999574,64.8941967 41.4390566,63.2264803 C40.5457976,61.3344486 40.1003613,59.2627729 40.1371698,57.1715461 L40.1371698,54.0791118 C40.1371698,51.861568 40.5711321,50.3673246 41.4390566,49.5963816 C42.3069811,48.8254386 43.5481132,48.8947368 45.1624528,49.8042763 C46.5796096,50.6082766 47.7430924,51.7919893 48.5213208,53.2215461 C49.3420984,54.754823 49.7881843,56.4599926 49.8232075,58.1980263 L47.9224528,57.0935855 C47.901002,55.9143255 47.6396771,54.7517134 47.1543396,53.6763158 C46.7082703,52.8215153 46.0200732,52.1165882 45.1754717,51.6493421 C44.1513208,51.060307 43.3658491,51.060307 42.8190566,51.6493421 C42.1458879,52.6979353 41.8561648,53.9463585 41.9988679,55.1835526 L41.9988679,58.3149671 C41.9588834,59.8238182 42.2199864,61.3255382 42.7669811,62.7327303 C43.192289,63.8498754 43.9807564,64.7923567 45.0062264,65.409375 C45.9869811,65.9724232 46.6943396,66.1023575 47.1283019,65.7991776 C47.5622642,65.4959978 47.8313208,64.6514254 47.9354717,63.2654605 L49.7971698,64.3699013 Z" id="Shape" fill="#181E26"></path>
                <path d="M62.1130189,69.853125 C62.1130189,72.1832785 61.6790566,73.7251645 60.8111321,74.4787829 C59.9432075,75.2324013 58.7020755,75.1457785 57.0877358,74.2189145 C55.5146896,73.3019656 54.2434413,71.9474138 53.429434,70.3208882 C52.5126722,68.4443057 52.0489714,66.3795308 52.0754717,64.2919408 L52.0754717,61.0825658 C52.0754717,58.7957237 52.509434,57.2625 53.3773585,56.4828947 C54.245283,55.7032895 55.4820755,55.7682566 57.0877358,56.6777961 C58.6909847,57.6099614 59.9785271,58.9990561 60.7850943,60.6667763 C61.6831654,62.5664076 62.128744,64.6476394 62.0869811,66.7476974 L62.1130189,69.853125 Z M60.225283,65.7861842 C60.2739079,64.2586356 60.008051,62.737369 59.4441509,61.3164474 C58.9655971,60.1842969 58.1288298,59.2396397 57.0616981,58.6268092 C56.0288679,58.0291118 55.2433962,58.0291118 54.705283,58.6268092 C54.0512619,59.6590085 53.7667532,60.8818367 53.8981132,62.0960526 L53.8981132,65.1625 C53.8565554,66.6684288 54.1223193,68.1670602 54.6792453,69.5672697 C55.1506886,70.7171545 55.9878108,71.6804743 57.0616981,72.3088816 C58.120566,72.9152412 58.9016981,72.9455592 59.4050943,72.3998355 C60.0403355,71.3793947 60.3195537,70.1779056 60.1992453,68.9825658 L60.225283,65.7861842 Z" id="Shape" fill="#181E26"></path>
                <polygon id="Shape" fill="#181E26" points="74.819434 84.2238487 72.9056604 83.1194079 66.93 66.5657895 66.93 79.6631579 65.0292453 78.5717105 65.0292453 61.4983553 66.93 62.5898026 72.9056604 79.2733553 72.9056604 66.0590461 74.7803774 67.1375"></polygon>
                <polygon id="Shape" fill="#181E26" points="86.5624528 75.7521382 82.6567925 73.4782895 82.6567925 88.6546053 80.7169811 87.6151316 80.7169811 72.3868421 76.8113208 70.1129934 76.8113208 68.2809211 86.5754717 73.9070724"></polygon>
                <path d="M93.3062264,87.9659539 L90.7024528,86.4457237 L90.7024528,93.3452303 L88.8016981,92.2537829 L88.8016981,75.1804276 L93.0067925,77.5972039 C95.8362087,79.1153347 97.5645326,82.0975293 97.4722642,85.3023026 C97.5275908,86.1479333 97.3134063,86.9893522 96.8603774,87.7060855 C96.4622801,88.2536699 95.8036462,88.5502172 95.1288679,88.4856908 L98.0320755,97.4121711 L98.0320755,97.5550987 L95.9750943,96.4506579 L93.3062264,87.9659539 Z M90.7024528,84.6006579 L92.9937736,85.9 C93.7835849,86.3591009 94.4128302,86.4327303 94.8815094,86.1208882 C95.4251082,85.6387605 95.6893,84.9160947 95.5845283,84.1978618 C95.6938997,82.2370616 94.6865703,80.3821716 92.9807547,79.4032895 L90.7154717,78.1039474 L90.7024528,84.6006579 Z" id="Shape" fill="#181E26"></path>
                <path d="M106.963019,98.2697368 L101.898679,95.3462171 L100.74,99.1402961 L98.8001887,98.0228618 L103.630189,83.7300987 L105.244528,84.665625 L110.087547,104.532566 L108.147736,103.415132 L106.963019,98.2697368 Z M102.393396,93.8519737 L106.481321,96.2037829 L104.437358,87.2643092 L102.393396,93.8519737 Z" id="Shape" fill="#181E26"></path>
                <path d="M121.426981,105.637007 C121.340189,107.421436 120.906226,108.560526 120.125094,109.054276 C119.343962,109.548026 118.185283,109.366118 116.649057,108.508553 C115.077662,107.56074 113.829769,106.161302 113.068868,104.493586 C112.176052,102.601404 111.730638,100.529833 111.766981,98.4386513 L111.766981,95.3462171 C111.766981,93.1286732 112.200943,91.6344298 113.068868,90.8634868 C113.936792,90.0925439 115.177925,90.1618421 116.792264,91.0713816 C118.208569,91.876486 119.371781,93.0599234 120.151132,94.4886513 C120.97191,96.0219282 121.417996,97.7270979 121.453019,99.4651316 L119.552264,98.3606908 C119.530813,97.1814307 119.269488,96.0188187 118.784151,94.9434211 C118.338082,94.0886205 117.649884,93.3836935 116.805283,92.9164474 C115.781132,92.3274123 114.99566,92.3274123 114.448868,92.9164474 C113.757478,93.9584494 113.449237,95.2073711 113.576604,96.4506579 L113.576604,99.5820724 C113.537658,101.090848 113.798726,102.592365 114.344717,103.999836 C114.770903,105.116468 115.559155,106.058691 116.583962,106.67648 C117.564717,107.239529 118.272075,107.369463 118.706038,107.066283 C119.14,106.763103 119.409057,105.922862 119.513208,104.545559 L121.426981,105.637007 Z" id="Shape" fill="#181E26"></path>
                <polygon id="Shape" fill="#181E26" points="132.440943 102.19375 128.535283 99.9199013 128.535283 115.148191 126.647547 114.056743 126.647547 98.8284539 122.741887 96.5546053 122.741887 94.7225329 132.506038 100.348684"></polygon>
                <polygon id="Shape" fill="#000000" opacity="0.1" points="304.485283 334.087336 179.725472 262.194737 194.996604 253.398191 319.756415 325.290789"></polygon>
                <path d="M212.988679,36.1611842 C214.928491,37.3305921 216.113208,39.7603618 216.113208,43.190625 L343.893396,116.824342 C343.893396,113.394079 342.69566,110.964309 340.768868,109.794901 L212.988679,36.1611842 Z" id="Shape" fill="#181E26"></path>
                <path d="M193.981132,212.975658 L193.981132,55.9501645 C193.981132,48.9467105 198.941321,40.3580592 205.04717,36.9018092 C208.158679,35.1087171 210.970755,34.9527961 212.988679,36.1741776 L340.768868,109.807895 C338.763962,108.599507 335.951887,108.742434 332.827358,110.535526 C326.721509,114.056743 321.761321,122.593421 321.761321,129.583882 L321.761321,286.609375 C321.761321,293.612829 316.801132,302.20148 310.695283,305.65773 C307.661887,307.398849 304.914906,307.59375 302.883962,306.476316 L175.14283,232.881579 C177.147736,233.98602 179.894717,233.804112 182.954151,232.062993 C189.033962,228.515789 193.981132,219.979112 193.981132,212.975658 Z" id="Shape" fill="url(#linearGradient-2)"></path>
                <path d="M175.14283,232.881579 C173.111887,231.751151 171.849057,229.282401 171.849057,225.761184 L299.629245,299.394901 C299.629245,302.916118 300.931132,305.384868 302.923019,306.515296 L175.14283,232.881579 Z" id="Shape" fill="#181E26"></path>
                <polygon id="Shape" fill="#181E26" points="212.012264 122.853289 298.691887 172.787007 298.691887 170.695066 212.012264 120.761349"></polygon>
                <polygon id="Shape" fill="#181E26" points="212.012264 140.17352 298.691887 190.107237 298.691887 188.015296 212.012264 138.068586"></polygon>
                <polygon id="Shape" fill="#181E26" points="212.012264 157.480757 298.691887 207.427467 298.691887 205.322533 212.012264 155.388816"></polygon>
                <polygon id="Shape" fill="#181E26" points="212.012264 174.800987 298.691887 224.734704 298.691887 222.642763 212.012264 172.696053"></polygon>
                <polygon id="Shape" fill="#181E26" points="212.012264 192.108224 279.580189 231.049507 279.580189 228.944572 212.012264 190.016283"></polygon>
                <path d="M221.646226,99.4521382 C221.559434,101.236568 221.125472,102.375658 220.34434,102.869408 C219.563208,103.363158 218.404528,103.18125 216.868302,102.323684 C215.296907,101.375871 214.049014,99.9764335 213.288113,98.3087171 C212.394854,96.4166855 211.949418,94.3450097 211.986226,92.2537829 L211.986226,89.1613487 C211.986226,86.9438048 212.420189,85.4495614 213.288113,84.6786184 C214.156038,83.9076754 215.39717,83.9769737 217.011509,84.8865132 C218.428666,85.6905135 219.592149,86.8742262 220.370377,88.3037829 C221.191155,89.8370598 221.637241,91.5422295 221.672264,93.2802632 L219.771509,92.1758224 C219.750059,90.9965623 219.488734,89.8339503 219.003396,88.7585526 C218.557327,87.9037521 217.86913,87.1988251 217.024528,86.7315789 C216.000377,86.1425439 215.214906,86.1425439 214.668113,86.7315789 C213.994945,87.7801721 213.705221,89.0285954 213.847925,90.2657895 L213.847925,93.3972039 C213.80794,94.906055 214.069043,96.4077751 214.616038,97.8149671 C215.041346,98.9321122 215.829813,99.8745936 216.855283,100.491612 C217.836038,101.05466 218.543396,101.184594 218.977358,100.881414 C219.411321,100.578235 219.680377,99.7336623 219.784528,98.3476974 L221.646226,99.4521382 Z" id="Shape" fill="#181E26"></path>
                <path d="M233.962075,104.935362 C233.962075,107.265515 233.528113,108.807401 232.660189,109.56102 C231.792264,110.314638 230.551132,110.228015 228.936792,109.301151 C227.363746,108.384202 226.092498,107.029651 225.278491,105.403125 C224.361729,103.526543 223.898028,101.461768 223.924528,99.3741776 L223.924528,96.1648026 C223.924528,93.8779605 224.358491,92.3447368 225.226415,91.5651316 C226.09434,90.7855263 227.331132,90.8504934 228.936792,91.7600329 C230.540041,92.6921982 231.827584,94.0812929 232.634151,95.7490132 C233.532222,97.6486444 233.977801,99.7298762 233.936038,101.829934 L233.962075,104.935362 Z M232.07434,100.855428 C232.122964,99.3278791 231.857108,97.8066124 231.293208,96.3856908 C230.814654,95.2535404 229.977886,94.3088831 228.910755,93.6960526 C227.877925,93.0983553 227.092453,93.0983553 226.55434,93.6960526 C225.900318,94.7282519 225.61581,95.9510801 225.74717,97.1652961 L225.74717,100.231743 C225.704406,101.751625 225.974701,103.26409 226.541321,104.675493 C227.012764,105.825378 227.849886,106.788698 228.923774,107.417105 C229.982642,108.023465 230.763774,108.053783 231.26717,107.508059 C231.902411,106.487618 232.181629,105.286129 232.061321,104.090789 L232.07434,100.855428 Z" id="Shape" fill="#181E26"></path>
                <polygon id="Shape" fill="#181E26" points="246.668491 119.306086 244.754717 118.201645 238.779057 101.648026 238.779057 114.745395 236.878302 113.653947 236.878302 96.5805921 238.779057 97.6720395 244.754717 114.355592 244.754717 101.141283 246.629434 102.219737"></polygon>
                <polygon id="Shape" fill="#181E26" points="258.411509 110.834375 254.505849 108.560526 254.505849 123.736842 252.566038 122.697368 252.566038 107.469079 248.660377 105.19523 248.660377 103.363158 258.424528 108.989309"></polygon>
                <path d="M265.155283,123.048191 L262.551509,121.527961 L262.551509,128.427467 L260.650755,127.33602 L260.650755,110.262664 L264.855849,112.679441 C267.685265,114.197572 269.413589,117.179766 269.321321,120.384539 C269.376647,121.23017 269.162463,122.071589 268.709434,122.788322 C268.311337,123.335907 267.652703,123.632454 266.977925,123.567928 L269.881132,132.494408 L269.881132,132.637336 L267.850189,131.467928 L265.155283,123.048191 Z M262.551509,119.682895 L264.84283,120.982237 C265.632642,121.441338 266.261887,121.514967 266.730566,121.203125 C267.274165,120.720997 267.538357,119.998332 267.433585,119.280099 C267.542956,117.319298 266.535627,115.464408 264.829811,114.485526 L262.564528,113.186184 L262.551509,119.682895 Z" id="Shape" fill="#181E26"></path>
                <path d="M278.812075,133.351974 L273.747736,130.428454 L272.589057,134.222533 L270.649245,133.105099 L275.479245,118.812336 L277.093585,119.747862 L281.936604,139.614803 L279.996792,138.497368 L278.812075,133.351974 Z M274.242453,128.934211 L278.330377,131.28602 L276.286415,122.346546 L274.242453,128.934211 Z" id="Shape" fill="#181E26"></path>
                <path d="M293.276038,140.719243 C293.189245,142.503673 292.755283,143.642763 291.974151,144.136513 C291.193019,144.630263 290.03434,144.448355 288.498113,143.590789 C286.926719,142.642976 285.678825,141.243539 284.917925,139.575822 C284.025109,137.683641 283.579695,135.61207 283.616038,133.520888 L283.616038,130.428454 C283.616038,128.21091 284.05,126.716667 284.917925,125.945724 C285.785849,125.174781 287.026981,125.244079 288.641321,126.153618 C290.057626,126.958723 291.220838,128.14216 292.000189,129.570888 C292.820966,131.104165 293.267052,132.809335 293.302075,134.547368 L291.401321,133.442928 C291.37987,132.263668 291.118545,131.101056 290.633208,130.025658 C290.187138,129.170857 289.498941,128.46593 288.65434,127.998684 C287.630189,127.409649 286.844717,127.409649 286.297925,127.998684 C285.624756,129.047277 285.335033,130.295701 285.477736,131.532895 L285.477736,134.664309 C285.438791,136.173085 285.699858,137.674602 286.245849,139.082072 C286.672035,140.198704 287.460287,141.140928 288.485094,141.758717 C289.465849,142.321765 290.173208,142.4517 290.60717,142.14852 C291.041132,141.84534 291.310189,141.005099 291.41434,139.627796 L293.276038,140.719243 Z" id="Shape" fill="#181E26"></path>
                <polygon id="Shape" fill="#181E26" points="304.29 137.275987 300.38434 135.002138 300.38434 150.230428 298.496604 149.13898 298.496604 133.910691 294.590943 131.636842 294.590943 129.80477 304.355094 135.430921"></polygon>
                <polygon id="Shape" fill="#000000" opacity="0.1" points="165.209434 392.895559 40.4496226 321.015954 55.7207547 312.206414 180.480566 384.099013"></polygon>
                <path d="M73.7128302,94.9824013 C75.6526415,96.1518092 76.8373585,98.5815789 76.8373585,102.011842 L204.617547,175.645559 C204.617547,172.215296 203.419811,169.785526 201.493019,168.616118 L73.7128302,94.9824013 Z" id="Shape" fill="#181E26"></path>
                <path d="M54.6792453,271.796875 L54.6792453,114.758388 C54.6792453,107.754934 59.639434,99.1662829 65.745283,95.7100329 C68.8567925,93.9169408 71.6688679,93.7610197 73.6867925,94.9824013 L201.466981,168.616118 C199.462075,167.40773 196.65,167.550658 193.525472,169.34375 C187.419623,172.864967 182.459434,181.401645 182.459434,188.392105 L182.459434,345.417599 C182.459434,352.421053 177.499245,361.009704 171.393396,364.465954 C168.36,366.207072 165.613019,366.401974 163.582075,365.284539 L35.8539623,291.663816 C37.8588679,292.768257 40.6058491,292.586349 43.665283,290.84523 C49.7450943,287.324013 54.6792453,278.787336 54.6792453,271.796875 Z" id="Shape" fill="url(#linearGradient-3)"></path>
                <path d="M35.8539623,291.663816 C33.8490566,290.546382 32.5471698,288.077632 32.5471698,284.543421 L160.327358,358.177138 C160.327358,361.698355 161.629245,364.167105 163.621132,365.297533 L35.8539623,291.663816 Z" id="Shape" fill="#181E26"></path>
                <polygon id="Shape" fill="#181E26" points="72.7364151 181.661513 159.403019 231.608224 159.403019 229.503289 72.7364151 179.569572"></polygon>
                <polygon id="Shape" fill="#181E26" points="72.7364151 198.981743 159.403019 248.915461 159.403019 246.82352 72.7364151 196.876809"></polygon>
                <polygon id="Shape" fill="#181E26" points="72.7364151 216.28898 159.403019 266.235691 159.403019 264.130757 72.7364151 214.197039"></polygon>
                <polygon id="Shape" fill="#181E26" points="72.7364151 233.609211 159.403019 283.542928 159.403019 281.450987 72.7364151 231.504276"></polygon>
                <polygon id="Shape" fill="#181E26" points="72.7364151 250.916447 140.30434 289.85773 140.30434 287.752796 72.7364151 248.824507"></polygon>
                <path d="M82.3703774,158.260362 C82.2835849,160.044792 81.8496226,161.183882 81.0684906,161.677632 C80.2873585,162.171382 79.1286792,161.989474 77.5924528,161.131908 C76.0210583,160.184095 74.773165,158.784657 74.0122642,157.116941 C73.1190051,155.224909 72.6735689,153.153233 72.7103774,151.062007 L72.7103774,147.969572 C72.7103774,145.752029 73.1443396,144.257785 74.0122642,143.486842 C74.8801887,142.715899 76.1213208,142.785197 77.7356604,143.694737 C79.1493613,144.504731 80.3082034,145.69281 81.0815094,147.125 C81.902287,148.658277 82.348373,150.363447 82.3833962,152.10148 L80.4696226,151.023026 C80.4485338,149.843723 80.1871928,148.681039 79.7015094,147.605757 C79.2554402,146.750956 78.567243,146.046029 77.7226415,145.578783 C76.6984906,144.989748 75.9130189,144.989748 75.3662264,145.578783 C74.6930578,146.627376 74.4033346,147.875799 74.5460377,149.112993 L74.5460377,152.244408 C74.5064005,153.753234 74.7674916,155.254886 75.3141509,156.662171 C75.740337,157.778803 76.5285888,158.721027 77.5533962,159.338816 C78.5341509,159.901864 79.2415094,160.031798 79.6754717,159.728618 C80.109434,159.425439 80.3784906,158.580866 80.4826415,157.194901 L82.3703774,158.260362 Z" id="Shape" fill="#181E26"></path>
                <path d="M94.6862264,163.756579 C94.6862264,166.086732 94.2522642,167.628618 93.3843396,168.382237 C92.5164151,169.135855 91.275283,169.049232 89.6609434,168.122368 C88.0878972,167.20542 86.8166489,165.850868 86.0026415,164.224342 C85.0748946,162.346016 84.6021991,160.276452 84.6226415,158.182401 L84.6226415,154.921053 C84.6226415,152.642873 85.0566038,151.109649 85.9245283,150.321382 C86.7924528,149.533114 88.0292453,149.598081 89.6349057,150.516283 C91.2381545,151.448448 92.5256969,152.837543 93.3322642,154.505263 C94.2303352,156.404894 94.6759138,158.486126 94.6341509,160.586184 L94.6862264,163.756579 Z M92.7984906,159.676645 C92.8485347,158.144774 92.5826593,156.618978 92.0173585,155.193914 C91.5388047,154.061764 90.7020374,153.117107 89.6349057,152.504276 C88.6020755,151.906579 87.8166038,151.906579 87.2784906,152.504276 C86.6254274,153.536875 86.3409971,154.759366 86.4713208,155.97352 L86.4713208,159.039967 C86.4285567,160.559849 86.6988522,162.072314 87.2654717,163.483717 C87.736915,164.633602 88.5740372,165.596922 89.6479245,166.225329 C90.7067925,166.831689 91.4879245,166.862007 91.9913208,166.316283 C92.6274801,165.296221 92.9067716,164.094416 92.7854717,162.899013 L92.7984906,159.676645 Z" id="Shape" fill="#181E26"></path>
                <polygon id="Shape" fill="#181E26" points="107.392642 178.114309 105.45283 177.009868 99.4511321 160.391283 99.4511321 173.540625 97.6415094 172.462171 97.6415094 155.388816 99.5422642 156.480263 105.517925 173.111842 105.517925 159.9625 107.392642 161.040954"></polygon>
                <polygon id="Shape" fill="#181E26" points="119.13566 169.642599 115.23 167.36875 115.23 182.597039 113.264151 181.518586 113.264151 166.277303 109.358491 164.016447 109.358491 162.171382 119.122642 167.797533"></polygon>
                <path d="M125.879434,181.856414 L123.27566,180.336184 L123.27566,187.235691 L121.348868,186.105263 L121.348868,169.070888 L125.553962,171.487664 C128.38766,173.007908 130.116697,175.996364 130.019434,179.205757 C130.074761,180.051387 129.860576,180.892806 129.407547,181.609539 C129.00945,182.157124 128.350816,182.453671 127.676038,182.389145 L130.579245,191.302632 L130.579245,191.445559 L128.548302,190.276151 L125.879434,181.856414 Z M123.27566,178.491118 L125.566981,179.790461 C126.356792,180.240899 126.986038,180.314529 127.454717,180.011349 C127.998316,179.529221 128.262508,178.806555 128.157736,178.088322 C128.267107,176.127522 127.259778,174.272632 125.553962,173.29375 L123.288679,171.994408 L123.27566,178.491118 Z" id="Shape" fill="#181E26"></path>
                <path d="M139.536226,192.160197 L134.471887,189.236678 L133.313208,193.030757 L131.373396,191.913322 L136.203396,177.620559 L137.817736,178.556086 L142.660755,198.423026 L140.720943,197.305592 L139.536226,192.160197 Z M134.966604,187.677467 L139.054528,190.029276 L137.010566,181.089803 L134.966604,187.677467 Z" id="Shape" fill="#181E26"></path>
                <path d="M153.98717,199.527467 C153.900377,201.311897 153.466415,202.450987 152.685283,202.944737 C151.904151,203.438487 150.745472,203.256579 149.209245,202.399013 C147.637851,201.4512 146.389957,200.051762 145.629057,198.384046 C144.736241,196.491865 144.290827,194.420293 144.32717,192.329112 L144.32717,189.236678 C144.32717,187.019134 144.761132,185.52489 145.629057,184.753947 C146.496981,183.983004 147.738113,184.052303 149.352453,184.961842 C150.768758,185.766947 151.93197,186.950384 152.711321,188.379112 C153.532098,189.912389 153.978184,191.617558 154.013208,193.355592 L152.112453,192.251151 C152.091002,191.071891 151.829677,189.909279 151.34434,188.833882 C150.897643,187.979534 150.209603,187.274768 149.365472,186.806908 C148.341321,186.217873 147.555849,186.217873 147.009057,186.806908 C146.335888,187.855501 146.046165,189.103924 146.188868,190.341118 L146.188868,193.472533 C146.149923,194.981308 146.41099,196.482826 146.956981,197.890296 C147.383167,199.006928 148.171419,199.949152 149.196226,200.566941 C150.176981,201.129989 150.88434,201.259923 151.318302,200.956743 C151.752264,200.653564 152.021321,199.813322 152.125472,198.43602 L153.98717,199.527467 Z" id="Shape" fill="#181E26"></path>
                <polygon id="Shape" fill="#181E26" points="165.014151 196.084211 161.108491 193.810362 161.108491 209.038651 159.220755 207.947204 159.220755 192.718914 155.315094 190.445066 155.315094 188.6 165.079245 194.226151"></polygon>
                <path d="M179.998868,283.348026 L218.716981,355.474507 C221.111292,359.650978 226.444594,361.099499 230.629245,358.709868 C234.813896,356.320238 236.265254,350.99736 233.870943,346.820888 L191.156038,276.955263 L179.998868,283.348026 Z" id="Shape" fill="url(#linearGradient-4)"></path>
                <rect id="Rectangle-path" fill="url(#linearGradient-5)" transform="translate(183.901244, 277.201969) rotate(150.200000) translate(-183.901244, -277.201969) " x="180.106244" y="273.414387" width="7.59" height="7.57516447"></rect>
                <path d="M124.395283,179.608553 C117.75566,183.389638 113.641698,191.52352 113.641698,203.126645 C113.641698,226.332895 130.071509,254.619572 150.341887,266.300658 C160.509623,272.160691 169.713962,272.732401 176.379623,268.899342 L185.401698,263.701974 C178.749057,267.535033 169.544717,266.963322 159.363962,261.103289 C139.093585,249.409211 122.663774,221.14852 122.663774,197.929276 C122.663774,186.326151 126.764717,178.179276 133.417358,174.411184 L124.395283,179.608553 Z" id="Shape" fill="#0C2033"></path>
                <path d="M108.056604,200.761842 C108.056604,227.372368 126.894906,259.790954 150.120566,273.174178 C173.346226,286.557401 192.184528,275.837829 192.184528,249.240296 C192.184528,222.642763 173.346226,190.211184 150.120566,176.827961 C126.894906,163.444737 108.056604,174.164309 108.056604,200.761842 Z M115.529434,205.075658 C115.529434,183.194737 131.008868,174.385197 150.120566,185.390625 C169.232264,196.396053 184.711698,223.071546 184.711698,244.92648 C184.711698,266.781414 169.245283,275.616941 150.133585,264.611513 C131.021887,253.606086 115.555472,226.956579 115.555472,205.075658 L115.529434,205.075658 Z" id="Shape" fill="#798C89"></path>
                <path d="M115.555472,205.075658 C115.555472,183.194737 131.034906,174.385197 150.146604,185.390625 C169.258302,196.396053 184.737736,223.071546 184.737736,244.92648 C184.737736,266.781414 169.245283,275.616941 150.133585,264.611513 C131.021887,253.606086 115.555472,226.956579 115.555472,205.075658 Z" id="Shape" fill="#00E2C1" opacity="0.4"></path>
                <path d="M190.218679,270.250658 C197.834717,265.923849 202.534528,256.594572 202.534528,243.289309 C202.534528,216.678783 183.696226,184.260197 160.470566,170.876974 C148.753585,164.159375 138.260377,163.509704 130.631321,167.90148 L120.29434,173.852467 C127.910377,169.460691 138.520755,170.110362 150.133585,176.827961 C173.359245,190.211184 192.197547,222.62977 192.197547,249.240296 C192.197547,262.545559 187.484717,271.874836 179.881698,276.201645 L190.218679,270.250658 Z" id="Shape" fill="#0C2033"></path>
            </g>
        </g>
    </g>
</svg>