<?xml version="1.0" encoding="UTF-8"?>
<svg width="81px" height="20px" viewBox="0 0 81 20" version="1.1" xmlns="http://www.w3.org/2000/svg" xmlns:xlink="http://www.w3.org/1999/xlink">
    <!-- Generator: Sketch 49 (51002) - http://www.bohemiancoding.com/sketch -->
    <title>icons</title>
    <desc>Created with Sketch.</desc>
    <defs></defs>
    <g id="Page-1" stroke="none" stroke-width="1" fill="none" fill-rule="evenodd" opacity="0.300000012">
        <g id="Market-v2" transform="translate(-847.000000, -926.000000)">
            <g id="explore-contracts" transform="translate(1.000000, 722.000000)">
                <g id="icons" transform="translate(842.000000, 202.000000)">
                    <g id="ic/blur_linear/grey600" transform="translate(64.000000, 0.000000)">
                        <g id="ic_blur_linear_24px">
                            <polygon id="Shape" points="0 0 24 0 24 24 0 24"></polygon>
                            <path d="M5,17.5 C5.83,17.5 6.5,16.83 6.5,16 C6.5,15.17 5.83,14.5 5,14.5 C4.17,14.5 3.5,15.17 3.5,16 C3.5,16.83 4.17,17.5 5,17.5 Z M9,13 C9.55,13 10,12.55 10,12 C10,11.45 9.55,11 9,11 C8.45,11 8,11.45 8,12 C8,12.55 8.45,13 9,13 Z M9,9 C9.55,9 10,8.55 10,8 C10,7.45 9.55,7 9,7 C8.45,7 8,7.45 8,8 C8,8.55 8.45,9 9,9 Z M3,21 L21,21 L21,19 L3,19 L3,21 Z M5,9.5 C5.83,9.5 6.5,8.83 6.5,8 C6.5,7.17 5.83,6.5 5,6.5 C4.17,6.5 3.5,7.17 3.5,8 C3.5,8.83 4.17,9.5 5,9.5 Z M5,13.5 C5.83,13.5 6.5,12.83 6.5,12 C6.5,11.17 5.83,10.5 5,10.5 C4.17,10.5 3.5,11.17 3.5,12 C3.5,12.83 4.17,13.5 5,13.5 Z M9,17 C9.55,17 10,16.55 10,16 C10,15.45 9.55,15 9,15 C8.45,15 8,15.45 8,16 C8,16.55 8.45,17 9,17 Z M17,16.5 C17.28,16.5 17.5,16.28 17.5,16 C17.5,15.72 17.28,15.5 17,15.5 C16.72,15.5 16.5,15.72 16.5,16 C16.5,16.28 16.72,16.5 17,16.5 Z M3,3 L3,5 L21,5 L21,3 L3,3 Z M17,8.5 C17.28,8.5 17.5,8.28 17.5,8 C17.5,7.72 17.28,7.5 17,7.5 C16.72,7.5 16.5,7.72 16.5,8 C16.5,8.28 16.72,8.5 17,8.5 Z M17,12.5 C17.28,12.5 17.5,12.28 17.5,12 C17.5,11.72 17.28,11.5 17,11.5 C16.72,11.5 16.5,11.72 16.5,12 C16.5,12.28 16.72,12.5 17,12.5 Z M13,9 C13.55,9 14,8.55 14,8 C14,7.45 13.55,7 13,7 C12.45,7 12,7.45 12,8 C12,8.55 12.45,9 13,9 Z M13,13 C13.55,13 14,12.55 14,12 C14,11.45 13.55,11 13,11 C12.45,11 12,11.45 12,12 C12,12.55 12.45,13 13,13 Z M13,17 C13.55,17 14,16.55 14,16 C14,15.45 13.55,15 13,15 C12.45,15 12,15.45 12,16 C12,16.55 12.45,17 13,17 Z" id="Shape" fill="#757575" fill-rule="nonzero"></path>
                        </g>
                    </g>
                    <g id="ic/filter/grey600" transform="translate(32.000000, 0.000000)">
                        <g id="ic/filter_list/grey600">
                            <g id="ic_filter_list_24px">
                                <path d="M10,18 L14,18 L14,16 L10,16 L10,18 Z M3,6 L3,8 L21,8 L21,6 L3,6 Z M6,13 L18,13 L18,11 L6,11 L6,13 Z" id="Shape" fill="#757575" fill-rule="nonzero"></path>
                                <polygon id="Shape" points="0 0 24 0 24 24 0 24"></polygon>
                            </g>
                        </g>
                    </g>
                    <g id="ic/find_in_page/grey600">
                        <g id="ic_find_in_page_24px">
                            <polygon id="Shape" points="0 0 24 0 24 24 0 24"></polygon>
                            <path d="M20,19.59 L20,8 L14,2 L6,2 C4.9,2 4.01,2.9 4.01,4 L4,20 C4,21.1 4.89,22 5.99,22 L18,22 C18.45,22 18.85,21.85 19.19,21.6 L14.76,17.17 C13.96,17.69 13.02,18 12,18 C9.24,18 7,15.76 7,13 C7,10.24 9.24,8 12,8 C14.76,8 17,10.24 17,13 C17,14.02 16.69,14.96 16.17,15.75 L20,19.59 Z M9,13 C9,14.66 10.34,16 12,16 C13.66,16 15,14.66 15,13 C15,11.34 13.66,10 12,10 C10.34,10 9,11.34 9,13 Z" id="Shape" fill="#757575" fill-rule="nonzero"></path>
                        </g>
                    </g>
                </g>
            </g>
        </g>
    </g>
</svg>