<?xml version="1.0" encoding="UTF-8"?>
<svg width="781px" height="731px" viewBox="0 0 781 731" version="1.1" xmlns="http://www.w3.org/2000/svg" xmlns:xlink="http://www.w3.org/1999/xlink">
    <!-- Generator: Sketch 49.3 (51167) - http://www.bohemiancoding.com/sketch -->
    <title>Group 6</title>
    <desc>Created with Sketch.</desc>
    <defs>
        <filter x="-68.6%" y="-57.1%" width="237.1%" height="328.6%" filterUnits="objectBoundingBox" id="filter-1">
            <feOffset dx="0" dy="48" in="SourceAlpha" result="shadowOffsetOuter1"></feOffset>
            <feGaussianBlur stdDeviation="24" in="shadowOffsetOuter1" result="shadowBlurOuter1"></feGaussianBlur>
            <feColorMatrix values="0 0 0 0 0   0 0 0 0 0   0 0 0 0 0  0 0 0 0.5 0" type="matrix" in="shadowBlurOuter1" result="shadowMatrixOuter1"></feColorMatrix>
            <feMerge>
                <feMergeNode in="shadowMatrixOuter1"></feMergeNode>
                <feMergeNode in="SourceGraphic"></feMergeNode>
            </feMerge>
        </filter>
        <filter x="-68.6%" y="-57.1%" width="237.1%" height="328.6%" filterUnits="objectBoundingBox" id="filter-2">
            <feOffset dx="0" dy="48" in="SourceAlpha" result="shadowOffsetOuter1"></feOffset>
            <feGaussianBlur stdDeviation="24" in="shadowOffsetOuter1" result="shadowBlurOuter1"></feGaussianBlur>
            <feColorMatrix values="0 0 0 0 0   0 0 0 0 0   0 0 0 0 0  0 0 0 0.5 0" type="matrix" in="shadowBlurOuter1" result="shadowMatrixOuter1"></feColorMatrix>
            <feMerge>
                <feMergeNode in="shadowMatrixOuter1"></feMergeNode>
                <feMergeNode in="SourceGraphic"></feMergeNode>
            </feMerge>
        </filter>
        <filter x="-68.6%" y="-57.1%" width="237.1%" height="328.6%" filterUnits="objectBoundingBox" id="filter-3">
            <feOffset dx="0" dy="48" in="SourceAlpha" result="shadowOffsetOuter1"></feOffset>
            <feGaussianBlur stdDeviation="24" in="shadowOffsetOuter1" result="shadowBlurOuter1"></feGaussianBlur>
            <feColorMatrix values="0 0 0 0 0   0 0 0 0 0   0 0 0 0 0  0 0 0 0.5 0" type="matrix" in="shadowBlurOuter1" result="shadowMatrixOuter1"></feColorMatrix>
            <feMerge>
                <feMergeNode in="shadowMatrixOuter1"></feMergeNode>
                <feMergeNode in="SourceGraphic"></feMergeNode>
            </feMerge>
        </filter>
        <filter x="-68.6%" y="-57.1%" width="237.1%" height="328.6%" filterUnits="objectBoundingBox" id="filter-4">
            <feOffset dx="0" dy="48" in="SourceAlpha" result="shadowOffsetOuter1"></feOffset>
            <feGaussianBlur stdDeviation="24" in="shadowOffsetOuter1" result="shadowBlurOuter1"></feGaussianBlur>
            <feColorMatrix values="0 0 0 0 0   0 0 0 0 0   0 0 0 0 0  0 0 0 0.5 0" type="matrix" in="shadowBlurOuter1" result="shadowMatrixOuter1"></feColorMatrix>
            <feMerge>
                <feMergeNode in="shadowMatrixOuter1"></feMergeNode>
                <feMergeNode in="SourceGraphic"></feMergeNode>
            </feMerge>
        </filter>
        <filter x="-68.6%" y="-57.1%" width="237.1%" height="328.6%" filterUnits="objectBoundingBox" id="filter-5">
            <feOffset dx="0" dy="48" in="SourceAlpha" result="shadowOffsetOuter1"></feOffset>
            <feGaussianBlur stdDeviation="24" in="shadowOffsetOuter1" result="shadowBlurOuter1"></feGaussianBlur>
            <feColorMatrix values="0 0 0 0 0   0 0 0 0 0   0 0 0 0 0  0 0 0 0.5 0" type="matrix" in="shadowBlurOuter1" result="shadowMatrixOuter1"></feColorMatrix>
            <feMerge>
                <feMergeNode in="shadowMatrixOuter1"></feMergeNode>
                <feMergeNode in="SourceGraphic"></feMergeNode>
            </feMerge>
        </filter>
        <filter x="-68.6%" y="-57.1%" width="237.1%" height="328.6%" filterUnits="objectBoundingBox" id="filter-6">
            <feOffset dx="0" dy="48" in="SourceAlpha" result="shadowOffsetOuter1"></feOffset>
            <feGaussianBlur stdDeviation="24" in="shadowOffsetOuter1" result="shadowBlurOuter1"></feGaussianBlur>
            <feColorMatrix values="0 0 0 0 0   0 0 0 0 0   0 0 0 0 0  0 0 0 0.5 0" type="matrix" in="shadowBlurOuter1" result="shadowMatrixOuter1"></feColorMatrix>
            <feMerge>
                <feMergeNode in="shadowMatrixOuter1"></feMergeNode>
                <feMergeNode in="SourceGraphic"></feMergeNode>
            </feMerge>
        </filter>
    </defs>
    <g id="Page-1" stroke="none" stroke-width="1" fill="none" fill-rule="evenodd">
        <g id="Market-v3" transform="translate(-1.000000, -751.000000)">
            <g id="explore-contracts" transform="translate(1.000000, 751.000000)">
                <g id="Group-6">
                    <polygon id="big-base" fill="#0F1821" points="57.9653351 0.0550478984 759 351.447751 0 731 0 0.0550478984"></polygon>
                    <g id="Group-2" transform="translate(185.000000, 167.000000)">
                        <polygon id="base" fill="#383F4C" points="0 184 287.5 40 575 184 287.5 328"></polygon>
                        <g id="illustration" transform="translate(26.000000, 0.000000)">
                            <g id="Rectangle-7_Isometric" transform="translate(0.000000, 133.000000)">
                                <polygon id="Rectangle-7_Left_Isometric" fill="#677383" points="70 84 0 49 0 35 70 70"></polygon>
                                <polygon id="Rectangle-7_Right_Isometric" fill="#414D60" points="70 84 140 49 140 35 70 70"></polygon>
                                <polygon id="Rectangle-7_Top_Isometric" fill="#00FFE2" points="0 35 70 0 140 35 70 70"></polygon>
                                <g id="contracts" transform="translate(42.000000, 18.000000)" fill="#000000" opacity="0.5">
                                    <g id="ic_blur_on_24px" transform="translate(5.000000, 4.000000)">
                                        <path d="M7.73684211,13.8157895 C6.52105263,13.8157895 5.52631579,14.4078947 5.52631579,15.1315789 C5.52631579,15.8552632 6.52105263,16.4473684 7.73684211,16.4473684 C8.95263158,16.4473684 9.94736842,15.8552632 9.94736842,15.1315789 C9.94736842,14.4078947 8.95263158,13.8157895 7.73684211,13.8157895 Z M7.73684211,19.0789474 C6.52105263,19.0789474 5.52631579,19.6710526 5.52631579,20.3947368 C5.52631579,21.1184211 6.52105263,21.7105263 7.73684211,21.7105263 C8.95263158,21.7105263 9.94736842,21.1184211 9.94736842,20.3947368 C9.94736842,19.6710526 8.95263158,19.0789474 7.73684211,19.0789474 Z M7.73684211,8.55263158 C6.52105263,8.55263158 5.52631579,9.14473684 5.52631579,9.86842105 C5.52631579,10.5921053 6.52105263,11.1842105 7.73684211,11.1842105 C8.95263158,11.1842105 9.94736842,10.5921053 9.94736842,9.86842105 C9.94736842,9.14473684 8.95263158,8.55263158 7.73684211,8.55263158 Z M1.10526316,9.21052632 C0.486315789,9.21052632 0,9.5 0,9.86842105 C0,10.2368421 0.486315789,10.5263158 1.10526316,10.5263158 C1.72421053,10.5263158 2.21052632,10.2368421 2.21052632,9.86842105 C2.21052632,9.5 1.72421053,9.21052632 1.10526316,9.21052632 Z M7.73684211,3.28947368 C6.52105263,3.28947368 5.52631579,3.88157895 5.52631579,4.60526316 C5.52631579,5.32894737 6.52105263,5.92105263 7.73684211,5.92105263 C8.95263158,5.92105263 9.94736842,5.32894737 9.94736842,4.60526316 C9.94736842,3.88157895 8.95263158,3.28947368 7.73684211,3.28947368 Z M40.8947368,10.5263158 C41.5136842,10.5263158 42,10.2368421 42,9.86842105 C42,9.5 41.5136842,9.21052632 40.8947368,9.21052632 C40.2757895,9.21052632 39.7894737,9.5 39.7894737,9.86842105 C39.7894737,10.2368421 40.2757895,10.5263158 40.8947368,10.5263158 Z M25.4210526,5.92105263 C26.6368421,5.92105263 27.6315789,5.32894737 27.6315789,4.60526316 C27.6315789,3.88157895 26.6368421,3.28947368 25.4210526,3.28947368 C24.2052632,3.28947368 23.2105263,3.88157895 23.2105263,4.60526316 C23.2105263,5.32894737 24.2052632,5.92105263 25.4210526,5.92105263 Z M25.4210526,1.31578947 C26.04,1.31578947 26.5263158,1.02631579 26.5263158,0.657894737 C26.5263158,0.289473684 26.04,0 25.4210526,0 C24.8021053,0 24.3157895,0.289473684 24.3157895,0.657894737 C24.3157895,1.02631579 24.8021053,1.31578947 25.4210526,1.31578947 Z M1.10526316,14.4736842 C0.486315789,14.4736842 0,14.7631579 0,15.1315789 C0,15.5 0.486315789,15.7894737 1.10526316,15.7894737 C1.72421053,15.7894737 2.21052632,15.5 2.21052632,15.1315789 C2.21052632,14.7631579 1.72421053,14.4736842 1.10526316,14.4736842 Z M16.5789474,23.6842105 C15.96,23.6842105 15.4736842,23.9736842 15.4736842,24.3421053 C15.4736842,24.7105263 15.96,25 16.5789474,25 C17.1978947,25 17.6842105,24.7105263 17.6842105,24.3421053 C17.6842105,23.9736842 17.1978947,23.6842105 16.5789474,23.6842105 Z M16.5789474,1.31578947 C17.1978947,1.31578947 17.6842105,1.02631579 17.6842105,0.657894737 C17.6842105,0.289473684 17.1978947,0 16.5789474,0 C15.96,0 15.4736842,0.289473684 15.4736842,0.657894737 C15.4736842,1.02631579 15.96,1.31578947 16.5789474,1.31578947 Z M16.5789474,5.92105263 C17.7947368,5.92105263 18.7894737,5.32894737 18.7894737,4.60526316 C18.7894737,3.88157895 17.7947368,3.28947368 16.5789474,3.28947368 C15.3631579,3.28947368 14.3684211,3.88157895 14.3684211,4.60526316 C14.3684211,5.32894737 15.3631579,5.92105263 16.5789474,5.92105263 Z M16.5789474,13.1578947 C14.7442105,13.1578947 13.2631579,14.0394737 13.2631579,15.1315789 C13.2631579,16.2236842 14.7442105,17.1052632 16.5789474,17.1052632 C18.4136842,17.1052632 19.8947368,16.2236842 19.8947368,15.1315789 C19.8947368,14.0394737 18.4136842,13.1578947 16.5789474,13.1578947 Z M34.2631579,13.8157895 C33.0473684,13.8157895 32.0526316,14.4078947 32.0526316,15.1315789 C32.0526316,15.8552632 33.0473684,16.4473684 34.2631579,16.4473684 C35.4789474,16.4473684 36.4736842,15.8552632 36.4736842,15.1315789 C36.4736842,14.4078947 35.4789474,13.8157895 34.2631579,13.8157895 Z M34.2631579,19.0789474 C33.0473684,19.0789474 32.0526316,19.6710526 32.0526316,20.3947368 C32.0526316,21.1184211 33.0473684,21.7105263 34.2631579,21.7105263 C35.4789474,21.7105263 36.4736842,21.1184211 36.4736842,20.3947368 C36.4736842,19.6710526 35.4789474,19.0789474 34.2631579,19.0789474 Z M34.2631579,8.55263158 C33.0473684,8.55263158 32.0526316,9.14473684 32.0526316,9.86842105 C32.0526316,10.5921053 33.0473684,11.1842105 34.2631579,11.1842105 C35.4789474,11.1842105 36.4736842,10.5921053 36.4736842,9.86842105 C36.4736842,9.14473684 35.4789474,8.55263158 34.2631579,8.55263158 Z M34.2631579,3.28947368 C33.0473684,3.28947368 32.0526316,3.88157895 32.0526316,4.60526316 C32.0526316,5.32894737 33.0473684,5.92105263 34.2631579,5.92105263 C35.4789474,5.92105263 36.4736842,5.32894737 36.4736842,4.60526316 C36.4736842,3.88157895 35.4789474,3.28947368 34.2631579,3.28947368 Z M40.8947368,14.4736842 C40.2757895,14.4736842 39.7894737,14.7631579 39.7894737,15.1315789 C39.7894737,15.5 40.2757895,15.7894737 40.8947368,15.7894737 C41.5136842,15.7894737 42,15.5 42,15.1315789 C42,14.7631579 41.5136842,14.4736842 40.8947368,14.4736842 Z M25.4210526,19.0789474 C24.2052632,19.0789474 23.2105263,19.6710526 23.2105263,20.3947368 C23.2105263,21.1184211 24.2052632,21.7105263 25.4210526,21.7105263 C26.6368421,21.7105263 27.6315789,21.1184211 27.6315789,20.3947368 C27.6315789,19.6710526 26.6368421,19.0789474 25.4210526,19.0789474 Z M25.4210526,23.6842105 C24.8021053,23.6842105 24.3157895,23.9736842 24.3157895,24.3421053 C24.3157895,24.7105263 24.8021053,25 25.4210526,25 C26.04,25 26.5263158,24.7105263 26.5263158,24.3421053 C26.5263158,23.9736842 26.04,23.6842105 25.4210526,23.6842105 Z M16.5789474,7.89473684 C14.7442105,7.89473684 13.2631579,8.77631579 13.2631579,9.86842105 C13.2631579,10.9605263 14.7442105,11.8421053 16.5789474,11.8421053 C18.4136842,11.8421053 19.8947368,10.9605263 19.8947368,9.86842105 C19.8947368,8.77631579 18.4136842,7.89473684 16.5789474,7.89473684 Z M16.5789474,19.0789474 C15.3631579,19.0789474 14.3684211,19.6710526 14.3684211,20.3947368 C14.3684211,21.1184211 15.3631579,21.7105263 16.5789474,21.7105263 C17.7947368,21.7105263 18.7894737,21.1184211 18.7894737,20.3947368 C18.7894737,19.6710526 17.7947368,19.0789474 16.5789474,19.0789474 Z M25.4210526,13.1578947 C23.5863158,13.1578947 22.1052632,14.0394737 22.1052632,15.1315789 C22.1052632,16.2236842 23.5863158,17.1052632 25.4210526,17.1052632 C27.2557895,17.1052632 28.7368421,16.2236842 28.7368421,15.1315789 C28.7368421,14.0394737 27.2557895,13.1578947 25.4210526,13.1578947 Z M25.4210526,7.89473684 C23.5863158,7.89473684 22.1052632,8.77631579 22.1052632,9.86842105 C22.1052632,10.9605263 23.5863158,11.8421053 25.4210526,11.8421053 C27.2557895,11.8421053 28.7368421,10.9605263 28.7368421,9.86842105 C28.7368421,8.77631579 27.2557895,7.89473684 25.4210526,7.89473684 Z" id="Shape" fill-rule="nonzero"></path>
                                    </g>
                                </g>
                            </g>
                            <g id="Rectangle-7_Isometric" filter="url(#filter-1)" transform="translate(95.000000, 63.000000)">
                                <polygon id="Rectangle-7_Left_Isometric" fill="#677383" points="70 84 0 49 0 35 70 70"></polygon>
                                <polygon id="Rectangle-7_Right_Isometric" fill="#414D60" points="70 84 140 49 140 35 70 70"></polygon>
                                <polygon id="Rectangle-7_Top_Isometric" fill="#00FFE2" points="0 35 70 0 140 35 70 70"></polygon>
                                <g id="contracts" transform="translate(43.000000, 17.000000)" fill="#000000" opacity="0.5">
                                    <g id="ic_blur_on_24px" transform="translate(5.000000, 4.000000)">
                                        <path d="M7.73684211,13.8157895 C6.52105263,13.8157895 5.52631579,14.4078947 5.52631579,15.1315789 C5.52631579,15.8552632 6.52105263,16.4473684 7.73684211,16.4473684 C8.95263158,16.4473684 9.94736842,15.8552632 9.94736842,15.1315789 C9.94736842,14.4078947 8.95263158,13.8157895 7.73684211,13.8157895 Z M7.73684211,19.0789474 C6.52105263,19.0789474 5.52631579,19.6710526 5.52631579,20.3947368 C5.52631579,21.1184211 6.52105263,21.7105263 7.73684211,21.7105263 C8.95263158,21.7105263 9.94736842,21.1184211 9.94736842,20.3947368 C9.94736842,19.6710526 8.95263158,19.0789474 7.73684211,19.0789474 Z M7.73684211,8.55263158 C6.52105263,8.55263158 5.52631579,9.14473684 5.52631579,9.86842105 C5.52631579,10.5921053 6.52105263,11.1842105 7.73684211,11.1842105 C8.95263158,11.1842105 9.94736842,10.5921053 9.94736842,9.86842105 C9.94736842,9.14473684 8.95263158,8.55263158 7.73684211,8.55263158 Z M1.10526316,9.21052632 C0.486315789,9.21052632 0,9.5 0,9.86842105 C0,10.2368421 0.486315789,10.5263158 1.10526316,10.5263158 C1.72421053,10.5263158 2.21052632,10.2368421 2.21052632,9.86842105 C2.21052632,9.5 1.72421053,9.21052632 1.10526316,9.21052632 Z M7.73684211,3.28947368 C6.52105263,3.28947368 5.52631579,3.88157895 5.52631579,4.60526316 C5.52631579,5.32894737 6.52105263,5.92105263 7.73684211,5.92105263 C8.95263158,5.92105263 9.94736842,5.32894737 9.94736842,4.60526316 C9.94736842,3.88157895 8.95263158,3.28947368 7.73684211,3.28947368 Z M40.8947368,10.5263158 C41.5136842,10.5263158 42,10.2368421 42,9.86842105 C42,9.5 41.5136842,9.21052632 40.8947368,9.21052632 C40.2757895,9.21052632 39.7894737,9.5 39.7894737,9.86842105 C39.7894737,10.2368421 40.2757895,10.5263158 40.8947368,10.5263158 Z M25.4210526,5.92105263 C26.6368421,5.92105263 27.6315789,5.32894737 27.6315789,4.60526316 C27.6315789,3.88157895 26.6368421,3.28947368 25.4210526,3.28947368 C24.2052632,3.28947368 23.2105263,3.88157895 23.2105263,4.60526316 C23.2105263,5.32894737 24.2052632,5.92105263 25.4210526,5.92105263 Z M25.4210526,1.31578947 C26.04,1.31578947 26.5263158,1.02631579 26.5263158,0.657894737 C26.5263158,0.289473684 26.04,0 25.4210526,0 C24.8021053,0 24.3157895,0.289473684 24.3157895,0.657894737 C24.3157895,1.02631579 24.8021053,1.31578947 25.4210526,1.31578947 Z M1.10526316,14.4736842 C0.486315789,14.4736842 0,14.7631579 0,15.1315789 C0,15.5 0.486315789,15.7894737 1.10526316,15.7894737 C1.72421053,15.7894737 2.21052632,15.5 2.21052632,15.1315789 C2.21052632,14.7631579 1.72421053,14.4736842 1.10526316,14.4736842 Z M16.5789474,23.6842105 C15.96,23.6842105 15.4736842,23.9736842 15.4736842,24.3421053 C15.4736842,24.7105263 15.96,25 16.5789474,25 C17.1978947,25 17.6842105,24.7105263 17.6842105,24.3421053 C17.6842105,23.9736842 17.1978947,23.6842105 16.5789474,23.6842105 Z M16.5789474,1.31578947 C17.1978947,1.31578947 17.6842105,1.02631579 17.6842105,0.657894737 C17.6842105,0.289473684 17.1978947,0 16.5789474,0 C15.96,0 15.4736842,0.289473684 15.4736842,0.657894737 C15.4736842,1.02631579 15.96,1.31578947 16.5789474,1.31578947 Z M16.5789474,5.92105263 C17.7947368,5.92105263 18.7894737,5.32894737 18.7894737,4.60526316 C18.7894737,3.88157895 17.7947368,3.28947368 16.5789474,3.28947368 C15.3631579,3.28947368 14.3684211,3.88157895 14.3684211,4.60526316 C14.3684211,5.32894737 15.3631579,5.92105263 16.5789474,5.92105263 Z M16.5789474,13.1578947 C14.7442105,13.1578947 13.2631579,14.0394737 13.2631579,15.1315789 C13.2631579,16.2236842 14.7442105,17.1052632 16.5789474,17.1052632 C18.4136842,17.1052632 19.8947368,16.2236842 19.8947368,15.1315789 C19.8947368,14.0394737 18.4136842,13.1578947 16.5789474,13.1578947 Z M34.2631579,13.8157895 C33.0473684,13.8157895 32.0526316,14.4078947 32.0526316,15.1315789 C32.0526316,15.8552632 33.0473684,16.4473684 34.2631579,16.4473684 C35.4789474,16.4473684 36.4736842,15.8552632 36.4736842,15.1315789 C36.4736842,14.4078947 35.4789474,13.8157895 34.2631579,13.8157895 Z M34.2631579,19.0789474 C33.0473684,19.0789474 32.0526316,19.6710526 32.0526316,20.3947368 C32.0526316,21.1184211 33.0473684,21.7105263 34.2631579,21.7105263 C35.4789474,21.7105263 36.4736842,21.1184211 36.4736842,20.3947368 C36.4736842,19.6710526 35.4789474,19.0789474 34.2631579,19.0789474 Z M34.2631579,8.55263158 C33.0473684,8.55263158 32.0526316,9.14473684 32.0526316,9.86842105 C32.0526316,10.5921053 33.0473684,11.1842105 34.2631579,11.1842105 C35.4789474,11.1842105 36.4736842,10.5921053 36.4736842,9.86842105 C36.4736842,9.14473684 35.4789474,8.55263158 34.2631579,8.55263158 Z M34.2631579,3.28947368 C33.0473684,3.28947368 32.0526316,3.88157895 32.0526316,4.60526316 C32.0526316,5.32894737 33.0473684,5.92105263 34.2631579,5.92105263 C35.4789474,5.92105263 36.4736842,5.32894737 36.4736842,4.60526316 C36.4736842,3.88157895 35.4789474,3.28947368 34.2631579,3.28947368 Z M40.8947368,14.4736842 C40.2757895,14.4736842 39.7894737,14.7631579 39.7894737,15.1315789 C39.7894737,15.5 40.2757895,15.7894737 40.8947368,15.7894737 C41.5136842,15.7894737 42,15.5 42,15.1315789 C42,14.7631579 41.5136842,14.4736842 40.8947368,14.4736842 Z M25.4210526,19.0789474 C24.2052632,19.0789474 23.2105263,19.6710526 23.2105263,20.3947368 C23.2105263,21.1184211 24.2052632,21.7105263 25.4210526,21.7105263 C26.6368421,21.7105263 27.6315789,21.1184211 27.6315789,20.3947368 C27.6315789,19.6710526 26.6368421,19.0789474 25.4210526,19.0789474 Z M25.4210526,23.6842105 C24.8021053,23.6842105 24.3157895,23.9736842 24.3157895,24.3421053 C24.3157895,24.7105263 24.8021053,25 25.4210526,25 C26.04,25 26.5263158,24.7105263 26.5263158,24.3421053 C26.5263158,23.9736842 26.04,23.6842105 25.4210526,23.6842105 Z M16.5789474,7.89473684 C14.7442105,7.89473684 13.2631579,8.77631579 13.2631579,9.86842105 C13.2631579,10.9605263 14.7442105,11.8421053 16.5789474,11.8421053 C18.4136842,11.8421053 19.8947368,10.9605263 19.8947368,9.86842105 C19.8947368,8.77631579 18.4136842,7.89473684 16.5789474,7.89473684 Z M16.5789474,19.0789474 C15.3631579,19.0789474 14.3684211,19.6710526 14.3684211,20.3947368 C14.3684211,21.1184211 15.3631579,21.7105263 16.5789474,21.7105263 C17.7947368,21.7105263 18.7894737,21.1184211 18.7894737,20.3947368 C18.7894737,19.6710526 17.7947368,19.0789474 16.5789474,19.0789474 Z M25.4210526,13.1578947 C23.5863158,13.1578947 22.1052632,14.0394737 22.1052632,15.1315789 C22.1052632,16.2236842 23.5863158,17.1052632 25.4210526,17.1052632 C27.2557895,17.1052632 28.7368421,16.2236842 28.7368421,15.1315789 C28.7368421,14.0394737 27.2557895,13.1578947 25.4210526,13.1578947 Z M25.4210526,7.89473684 C23.5863158,7.89473684 22.1052632,8.77631579 22.1052632,9.86842105 C22.1052632,10.9605263 23.5863158,11.8421053 25.4210526,11.8421053 C27.2557895,11.8421053 28.7368421,10.9605263 28.7368421,9.86842105 C28.7368421,8.77631579 27.2557895,7.89473684 25.4210526,7.89473684 Z" id="Shape" fill-rule="nonzero"></path>
                                    </g>
                                </g>
                            </g>
                            <g id="Rectangle-7_Isometric" filter="url(#filter-2)" transform="translate(193.000000, 120.000000)">
                                <polygon id="Rectangle-7_Left_Isometric" fill="#677383" points="70 84 0 49 0 35 70 70"></polygon>
                                <polygon id="Rectangle-7_Right_Isometric" fill="#414D60" points="70 84 140 49 140 35 70 70"></polygon>
                                <polygon id="Rectangle-7_Top_Isometric" fill="#00FFE2" points="0 35 70 0 140 35 70 70"></polygon>
                                <g id="contracts" transform="translate(43.000000, 18.000000)" fill="#000000" opacity="0.5">
                                    <g id="ic_blur_on_24px" transform="translate(5.000000, 4.000000)">
                                        <path d="M7.73684211,13.8157895 C6.52105263,13.8157895 5.52631579,14.4078947 5.52631579,15.1315789 C5.52631579,15.8552632 6.52105263,16.4473684 7.73684211,16.4473684 C8.95263158,16.4473684 9.94736842,15.8552632 9.94736842,15.1315789 C9.94736842,14.4078947 8.95263158,13.8157895 7.73684211,13.8157895 Z M7.73684211,19.0789474 C6.52105263,19.0789474 5.52631579,19.6710526 5.52631579,20.3947368 C5.52631579,21.1184211 6.52105263,21.7105263 7.73684211,21.7105263 C8.95263158,21.7105263 9.94736842,21.1184211 9.94736842,20.3947368 C9.94736842,19.6710526 8.95263158,19.0789474 7.73684211,19.0789474 Z M7.73684211,8.55263158 C6.52105263,8.55263158 5.52631579,9.14473684 5.52631579,9.86842105 C5.52631579,10.5921053 6.52105263,11.1842105 7.73684211,11.1842105 C8.95263158,11.1842105 9.94736842,10.5921053 9.94736842,9.86842105 C9.94736842,9.14473684 8.95263158,8.55263158 7.73684211,8.55263158 Z M1.10526316,9.21052632 C0.486315789,9.21052632 0,9.5 0,9.86842105 C0,10.2368421 0.486315789,10.5263158 1.10526316,10.5263158 C1.72421053,10.5263158 2.21052632,10.2368421 2.21052632,9.86842105 C2.21052632,9.5 1.72421053,9.21052632 1.10526316,9.21052632 Z M7.73684211,3.28947368 C6.52105263,3.28947368 5.52631579,3.88157895 5.52631579,4.60526316 C5.52631579,5.32894737 6.52105263,5.92105263 7.73684211,5.92105263 C8.95263158,5.92105263 9.94736842,5.32894737 9.94736842,4.60526316 C9.94736842,3.88157895 8.95263158,3.28947368 7.73684211,3.28947368 Z M40.8947368,10.5263158 C41.5136842,10.5263158 42,10.2368421 42,9.86842105 C42,9.5 41.5136842,9.21052632 40.8947368,9.21052632 C40.2757895,9.21052632 39.7894737,9.5 39.7894737,9.86842105 C39.7894737,10.2368421 40.2757895,10.5263158 40.8947368,10.5263158 Z M25.4210526,5.92105263 C26.6368421,5.92105263 27.6315789,5.32894737 27.6315789,4.60526316 C27.6315789,3.88157895 26.6368421,3.28947368 25.4210526,3.28947368 C24.2052632,3.28947368 23.2105263,3.88157895 23.2105263,4.60526316 C23.2105263,5.32894737 24.2052632,5.92105263 25.4210526,5.92105263 Z M25.4210526,1.31578947 C26.04,1.31578947 26.5263158,1.02631579 26.5263158,0.657894737 C26.5263158,0.289473684 26.04,0 25.4210526,0 C24.8021053,0 24.3157895,0.289473684 24.3157895,0.657894737 C24.3157895,1.02631579 24.8021053,1.31578947 25.4210526,1.31578947 Z M1.10526316,14.4736842 C0.486315789,14.4736842 0,14.7631579 0,15.1315789 C0,15.5 0.486315789,15.7894737 1.10526316,15.7894737 C1.72421053,15.7894737 2.21052632,15.5 2.21052632,15.1315789 C2.21052632,14.7631579 1.72421053,14.4736842 1.10526316,14.4736842 Z M16.5789474,23.6842105 C15.96,23.6842105 15.4736842,23.9736842 15.4736842,24.3421053 C15.4736842,24.7105263 15.96,25 16.5789474,25 C17.1978947,25 17.6842105,24.7105263 17.6842105,24.3421053 C17.6842105,23.9736842 17.1978947,23.6842105 16.5789474,23.6842105 Z M16.5789474,1.31578947 C17.1978947,1.31578947 17.6842105,1.02631579 17.6842105,0.657894737 C17.6842105,0.289473684 17.1978947,0 16.5789474,0 C15.96,0 15.4736842,0.289473684 15.4736842,0.657894737 C15.4736842,1.02631579 15.96,1.31578947 16.5789474,1.31578947 Z M16.5789474,5.92105263 C17.7947368,5.92105263 18.7894737,5.32894737 18.7894737,4.60526316 C18.7894737,3.88157895 17.7947368,3.28947368 16.5789474,3.28947368 C15.3631579,3.28947368 14.3684211,3.88157895 14.3684211,4.60526316 C14.3684211,5.32894737 15.3631579,5.92105263 16.5789474,5.92105263 Z M16.5789474,13.1578947 C14.7442105,13.1578947 13.2631579,14.0394737 13.2631579,15.1315789 C13.2631579,16.2236842 14.7442105,17.1052632 16.5789474,17.1052632 C18.4136842,17.1052632 19.8947368,16.2236842 19.8947368,15.1315789 C19.8947368,14.0394737 18.4136842,13.1578947 16.5789474,13.1578947 Z M34.2631579,13.8157895 C33.0473684,13.8157895 32.0526316,14.4078947 32.0526316,15.1315789 C32.0526316,15.8552632 33.0473684,16.4473684 34.2631579,16.4473684 C35.4789474,16.4473684 36.4736842,15.8552632 36.4736842,15.1315789 C36.4736842,14.4078947 35.4789474,13.8157895 34.2631579,13.8157895 Z M34.2631579,19.0789474 C33.0473684,19.0789474 32.0526316,19.6710526 32.0526316,20.3947368 C32.0526316,21.1184211 33.0473684,21.7105263 34.2631579,21.7105263 C35.4789474,21.7105263 36.4736842,21.1184211 36.4736842,20.3947368 C36.4736842,19.6710526 35.4789474,19.0789474 34.2631579,19.0789474 Z M34.2631579,8.55263158 C33.0473684,8.55263158 32.0526316,9.14473684 32.0526316,9.86842105 C32.0526316,10.5921053 33.0473684,11.1842105 34.2631579,11.1842105 C35.4789474,11.1842105 36.4736842,10.5921053 36.4736842,9.86842105 C36.4736842,9.14473684 35.4789474,8.55263158 34.2631579,8.55263158 Z M34.2631579,3.28947368 C33.0473684,3.28947368 32.0526316,3.88157895 32.0526316,4.60526316 C32.0526316,5.32894737 33.0473684,5.92105263 34.2631579,5.92105263 C35.4789474,5.92105263 36.4736842,5.32894737 36.4736842,4.60526316 C36.4736842,3.88157895 35.4789474,3.28947368 34.2631579,3.28947368 Z M40.8947368,14.4736842 C40.2757895,14.4736842 39.7894737,14.7631579 39.7894737,15.1315789 C39.7894737,15.5 40.2757895,15.7894737 40.8947368,15.7894737 C41.5136842,15.7894737 42,15.5 42,15.1315789 C42,14.7631579 41.5136842,14.4736842 40.8947368,14.4736842 Z M25.4210526,19.0789474 C24.2052632,19.0789474 23.2105263,19.6710526 23.2105263,20.3947368 C23.2105263,21.1184211 24.2052632,21.7105263 25.4210526,21.7105263 C26.6368421,21.7105263 27.6315789,21.1184211 27.6315789,20.3947368 C27.6315789,19.6710526 26.6368421,19.0789474 25.4210526,19.0789474 Z M25.4210526,23.6842105 C24.8021053,23.6842105 24.3157895,23.9736842 24.3157895,24.3421053 C24.3157895,24.7105263 24.8021053,25 25.4210526,25 C26.04,25 26.5263158,24.7105263 26.5263158,24.3421053 C26.5263158,23.9736842 26.04,23.6842105 25.4210526,23.6842105 Z M16.5789474,7.89473684 C14.7442105,7.89473684 13.2631579,8.77631579 13.2631579,9.86842105 C13.2631579,10.9605263 14.7442105,11.8421053 16.5789474,11.8421053 C18.4136842,11.8421053 19.8947368,10.9605263 19.8947368,9.86842105 C19.8947368,8.77631579 18.4136842,7.89473684 16.5789474,7.89473684 Z M16.5789474,19.0789474 C15.3631579,19.0789474 14.3684211,19.6710526 14.3684211,20.3947368 C14.3684211,21.1184211 15.3631579,21.7105263 16.5789474,21.7105263 C17.7947368,21.7105263 18.7894737,21.1184211 18.7894737,20.3947368 C18.7894737,19.6710526 17.7947368,19.0789474 16.5789474,19.0789474 Z M25.4210526,13.1578947 C23.5863158,13.1578947 22.1052632,14.0394737 22.1052632,15.1315789 C22.1052632,16.2236842 23.5863158,17.1052632 25.4210526,17.1052632 C27.2557895,17.1052632 28.7368421,16.2236842 28.7368421,15.1315789 C28.7368421,14.0394737 27.2557895,13.1578947 25.4210526,13.1578947 Z M25.4210526,7.89473684 C23.5863158,7.89473684 22.1052632,8.77631579 22.1052632,9.86842105 C22.1052632,10.9605263 23.5863158,11.8421053 25.4210526,11.8421053 C27.2557895,11.8421053 28.7368421,10.9605263 28.7368421,9.86842105 C28.7368421,8.77631579 27.2557895,7.89473684 25.4210526,7.89473684 Z" id="Shape" fill-rule="nonzero"></path>
                                    </g>
                                </g>
                            </g>
                            <g id="Rectangle-7_Isometric" filter="url(#filter-3)" transform="translate(291.000000, 167.000000)">
                                <polygon id="Rectangle-7_Left_Isometric" fill="#677383" points="70 84 0 49 0 35 70 70"></polygon>
                                <polygon id="Rectangle-7_Right_Isometric" fill="#414D60" points="70 84 140 49 140 35 70 70"></polygon>
                                <polygon id="Rectangle-7_Top_Isometric" fill="#00FFE2" points="0 35 70 0 140 35 70 70"></polygon>
                                <g id="contracts" transform="translate(42.000000, 18.000000)" fill="#000000" opacity="0.5">
                                    <g id="ic_blur_on_24px" transform="translate(5.000000, 4.000000)">
                                        <path d="M7.73684211,13.8157895 C6.52105263,13.8157895 5.52631579,14.4078947 5.52631579,15.1315789 C5.52631579,15.8552632 6.52105263,16.4473684 7.73684211,16.4473684 C8.95263158,16.4473684 9.94736842,15.8552632 9.94736842,15.1315789 C9.94736842,14.4078947 8.95263158,13.8157895 7.73684211,13.8157895 Z M7.73684211,19.0789474 C6.52105263,19.0789474 5.52631579,19.6710526 5.52631579,20.3947368 C5.52631579,21.1184211 6.52105263,21.7105263 7.73684211,21.7105263 C8.95263158,21.7105263 9.94736842,21.1184211 9.94736842,20.3947368 C9.94736842,19.6710526 8.95263158,19.0789474 7.73684211,19.0789474 Z M7.73684211,8.55263158 C6.52105263,8.55263158 5.52631579,9.14473684 5.52631579,9.86842105 C5.52631579,10.5921053 6.52105263,11.1842105 7.73684211,11.1842105 C8.95263158,11.1842105 9.94736842,10.5921053 9.94736842,9.86842105 C9.94736842,9.14473684 8.95263158,8.55263158 7.73684211,8.55263158 Z M1.10526316,9.21052632 C0.486315789,9.21052632 0,9.5 0,9.86842105 C0,10.2368421 0.486315789,10.5263158 1.10526316,10.5263158 C1.72421053,10.5263158 2.21052632,10.2368421 2.21052632,9.86842105 C2.21052632,9.5 1.72421053,9.21052632 1.10526316,9.21052632 Z M7.73684211,3.28947368 C6.52105263,3.28947368 5.52631579,3.88157895 5.52631579,4.60526316 C5.52631579,5.32894737 6.52105263,5.92105263 7.73684211,5.92105263 C8.95263158,5.92105263 9.94736842,5.32894737 9.94736842,4.60526316 C9.94736842,3.88157895 8.95263158,3.28947368 7.73684211,3.28947368 Z M40.8947368,10.5263158 C41.5136842,10.5263158 42,10.2368421 42,9.86842105 C42,9.5 41.5136842,9.21052632 40.8947368,9.21052632 C40.2757895,9.21052632 39.7894737,9.5 39.7894737,9.86842105 C39.7894737,10.2368421 40.2757895,10.5263158 40.8947368,10.5263158 Z M25.4210526,5.92105263 C26.6368421,5.92105263 27.6315789,5.32894737 27.6315789,4.60526316 C27.6315789,3.88157895 26.6368421,3.28947368 25.4210526,3.28947368 C24.2052632,3.28947368 23.2105263,3.88157895 23.2105263,4.60526316 C23.2105263,5.32894737 24.2052632,5.92105263 25.4210526,5.92105263 Z M25.4210526,1.31578947 C26.04,1.31578947 26.5263158,1.02631579 26.5263158,0.657894737 C26.5263158,0.289473684 26.04,0 25.4210526,0 C24.8021053,0 24.3157895,0.289473684 24.3157895,0.657894737 C24.3157895,1.02631579 24.8021053,1.31578947 25.4210526,1.31578947 Z M1.10526316,14.4736842 C0.486315789,14.4736842 0,14.7631579 0,15.1315789 C0,15.5 0.486315789,15.7894737 1.10526316,15.7894737 C1.72421053,15.7894737 2.21052632,15.5 2.21052632,15.1315789 C2.21052632,14.7631579 1.72421053,14.4736842 1.10526316,14.4736842 Z M16.5789474,23.6842105 C15.96,23.6842105 15.4736842,23.9736842 15.4736842,24.3421053 C15.4736842,24.7105263 15.96,25 16.5789474,25 C17.1978947,25 17.6842105,24.7105263 17.6842105,24.3421053 C17.6842105,23.9736842 17.1978947,23.6842105 16.5789474,23.6842105 Z M16.5789474,1.31578947 C17.1978947,1.31578947 17.6842105,1.02631579 17.6842105,0.657894737 C17.6842105,0.289473684 17.1978947,0 16.5789474,0 C15.96,0 15.4736842,0.289473684 15.4736842,0.657894737 C15.4736842,1.02631579 15.96,1.31578947 16.5789474,1.31578947 Z M16.5789474,5.92105263 C17.7947368,5.92105263 18.7894737,5.32894737 18.7894737,4.60526316 C18.7894737,3.88157895 17.7947368,3.28947368 16.5789474,3.28947368 C15.3631579,3.28947368 14.3684211,3.88157895 14.3684211,4.60526316 C14.3684211,5.32894737 15.3631579,5.92105263 16.5789474,5.92105263 Z M16.5789474,13.1578947 C14.7442105,13.1578947 13.2631579,14.0394737 13.2631579,15.1315789 C13.2631579,16.2236842 14.7442105,17.1052632 16.5789474,17.1052632 C18.4136842,17.1052632 19.8947368,16.2236842 19.8947368,15.1315789 C19.8947368,14.0394737 18.4136842,13.1578947 16.5789474,13.1578947 Z M34.2631579,13.8157895 C33.0473684,13.8157895 32.0526316,14.4078947 32.0526316,15.1315789 C32.0526316,15.8552632 33.0473684,16.4473684 34.2631579,16.4473684 C35.4789474,16.4473684 36.4736842,15.8552632 36.4736842,15.1315789 C36.4736842,14.4078947 35.4789474,13.8157895 34.2631579,13.8157895 Z M34.2631579,19.0789474 C33.0473684,19.0789474 32.0526316,19.6710526 32.0526316,20.3947368 C32.0526316,21.1184211 33.0473684,21.7105263 34.2631579,21.7105263 C35.4789474,21.7105263 36.4736842,21.1184211 36.4736842,20.3947368 C36.4736842,19.6710526 35.4789474,19.0789474 34.2631579,19.0789474 Z M34.2631579,8.55263158 C33.0473684,8.55263158 32.0526316,9.14473684 32.0526316,9.86842105 C32.0526316,10.5921053 33.0473684,11.1842105 34.2631579,11.1842105 C35.4789474,11.1842105 36.4736842,10.5921053 36.4736842,9.86842105 C36.4736842,9.14473684 35.4789474,8.55263158 34.2631579,8.55263158 Z M34.2631579,3.28947368 C33.0473684,3.28947368 32.0526316,3.88157895 32.0526316,4.60526316 C32.0526316,5.32894737 33.0473684,5.92105263 34.2631579,5.92105263 C35.4789474,5.92105263 36.4736842,5.32894737 36.4736842,4.60526316 C36.4736842,3.88157895 35.4789474,3.28947368 34.2631579,3.28947368 Z M40.8947368,14.4736842 C40.2757895,14.4736842 39.7894737,14.7631579 39.7894737,15.1315789 C39.7894737,15.5 40.2757895,15.7894737 40.8947368,15.7894737 C41.5136842,15.7894737 42,15.5 42,15.1315789 C42,14.7631579 41.5136842,14.4736842 40.8947368,14.4736842 Z M25.4210526,19.0789474 C24.2052632,19.0789474 23.2105263,19.6710526 23.2105263,20.3947368 C23.2105263,21.1184211 24.2052632,21.7105263 25.4210526,21.7105263 C26.6368421,21.7105263 27.6315789,21.1184211 27.6315789,20.3947368 C27.6315789,19.6710526 26.6368421,19.0789474 25.4210526,19.0789474 Z M25.4210526,23.6842105 C24.8021053,23.6842105 24.3157895,23.9736842 24.3157895,24.3421053 C24.3157895,24.7105263 24.8021053,25 25.4210526,25 C26.04,25 26.5263158,24.7105263 26.5263158,24.3421053 C26.5263158,23.9736842 26.04,23.6842105 25.4210526,23.6842105 Z M16.5789474,7.89473684 C14.7442105,7.89473684 13.2631579,8.77631579 13.2631579,9.86842105 C13.2631579,10.9605263 14.7442105,11.8421053 16.5789474,11.8421053 C18.4136842,11.8421053 19.8947368,10.9605263 19.8947368,9.86842105 C19.8947368,8.77631579 18.4136842,7.89473684 16.5789474,7.89473684 Z M16.5789474,19.0789474 C15.3631579,19.0789474 14.3684211,19.6710526 14.3684211,20.3947368 C14.3684211,21.1184211 15.3631579,21.7105263 16.5789474,21.7105263 C17.7947368,21.7105263 18.7894737,21.1184211 18.7894737,20.3947368 C18.7894737,19.6710526 17.7947368,19.0789474 16.5789474,19.0789474 Z M25.4210526,13.1578947 C23.5863158,13.1578947 22.1052632,14.0394737 22.1052632,15.1315789 C22.1052632,16.2236842 23.5863158,17.1052632 25.4210526,17.1052632 C27.2557895,17.1052632 28.7368421,16.2236842 28.7368421,15.1315789 C28.7368421,14.0394737 27.2557895,13.1578947 25.4210526,13.1578947 Z M25.4210526,7.89473684 C23.5863158,7.89473684 22.1052632,8.77631579 22.1052632,9.86842105 C22.1052632,10.9605263 23.5863158,11.8421053 25.4210526,11.8421053 C27.2557895,11.8421053 28.7368421,10.9605263 28.7368421,9.86842105 C28.7368421,8.77631579 27.2557895,7.89473684 25.4210526,7.89473684 Z" id="Shape" fill-rule="nonzero"></path>
                                    </g>
                                </g>
                            </g>
                            <g id="Rectangle-7_Isometric" filter="url(#filter-4)" transform="translate(286.000000, 48.000000)">
                                <polygon id="Rectangle-7_Left_Isometric" fill="#677383" points="70 84 0 49 0 35 70 70"></polygon>
                                <polygon id="Rectangle-7_Right_Isometric" fill="#414D60" points="70 84 140 49 140 35 70 70"></polygon>
                                <polygon id="Rectangle-7_Top_Isometric" fill="#00FFE2" points="0 35 70 0 140 35 70 70"></polygon>
                                <g id="contracts" transform="translate(43.000000, 17.000000)" fill="#000000" opacity="0.5">
                                    <g id="ic_blur_on_24px" transform="translate(5.000000, 4.000000)">
                                        <path d="M7.73684211,13.8157895 C6.52105263,13.8157895 5.52631579,14.4078947 5.52631579,15.1315789 C5.52631579,15.8552632 6.52105263,16.4473684 7.73684211,16.4473684 C8.95263158,16.4473684 9.94736842,15.8552632 9.94736842,15.1315789 C9.94736842,14.4078947 8.95263158,13.8157895 7.73684211,13.8157895 Z M7.73684211,19.0789474 C6.52105263,19.0789474 5.52631579,19.6710526 5.52631579,20.3947368 C5.52631579,21.1184211 6.52105263,21.7105263 7.73684211,21.7105263 C8.95263158,21.7105263 9.94736842,21.1184211 9.94736842,20.3947368 C9.94736842,19.6710526 8.95263158,19.0789474 7.73684211,19.0789474 Z M7.73684211,8.55263158 C6.52105263,8.55263158 5.52631579,9.14473684 5.52631579,9.86842105 C5.52631579,10.5921053 6.52105263,11.1842105 7.73684211,11.1842105 C8.95263158,11.1842105 9.94736842,10.5921053 9.94736842,9.86842105 C9.94736842,9.14473684 8.95263158,8.55263158 7.73684211,8.55263158 Z M1.10526316,9.21052632 C0.486315789,9.21052632 0,9.5 0,9.86842105 C0,10.2368421 0.486315789,10.5263158 1.10526316,10.5263158 C1.72421053,10.5263158 2.21052632,10.2368421 2.21052632,9.86842105 C2.21052632,9.5 1.72421053,9.21052632 1.10526316,9.21052632 Z M7.73684211,3.28947368 C6.52105263,3.28947368 5.52631579,3.88157895 5.52631579,4.60526316 C5.52631579,5.32894737 6.52105263,5.92105263 7.73684211,5.92105263 C8.95263158,5.92105263 9.94736842,5.32894737 9.94736842,4.60526316 C9.94736842,3.88157895 8.95263158,3.28947368 7.73684211,3.28947368 Z M40.8947368,10.5263158 C41.5136842,10.5263158 42,10.2368421 42,9.86842105 C42,9.5 41.5136842,9.21052632 40.8947368,9.21052632 C40.2757895,9.21052632 39.7894737,9.5 39.7894737,9.86842105 C39.7894737,10.2368421 40.2757895,10.5263158 40.8947368,10.5263158 Z M25.4210526,5.92105263 C26.6368421,5.92105263 27.6315789,5.32894737 27.6315789,4.60526316 C27.6315789,3.88157895 26.6368421,3.28947368 25.4210526,3.28947368 C24.2052632,3.28947368 23.2105263,3.88157895 23.2105263,4.60526316 C23.2105263,5.32894737 24.2052632,5.92105263 25.4210526,5.92105263 Z M25.4210526,1.31578947 C26.04,1.31578947 26.5263158,1.02631579 26.5263158,0.657894737 C26.5263158,0.289473684 26.04,0 25.4210526,0 C24.8021053,0 24.3157895,0.289473684 24.3157895,0.657894737 C24.3157895,1.02631579 24.8021053,1.31578947 25.4210526,1.31578947 Z M1.10526316,14.4736842 C0.486315789,14.4736842 0,14.7631579 0,15.1315789 C0,15.5 0.486315789,15.7894737 1.10526316,15.7894737 C1.72421053,15.7894737 2.21052632,15.5 2.21052632,15.1315789 C2.21052632,14.7631579 1.72421053,14.4736842 1.10526316,14.4736842 Z M16.5789474,23.6842105 C15.96,23.6842105 15.4736842,23.9736842 15.4736842,24.3421053 C15.4736842,24.7105263 15.96,25 16.5789474,25 C17.1978947,25 17.6842105,24.7105263 17.6842105,24.3421053 C17.6842105,23.9736842 17.1978947,23.6842105 16.5789474,23.6842105 Z M16.5789474,1.31578947 C17.1978947,1.31578947 17.6842105,1.02631579 17.6842105,0.657894737 C17.6842105,0.289473684 17.1978947,0 16.5789474,0 C15.96,0 15.4736842,0.289473684 15.4736842,0.657894737 C15.4736842,1.02631579 15.96,1.31578947 16.5789474,1.31578947 Z M16.5789474,5.92105263 C17.7947368,5.92105263 18.7894737,5.32894737 18.7894737,4.60526316 C18.7894737,3.88157895 17.7947368,3.28947368 16.5789474,3.28947368 C15.3631579,3.28947368 14.3684211,3.88157895 14.3684211,4.60526316 C14.3684211,5.32894737 15.3631579,5.92105263 16.5789474,5.92105263 Z M16.5789474,13.1578947 C14.7442105,13.1578947 13.2631579,14.0394737 13.2631579,15.1315789 C13.2631579,16.2236842 14.7442105,17.1052632 16.5789474,17.1052632 C18.4136842,17.1052632 19.8947368,16.2236842 19.8947368,15.1315789 C19.8947368,14.0394737 18.4136842,13.1578947 16.5789474,13.1578947 Z M34.2631579,13.8157895 C33.0473684,13.8157895 32.0526316,14.4078947 32.0526316,15.1315789 C32.0526316,15.8552632 33.0473684,16.4473684 34.2631579,16.4473684 C35.4789474,16.4473684 36.4736842,15.8552632 36.4736842,15.1315789 C36.4736842,14.4078947 35.4789474,13.8157895 34.2631579,13.8157895 Z M34.2631579,19.0789474 C33.0473684,19.0789474 32.0526316,19.6710526 32.0526316,20.3947368 C32.0526316,21.1184211 33.0473684,21.7105263 34.2631579,21.7105263 C35.4789474,21.7105263 36.4736842,21.1184211 36.4736842,20.3947368 C36.4736842,19.6710526 35.4789474,19.0789474 34.2631579,19.0789474 Z M34.2631579,8.55263158 C33.0473684,8.55263158 32.0526316,9.14473684 32.0526316,9.86842105 C32.0526316,10.5921053 33.0473684,11.1842105 34.2631579,11.1842105 C35.4789474,11.1842105 36.4736842,10.5921053 36.4736842,9.86842105 C36.4736842,9.14473684 35.4789474,8.55263158 34.2631579,8.55263158 Z M34.2631579,3.28947368 C33.0473684,3.28947368 32.0526316,3.88157895 32.0526316,4.60526316 C32.0526316,5.32894737 33.0473684,5.92105263 34.2631579,5.92105263 C35.4789474,5.92105263 36.4736842,5.32894737 36.4736842,4.60526316 C36.4736842,3.88157895 35.4789474,3.28947368 34.2631579,3.28947368 Z M40.8947368,14.4736842 C40.2757895,14.4736842 39.7894737,14.7631579 39.7894737,15.1315789 C39.7894737,15.5 40.2757895,15.7894737 40.8947368,15.7894737 C41.5136842,15.7894737 42,15.5 42,15.1315789 C42,14.7631579 41.5136842,14.4736842 40.8947368,14.4736842 Z M25.4210526,19.0789474 C24.2052632,19.0789474 23.2105263,19.6710526 23.2105263,20.3947368 C23.2105263,21.1184211 24.2052632,21.7105263 25.4210526,21.7105263 C26.6368421,21.7105263 27.6315789,21.1184211 27.6315789,20.3947368 C27.6315789,19.6710526 26.6368421,19.0789474 25.4210526,19.0789474 Z M25.4210526,23.6842105 C24.8021053,23.6842105 24.3157895,23.9736842 24.3157895,24.3421053 C24.3157895,24.7105263 24.8021053,25 25.4210526,25 C26.04,25 26.5263158,24.7105263 26.5263158,24.3421053 C26.5263158,23.9736842 26.04,23.6842105 25.4210526,23.6842105 Z M16.5789474,7.89473684 C14.7442105,7.89473684 13.2631579,8.77631579 13.2631579,9.86842105 C13.2631579,10.9605263 14.7442105,11.8421053 16.5789474,11.8421053 C18.4136842,11.8421053 19.8947368,10.9605263 19.8947368,9.86842105 C19.8947368,8.77631579 18.4136842,7.89473684 16.5789474,7.89473684 Z M16.5789474,19.0789474 C15.3631579,19.0789474 14.3684211,19.6710526 14.3684211,20.3947368 C14.3684211,21.1184211 15.3631579,21.7105263 16.5789474,21.7105263 C17.7947368,21.7105263 18.7894737,21.1184211 18.7894737,20.3947368 C18.7894737,19.6710526 17.7947368,19.0789474 16.5789474,19.0789474 Z M25.4210526,13.1578947 C23.5863158,13.1578947 22.1052632,14.0394737 22.1052632,15.1315789 C22.1052632,16.2236842 23.5863158,17.1052632 25.4210526,17.1052632 C27.2557895,17.1052632 28.7368421,16.2236842 28.7368421,15.1315789 C28.7368421,14.0394737 27.2557895,13.1578947 25.4210526,13.1578947 Z M25.4210526,7.89473684 C23.5863158,7.89473684 22.1052632,8.77631579 22.1052632,9.86842105 C22.1052632,10.9605263 23.5863158,11.8421053 25.4210526,11.8421053 C27.2557895,11.8421053 28.7368421,10.9605263 28.7368421,9.86842105 C28.7368421,8.77631579 27.2557895,7.89473684 25.4210526,7.89473684 Z" id="Shape" fill-rule="nonzero"></path>
                                    </g>
                                </g>
                            </g>
                            <g id="Rectangle-7_Isometric" filter="url(#filter-5)" transform="translate(384.000000, 95.000000)">
                                <polygon id="Rectangle-7_Left_Isometric" fill="#677383" points="70 84 0 49 0 35 70 70"></polygon>
                                <polygon id="Rectangle-7_Right_Isometric" fill="#414D60" points="70 84 140 49 140 35 70 70"></polygon>
                                <polygon id="Rectangle-7_Top_Isometric" fill="#00FFE2" points="0 35 70 0 140 35 70 70"></polygon>
                                <g id="contracts" transform="translate(44.000000, 18.000000)" fill="#000000" opacity="0.5">
                                    <g id="ic_blur_on_24px" transform="translate(5.000000, 4.000000)">
                                        <path d="M7.73684211,13.8157895 C6.52105263,13.8157895 5.52631579,14.4078947 5.52631579,15.1315789 C5.52631579,15.8552632 6.52105263,16.4473684 7.73684211,16.4473684 C8.95263158,16.4473684 9.94736842,15.8552632 9.94736842,15.1315789 C9.94736842,14.4078947 8.95263158,13.8157895 7.73684211,13.8157895 Z M7.73684211,19.0789474 C6.52105263,19.0789474 5.52631579,19.6710526 5.52631579,20.3947368 C5.52631579,21.1184211 6.52105263,21.7105263 7.73684211,21.7105263 C8.95263158,21.7105263 9.94736842,21.1184211 9.94736842,20.3947368 C9.94736842,19.6710526 8.95263158,19.0789474 7.73684211,19.0789474 Z M7.73684211,8.55263158 C6.52105263,8.55263158 5.52631579,9.14473684 5.52631579,9.86842105 C5.52631579,10.5921053 6.52105263,11.1842105 7.73684211,11.1842105 C8.95263158,11.1842105 9.94736842,10.5921053 9.94736842,9.86842105 C9.94736842,9.14473684 8.95263158,8.55263158 7.73684211,8.55263158 Z M1.10526316,9.21052632 C0.486315789,9.21052632 0,9.5 0,9.86842105 C0,10.2368421 0.486315789,10.5263158 1.10526316,10.5263158 C1.72421053,10.5263158 2.21052632,10.2368421 2.21052632,9.86842105 C2.21052632,9.5 1.72421053,9.21052632 1.10526316,9.21052632 Z M7.73684211,3.28947368 C6.52105263,3.28947368 5.52631579,3.88157895 5.52631579,4.60526316 C5.52631579,5.32894737 6.52105263,5.92105263 7.73684211,5.92105263 C8.95263158,5.92105263 9.94736842,5.32894737 9.94736842,4.60526316 C9.94736842,3.88157895 8.95263158,3.28947368 7.73684211,3.28947368 Z M40.8947368,10.5263158 C41.5136842,10.5263158 42,10.2368421 42,9.86842105 C42,9.5 41.5136842,9.21052632 40.8947368,9.21052632 C40.2757895,9.21052632 39.7894737,9.5 39.7894737,9.86842105 C39.7894737,10.2368421 40.2757895,10.5263158 40.8947368,10.5263158 Z M25.4210526,5.92105263 C26.6368421,5.92105263 27.6315789,5.32894737 27.6315789,4.60526316 C27.6315789,3.88157895 26.6368421,3.28947368 25.4210526,3.28947368 C24.2052632,3.28947368 23.2105263,3.88157895 23.2105263,4.60526316 C23.2105263,5.32894737 24.2052632,5.92105263 25.4210526,5.92105263 Z M25.4210526,1.31578947 C26.04,1.31578947 26.5263158,1.02631579 26.5263158,0.657894737 C26.5263158,0.289473684 26.04,0 25.4210526,0 C24.8021053,0 24.3157895,0.289473684 24.3157895,0.657894737 C24.3157895,1.02631579 24.8021053,1.31578947 25.4210526,1.31578947 Z M1.10526316,14.4736842 C0.486315789,14.4736842 0,14.7631579 0,15.1315789 C0,15.5 0.486315789,15.7894737 1.10526316,15.7894737 C1.72421053,15.7894737 2.21052632,15.5 2.21052632,15.1315789 C2.21052632,14.7631579 1.72421053,14.4736842 1.10526316,14.4736842 Z M16.5789474,23.6842105 C15.96,23.6842105 15.4736842,23.9736842 15.4736842,24.3421053 C15.4736842,24.7105263 15.96,25 16.5789474,25 C17.1978947,25 17.6842105,24.7105263 17.6842105,24.3421053 C17.6842105,23.9736842 17.1978947,23.6842105 16.5789474,23.6842105 Z M16.5789474,1.31578947 C17.1978947,1.31578947 17.6842105,1.02631579 17.6842105,0.657894737 C17.6842105,0.289473684 17.1978947,0 16.5789474,0 C15.96,0 15.4736842,0.289473684 15.4736842,0.657894737 C15.4736842,1.02631579 15.96,1.31578947 16.5789474,1.31578947 Z M16.5789474,5.92105263 C17.7947368,5.92105263 18.7894737,5.32894737 18.7894737,4.60526316 C18.7894737,3.88157895 17.7947368,3.28947368 16.5789474,3.28947368 C15.3631579,3.28947368 14.3684211,3.88157895 14.3684211,4.60526316 C14.3684211,5.32894737 15.3631579,5.92105263 16.5789474,5.92105263 Z M16.5789474,13.1578947 C14.7442105,13.1578947 13.2631579,14.0394737 13.2631579,15.1315789 C13.2631579,16.2236842 14.7442105,17.1052632 16.5789474,17.1052632 C18.4136842,17.1052632 19.8947368,16.2236842 19.8947368,15.1315789 C19.8947368,14.0394737 18.4136842,13.1578947 16.5789474,13.1578947 Z M34.2631579,13.8157895 C33.0473684,13.8157895 32.0526316,14.4078947 32.0526316,15.1315789 C32.0526316,15.8552632 33.0473684,16.4473684 34.2631579,16.4473684 C35.4789474,16.4473684 36.4736842,15.8552632 36.4736842,15.1315789 C36.4736842,14.4078947 35.4789474,13.8157895 34.2631579,13.8157895 Z M34.2631579,19.0789474 C33.0473684,19.0789474 32.0526316,19.6710526 32.0526316,20.3947368 C32.0526316,21.1184211 33.0473684,21.7105263 34.2631579,21.7105263 C35.4789474,21.7105263 36.4736842,21.1184211 36.4736842,20.3947368 C36.4736842,19.6710526 35.4789474,19.0789474 34.2631579,19.0789474 Z M34.2631579,8.55263158 C33.0473684,8.55263158 32.0526316,9.14473684 32.0526316,9.86842105 C32.0526316,10.5921053 33.0473684,11.1842105 34.2631579,11.1842105 C35.4789474,11.1842105 36.4736842,10.5921053 36.4736842,9.86842105 C36.4736842,9.14473684 35.4789474,8.55263158 34.2631579,8.55263158 Z M34.2631579,3.28947368 C33.0473684,3.28947368 32.0526316,3.88157895 32.0526316,4.60526316 C32.0526316,5.32894737 33.0473684,5.92105263 34.2631579,5.92105263 C35.4789474,5.92105263 36.4736842,5.32894737 36.4736842,4.60526316 C36.4736842,3.88157895 35.4789474,3.28947368 34.2631579,3.28947368 Z M40.8947368,14.4736842 C40.2757895,14.4736842 39.7894737,14.7631579 39.7894737,15.1315789 C39.7894737,15.5 40.2757895,15.7894737 40.8947368,15.7894737 C41.5136842,15.7894737 42,15.5 42,15.1315789 C42,14.7631579 41.5136842,14.4736842 40.8947368,14.4736842 Z M25.4210526,19.0789474 C24.2052632,19.0789474 23.2105263,19.6710526 23.2105263,20.3947368 C23.2105263,21.1184211 24.2052632,21.7105263 25.4210526,21.7105263 C26.6368421,21.7105263 27.6315789,21.1184211 27.6315789,20.3947368 C27.6315789,19.6710526 26.6368421,19.0789474 25.4210526,19.0789474 Z M25.4210526,23.6842105 C24.8021053,23.6842105 24.3157895,23.9736842 24.3157895,24.3421053 C24.3157895,24.7105263 24.8021053,25 25.4210526,25 C26.04,25 26.5263158,24.7105263 26.5263158,24.3421053 C26.5263158,23.9736842 26.04,23.6842105 25.4210526,23.6842105 Z M16.5789474,7.89473684 C14.7442105,7.89473684 13.2631579,8.77631579 13.2631579,9.86842105 C13.2631579,10.9605263 14.7442105,11.8421053 16.5789474,11.8421053 C18.4136842,11.8421053 19.8947368,10.9605263 19.8947368,9.86842105 C19.8947368,8.77631579 18.4136842,7.89473684 16.5789474,7.89473684 Z M16.5789474,19.0789474 C15.3631579,19.0789474 14.3684211,19.6710526 14.3684211,20.3947368 C14.3684211,21.1184211 15.3631579,21.7105263 16.5789474,21.7105263 C17.7947368,21.7105263 18.7894737,21.1184211 18.7894737,20.3947368 C18.7894737,19.6710526 17.7947368,19.0789474 16.5789474,19.0789474 Z M25.4210526,13.1578947 C23.5863158,13.1578947 22.1052632,14.0394737 22.1052632,15.1315789 C22.1052632,16.2236842 23.5863158,17.1052632 25.4210526,17.1052632 C27.2557895,17.1052632 28.7368421,16.2236842 28.7368421,15.1315789 C28.7368421,14.0394737 27.2557895,13.1578947 25.4210526,13.1578947 Z M25.4210526,7.89473684 C23.5863158,7.89473684 22.1052632,8.77631579 22.1052632,9.86842105 C22.1052632,10.9605263 23.5863158,11.8421053 25.4210526,11.8421053 C27.2557895,11.8421053 28.7368421,10.9605263 28.7368421,9.86842105 C28.7368421,8.77631579 27.2557895,7.89473684 25.4210526,7.89473684 Z" id="Shape" fill-rule="nonzero"></path>
                                    </g>
                                </g>
                            </g>
                            <g id="Rectangle-7_Isometric" filter="url(#filter-6)" transform="translate(193.000000, 0.000000)">
                                <polygon id="Rectangle-7_Left_Isometric" fill="#677383" points="70 84 0 49 0 35 70 70"></polygon>
                                <polygon id="Rectangle-7_Right_Isometric" fill="#414D60" points="70 84 140 49 140 35 70 70"></polygon>
                                <polygon id="Rectangle-7_Top_Isometric" fill="#00FFE2" points="0 35 70 0 140 35 70 70"></polygon>
                                <g id="contracts" transform="translate(41.000000, 16.000000)" fill="#000000" opacity="0.5">
                                    <g id="ic_blur_on_24px" transform="translate(5.000000, 4.000000)">
                                        <path d="M7.73684211,13.8157895 C6.52105263,13.8157895 5.52631579,14.4078947 5.52631579,15.1315789 C5.52631579,15.8552632 6.52105263,16.4473684 7.73684211,16.4473684 C8.95263158,16.4473684 9.94736842,15.8552632 9.94736842,15.1315789 C9.94736842,14.4078947 8.95263158,13.8157895 7.73684211,13.8157895 Z M7.73684211,19.0789474 C6.52105263,19.0789474 5.52631579,19.6710526 5.52631579,20.3947368 C5.52631579,21.1184211 6.52105263,21.7105263 7.73684211,21.7105263 C8.95263158,21.7105263 9.94736842,21.1184211 9.94736842,20.3947368 C9.94736842,19.6710526 8.95263158,19.0789474 7.73684211,19.0789474 Z M7.73684211,8.55263158 C6.52105263,8.55263158 5.52631579,9.14473684 5.52631579,9.86842105 C5.52631579,10.5921053 6.52105263,11.1842105 7.73684211,11.1842105 C8.95263158,11.1842105 9.94736842,10.5921053 9.94736842,9.86842105 C9.94736842,9.14473684 8.95263158,8.55263158 7.73684211,8.55263158 Z M1.10526316,9.21052632 C0.486315789,9.21052632 0,9.5 0,9.86842105 C0,10.2368421 0.486315789,10.5263158 1.10526316,10.5263158 C1.72421053,10.5263158 2.21052632,10.2368421 2.21052632,9.86842105 C2.21052632,9.5 1.72421053,9.21052632 1.10526316,9.21052632 Z M7.73684211,3.28947368 C6.52105263,3.28947368 5.52631579,3.88157895 5.52631579,4.60526316 C5.52631579,5.32894737 6.52105263,5.92105263 7.73684211,5.92105263 C8.95263158,5.92105263 9.94736842,5.32894737 9.94736842,4.60526316 C9.94736842,3.88157895 8.95263158,3.28947368 7.73684211,3.28947368 Z M40.8947368,10.5263158 C41.5136842,10.5263158 42,10.2368421 42,9.86842105 C42,9.5 41.5136842,9.21052632 40.8947368,9.21052632 C40.2757895,9.21052632 39.7894737,9.5 39.7894737,9.86842105 C39.7894737,10.2368421 40.2757895,10.5263158 40.8947368,10.5263158 Z M25.4210526,5.92105263 C26.6368421,5.92105263 27.6315789,5.32894737 27.6315789,4.60526316 C27.6315789,3.88157895 26.6368421,3.28947368 25.4210526,3.28947368 C24.2052632,3.28947368 23.2105263,3.88157895 23.2105263,4.60526316 C23.2105263,5.32894737 24.2052632,5.92105263 25.4210526,5.92105263 Z M25.4210526,1.31578947 C26.04,1.31578947 26.5263158,1.02631579 26.5263158,0.657894737 C26.5263158,0.289473684 26.04,0 25.4210526,0 C24.8021053,0 24.3157895,0.289473684 24.3157895,0.657894737 C24.3157895,1.02631579 24.8021053,1.31578947 25.4210526,1.31578947 Z M1.10526316,14.4736842 C0.486315789,14.4736842 0,14.7631579 0,15.1315789 C0,15.5 0.486315789,15.7894737 1.10526316,15.7894737 C1.72421053,15.7894737 2.21052632,15.5 2.21052632,15.1315789 C2.21052632,14.7631579 1.72421053,14.4736842 1.10526316,14.4736842 Z M16.5789474,23.6842105 C15.96,23.6842105 15.4736842,23.9736842 15.4736842,24.3421053 C15.4736842,24.7105263 15.96,25 16.5789474,25 C17.1978947,25 17.6842105,24.7105263 17.6842105,24.3421053 C17.6842105,23.9736842 17.1978947,23.6842105 16.5789474,23.6842105 Z M16.5789474,1.31578947 C17.1978947,1.31578947 17.6842105,1.02631579 17.6842105,0.657894737 C17.6842105,0.289473684 17.1978947,0 16.5789474,0 C15.96,0 15.4736842,0.289473684 15.4736842,0.657894737 C15.4736842,1.02631579 15.96,1.31578947 16.5789474,1.31578947 Z M16.5789474,5.92105263 C17.7947368,5.92105263 18.7894737,5.32894737 18.7894737,4.60526316 C18.7894737,3.88157895 17.7947368,3.28947368 16.5789474,3.28947368 C15.3631579,3.28947368 14.3684211,3.88157895 14.3684211,4.60526316 C14.3684211,5.32894737 15.3631579,5.92105263 16.5789474,5.92105263 Z M16.5789474,13.1578947 C14.7442105,13.1578947 13.2631579,14.0394737 13.2631579,15.1315789 C13.2631579,16.2236842 14.7442105,17.1052632 16.5789474,17.1052632 C18.4136842,17.1052632 19.8947368,16.2236842 19.8947368,15.1315789 C19.8947368,14.0394737 18.4136842,13.1578947 16.5789474,13.1578947 Z M34.2631579,13.8157895 C33.0473684,13.8157895 32.0526316,14.4078947 32.0526316,15.1315789 C32.0526316,15.8552632 33.0473684,16.4473684 34.2631579,16.4473684 C35.4789474,16.4473684 36.4736842,15.8552632 36.4736842,15.1315789 C36.4736842,14.4078947 35.4789474,13.8157895 34.2631579,13.8157895 Z M34.2631579,19.0789474 C33.0473684,19.0789474 32.0526316,19.6710526 32.0526316,20.3947368 C32.0526316,21.1184211 33.0473684,21.7105263 34.2631579,21.7105263 C35.4789474,21.7105263 36.4736842,21.1184211 36.4736842,20.3947368 C36.4736842,19.6710526 35.4789474,19.0789474 34.2631579,19.0789474 Z M34.2631579,8.55263158 C33.0473684,8.55263158 32.0526316,9.14473684 32.0526316,9.86842105 C32.0526316,10.5921053 33.0473684,11.1842105 34.2631579,11.1842105 C35.4789474,11.1842105 36.4736842,10.5921053 36.4736842,9.86842105 C36.4736842,9.14473684 35.4789474,8.55263158 34.2631579,8.55263158 Z M34.2631579,3.28947368 C33.0473684,3.28947368 32.0526316,3.88157895 32.0526316,4.60526316 C32.0526316,5.32894737 33.0473684,5.92105263 34.2631579,5.92105263 C35.4789474,5.92105263 36.4736842,5.32894737 36.4736842,4.60526316 C36.4736842,3.88157895 35.4789474,3.28947368 34.2631579,3.28947368 Z M40.8947368,14.4736842 C40.2757895,14.4736842 39.7894737,14.7631579 39.7894737,15.1315789 C39.7894737,15.5 40.2757895,15.7894737 40.8947368,15.7894737 C41.5136842,15.7894737 42,15.5 42,15.1315789 C42,14.7631579 41.5136842,14.4736842 40.8947368,14.4736842 Z M25.4210526,19.0789474 C24.2052632,19.0789474 23.2105263,19.6710526 23.2105263,20.3947368 C23.2105263,21.1184211 24.2052632,21.7105263 25.4210526,21.7105263 C26.6368421,21.7105263 27.6315789,21.1184211 27.6315789,20.3947368 C27.6315789,19.6710526 26.6368421,19.0789474 25.4210526,19.0789474 Z M25.4210526,23.6842105 C24.8021053,23.6842105 24.3157895,23.9736842 24.3157895,24.3421053 C24.3157895,24.7105263 24.8021053,25 25.4210526,25 C26.04,25 26.5263158,24.7105263 26.5263158,24.3421053 C26.5263158,23.9736842 26.04,23.6842105 25.4210526,23.6842105 Z M16.5789474,7.89473684 C14.7442105,7.89473684 13.2631579,8.77631579 13.2631579,9.86842105 C13.2631579,10.9605263 14.7442105,11.8421053 16.5789474,11.8421053 C18.4136842,11.8421053 19.8947368,10.9605263 19.8947368,9.86842105 C19.8947368,8.77631579 18.4136842,7.89473684 16.5789474,7.89473684 Z M16.5789474,19.0789474 C15.3631579,19.0789474 14.3684211,19.6710526 14.3684211,20.3947368 C14.3684211,21.1184211 15.3631579,21.7105263 16.5789474,21.7105263 C17.7947368,21.7105263 18.7894737,21.1184211 18.7894737,20.3947368 C18.7894737,19.6710526 17.7947368,19.0789474 16.5789474,19.0789474 Z M25.4210526,13.1578947 C23.5863158,13.1578947 22.1052632,14.0394737 22.1052632,15.1315789 C22.1052632,16.2236842 23.5863158,17.1052632 25.4210526,17.1052632 C27.2557895,17.1052632 28.7368421,16.2236842 28.7368421,15.1315789 C28.7368421,14.0394737 27.2557895,13.1578947 25.4210526,13.1578947 Z M25.4210526,7.89473684 C23.5863158,7.89473684 22.1052632,8.77631579 22.1052632,9.86842105 C22.1052632,10.9605263 23.5863158,11.8421053 25.4210526,11.8421053 C27.2557895,11.8421053 28.7368421,10.9605263 28.7368421,9.86842105 C28.7368421,8.77631579 27.2557895,7.89473684 25.4210526,7.89473684 Z" id="Shape" fill-rule="nonzero"></path>
                                    </g>
                                </g>
                            </g>
                            <g id="Rectangle-7_Isometric" transform="translate(96.000000, 183.000000)">
                                <polygon id="Rectangle-7_Left_Isometric" fill="#677383" points="70 84 0 49 0 35 70 70"></polygon>
                                <polygon id="Rectangle-7_Right_Isometric" fill="#414D60" points="70 84 140 49 140 35 70 70"></polygon>
                                <polygon id="Rectangle-7_Top_Isometric" fill="#00FFE2" points="0 35 70 0 140 35 70 70"></polygon>
                                <g id="contracts" transform="translate(43.000000, 19.000000)" fill="#000000" opacity="0.5">
                                    <g id="ic_blur_on_24px" transform="translate(5.000000, 4.000000)">
                                        <path d="M7.73684211,13.8157895 C6.52105263,13.8157895 5.52631579,14.4078947 5.52631579,15.1315789 C5.52631579,15.8552632 6.52105263,16.4473684 7.73684211,16.4473684 C8.95263158,16.4473684 9.94736842,15.8552632 9.94736842,15.1315789 C9.94736842,14.4078947 8.95263158,13.8157895 7.73684211,13.8157895 Z M7.73684211,19.0789474 C6.52105263,19.0789474 5.52631579,19.6710526 5.52631579,20.3947368 C5.52631579,21.1184211 6.52105263,21.7105263 7.73684211,21.7105263 C8.95263158,21.7105263 9.94736842,21.1184211 9.94736842,20.3947368 C9.94736842,19.6710526 8.95263158,19.0789474 7.73684211,19.0789474 Z M7.73684211,8.55263158 C6.52105263,8.55263158 5.52631579,9.14473684 5.52631579,9.86842105 C5.52631579,10.5921053 6.52105263,11.1842105 7.73684211,11.1842105 C8.95263158,11.1842105 9.94736842,10.5921053 9.94736842,9.86842105 C9.94736842,9.14473684 8.95263158,8.55263158 7.73684211,8.55263158 Z M1.10526316,9.21052632 C0.486315789,9.21052632 0,9.5 0,9.86842105 C0,10.2368421 0.486315789,10.5263158 1.10526316,10.5263158 C1.72421053,10.5263158 2.21052632,10.2368421 2.21052632,9.86842105 C2.21052632,9.5 1.72421053,9.21052632 1.10526316,9.21052632 Z M7.73684211,3.28947368 C6.52105263,3.28947368 5.52631579,3.88157895 5.52631579,4.60526316 C5.52631579,5.32894737 6.52105263,5.92105263 7.73684211,5.92105263 C8.95263158,5.92105263 9.94736842,5.32894737 9.94736842,4.60526316 C9.94736842,3.88157895 8.95263158,3.28947368 7.73684211,3.28947368 Z M40.8947368,10.5263158 C41.5136842,10.5263158 42,10.2368421 42,9.86842105 C42,9.5 41.5136842,9.21052632 40.8947368,9.21052632 C40.2757895,9.21052632 39.7894737,9.5 39.7894737,9.86842105 C39.7894737,10.2368421 40.2757895,10.5263158 40.8947368,10.5263158 Z M25.4210526,5.92105263 C26.6368421,5.92105263 27.6315789,5.32894737 27.6315789,4.60526316 C27.6315789,3.88157895 26.6368421,3.28947368 25.4210526,3.28947368 C24.2052632,3.28947368 23.2105263,3.88157895 23.2105263,4.60526316 C23.2105263,5.32894737 24.2052632,5.92105263 25.4210526,5.92105263 Z M25.4210526,1.31578947 C26.04,1.31578947 26.5263158,1.02631579 26.5263158,0.657894737 C26.5263158,0.289473684 26.04,0 25.4210526,0 C24.8021053,0 24.3157895,0.289473684 24.3157895,0.657894737 C24.3157895,1.02631579 24.8021053,1.31578947 25.4210526,1.31578947 Z M1.10526316,14.4736842 C0.486315789,14.4736842 0,14.7631579 0,15.1315789 C0,15.5 0.486315789,15.7894737 1.10526316,15.7894737 C1.72421053,15.7894737 2.21052632,15.5 2.21052632,15.1315789 C2.21052632,14.7631579 1.72421053,14.4736842 1.10526316,14.4736842 Z M16.5789474,23.6842105 C15.96,23.6842105 15.4736842,23.9736842 15.4736842,24.3421053 C15.4736842,24.7105263 15.96,25 16.5789474,25 C17.1978947,25 17.6842105,24.7105263 17.6842105,24.3421053 C17.6842105,23.9736842 17.1978947,23.6842105 16.5789474,23.6842105 Z M16.5789474,1.31578947 C17.1978947,1.31578947 17.6842105,1.02631579 17.6842105,0.657894737 C17.6842105,0.289473684 17.1978947,0 16.5789474,0 C15.96,0 15.4736842,0.289473684 15.4736842,0.657894737 C15.4736842,1.02631579 15.96,1.31578947 16.5789474,1.31578947 Z M16.5789474,5.92105263 C17.7947368,5.92105263 18.7894737,5.32894737 18.7894737,4.60526316 C18.7894737,3.88157895 17.7947368,3.28947368 16.5789474,3.28947368 C15.3631579,3.28947368 14.3684211,3.88157895 14.3684211,4.60526316 C14.3684211,5.32894737 15.3631579,5.92105263 16.5789474,5.92105263 Z M16.5789474,13.1578947 C14.7442105,13.1578947 13.2631579,14.0394737 13.2631579,15.1315789 C13.2631579,16.2236842 14.7442105,17.1052632 16.5789474,17.1052632 C18.4136842,17.1052632 19.8947368,16.2236842 19.8947368,15.1315789 C19.8947368,14.0394737 18.4136842,13.1578947 16.5789474,13.1578947 Z M34.2631579,13.8157895 C33.0473684,13.8157895 32.0526316,14.4078947 32.0526316,15.1315789 C32.0526316,15.8552632 33.0473684,16.4473684 34.2631579,16.4473684 C35.4789474,16.4473684 36.4736842,15.8552632 36.4736842,15.1315789 C36.4736842,14.4078947 35.4789474,13.8157895 34.2631579,13.8157895 Z M34.2631579,19.0789474 C33.0473684,19.0789474 32.0526316,19.6710526 32.0526316,20.3947368 C32.0526316,21.1184211 33.0473684,21.7105263 34.2631579,21.7105263 C35.4789474,21.7105263 36.4736842,21.1184211 36.4736842,20.3947368 C36.4736842,19.6710526 35.4789474,19.0789474 34.2631579,19.0789474 Z M34.2631579,8.55263158 C33.0473684,8.55263158 32.0526316,9.14473684 32.0526316,9.86842105 C32.0526316,10.5921053 33.0473684,11.1842105 34.2631579,11.1842105 C35.4789474,11.1842105 36.4736842,10.5921053 36.4736842,9.86842105 C36.4736842,9.14473684 35.4789474,8.55263158 34.2631579,8.55263158 Z M34.2631579,3.28947368 C33.0473684,3.28947368 32.0526316,3.88157895 32.0526316,4.60526316 C32.0526316,5.32894737 33.0473684,5.92105263 34.2631579,5.92105263 C35.4789474,5.92105263 36.4736842,5.32894737 36.4736842,4.60526316 C36.4736842,3.88157895 35.4789474,3.28947368 34.2631579,3.28947368 Z M40.8947368,14.4736842 C40.2757895,14.4736842 39.7894737,14.7631579 39.7894737,15.1315789 C39.7894737,15.5 40.2757895,15.7894737 40.8947368,15.7894737 C41.5136842,15.7894737 42,15.5 42,15.1315789 C42,14.7631579 41.5136842,14.4736842 40.8947368,14.4736842 Z M25.4210526,19.0789474 C24.2052632,19.0789474 23.2105263,19.6710526 23.2105263,20.3947368 C23.2105263,21.1184211 24.2052632,21.7105263 25.4210526,21.7105263 C26.6368421,21.7105263 27.6315789,21.1184211 27.6315789,20.3947368 C27.6315789,19.6710526 26.6368421,19.0789474 25.4210526,19.0789474 Z M25.4210526,23.6842105 C24.8021053,23.6842105 24.3157895,23.9736842 24.3157895,24.3421053 C24.3157895,24.7105263 24.8021053,25 25.4210526,25 C26.04,25 26.5263158,24.7105263 26.5263158,24.3421053 C26.5263158,23.9736842 26.04,23.6842105 25.4210526,23.6842105 Z M16.5789474,7.89473684 C14.7442105,7.89473684 13.2631579,8.77631579 13.2631579,9.86842105 C13.2631579,10.9605263 14.7442105,11.8421053 16.5789474,11.8421053 C18.4136842,11.8421053 19.8947368,10.9605263 19.8947368,9.86842105 C19.8947368,8.77631579 18.4136842,7.89473684 16.5789474,7.89473684 Z M16.5789474,19.0789474 C15.3631579,19.0789474 14.3684211,19.6710526 14.3684211,20.3947368 C14.3684211,21.1184211 15.3631579,21.7105263 16.5789474,21.7105263 C17.7947368,21.7105263 18.7894737,21.1184211 18.7894737,20.3947368 C18.7894737,19.6710526 17.7947368,19.0789474 16.5789474,19.0789474 Z M25.4210526,13.1578947 C23.5863158,13.1578947 22.1052632,14.0394737 22.1052632,15.1315789 C22.1052632,16.2236842 23.5863158,17.1052632 25.4210526,17.1052632 C27.2557895,17.1052632 28.7368421,16.2236842 28.7368421,15.1315789 C28.7368421,14.0394737 27.2557895,13.1578947 25.4210526,13.1578947 Z M25.4210526,7.89473684 C23.5863158,7.89473684 22.1052632,8.77631579 22.1052632,9.86842105 C22.1052632,10.9605263 23.5863158,11.8421053 25.4210526,11.8421053 C27.2557895,11.8421053 28.7368421,10.9605263 28.7368421,9.86842105 C28.7368421,8.77631579 27.2557895,7.89473684 25.4210526,7.89473684 Z" id="Shape" fill-rule="nonzero"></path>
                                    </g>
                                </g>
                            </g>
                            <g id="Rectangle-7_Isometric" transform="translate(193.000000, 230.000000)">
                                <polygon id="Rectangle-7_Left_Isometric" fill="#677383" points="70 84 0 49 0 35 70 70"></polygon>
                                <polygon id="Rectangle-7_Right_Isometric" fill="#414D60" points="70 84 140 49 140 35 70 70"></polygon>
                                <polygon id="Rectangle-7_Top_Isometric" fill="#00FFE2" points="0 35 70 0 140 35 70 70"></polygon>
                                <g id="contracts" transform="translate(43.000000, 19.000000)" fill="#000000" opacity="0.5">
                                    <g id="ic_blur_on_24px" transform="translate(5.000000, 4.000000)">
                                        <path d="M7.73684211,13.8157895 C6.52105263,13.8157895 5.52631579,14.4078947 5.52631579,15.1315789 C5.52631579,15.8552632 6.52105263,16.4473684 7.73684211,16.4473684 C8.95263158,16.4473684 9.94736842,15.8552632 9.94736842,15.1315789 C9.94736842,14.4078947 8.95263158,13.8157895 7.73684211,13.8157895 Z M7.73684211,19.0789474 C6.52105263,19.0789474 5.52631579,19.6710526 5.52631579,20.3947368 C5.52631579,21.1184211 6.52105263,21.7105263 7.73684211,21.7105263 C8.95263158,21.7105263 9.94736842,21.1184211 9.94736842,20.3947368 C9.94736842,19.6710526 8.95263158,19.0789474 7.73684211,19.0789474 Z M7.73684211,8.55263158 C6.52105263,8.55263158 5.52631579,9.14473684 5.52631579,9.86842105 C5.52631579,10.5921053 6.52105263,11.1842105 7.73684211,11.1842105 C8.95263158,11.1842105 9.94736842,10.5921053 9.94736842,9.86842105 C9.94736842,9.14473684 8.95263158,8.55263158 7.73684211,8.55263158 Z M1.10526316,9.21052632 C0.486315789,9.21052632 0,9.5 0,9.86842105 C0,10.2368421 0.486315789,10.5263158 1.10526316,10.5263158 C1.72421053,10.5263158 2.21052632,10.2368421 2.21052632,9.86842105 C2.21052632,9.5 1.72421053,9.21052632 1.10526316,9.21052632 Z M7.73684211,3.28947368 C6.52105263,3.28947368 5.52631579,3.88157895 5.52631579,4.60526316 C5.52631579,5.32894737 6.52105263,5.92105263 7.73684211,5.92105263 C8.95263158,5.92105263 9.94736842,5.32894737 9.94736842,4.60526316 C9.94736842,3.88157895 8.95263158,3.28947368 7.73684211,3.28947368 Z M40.8947368,10.5263158 C41.5136842,10.5263158 42,10.2368421 42,9.86842105 C42,9.5 41.5136842,9.21052632 40.8947368,9.21052632 C40.2757895,9.21052632 39.7894737,9.5 39.7894737,9.86842105 C39.7894737,10.2368421 40.2757895,10.5263158 40.8947368,10.5263158 Z M25.4210526,5.92105263 C26.6368421,5.92105263 27.6315789,5.32894737 27.6315789,4.60526316 C27.6315789,3.88157895 26.6368421,3.28947368 25.4210526,3.28947368 C24.2052632,3.28947368 23.2105263,3.88157895 23.2105263,4.60526316 C23.2105263,5.32894737 24.2052632,5.92105263 25.4210526,5.92105263 Z M25.4210526,1.31578947 C26.04,1.31578947 26.5263158,1.02631579 26.5263158,0.657894737 C26.5263158,0.289473684 26.04,0 25.4210526,0 C24.8021053,0 24.3157895,0.289473684 24.3157895,0.657894737 C24.3157895,1.02631579 24.8021053,1.31578947 25.4210526,1.31578947 Z M1.10526316,14.4736842 C0.486315789,14.4736842 0,14.7631579 0,15.1315789 C0,15.5 0.486315789,15.7894737 1.10526316,15.7894737 C1.72421053,15.7894737 2.21052632,15.5 2.21052632,15.1315789 C2.21052632,14.7631579 1.72421053,14.4736842 1.10526316,14.4736842 Z M16.5789474,23.6842105 C15.96,23.6842105 15.4736842,23.9736842 15.4736842,24.3421053 C15.4736842,24.7105263 15.96,25 16.5789474,25 C17.1978947,25 17.6842105,24.7105263 17.6842105,24.3421053 C17.6842105,23.9736842 17.1978947,23.6842105 16.5789474,23.6842105 Z M16.5789474,1.31578947 C17.1978947,1.31578947 17.6842105,1.02631579 17.6842105,0.657894737 C17.6842105,0.289473684 17.1978947,0 16.5789474,0 C15.96,0 15.4736842,0.289473684 15.4736842,0.657894737 C15.4736842,1.02631579 15.96,1.31578947 16.5789474,1.31578947 Z M16.5789474,5.92105263 C17.7947368,5.92105263 18.7894737,5.32894737 18.7894737,4.60526316 C18.7894737,3.88157895 17.7947368,3.28947368 16.5789474,3.28947368 C15.3631579,3.28947368 14.3684211,3.88157895 14.3684211,4.60526316 C14.3684211,5.32894737 15.3631579,5.92105263 16.5789474,5.92105263 Z M16.5789474,13.1578947 C14.7442105,13.1578947 13.2631579,14.0394737 13.2631579,15.1315789 C13.2631579,16.2236842 14.7442105,17.1052632 16.5789474,17.1052632 C18.4136842,17.1052632 19.8947368,16.2236842 19.8947368,15.1315789 C19.8947368,14.0394737 18.4136842,13.1578947 16.5789474,13.1578947 Z M34.2631579,13.8157895 C33.0473684,13.8157895 32.0526316,14.4078947 32.0526316,15.1315789 C32.0526316,15.8552632 33.0473684,16.4473684 34.2631579,16.4473684 C35.4789474,16.4473684 36.4736842,15.8552632 36.4736842,15.1315789 C36.4736842,14.4078947 35.4789474,13.8157895 34.2631579,13.8157895 Z M34.2631579,19.0789474 C33.0473684,19.0789474 32.0526316,19.6710526 32.0526316,20.3947368 C32.0526316,21.1184211 33.0473684,21.7105263 34.2631579,21.7105263 C35.4789474,21.7105263 36.4736842,21.1184211 36.4736842,20.3947368 C36.4736842,19.6710526 35.4789474,19.0789474 34.2631579,19.0789474 Z M34.2631579,8.55263158 C33.0473684,8.55263158 32.0526316,9.14473684 32.0526316,9.86842105 C32.0526316,10.5921053 33.0473684,11.1842105 34.2631579,11.1842105 C35.4789474,11.1842105 36.4736842,10.5921053 36.4736842,9.86842105 C36.4736842,9.14473684 35.4789474,8.55263158 34.2631579,8.55263158 Z M34.2631579,3.28947368 C33.0473684,3.28947368 32.0526316,3.88157895 32.0526316,4.60526316 C32.0526316,5.32894737 33.0473684,5.92105263 34.2631579,5.92105263 C35.4789474,5.92105263 36.4736842,5.32894737 36.4736842,4.60526316 C36.4736842,3.88157895 35.4789474,3.28947368 34.2631579,3.28947368 Z M40.8947368,14.4736842 C40.2757895,14.4736842 39.7894737,14.7631579 39.7894737,15.1315789 C39.7894737,15.5 40.2757895,15.7894737 40.8947368,15.7894737 C41.5136842,15.7894737 42,15.5 42,15.1315789 C42,14.7631579 41.5136842,14.4736842 40.8947368,14.4736842 Z M25.4210526,19.0789474 C24.2052632,19.0789474 23.2105263,19.6710526 23.2105263,20.3947368 C23.2105263,21.1184211 24.2052632,21.7105263 25.4210526,21.7105263 C26.6368421,21.7105263 27.6315789,21.1184211 27.6315789,20.3947368 C27.6315789,19.6710526 26.6368421,19.0789474 25.4210526,19.0789474 Z M25.4210526,23.6842105 C24.8021053,23.6842105 24.3157895,23.9736842 24.3157895,24.3421053 C24.3157895,24.7105263 24.8021053,25 25.4210526,25 C26.04,25 26.5263158,24.7105263 26.5263158,24.3421053 C26.5263158,23.9736842 26.04,23.6842105 25.4210526,23.6842105 Z M16.5789474,7.89473684 C14.7442105,7.89473684 13.2631579,8.77631579 13.2631579,9.86842105 C13.2631579,10.9605263 14.7442105,11.8421053 16.5789474,11.8421053 C18.4136842,11.8421053 19.8947368,10.9605263 19.8947368,9.86842105 C19.8947368,8.77631579 18.4136842,7.89473684 16.5789474,7.89473684 Z M16.5789474,19.0789474 C15.3631579,19.0789474 14.3684211,19.6710526 14.3684211,20.3947368 C14.3684211,21.1184211 15.3631579,21.7105263 16.5789474,21.7105263 C17.7947368,21.7105263 18.7894737,21.1184211 18.7894737,20.3947368 C18.7894737,19.6710526 17.7947368,19.0789474 16.5789474,19.0789474 Z M25.4210526,13.1578947 C23.5863158,13.1578947 22.1052632,14.0394737 22.1052632,15.1315789 C22.1052632,16.2236842 23.5863158,17.1052632 25.4210526,17.1052632 C27.2557895,17.1052632 28.7368421,16.2236842 28.7368421,15.1315789 C28.7368421,14.0394737 27.2557895,13.1578947 25.4210526,13.1578947 Z M25.4210526,7.89473684 C23.5863158,7.89473684 22.1052632,8.77631579 22.1052632,9.86842105 C22.1052632,10.9605263 23.5863158,11.8421053 25.4210526,11.8421053 C27.2557895,11.8421053 28.7368421,10.9605263 28.7368421,9.86842105 C28.7368421,8.77631579 27.2557895,7.89473684 25.4210526,7.89473684 Z" id="Shape" fill-rule="nonzero"></path>
                                    </g>
                                </g>
                            </g>
                        </g>
                    </g>
                </g>
            </g>
        </g>
    </g>
</svg>