<?xml version="1.0" encoding="UTF-8"?>
<svg width="725px" height="750px" viewBox="0 0 725 750" version="1.1" xmlns="http://www.w3.org/2000/svg" xmlns:xlink="http://www.w3.org/1999/xlink">
    <!-- Generator: Sketch 49.3 (51167) - http://www.bohemiancoding.com/sketch -->
    <title>main illu</title>
    <desc>Created with Sketch.</desc>
    <defs></defs>
    <g id="Page-1" stroke="none" stroke-width="1" fill="none" fill-rule="evenodd">
        <g id="Market-v3" transform="translate(-647.000000, 0.000000)">
            <g id="hero" transform="translate(0.000000, -3.000000)">
                <g id="main-illu" transform="translate(602.000000, -22.000000)">
                    <g id="lines" opacity="0.100000001" transform="translate(384.500000, 387.500000) scale(-1, 1) translate(-384.500000, -387.500000) ">
                        <polyline id="Path-4" stroke="#FFFFFF" stroke-width="3" points="288.93793 416.502811 153.752368 484.317003 73.8250375 442.178113 13.7415862 473.325979"></polyline>
                        <polyline id="Path-5" stroke="#FFFFFF" stroke-width="3" points="396.543549 255.70284 465.012668 220.877172 402.522551 189.783212 768.634062 0.0677486253"></polyline>
                        <polyline id="Path-7" stroke="#FFFFFF" stroke-width="3" points="408.963971 478.281041 197.571076 588.766984 279.435948 630.365474 0.109547473 774.271465"></polyline>
                        <ellipse id="Oval-2" fill="#FFFFFF" cx="154.5" cy="484" rx="5.5" ry="3"></ellipse>
                        <ellipse id="Oval-2" fill="#FFFFFF" cx="199.5" cy="589" rx="5.5" ry="3"></ellipse>
                        <ellipse id="Oval-2" fill="#FFFFFF" cx="277.5" cy="630" rx="5.5" ry="3"></ellipse>
                        <g id="Group-4" transform="translate(244.000000, 482.000000)">
                            <polyline id="Path-6" stroke="#FFFFFF" stroke-width="3" points="276.220281 0.0808220891 425.116783 75.5791411 0.380401389 291.562395"></polyline>
                            <ellipse id="Oval-2" fill="#FFFFFF" cx="425.5" cy="76" rx="5.5" ry="3"></ellipse>
                        </g>
                        <ellipse id="Oval-2" fill="#FFFFFF" cx="465.5" cy="221" rx="5.5" ry="3"></ellipse>
                        <ellipse id="Oval-2" fill="#FFFFFF" cx="402.5" cy="190" rx="5.5" ry="3"></ellipse>
                        <ellipse id="Oval-2" fill="#FFFFFF" cx="74.5" cy="442" rx="5.5" ry="3"></ellipse>
                    </g>
                    <g id="illu" transform="translate(99.000000, 231.000000)">
                        <polygon id="Rectangle-8_Right_Isometric" fill="#445064" points="232 295 550 136 550 116 232 275"></polygon>
                        <polygon id="Rectangle-8_Left_Isometric" fill="#677383" points="232 295 0 179 0 159 232 275"></polygon>
                        <polygon id="Rectangle-8_Top_Isometric" fill="#00E2C1" points="550 116 318 0 0 159 232 275"></polygon>
                        <g id="Group-15" transform="translate(279.000000, 209.000000)">
                            <ellipse id="Oval" fill="#00AA8D" cx="7" cy="7" rx="7" ry="4"></ellipse>
                            <ellipse id="Oval" fill="#00FFE2" cx="7" cy="4" rx="7" ry="4"></ellipse>
                        </g>
                        <g id="Group-16" transform="translate(261.000000, 218.000000)">
                            <ellipse id="Oval" fill="#00AA8D" cx="7" cy="7" rx="7" ry="4"></ellipse>
                            <ellipse id="Oval" fill="#00FFE2" cx="7" cy="4" rx="7" ry="4"></ellipse>
                        </g>
                        <g id="Group-17" transform="translate(243.000000, 228.000000)">
                            <ellipse id="Oval" fill="#00AA8D" cx="7" cy="7" rx="7" ry="4"></ellipse>
                            <ellipse id="Oval" fill="#00FFE2" cx="7" cy="4" rx="7" ry="4"></ellipse>
                        </g>
                        <g id="Group-14" transform="translate(179.000000, 78.000000)">
                            <ellipse id="Oval" fill="#677383" cx="48.5" cy="36.5" rx="48.5" ry="27.5"></ellipse>
                            <ellipse id="Oval" fill="#00FFE2" cx="48.5" cy="27.5" rx="48.5" ry="27.5"></ellipse>
                        </g>
                        <g id="top" transform="translate(70.000000, 26.000000)">
                            <g id="Rectangle-5_Isometric" transform="translate(219.000000, 100.000000)">
                                <polygon id="Rectangle-5_Right_Isometric" fill="#445064" points="51 68 116 35.5 116 25.5 51 58"></polygon>
                                <polygon id="Rectangle-5_Left_Isometric" fill="#677383" points="51 68 0 42.5 0 32.5 51 58"></polygon>
                                <polygon id="Rectangle-5_Top_Isometric" fill="#00FFE2" points="116 25.5 65 0 0 32.5 51 58"></polygon>
                            </g>
                            <g id="Rectangle-5_Isometric" transform="translate(309.000000, 45.000000)">
                                <polygon id="Rectangle-5_Right_Isometric" fill="#445064" points="51 78 116 45.5 116 25.5 51 58"></polygon>
                                <polygon id="Rectangle-5_Left_Isometric" fill="#677383" points="51 78 0 52.5 0 32.5 51 58"></polygon>
                                <polygon id="Rectangle-5_Top_Isometric" fill="#00FFE2" points="116 25.5 65 0 0 32.5 51 58"></polygon>
                            </g>
                            <g id="Rectangle-5_Isometric" transform="translate(219.000000, 0.000000)">
                                <polygon id="Rectangle-5_Left_Isometric" fill="#00AA8D" points="94 56 0 9 0 4 94 51"></polygon>
                                <polygon id="Rectangle-5_Right_Isometric" fill="#00AA8D" points="94 56 101 52.5 101 47.5 94 51"></polygon>
                                <polygon id="Rectangle-5_Top_Isometric" fill="#00FFE2" points="0 4 7 0.5 101 47.5 94 51"></polygon>
                            </g>
                            <g id="Rectangle-5_Isometric" transform="translate(197.000000, 11.000000)">
                                <polygon id="Rectangle-5_Left_Isometric" fill="#00AA8D" points="94 56 0 9 0 4 94 51"></polygon>
                                <polygon id="Rectangle-5_Right_Isometric" fill="#00AA8D" points="94 56 101 52.5 101 47.5 94 51"></polygon>
                                <polygon id="Rectangle-5_Top_Isometric" fill="#00FFE2" points="0 4 7 0.5 101 47.5 94 51"></polygon>
                            </g>
                            <g id="Rectangle-5_Isometric" transform="translate(175.000000, 22.000000)">
                                <polygon id="Rectangle-5_Left_Isometric" fill="#00AA8D" points="94 56 0 9 0 4 94 51"></polygon>
                                <polygon id="Rectangle-5_Right_Isometric" fill="#00AA8D" points="94 56 101 52.5 101 47.5 94 51"></polygon>
                                <polygon id="Rectangle-5_Top_Isometric" fill="#00FFE2" points="0 4 7 0.5 101 47.5 94 51"></polygon>
                            </g>
                            <g id="Rectangle-5_Isometric" transform="translate(44.000000, 88.000000)">
                                <polygon id="Rectangle-5_Left_Isometric" fill="#00AA8D" points="131 74 0 8.5 0 3.5 131 69"></polygon>
                                <polygon id="Rectangle-5_Right_Isometric" fill="#00AA8D" points="131 74 138 70.5 138 65.5 131 69"></polygon>
                                <polygon id="Rectangle-5_Top_Isometric" fill="#00FFE2" points="0 3.5 7 0 138 65.5 131 69"></polygon>
                            </g>
                            <g id="Rectangle-5_Isometric" transform="translate(22.000000, 99.000000)">
                                <polygon id="Rectangle-5_Left_Isometric" fill="#00AA8D" points="131 74 0 8.5 0 3.5 131 69"></polygon>
                                <polygon id="Rectangle-5_Right_Isometric" fill="#00AA8D" points="131 74 138 70.5 138 65.5 131 69"></polygon>
                                <polygon id="Rectangle-5_Top_Isometric" fill="#00FFE2" points="0 3.5 7 0 138 65.5 131 69"></polygon>
                            </g>
                            <g id="Rectangle-5_Isometric" transform="translate(0.000000, 110.000000)">
                                <polygon id="Rectangle-5_Left_Isometric" fill="#00AA8D" points="131 74 0 8.5 0 3.5 131 69"></polygon>
                                <polygon id="Rectangle-5_Right_Isometric" fill="#00AA8D" points="131 74 138 70.5 138 65.5 131 69"></polygon>
                                <polygon id="Rectangle-5_Top_Isometric" fill="#00FFE2" points="0 3.5 7 0 138 65.5 131 69"></polygon>
                            </g>
                            <g id="contracts" transform="translate(132.000000, 62.000000)" fill="#000000" opacity="0.5">
                                <g id="ic_blur_on_24px" transform="translate(5.000000, 4.000000)">
                                    <path d="M7.73684211,13.8157895 C6.52105263,13.8157895 5.52631579,14.4078947 5.52631579,15.1315789 C5.52631579,15.8552632 6.52105263,16.4473684 7.73684211,16.4473684 C8.95263158,16.4473684 9.94736842,15.8552632 9.94736842,15.1315789 C9.94736842,14.4078947 8.95263158,13.8157895 7.73684211,13.8157895 Z M7.73684211,19.0789474 C6.52105263,19.0789474 5.52631579,19.6710526 5.52631579,20.3947368 C5.52631579,21.1184211 6.52105263,21.7105263 7.73684211,21.7105263 C8.95263158,21.7105263 9.94736842,21.1184211 9.94736842,20.3947368 C9.94736842,19.6710526 8.95263158,19.0789474 7.73684211,19.0789474 Z M7.73684211,8.55263158 C6.52105263,8.55263158 5.52631579,9.14473684 5.52631579,9.86842105 C5.52631579,10.5921053 6.52105263,11.1842105 7.73684211,11.1842105 C8.95263158,11.1842105 9.94736842,10.5921053 9.94736842,9.86842105 C9.94736842,9.14473684 8.95263158,8.55263158 7.73684211,8.55263158 Z M1.10526316,9.21052632 C0.486315789,9.21052632 0,9.5 0,9.86842105 C0,10.2368421 0.486315789,10.5263158 1.10526316,10.5263158 C1.72421053,10.5263158 2.21052632,10.2368421 2.21052632,9.86842105 C2.21052632,9.5 1.72421053,9.21052632 1.10526316,9.21052632 Z M7.73684211,3.28947368 C6.52105263,3.28947368 5.52631579,3.88157895 5.52631579,4.60526316 C5.52631579,5.32894737 6.52105263,5.92105263 7.73684211,5.92105263 C8.95263158,5.92105263 9.94736842,5.32894737 9.94736842,4.60526316 C9.94736842,3.88157895 8.95263158,3.28947368 7.73684211,3.28947368 Z M40.8947368,10.5263158 C41.5136842,10.5263158 42,10.2368421 42,9.86842105 C42,9.5 41.5136842,9.21052632 40.8947368,9.21052632 C40.2757895,9.21052632 39.7894737,9.5 39.7894737,9.86842105 C39.7894737,10.2368421 40.2757895,10.5263158 40.8947368,10.5263158 Z M25.4210526,5.92105263 C26.6368421,5.92105263 27.6315789,5.32894737 27.6315789,4.60526316 C27.6315789,3.88157895 26.6368421,3.28947368 25.4210526,3.28947368 C24.2052632,3.28947368 23.2105263,3.88157895 23.2105263,4.60526316 C23.2105263,5.32894737 24.2052632,5.92105263 25.4210526,5.92105263 Z M25.4210526,1.31578947 C26.04,1.31578947 26.5263158,1.02631579 26.5263158,0.657894737 C26.5263158,0.289473684 26.04,0 25.4210526,0 C24.8021053,0 24.3157895,0.289473684 24.3157895,0.657894737 C24.3157895,1.02631579 24.8021053,1.31578947 25.4210526,1.31578947 Z M1.10526316,14.4736842 C0.486315789,14.4736842 0,14.7631579 0,15.1315789 C0,15.5 0.486315789,15.7894737 1.10526316,15.7894737 C1.72421053,15.7894737 2.21052632,15.5 2.21052632,15.1315789 C2.21052632,14.7631579 1.72421053,14.4736842 1.10526316,14.4736842 Z M16.5789474,23.6842105 C15.96,23.6842105 15.4736842,23.9736842 15.4736842,24.3421053 C15.4736842,24.7105263 15.96,25 16.5789474,25 C17.1978947,25 17.6842105,24.7105263 17.6842105,24.3421053 C17.6842105,23.9736842 17.1978947,23.6842105 16.5789474,23.6842105 Z M16.5789474,1.31578947 C17.1978947,1.31578947 17.6842105,1.02631579 17.6842105,0.657894737 C17.6842105,0.289473684 17.1978947,0 16.5789474,0 C15.96,0 15.4736842,0.289473684 15.4736842,0.657894737 C15.4736842,1.02631579 15.96,1.31578947 16.5789474,1.31578947 Z M16.5789474,5.92105263 C17.7947368,5.92105263 18.7894737,5.32894737 18.7894737,4.60526316 C18.7894737,3.88157895 17.7947368,3.28947368 16.5789474,3.28947368 C15.3631579,3.28947368 14.3684211,3.88157895 14.3684211,4.60526316 C14.3684211,5.32894737 15.3631579,5.92105263 16.5789474,5.92105263 Z M16.5789474,13.1578947 C14.7442105,13.1578947 13.2631579,14.0394737 13.2631579,15.1315789 C13.2631579,16.2236842 14.7442105,17.1052632 16.5789474,17.1052632 C18.4136842,17.1052632 19.8947368,16.2236842 19.8947368,15.1315789 C19.8947368,14.0394737 18.4136842,13.1578947 16.5789474,13.1578947 Z M34.2631579,13.8157895 C33.0473684,13.8157895 32.0526316,14.4078947 32.0526316,15.1315789 C32.0526316,15.8552632 33.0473684,16.4473684 34.2631579,16.4473684 C35.4789474,16.4473684 36.4736842,15.8552632 36.4736842,15.1315789 C36.4736842,14.4078947 35.4789474,13.8157895 34.2631579,13.8157895 Z M34.2631579,19.0789474 C33.0473684,19.0789474 32.0526316,19.6710526 32.0526316,20.3947368 C32.0526316,21.1184211 33.0473684,21.7105263 34.2631579,21.7105263 C35.4789474,21.7105263 36.4736842,21.1184211 36.4736842,20.3947368 C36.4736842,19.6710526 35.4789474,19.0789474 34.2631579,19.0789474 Z M34.2631579,8.55263158 C33.0473684,8.55263158 32.0526316,9.14473684 32.0526316,9.86842105 C32.0526316,10.5921053 33.0473684,11.1842105 34.2631579,11.1842105 C35.4789474,11.1842105 36.4736842,10.5921053 36.4736842,9.86842105 C36.4736842,9.14473684 35.4789474,8.55263158 34.2631579,8.55263158 Z M34.2631579,3.28947368 C33.0473684,3.28947368 32.0526316,3.88157895 32.0526316,4.60526316 C32.0526316,5.32894737 33.0473684,5.92105263 34.2631579,5.92105263 C35.4789474,5.92105263 36.4736842,5.32894737 36.4736842,4.60526316 C36.4736842,3.88157895 35.4789474,3.28947368 34.2631579,3.28947368 Z M40.8947368,14.4736842 C40.2757895,14.4736842 39.7894737,14.7631579 39.7894737,15.1315789 C39.7894737,15.5 40.2757895,15.7894737 40.8947368,15.7894737 C41.5136842,15.7894737 42,15.5 42,15.1315789 C42,14.7631579 41.5136842,14.4736842 40.8947368,14.4736842 Z M25.4210526,19.0789474 C24.2052632,19.0789474 23.2105263,19.6710526 23.2105263,20.3947368 C23.2105263,21.1184211 24.2052632,21.7105263 25.4210526,21.7105263 C26.6368421,21.7105263 27.6315789,21.1184211 27.6315789,20.3947368 C27.6315789,19.6710526 26.6368421,19.0789474 25.4210526,19.0789474 Z M25.4210526,23.6842105 C24.8021053,23.6842105 24.3157895,23.9736842 24.3157895,24.3421053 C24.3157895,24.7105263 24.8021053,25 25.4210526,25 C26.04,25 26.5263158,24.7105263 26.5263158,24.3421053 C26.5263158,23.9736842 26.04,23.6842105 25.4210526,23.6842105 Z M16.5789474,7.89473684 C14.7442105,7.89473684 13.2631579,8.77631579 13.2631579,9.86842105 C13.2631579,10.9605263 14.7442105,11.8421053 16.5789474,11.8421053 C18.4136842,11.8421053 19.8947368,10.9605263 19.8947368,9.86842105 C19.8947368,8.77631579 18.4136842,7.89473684 16.5789474,7.89473684 Z M16.5789474,19.0789474 C15.3631579,19.0789474 14.3684211,19.6710526 14.3684211,20.3947368 C14.3684211,21.1184211 15.3631579,21.7105263 16.5789474,21.7105263 C17.7947368,21.7105263 18.7894737,21.1184211 18.7894737,20.3947368 C18.7894737,19.6710526 17.7947368,19.0789474 16.5789474,19.0789474 Z M25.4210526,13.1578947 C23.5863158,13.1578947 22.1052632,14.0394737 22.1052632,15.1315789 C22.1052632,16.2236842 23.5863158,17.1052632 25.4210526,17.1052632 C27.2557895,17.1052632 28.7368421,16.2236842 28.7368421,15.1315789 C28.7368421,14.0394737 27.2557895,13.1578947 25.4210526,13.1578947 Z M25.4210526,7.89473684 C23.5863158,7.89473684 22.1052632,8.77631579 22.1052632,9.86842105 C22.1052632,10.9605263 23.5863158,11.8421053 25.4210526,11.8421053 C27.2557895,11.8421053 28.7368421,10.9605263 28.7368421,9.86842105 C28.7368421,8.77631579 27.2557895,7.89473684 25.4210526,7.89473684 Z" id="Shape" fill-rule="nonzero"></path>
                                </g>
                            </g>
                            <g id="contracts" transform="translate(250.000000, 113.000000)" fill="#000000" opacity="0.5">
                                <g id="ic_blur_on_24px" transform="translate(5.000000, 4.000000)">
                                    <path d="M7.73684211,13.8157895 C6.52105263,13.8157895 5.52631579,14.4078947 5.52631579,15.1315789 C5.52631579,15.8552632 6.52105263,16.4473684 7.73684211,16.4473684 C8.95263158,16.4473684 9.94736842,15.8552632 9.94736842,15.1315789 C9.94736842,14.4078947 8.95263158,13.8157895 7.73684211,13.8157895 Z M7.73684211,19.0789474 C6.52105263,19.0789474 5.52631579,19.6710526 5.52631579,20.3947368 C5.52631579,21.1184211 6.52105263,21.7105263 7.73684211,21.7105263 C8.95263158,21.7105263 9.94736842,21.1184211 9.94736842,20.3947368 C9.94736842,19.6710526 8.95263158,19.0789474 7.73684211,19.0789474 Z M7.73684211,8.55263158 C6.52105263,8.55263158 5.52631579,9.14473684 5.52631579,9.86842105 C5.52631579,10.5921053 6.52105263,11.1842105 7.73684211,11.1842105 C8.95263158,11.1842105 9.94736842,10.5921053 9.94736842,9.86842105 C9.94736842,9.14473684 8.95263158,8.55263158 7.73684211,8.55263158 Z M1.10526316,9.21052632 C0.486315789,9.21052632 0,9.5 0,9.86842105 C0,10.2368421 0.486315789,10.5263158 1.10526316,10.5263158 C1.72421053,10.5263158 2.21052632,10.2368421 2.21052632,9.86842105 C2.21052632,9.5 1.72421053,9.21052632 1.10526316,9.21052632 Z M7.73684211,3.28947368 C6.52105263,3.28947368 5.52631579,3.88157895 5.52631579,4.60526316 C5.52631579,5.32894737 6.52105263,5.92105263 7.73684211,5.92105263 C8.95263158,5.92105263 9.94736842,5.32894737 9.94736842,4.60526316 C9.94736842,3.88157895 8.95263158,3.28947368 7.73684211,3.28947368 Z M40.8947368,10.5263158 C41.5136842,10.5263158 42,10.2368421 42,9.86842105 C42,9.5 41.5136842,9.21052632 40.8947368,9.21052632 C40.2757895,9.21052632 39.7894737,9.5 39.7894737,9.86842105 C39.7894737,10.2368421 40.2757895,10.5263158 40.8947368,10.5263158 Z M25.4210526,5.92105263 C26.6368421,5.92105263 27.6315789,5.32894737 27.6315789,4.60526316 C27.6315789,3.88157895 26.6368421,3.28947368 25.4210526,3.28947368 C24.2052632,3.28947368 23.2105263,3.88157895 23.2105263,4.60526316 C23.2105263,5.32894737 24.2052632,5.92105263 25.4210526,5.92105263 Z M25.4210526,1.31578947 C26.04,1.31578947 26.5263158,1.02631579 26.5263158,0.657894737 C26.5263158,0.289473684 26.04,0 25.4210526,0 C24.8021053,0 24.3157895,0.289473684 24.3157895,0.657894737 C24.3157895,1.02631579 24.8021053,1.31578947 25.4210526,1.31578947 Z M1.10526316,14.4736842 C0.486315789,14.4736842 0,14.7631579 0,15.1315789 C0,15.5 0.486315789,15.7894737 1.10526316,15.7894737 C1.72421053,15.7894737 2.21052632,15.5 2.21052632,15.1315789 C2.21052632,14.7631579 1.72421053,14.4736842 1.10526316,14.4736842 Z M16.5789474,23.6842105 C15.96,23.6842105 15.4736842,23.9736842 15.4736842,24.3421053 C15.4736842,24.7105263 15.96,25 16.5789474,25 C17.1978947,25 17.6842105,24.7105263 17.6842105,24.3421053 C17.6842105,23.9736842 17.1978947,23.6842105 16.5789474,23.6842105 Z M16.5789474,1.31578947 C17.1978947,1.31578947 17.6842105,1.02631579 17.6842105,0.657894737 C17.6842105,0.289473684 17.1978947,0 16.5789474,0 C15.96,0 15.4736842,0.289473684 15.4736842,0.657894737 C15.4736842,1.02631579 15.96,1.31578947 16.5789474,1.31578947 Z M16.5789474,5.92105263 C17.7947368,5.92105263 18.7894737,5.32894737 18.7894737,4.60526316 C18.7894737,3.88157895 17.7947368,3.28947368 16.5789474,3.28947368 C15.3631579,3.28947368 14.3684211,3.88157895 14.3684211,4.60526316 C14.3684211,5.32894737 15.3631579,5.92105263 16.5789474,5.92105263 Z M16.5789474,13.1578947 C14.7442105,13.1578947 13.2631579,14.0394737 13.2631579,15.1315789 C13.2631579,16.2236842 14.7442105,17.1052632 16.5789474,17.1052632 C18.4136842,17.1052632 19.8947368,16.2236842 19.8947368,15.1315789 C19.8947368,14.0394737 18.4136842,13.1578947 16.5789474,13.1578947 Z M34.2631579,13.8157895 C33.0473684,13.8157895 32.0526316,14.4078947 32.0526316,15.1315789 C32.0526316,15.8552632 33.0473684,16.4473684 34.2631579,16.4473684 C35.4789474,16.4473684 36.4736842,15.8552632 36.4736842,15.1315789 C36.4736842,14.4078947 35.4789474,13.8157895 34.2631579,13.8157895 Z M34.2631579,19.0789474 C33.0473684,19.0789474 32.0526316,19.6710526 32.0526316,20.3947368 C32.0526316,21.1184211 33.0473684,21.7105263 34.2631579,21.7105263 C35.4789474,21.7105263 36.4736842,21.1184211 36.4736842,20.3947368 C36.4736842,19.6710526 35.4789474,19.0789474 34.2631579,19.0789474 Z M34.2631579,8.55263158 C33.0473684,8.55263158 32.0526316,9.14473684 32.0526316,9.86842105 C32.0526316,10.5921053 33.0473684,11.1842105 34.2631579,11.1842105 C35.4789474,11.1842105 36.4736842,10.5921053 36.4736842,9.86842105 C36.4736842,9.14473684 35.4789474,8.55263158 34.2631579,8.55263158 Z M34.2631579,3.28947368 C33.0473684,3.28947368 32.0526316,3.88157895 32.0526316,4.60526316 C32.0526316,5.32894737 33.0473684,5.92105263 34.2631579,5.92105263 C35.4789474,5.92105263 36.4736842,5.32894737 36.4736842,4.60526316 C36.4736842,3.88157895 35.4789474,3.28947368 34.2631579,3.28947368 Z M40.8947368,14.4736842 C40.2757895,14.4736842 39.7894737,14.7631579 39.7894737,15.1315789 C39.7894737,15.5 40.2757895,15.7894737 40.8947368,15.7894737 C41.5136842,15.7894737 42,15.5 42,15.1315789 C42,14.7631579 41.5136842,14.4736842 40.8947368,14.4736842 Z M25.4210526,19.0789474 C24.2052632,19.0789474 23.2105263,19.6710526 23.2105263,20.3947368 C23.2105263,21.1184211 24.2052632,21.7105263 25.4210526,21.7105263 C26.6368421,21.7105263 27.6315789,21.1184211 27.6315789,20.3947368 C27.6315789,19.6710526 26.6368421,19.0789474 25.4210526,19.0789474 Z M25.4210526,23.6842105 C24.8021053,23.6842105 24.3157895,23.9736842 24.3157895,24.3421053 C24.3157895,24.7105263 24.8021053,25 25.4210526,25 C26.04,25 26.5263158,24.7105263 26.5263158,24.3421053 C26.5263158,23.9736842 26.04,23.6842105 25.4210526,23.6842105 Z M16.5789474,7.89473684 C14.7442105,7.89473684 13.2631579,8.77631579 13.2631579,9.86842105 C13.2631579,10.9605263 14.7442105,11.8421053 16.5789474,11.8421053 C18.4136842,11.8421053 19.8947368,10.9605263 19.8947368,9.86842105 C19.8947368,8.77631579 18.4136842,7.89473684 16.5789474,7.89473684 Z M16.5789474,19.0789474 C15.3631579,19.0789474 14.3684211,19.6710526 14.3684211,20.3947368 C14.3684211,21.1184211 15.3631579,21.7105263 16.5789474,21.7105263 C17.7947368,21.7105263 18.7894737,21.1184211 18.7894737,20.3947368 C18.7894737,19.6710526 17.7947368,19.0789474 16.5789474,19.0789474 Z M25.4210526,13.1578947 C23.5863158,13.1578947 22.1052632,14.0394737 22.1052632,15.1315789 C22.1052632,16.2236842 23.5863158,17.1052632 25.4210526,17.1052632 C27.2557895,17.1052632 28.7368421,16.2236842 28.7368421,15.1315789 C28.7368421,14.0394737 27.2557895,13.1578947 25.4210526,13.1578947 Z M25.4210526,7.89473684 C23.5863158,7.89473684 22.1052632,8.77631579 22.1052632,9.86842105 C22.1052632,10.9605263 23.5863158,11.8421053 25.4210526,11.8421053 C27.2557895,11.8421053 28.7368421,10.9605263 28.7368421,9.86842105 C28.7368421,8.77631579 27.2557895,7.89473684 25.4210526,7.89473684 Z" id="Shape" fill-rule="nonzero"></path>
                                </g>
                            </g>
                            <g id="contracts" transform="translate(342.000000, 58.000000)" fill="#000000" opacity="0.5">
                                <g id="ic_blur_on_24px" transform="translate(5.000000, 4.000000)">
                                    <path d="M7.73684211,13.8157895 C6.52105263,13.8157895 5.52631579,14.4078947 5.52631579,15.1315789 C5.52631579,15.8552632 6.52105263,16.4473684 7.73684211,16.4473684 C8.95263158,16.4473684 9.94736842,15.8552632 9.94736842,15.1315789 C9.94736842,14.4078947 8.95263158,13.8157895 7.73684211,13.8157895 Z M7.73684211,19.0789474 C6.52105263,19.0789474 5.52631579,19.6710526 5.52631579,20.3947368 C5.52631579,21.1184211 6.52105263,21.7105263 7.73684211,21.7105263 C8.95263158,21.7105263 9.94736842,21.1184211 9.94736842,20.3947368 C9.94736842,19.6710526 8.95263158,19.0789474 7.73684211,19.0789474 Z M7.73684211,8.55263158 C6.52105263,8.55263158 5.52631579,9.14473684 5.52631579,9.86842105 C5.52631579,10.5921053 6.52105263,11.1842105 7.73684211,11.1842105 C8.95263158,11.1842105 9.94736842,10.5921053 9.94736842,9.86842105 C9.94736842,9.14473684 8.95263158,8.55263158 7.73684211,8.55263158 Z M1.10526316,9.21052632 C0.486315789,9.21052632 0,9.5 0,9.86842105 C0,10.2368421 0.486315789,10.5263158 1.10526316,10.5263158 C1.72421053,10.5263158 2.21052632,10.2368421 2.21052632,9.86842105 C2.21052632,9.5 1.72421053,9.21052632 1.10526316,9.21052632 Z M7.73684211,3.28947368 C6.52105263,3.28947368 5.52631579,3.88157895 5.52631579,4.60526316 C5.52631579,5.32894737 6.52105263,5.92105263 7.73684211,5.92105263 C8.95263158,5.92105263 9.94736842,5.32894737 9.94736842,4.60526316 C9.94736842,3.88157895 8.95263158,3.28947368 7.73684211,3.28947368 Z M40.8947368,10.5263158 C41.5136842,10.5263158 42,10.2368421 42,9.86842105 C42,9.5 41.5136842,9.21052632 40.8947368,9.21052632 C40.2757895,9.21052632 39.7894737,9.5 39.7894737,9.86842105 C39.7894737,10.2368421 40.2757895,10.5263158 40.8947368,10.5263158 Z M25.4210526,5.92105263 C26.6368421,5.92105263 27.6315789,5.32894737 27.6315789,4.60526316 C27.6315789,3.88157895 26.6368421,3.28947368 25.4210526,3.28947368 C24.2052632,3.28947368 23.2105263,3.88157895 23.2105263,4.60526316 C23.2105263,5.32894737 24.2052632,5.92105263 25.4210526,5.92105263 Z M25.4210526,1.31578947 C26.04,1.31578947 26.5263158,1.02631579 26.5263158,0.657894737 C26.5263158,0.289473684 26.04,0 25.4210526,0 C24.8021053,0 24.3157895,0.289473684 24.3157895,0.657894737 C24.3157895,1.02631579 24.8021053,1.31578947 25.4210526,1.31578947 Z M1.10526316,14.4736842 C0.486315789,14.4736842 0,14.7631579 0,15.1315789 C0,15.5 0.486315789,15.7894737 1.10526316,15.7894737 C1.72421053,15.7894737 2.21052632,15.5 2.21052632,15.1315789 C2.21052632,14.7631579 1.72421053,14.4736842 1.10526316,14.4736842 Z M16.5789474,23.6842105 C15.96,23.6842105 15.4736842,23.9736842 15.4736842,24.3421053 C15.4736842,24.7105263 15.96,25 16.5789474,25 C17.1978947,25 17.6842105,24.7105263 17.6842105,24.3421053 C17.6842105,23.9736842 17.1978947,23.6842105 16.5789474,23.6842105 Z M16.5789474,1.31578947 C17.1978947,1.31578947 17.6842105,1.02631579 17.6842105,0.657894737 C17.6842105,0.289473684 17.1978947,0 16.5789474,0 C15.96,0 15.4736842,0.289473684 15.4736842,0.657894737 C15.4736842,1.02631579 15.96,1.31578947 16.5789474,1.31578947 Z M16.5789474,5.92105263 C17.7947368,5.92105263 18.7894737,5.32894737 18.7894737,4.60526316 C18.7894737,3.88157895 17.7947368,3.28947368 16.5789474,3.28947368 C15.3631579,3.28947368 14.3684211,3.88157895 14.3684211,4.60526316 C14.3684211,5.32894737 15.3631579,5.92105263 16.5789474,5.92105263 Z M16.5789474,13.1578947 C14.7442105,13.1578947 13.2631579,14.0394737 13.2631579,15.1315789 C13.2631579,16.2236842 14.7442105,17.1052632 16.5789474,17.1052632 C18.4136842,17.1052632 19.8947368,16.2236842 19.8947368,15.1315789 C19.8947368,14.0394737 18.4136842,13.1578947 16.5789474,13.1578947 Z M34.2631579,13.8157895 C33.0473684,13.8157895 32.0526316,14.4078947 32.0526316,15.1315789 C32.0526316,15.8552632 33.0473684,16.4473684 34.2631579,16.4473684 C35.4789474,16.4473684 36.4736842,15.8552632 36.4736842,15.1315789 C36.4736842,14.4078947 35.4789474,13.8157895 34.2631579,13.8157895 Z M34.2631579,19.0789474 C33.0473684,19.0789474 32.0526316,19.6710526 32.0526316,20.3947368 C32.0526316,21.1184211 33.0473684,21.7105263 34.2631579,21.7105263 C35.4789474,21.7105263 36.4736842,21.1184211 36.4736842,20.3947368 C36.4736842,19.6710526 35.4789474,19.0789474 34.2631579,19.0789474 Z M34.2631579,8.55263158 C33.0473684,8.55263158 32.0526316,9.14473684 32.0526316,9.86842105 C32.0526316,10.5921053 33.0473684,11.1842105 34.2631579,11.1842105 C35.4789474,11.1842105 36.4736842,10.5921053 36.4736842,9.86842105 C36.4736842,9.14473684 35.4789474,8.55263158 34.2631579,8.55263158 Z M34.2631579,3.28947368 C33.0473684,3.28947368 32.0526316,3.88157895 32.0526316,4.60526316 C32.0526316,5.32894737 33.0473684,5.92105263 34.2631579,5.92105263 C35.4789474,5.92105263 36.4736842,5.32894737 36.4736842,4.60526316 C36.4736842,3.88157895 35.4789474,3.28947368 34.2631579,3.28947368 Z M40.8947368,14.4736842 C40.2757895,14.4736842 39.7894737,14.7631579 39.7894737,15.1315789 C39.7894737,15.5 40.2757895,15.7894737 40.8947368,15.7894737 C41.5136842,15.7894737 42,15.5 42,15.1315789 C42,14.7631579 41.5136842,14.4736842 40.8947368,14.4736842 Z M25.4210526,19.0789474 C24.2052632,19.0789474 23.2105263,19.6710526 23.2105263,20.3947368 C23.2105263,21.1184211 24.2052632,21.7105263 25.4210526,21.7105263 C26.6368421,21.7105263 27.6315789,21.1184211 27.6315789,20.3947368 C27.6315789,19.6710526 26.6368421,19.0789474 25.4210526,19.0789474 Z M25.4210526,23.6842105 C24.8021053,23.6842105 24.3157895,23.9736842 24.3157895,24.3421053 C24.3157895,24.7105263 24.8021053,25 25.4210526,25 C26.04,25 26.5263158,24.7105263 26.5263158,24.3421053 C26.5263158,23.9736842 26.04,23.6842105 25.4210526,23.6842105 Z M16.5789474,7.89473684 C14.7442105,7.89473684 13.2631579,8.77631579 13.2631579,9.86842105 C13.2631579,10.9605263 14.7442105,11.8421053 16.5789474,11.8421053 C18.4136842,11.8421053 19.8947368,10.9605263 19.8947368,9.86842105 C19.8947368,8.77631579 18.4136842,7.89473684 16.5789474,7.89473684 Z M16.5789474,19.0789474 C15.3631579,19.0789474 14.3684211,19.6710526 14.3684211,20.3947368 C14.3684211,21.1184211 15.3631579,21.7105263 16.5789474,21.7105263 C17.7947368,21.7105263 18.7894737,21.1184211 18.7894737,20.3947368 C18.7894737,19.6710526 17.7947368,19.0789474 16.5789474,19.0789474 Z M25.4210526,13.1578947 C23.5863158,13.1578947 22.1052632,14.0394737 22.1052632,15.1315789 C22.1052632,16.2236842 23.5863158,17.1052632 25.4210526,17.1052632 C27.2557895,17.1052632 28.7368421,16.2236842 28.7368421,15.1315789 C28.7368421,14.0394737 27.2557895,13.1578947 25.4210526,13.1578947 Z M25.4210526,7.89473684 C23.5863158,7.89473684 22.1052632,8.77631579 22.1052632,9.86842105 C22.1052632,10.9605263 23.5863158,11.8421053 25.4210526,11.8421053 C27.2557895,11.8421053 28.7368421,10.9605263 28.7368421,9.86842105 C28.7368421,8.77631579 27.2557895,7.89473684 25.4210526,7.89473684 Z" id="Shape" fill-rule="nonzero"></path>
                                </g>
                            </g>
                        </g>
                    </g>
                </g>
            </g>
        </g>
    </g>
</svg>