<?xml version="1.0" encoding="UTF-8"?>
<svg width="708px" height="902px" viewBox="0 0 708 902" version="1.1" xmlns="http://www.w3.org/2000/svg" xmlns:xlink="http://www.w3.org/1999/xlink">
    <!-- Generator: Sketch 50.2 (55047) - http://www.bohemiancoding.com/sketch -->
    <title>Asset 1</title>
    <desc>Created with Sketch.</desc>
    <defs>
        <linearGradient x1="0%" y1="50.0109004%" x2="100%" y2="50.0109004%" id="linearGradient-1">
            <stop stop-color="#9198A4" offset="0%"></stop>
            <stop stop-color="#5E6676" offset="99%"></stop>
        </linearGradient>
        <linearGradient x1="50%" y1="12.5623556%" x2="50%" y2="86.8036067%" id="linearGradient-2">
            <stop stop-color="#FFFFFF" offset="0%"></stop>
            <stop stop-color="#D8D8D8" offset="99%"></stop>
        </linearGradient>
        <linearGradient x1="0.013442667%" y1="49.9454981%" x2="100%" y2="49.9454981%" id="linearGradient-3">
            <stop stop-color="#9198A4" offset="0%"></stop>
            <stop stop-color="#5E6676" offset="99%"></stop>
        </linearGradient>
        <linearGradient x1="0%" y1="50%" x2="100%" y2="50%" id="linearGradient-4">
            <stop stop-color="#A9AEB7" offset="0%"></stop>
            <stop stop-color="#848C99" offset="99%"></stop>
        </linearGradient>
        <linearGradient x1="0%" y1="50%" x2="100%" y2="50%" id="linearGradient-5">
            <stop stop-color="#9198A4" offset="0%"></stop>
            <stop stop-color="#5E6676" offset="99%"></stop>
        </linearGradient>
        <linearGradient x1="-0.032615786%" y1="49.9955953%" x2="100.260926%" y2="49.9955953%" id="linearGradient-6">
            <stop stop-color="#FFFFFF" offset="0%"></stop>
            <stop stop-color="#D8D8D8" offset="99%"></stop>
        </linearGradient>
        <linearGradient x1="0%" y1="50.0189466%" x2="100%" y2="50.0189466%" id="linearGradient-7">
            <stop stop-color="#9198A4" offset="0%"></stop>
            <stop stop-color="#5E6676" offset="99%"></stop>
        </linearGradient>
        <linearGradient x1="0%" y1="50.0189466%" x2="100%" y2="50.0189466%" id="linearGradient-8">
            <stop stop-color="#A9AEB7" offset="0%"></stop>
            <stop stop-color="#848C99" offset="99%"></stop>
        </linearGradient>
        <linearGradient x1="0%" y1="49.9890996%" x2="99.986541%" y2="49.9890996%" id="linearGradient-9">
            <stop stop-color="#9198A4" offset="0%"></stop>
            <stop stop-color="#5E6676" offset="99%"></stop>
        </linearGradient>
        <linearGradient x1="49.9680851%" y1="12.5607616%" x2="49.9680851%" y2="86.8243732%" id="linearGradient-10">
            <stop stop-color="#FFFFFF" offset="0%"></stop>
            <stop stop-color="#D8D8D8" offset="99%"></stop>
        </linearGradient>
        <linearGradient x1="-0.0403280011%" y1="49.9454981%" x2="99.959672%" y2="49.9454981%" id="linearGradient-11">
            <stop stop-color="#9198A4" offset="0%"></stop>
            <stop stop-color="#5E6676" offset="99%"></stop>
        </linearGradient>
        <linearGradient x1="-3.70798557e-13%" y1="49.9955953%" x2="100.293542%" y2="49.9955953%" id="linearGradient-12">
            <stop stop-color="#FFFFFF" offset="0%"></stop>
            <stop stop-color="#D8D8D8" offset="99%"></stop>
        </linearGradient>
        <linearGradient x1="-0.00900090009%" y1="50.0072897%" x2="100%" y2="50.0072897%" id="linearGradient-13">
            <stop stop-color="#9198A4" offset="0%"></stop>
            <stop stop-color="#5E6676" offset="99%"></stop>
        </linearGradient>
        <linearGradient x1="50%" y1="12.5633668%" x2="50%" y2="86.7967265%" id="linearGradient-14">
            <stop stop-color="#FFFFFF" offset="0%"></stop>
            <stop stop-color="#D8D8D8" offset="99%"></stop>
        </linearGradient>
        <linearGradient x1="0%" y1="50%" x2="100.00899%" y2="50%" id="linearGradient-15">
            <stop stop-color="#9198A4" offset="0%"></stop>
            <stop stop-color="#5E6676" offset="99%"></stop>
        </linearGradient>
        <linearGradient x1="0%" y1="49.9615662%" x2="100.041728%" y2="49.9615662%" id="linearGradient-16">
            <stop stop-color="#FFFFFF" offset="0%"></stop>
            <stop stop-color="#D8D8D8" offset="99%"></stop>
        </linearGradient>
        <linearGradient x1="0%" y1="49.9887968%" x2="100%" y2="49.9887968%" id="linearGradient-17">
            <stop stop-color="#A9AEB7" offset="0%"></stop>
            <stop stop-color="#848C99" offset="99%"></stop>
        </linearGradient>
        <linearGradient x1="0.0425531915%" y1="50%" x2="100.042553%" y2="50%" id="linearGradient-18">
            <stop stop-color="#9198A4" offset="0%"></stop>
            <stop stop-color="#5E6676" offset="99%"></stop>
        </linearGradient>
        <linearGradient x1="0%" y1="49.9887968%" x2="100%" y2="49.9887968%" id="linearGradient-19">
            <stop stop-color="#9198A4" offset="0%"></stop>
            <stop stop-color="#5E6676" offset="99%"></stop>
        </linearGradient>
        <linearGradient x1="-2.96306395e-14%" y1="49.9702184%" x2="99.9791493%" y2="49.9702184%" id="linearGradient-20">
            <stop stop-color="#FFFFFF" offset="0%"></stop>
            <stop stop-color="#D8D8D8" offset="99%"></stop>
        </linearGradient>
        <linearGradient x1="0%" y1="50.0931099%" x2="100%" y2="50.0931099%" id="linearGradient-21">
            <stop stop-color="#9198A4" offset="0%"></stop>
            <stop stop-color="#5E6676" offset="99%"></stop>
        </linearGradient>
        <linearGradient x1="0.118758172%" y1="50.0047596%" x2="100.03278%" y2="50.0047596%" id="linearGradient-22">
            <stop stop-color="#FFFFFF" offset="0%"></stop>
            <stop stop-color="#D8D8D8" offset="99%"></stop>
        </linearGradient>
        <linearGradient x1="0%" y1="49.9728408%" x2="99.8815166%" y2="49.9728408%" id="linearGradient-23">
            <stop stop-color="#A9AEB7" offset="0%"></stop>
            <stop stop-color="#848C99" offset="99%"></stop>
        </linearGradient>
        <linearGradient x1="0%" y1="49.9705362%" x2="100%" y2="49.9705362%" id="linearGradient-24">
            <stop stop-color="#9198A4" offset="0%"></stop>
            <stop stop-color="#5E6676" offset="99%"></stop>
        </linearGradient>
        <linearGradient x1="0%" y1="49.9728408%" x2="100%" y2="49.9728408%" id="linearGradient-25">
            <stop stop-color="#9198A4" offset="0%"></stop>
            <stop stop-color="#5E6676" offset="99%"></stop>
        </linearGradient>
        <linearGradient x1="0%" y1="49.9705362%" x2="100%" y2="49.9705362%" id="linearGradient-26">
            <stop stop-color="#A9AEB7" offset="0%"></stop>
            <stop stop-color="#848C99" offset="99%"></stop>
        </linearGradient>
        <linearGradient x1="6.74395155e-15%" y1="49.9690241%" x2="100.037965%" y2="49.9690241%" id="linearGradient-27">
            <stop stop-color="#FFFFFF" offset="0%"></stop>
            <stop stop-color="#D8D8D8" offset="99%"></stop>
        </linearGradient>
        <linearGradient x1="0%" y1="49.9778859%" x2="100%" y2="49.9778859%" id="linearGradient-28">
            <stop stop-color="#9198A4" offset="0%"></stop>
            <stop stop-color="#5E6676" offset="99%"></stop>
        </linearGradient>
        <linearGradient x1="0%" y1="49.9778859%" x2="100%" y2="49.9778859%" id="linearGradient-29">
            <stop stop-color="#A9AEB7" offset="0%"></stop>
            <stop stop-color="#848C99" offset="99%"></stop>
        </linearGradient>
    </defs>
    <g id="Page-1" stroke="none" stroke-width="1" fill="none" fill-rule="evenodd">
        <g id="market-dApp" transform="translate(-732.000000, -84.000000)">
            <g id="Asset-1" transform="translate(732.000000, 84.000000)">
                <path d="M375.281318,200.414189 C377.152791,201.537434 378.309701,203.817962 378.309701,207.221736 L501.690793,278.479736 C501.690793,275.075962 500.533883,272.812453 498.66241,271.672189 L375.281318,200.414189 Z" id="Shape" fill="url(#linearGradient-1)" fill-rule="nonzero"></path>
                <path d="M356.940886,371.538906 L356.940886,219.543396 C357.362235,212.047329 361.33079,205.201262 367.625294,201.111962 C370.636663,199.410075 373.341792,199.239887 375.281318,200.39717 L498.66241,271.65517 C496.722884,270.480868 494.000742,270.634038 491.006385,272.369962 C484.711882,276.459262 480.743326,283.305329 480.321977,290.801396 L480.321977,442.762868 C479.890581,450.277737 475.894634,457.133751 469.569516,461.211321 C466.643213,462.913208 463.989125,463.083396 462.066612,462.011208 L338.73656,390.770226 C340.659073,391.842415 343.313162,391.672226 346.239464,389.97034 C352.540452,385.884835 356.515693,379.038137 356.940886,371.538906 Z" id="Shape" fill="url(#linearGradient-2)" fill-rule="nonzero"></path>
                <path d="M338.73656,390.770226 C336.780021,389.681019 335.555057,387.366453 335.555057,383.962679 L458.936148,455.220679 C458.936148,458.624453 460.144099,461.024113 462.117652,462.028226 L338.73656,390.770226 Z" id="Shape" fill="url(#linearGradient-3)" fill-rule="nonzero"></path>
                <polygon id="Shape" fill="#181E26" fill-rule="nonzero" points="374.345582 284.317208 458.034439 332.650792 458.034439 330.608528 374.345582 282.291962"></polygon>
                <polygon id="Shape" fill="#181E26" fill-rule="nonzero" points="374.345582 301.063774 458.034439 349.397358 458.034439 347.372113 374.345582 299.038528"></polygon>
                <polygon id="Shape" fill="#181E26" fill-rule="nonzero" points="374.345582 317.827358 458.034439 366.160943 458.034439 364.118679 374.345582 315.802113"></polygon>
                <polygon id="Shape" fill="#181E26" fill-rule="nonzero" points="374.345582 334.573925 458.034439 382.907509 458.034439 380.882264 374.345582 332.548679"></polygon>
                <polygon id="Shape" fill="#181E26" fill-rule="nonzero" points="374.345582 351.337509 439.591926 389.017283 439.591926 386.975019 374.345582 349.312264"></polygon>
                <path d="M383.719959,261.699132 C383.640563,263.423711 383.203886,264.529937 382.409928,265.017811 C381.61597,265.505686 380.481744,265.329824 379.00725,264.490226 C377.50937,263.567774 376.323719,262.215696 375.604573,260.609925 C374.733308,258.777026 374.296643,256.767722 374.328568,254.738415 L374.328568,251.743094 C374.125338,250.175702 374.602128,248.596213 375.638599,247.403283 C376.511953,246.665799 377.708562,246.733874 379.228424,247.607509 C380.596048,248.386213 381.720935,249.529137 382.477981,250.90917 C383.266073,252.394101 383.691664,254.044525 383.719959,255.725509 L381.882513,254.67034 C381.862159,253.524583 381.607393,252.395142 381.133924,251.35166 C380.704969,250.52603 380.042165,249.845253 379.228424,249.394491 C378.241648,248.827195 377.481716,248.827195 376.94863,249.394491 C376.300507,250.404096 376.018253,251.605565 376.149001,252.798264 L376.149001,255.827623 C376.113876,257.287029 376.36831,258.738924 376.89759,260.099358 C377.304277,261.181481 378.066052,262.093506 379.05829,262.686226 C380.01104,263.23083 380.691576,263.355635 381.099897,263.060642 C381.508218,262.765648 381.76909,261.948742 381.882513,260.609925 L383.719959,261.699132 Z" id="Shape" fill="#181E26" fill-rule="nonzero"></path>
                <path d="M395.612317,267.009019 C395.820167,268.610304 395.365409,270.227057 394.353326,271.484981 C393.513999,272.211119 392.317391,272.126025 390.763502,271.229698 C389.23649,270.332616 388.006096,269.007149 387.224717,267.417472 C386.331992,265.613742 385.8718,263.626706 385.880659,261.614038 L385.880659,258.516604 C385.681067,256.923729 386.142172,255.318568 387.156663,254.074679 C388.007333,253.314503 389.203941,253.376906 390.746488,254.261887 C392.295515,255.164922 393.53962,256.510174 394.3193,258.12517 C395.204284,259.960624 395.652657,261.976041 395.629331,264.013698 L395.612317,267.009019 Z M393.791885,263.060642 C393.837187,261.564168 393.570664,260.07464 393.009269,258.686792 C392.548223,257.591375 391.741597,256.676905 390.712461,256.082906 C389.714343,255.504264 388.954411,255.504264 388.432667,256.082906 C387.791767,257.095177 387.51566,258.296033 387.650051,259.486679 L387.650051,262.447962 C387.608272,263.920486 387.868841,265.385936 388.415654,266.753736 C388.870544,267.866076 389.677315,268.798645 390.712461,269.408679 C391.733265,269.998667 392.487525,270.027031 392.975242,269.493774 C393.590196,268.502634 393.859433,267.335567 393.740844,266.175094 L393.791885,263.060642 Z" id="Shape" fill="#181E26" fill-rule="nonzero"></path>
                <polygon id="Shape" fill="#181E26" fill-rule="nonzero" points="407.87897 280.913434 406.041524 279.858264 400.256972 263.792453 400.256972 276.522566 398.419526 275.467396 398.419526 258.942075 400.256972 259.997245 406.075551 276.148151 406.075551 263.366981 407.87897 264.405132"></polygon>
                <polygon id="Shape" fill="#181E26" fill-rule="nonzero" points="419.209887 272.71034 415.398888 270.6 415.398888 285.33834 413.578455 284.28317 413.578455 269.54483 409.78447 267.196226 409.78447 265.49434 419.209887 270.940377"></polygon>
                <path d="M425.726014,284.538453 L423.174006,283.07483 L423.174006,289.763245 L421.33656,288.708075 L421.33656,272.182755 L425.334706,274.51434 C428.06888,275.981267 429.741319,278.866164 429.656107,281.968604 C429.709642,282.789285 429.501122,283.605757 429.060639,284.300189 C428.66854,284.836607 428.019558,285.122251 427.3593,285.049019 L430.166509,293.694604 L430.166509,293.830755 L428.209969,292.707509 L425.726014,284.538453 Z M423.174006,281.287849 L425.385747,282.564264 C426.145678,283.006755 426.752489,283.080503 427.206179,282.785509 C427.728866,282.319905 427.984258,281.623738 427.886715,280.930453 C428.005126,279.022972 427.019532,277.21657 425.35172,276.284302 L423.156993,275.024906 L423.174006,281.287849 Z" id="Shape" fill="#181E26" fill-rule="nonzero"></path>
                <path d="M438.945417,294.511509 L434.045561,291.686377 L432.922678,295.362453 L431.051205,294.290264 L435.712873,280.470943 L437.278105,281.372943 L441.956787,300.587245 L440.085314,299.515057 L438.945417,294.511509 Z M434.521936,290.171698 L438.469042,292.452226 L436.495489,283.806642 L434.521936,290.171698 Z" id="Shape" fill="#181E26" fill-rule="nonzero"></path>
                <path d="M452.862369,301.642415 C452.782973,303.366994 452.346296,304.47322 451.552338,304.961094 C450.75838,305.448969 449.624154,305.273107 448.14966,304.433509 C446.651092,303.511872 445.465231,302.159555 444.746982,300.553208 C443.875718,298.720309 443.439053,296.711005 443.470978,294.681698 L443.470978,291.686377 C443.267748,290.118985 443.744538,288.539496 444.781009,287.346566 C445.654363,286.609082 446.850972,286.677157 448.370834,287.550792 C449.738458,288.329496 450.863345,289.47242 451.620391,290.852453 C452.408483,292.337384 452.834074,293.987808 452.862369,295.668792 L451.024923,294.613623 C451.001257,293.468268 450.746639,292.339485 450.276334,291.294943 C449.846555,290.469908 449.183958,289.789343 448.370834,289.337774 C447.384058,288.770478 446.624126,288.770478 446.09104,289.337774 C445.442917,290.347379 445.160662,291.548848 445.291411,292.741547 L445.291411,295.770906 C445.256286,297.230312 445.510719,298.682207 446.04,300.042642 C446.446687,301.124764 447.208462,302.036789 448.2007,302.629509 C449.142108,303.174113 449.822643,303.298918 450.242307,303.003925 C450.66197,302.708931 450.922842,301.892025 451.024923,300.553208 L452.862369,301.642415 Z" id="Shape" fill="#181E26" fill-rule="nonzero"></path>
                <polygon id="Shape" fill="#181E26" fill-rule="nonzero" points="463.51275 298.306717 459.701751 296.128302 459.701751 310.866642 457.881318 309.811472 457.881318 295.073132 454.087333 292.877698 454.087333 291.175811 463.51275 296.621849"></polygon>
                <polygon id="Shape" stroke="#FFFFFF" stroke-width="1.701" points="367.625294 201.128981 491.006385 272.386981 431.986941 122.348642"></polygon>
                <path d="M426.015242,180.314906 C422.986859,169.337736 413.782616,132.576981 422.782698,120.748868 C424.955627,117.862559 428.35786,116.165082 431.969928,116.165082 C435.581996,116.165082 438.984229,117.862559 441.157158,120.748868 C450.15724,132.576981 440.97001,169.337736 437.924614,180.314906 L431.969928,201.911849 L426.015242,180.314906 Z" id="Shape" fill="#00E5C4" fill-rule="nonzero"></path>
                <path d="M431.986941,122.348642 C447.537178,122.348642 431.986941,178.664075 431.986941,178.664075 C431.986941,178.664075 416.436704,122.348642 431.986941,122.348642 Z" id="Shape" fill="#00FFE2" fill-rule="nonzero"></path>
                <polygon id="Shape" fill="url(#linearGradient-4)" fill-rule="nonzero" points="455.023069 92.3103396 462.117652 106.504075 453.11757 105.959472"></polygon>
                <polygon id="Shape" fill="url(#linearGradient-5)" fill-rule="nonzero" points="408.9338 92.3103396 401.839217 106.504075 410.8393 105.959472"></polygon>
                <path d="M431.986941,0 C424.47598,9.08673147 418.263422,19.1732193 413.527415,29.9702264 C408.693868,40.5606325 406.076884,52.0281038 405.837364,63.6675849 C405.837364,97.5010943 418.155057,120.289358 418.155057,120.289358 C418.999077,121.632164 420.169811,122.738864 421.557734,123.505925 C428.070062,126.811037 435.767714,126.811037 442.280041,123.505925 C443.667965,122.738864 444.838699,121.632164 445.682719,120.289358 C445.682719,120.289358 458.000412,97.5010943 458.000412,63.6675849 C457.762573,52.0406894 455.151452,40.5851231 450.327374,30.0042642 C445.631066,19.2022025 439.458701,9.10444357 431.986941,0 Z" id="Shape" fill="url(#linearGradient-6)" fill-rule="nonzero"></path>
                <path d="M450.463481,30.0042642 C452.16482,33.6633208 450.463481,37.6967925 445.529598,40.5559623 C438.094748,44.844717 426.015242,44.8276981 418.529351,40.5559623 C413.561442,37.6797736 411.877116,33.6463019 413.425335,29.9872453 C418.180134,19.1723401 424.428231,9.07821258 431.986941,2.48689958e-14 C439.506568,9.09619885 445.724981,19.1943521 450.463481,30.0042642 Z" id="Shape" fill="#00E2C1" fill-rule="nonzero"></path>
                <polygon id="Shape" fill="url(#linearGradient-4)" fill-rule="nonzero" points="462.781174 140.882189 447.060803 95.9693962 453.661998 92.1741887 469.365355 137.069962"></polygon>
                <polygon id="Shape" fill="url(#linearGradient-7)" fill-rule="nonzero" points="462.781174 140.882189 447.060803 95.9693962 437.141998 119.727736"></polygon>
                <polygon id="Shape" fill="url(#linearGradient-5)" fill-rule="nonzero" points="401.175695 140.882189 416.896066 95.9693962 410.311885 92.1741887 394.591514 137.069962"></polygon>
                <polygon id="Shape" fill="url(#linearGradient-8)" fill-rule="nonzero" points="401.175695 140.882189 416.896066 95.9693962 426.814871 119.727736"></polygon>
                <ellipse id="Oval" fill="#00E5C4" fill-rule="nonzero" cx="431.986941" cy="70.611283" rx="10.3441401" ry="8.91788679"></ellipse>
                <ellipse id="Oval" fill="#00E5C4" fill-rule="nonzero" cx="431.986941" cy="70.611283" rx="7.79213182" ry="6.70543396"></ellipse>
                <path d="M431.986941,60.6212075 C426.270443,60.6212075 421.642801,64.6036226 421.642801,69.5390943 C421.642801,74.474566 426.270443,78.4569811 431.986941,78.4569811 C437.70344,78.4569811 442.348095,74.4405283 442.348095,69.5220755 C442.348095,64.6036226 437.70344,60.6212075 431.986941,60.6212075 Z M431.986941,76.2275094 C427.682554,76.2275094 424.194809,73.2321887 424.194809,69.5220755 C424.194809,65.8119623 427.597487,62.8166415 431.986941,62.8166415 C436.376395,62.8166415 439.779073,65.8119623 439.779073,69.5220755 C439.779073,73.2321887 436.291329,76.2275094 431.986941,76.2275094 Z" id="Shape" fill="#181E26" fill-rule="nonzero"></path>
                <path d="M431.986941,61.7104151 C426.270443,61.7104151 421.642801,65.6928302 421.642801,70.6283019 C421.642801,75.5637736 426.270443,79.5461887 431.986941,79.5461887 C437.70344,79.5461887 442.348095,75.5467547 442.348095,70.611283 C442.348095,65.6758113 437.70344,61.7104151 431.986941,61.7104151 Z M431.986941,77.316717 C427.682554,77.316717 424.194809,74.3213962 424.194809,70.611283 C424.194809,66.9011698 427.597487,63.9058491 431.986941,63.9058491 C436.376395,63.9058491 439.779073,66.9011698 439.779073,70.611283 C439.779073,74.3213962 436.291329,77.316717 431.986941,77.316717 Z" id="Shape" fill="#394451" fill-rule="nonzero"></path>
                <path d="M614.948919,639.790302 C616.820391,640.913547 617.977302,643.194075 617.977302,646.597849 L741.358393,717.855849 C741.358393,714.452075 740.201483,712.188566 738.33001,711.048302 L614.948919,639.790302 Z" id="Shape" fill="url(#linearGradient-9)" fill-rule="nonzero"></path>
                <path d="M596.591473,810.898 L596.591473,658.936528 C597.012822,651.440461 600.981377,644.594395 607.275881,640.505094 C610.28725,638.803208 612.992379,638.633019 614.931905,639.790302 L738.38105,711.031283 C736.441524,709.856981 733.719382,710.010151 730.725026,711.746075 C724.423229,715.806247 720.430453,722.625222 719.972564,730.109434 L719.972564,882.070906 C719.551215,889.566973 715.58266,896.413039 709.288157,900.50234 C706.361854,902.204226 703.707765,902.374415 701.785252,901.302226 L578.455201,830.129321 C580.377714,831.201509 583.031802,831.031321 585.958105,829.329434 C592.233162,825.228772 596.18167,818.384594 596.591473,810.898 Z" id="Shape" fill="url(#linearGradient-10)" fill-rule="nonzero"></path>
                <path d="M578.455201,830.129321 C576.498661,829.040113 575.273697,826.725547 575.273697,823.321774 L698.654789,894.579774 C698.654789,897.983547 699.862739,900.383208 701.836292,901.387321 L578.455201,830.129321 Z" id="Shape" fill="url(#linearGradient-11)" fill-rule="nonzero"></path>
                <polygon id="Shape" fill="#181E26" fill-rule="nonzero" points="614.013182 723.676302 697.685026 772.009887 697.685026 769.967623 614.013182 721.651057"></polygon>
                <polygon id="Shape" fill="#181E26" fill-rule="nonzero" points="614.013182 740.422868 697.685026 788.756453 697.685026 786.731208 614.013182 738.397623"></polygon>
                <polygon id="Shape" fill="#181E26" fill-rule="nonzero" points="614.013182 757.186453 697.685026 805.520038 697.685026 803.477774 614.013182 755.161208"></polygon>
                <polygon id="Shape" fill="#181E26" fill-rule="nonzero" points="614.013182 773.950038 697.685026 822.266604 697.685026 820.241358 614.013182 771.907774"></polygon>
                <polygon id="Shape" fill="#181E26" fill-rule="nonzero" points="614.013182 790.696604 679.259526 828.376377 679.259526 826.351132 614.013182 788.671358"></polygon>
                <path d="M623.387559,701.075245 C623.308163,702.799824 622.871486,703.90605 622.077528,704.393925 C621.28357,704.881799 620.149344,704.705937 618.674851,703.86634 C617.176971,702.943887 615.991319,701.591809 615.272173,699.986038 C614.400908,698.153139 613.964244,696.143836 613.996169,694.114528 L613.996169,691.119208 C613.792938,689.551815 614.269728,687.972327 615.3062,686.779396 C616.179554,686.041912 617.376162,686.109987 618.896025,686.983623 C620.263648,687.762327 621.388536,688.90525 622.145582,690.285283 C622.933674,691.770215 623.359264,693.420638 623.387559,695.101623 L621.550113,694.046453 C621.529759,692.900697 621.274993,691.771256 620.801524,690.727774 C620.372569,689.902143 619.709765,689.221366 618.896025,688.770604 C617.909248,688.203308 617.149317,688.203308 616.616231,688.770604 C615.968107,689.780209 615.685853,690.981678 615.816601,692.174377 L615.816601,695.203736 C615.781477,696.663142 616.03591,698.115037 616.565191,699.475472 C616.971877,700.557594 617.733653,701.469619 618.725891,702.06234 C619.678641,702.606943 620.359176,702.731748 620.767497,702.436755 C621.175819,702.141761 621.436691,701.324855 621.550113,699.986038 L623.387559,701.075245 Z" id="Shape" fill="#181E26" fill-rule="nonzero"></path>
                <path d="M635.262904,706.385132 C635.470754,707.986417 635.015996,709.603171 634.003913,710.861094 C633.164586,711.587233 631.967978,711.502138 630.414089,710.605811 C628.887077,709.708729 627.656683,708.383263 626.875304,706.793585 C625.982579,704.989855 625.522387,703.002819 625.531246,700.990151 L625.531246,697.875698 C625.331654,696.282823 625.792759,694.677662 626.80725,693.433774 C627.65792,692.673597 628.854528,692.736 630.397075,693.620981 C631.946102,694.524017 633.190207,695.869269 633.969887,697.484264 C634.854871,699.319718 635.303244,701.335135 635.279918,703.372792 L635.262904,706.385132 Z M633.442472,702.436755 C633.49151,700.959747 633.236715,699.488408 632.693883,698.113962 C632.232837,697.018545 631.426211,696.104075 630.397075,695.510075 C629.398956,694.931434 628.639025,694.931434 628.117281,695.510075 C627.476381,696.522347 627.200273,697.723203 627.334665,698.913849 L627.334665,701.875132 C627.292886,703.347656 627.553455,704.813106 628.100268,706.180906 C628.555158,707.293246 629.361929,708.225815 630.397075,708.835849 C631.417878,709.425836 632.172139,709.454201 632.659856,708.920943 C633.27481,707.929804 633.544047,706.762737 633.425458,705.602264 L633.442472,702.436755 Z" id="Shape" fill="#181E26" fill-rule="nonzero"></path>
                <polygon id="Shape" fill="#181E26" fill-rule="nonzero" points="647.546571 720.272528 645.709125 719.217358 639.907559 703.134528 639.907559 715.864642 638.00206 714.792453 638.00206 698.284151 639.839506 699.339321 645.658084 715.490226 645.658084 702.709057 647.461504 703.747208"></polygon>
                <polygon id="Shape" fill="#181E26" fill-rule="nonzero" points="658.877487 712.086453 655.015448 709.874 655.015448 724.61234 653.195015 723.55717 653.195015 708.835849 649.40103 706.640415 649.40103 704.938528 658.826447 710.384566"></polygon>
                <path d="M665.393615,723.897547 L662.841607,722.433925 L662.841607,729.12234 L661.004161,728.06717 L661.004161,711.541849 L665.07036,713.890453 C667.804534,715.35738 669.476973,718.242277 669.391761,721.344717 C669.445296,722.165398 669.236775,722.981871 668.796292,723.676302 C668.404194,724.21272 667.755212,724.498364 667.094954,724.425132 L669.902163,733.070717 L669.902163,733.206868 L667.945623,732.083623 L665.393615,723.897547 Z M662.841607,720.646943 L665.053347,721.923358 C665.813278,722.365849 666.420089,722.439597 666.87378,722.144604 C667.396467,721.678999 667.651858,720.982833 667.554315,720.289547 C667.672727,718.382066 666.687132,716.575664 665.01932,715.643396 L662.824593,714.384 L662.841607,720.646943 Z" id="Shape" fill="#181E26" fill-rule="nonzero"></path>
                <path d="M678.578991,733.870604 L673.730175,731.045472 L672.607291,734.721547 L670.735819,733.649358 L675.431514,719.898113 L676.996746,720.800113 L681.675427,740.014415 L679.803955,738.942226 L678.578991,733.870604 Z M674.15551,729.530792 L678.102616,731.811321 L676.129063,723.165736 L674.15551,729.530792 Z" id="Shape" fill="#181E26" fill-rule="nonzero"></path>
                <path d="M692.444902,741.001509 C692.365506,742.726088 691.928829,743.832314 691.134871,744.320189 C690.340913,744.808063 689.206687,744.632201 687.732194,743.792604 C686.233626,742.870967 685.047765,741.51865 684.329516,739.912302 C683.458251,738.079403 683.021587,736.0701 683.053512,734.040792 L683.053512,731.045472 C682.850281,729.478079 683.327071,727.898591 684.363543,726.70566 C685.236897,725.968176 686.433505,726.036252 687.953368,726.909887 C689.320991,727.688591 690.445879,728.831514 691.202925,730.211547 C691.991017,731.696479 692.416607,733.346902 692.444902,735.027887 L690.607456,733.972717 C690.58379,732.827362 690.329173,731.69858 689.858867,730.654038 C689.429089,729.829003 688.766491,729.148438 687.953368,728.696868 C686.966591,728.129572 686.20666,728.129572 685.673574,728.696868 C685.02545,729.706473 684.743196,730.907942 684.873944,732.100642 L684.873944,735.215094 C684.838819,736.674501 685.093253,738.126395 685.622533,739.48683 C686.02922,740.568952 686.790996,741.480977 687.783234,742.073698 C688.724641,742.618302 689.405177,742.743107 689.82484,742.448113 C690.244504,742.153119 690.505376,741.336214 690.607456,739.997396 L692.444902,741.001509 Z" id="Shape" fill="#181E26" fill-rule="nonzero"></path>
                <polygon id="Shape" fill="#181E26" fill-rule="nonzero" points="703.18035 737.665811 699.369351 735.470377 699.369351 750.208717 697.548919 749.153547 697.548919 734.415208 693.754933 732.219774 693.754933 730.517887 703.18035 735.963925"></polygon>
                <polygon id="Shape" stroke="#FFFFFF" stroke-width="1.701" points="607.275881 640.488075 730.656972 711.746075 671.637528 561.707736"></polygon>
                <path d="M665.682842,619.674 C662.654459,608.69683 653.450216,571.936075 662.450299,560.107962 C664.623227,557.221653 668.02546,555.524177 671.637528,555.524177 C675.249596,555.524177 678.651829,557.221653 680.824758,560.107962 C689.82484,571.936075 680.637611,608.69683 677.592214,619.674 L671.637528,641.270943 L665.682842,619.674 Z" id="Shape" fill="#00E5C4" fill-rule="nonzero"></path>
                <path d="M671.637528,561.622642 C687.187765,561.622642 671.637528,617.938075 671.637528,617.938075 C671.637528,617.938075 656.104305,561.622642 671.637528,561.622642 Z" id="Shape" fill="#00FFE2" fill-rule="nonzero"></path>
                <polygon id="Shape" fill="url(#linearGradient-5)" fill-rule="nonzero" points="694.690669 531.669434 701.785252 545.86317 692.78517 545.318566"></polygon>
                <polygon id="Shape" fill="url(#linearGradient-5)" fill-rule="nonzero" points="648.601401 531.669434 641.506818 545.86317 650.5069 545.318566"></polygon>
                <path d="M671.637528,439.359094 C664.126567,448.445826 657.914009,458.532314 653.178002,469.329321 C648.344455,479.919727 645.727472,491.387198 645.487951,503.026679 C645.487951,536.860189 657.805644,559.648453 657.805644,559.648453 C658.649664,560.991258 659.820398,562.097958 661.208321,562.865019 C667.720649,566.170131 675.418301,566.170131 681.930628,562.865019 C683.318552,562.097958 684.489286,560.991258 685.333306,559.648453 C685.333306,559.648453 697.650999,536.860189 697.650999,503.026679 C697.41316,491.399784 694.80204,479.944217 689.977961,469.363358 C685.281653,458.561297 679.109288,448.463538 671.637528,439.359094 Z" id="Shape" fill="url(#linearGradient-12)" fill-rule="nonzero"></path>
                <path d="M690.131081,469.363358 C691.83242,473.022415 690.131081,477.055887 685.197199,479.915057 C677.762348,484.203811 665.682842,484.186792 658.196952,479.915057 C653.229042,477.038868 651.544717,473.005396 653.092935,469.34634 C657.834731,458.546339 664.065453,448.463983 671.603502,439.393132 C679.1384,448.475732 685.373984,458.562417 690.131081,469.363358 Z" id="Shape" fill="#00E2C1" fill-rule="nonzero"></path>
                <polygon id="Shape" fill="url(#linearGradient-4)" fill-rule="nonzero" points="702.448774 580.241283 686.728404 535.345509 693.312585 531.533283 709.032956 576.429057"></polygon>
                <polygon id="Shape" fill="url(#linearGradient-5)" fill-rule="nonzero" points="702.448774 580.241283 686.728404 535.345509 676.809598 559.08683"></polygon>
                <polygon id="Shape" fill="url(#linearGradient-5)" fill-rule="nonzero" points="640.843296 580.241283 656.563666 535.345509 649.979485 531.533283 634.259114 576.429057"></polygon>
                <polygon id="Shape" fill="url(#linearGradient-4)" fill-rule="nonzero" points="640.843296 580.241283 656.563666 535.345509 666.482472 559.08683"></polygon>
                <ellipse id="Oval" fill="#00E5C4" fill-rule="nonzero" cx="671.637528" cy="509.987396" rx="10.3441401" ry="8.91788679"></ellipse>
                <ellipse id="Oval" fill="#00E5C4" fill-rule="nonzero" cx="671.637528" cy="509.987396" rx="7.79213182" ry="6.70543396"></ellipse>
                <path d="M671.637528,499.980302 C665.92103,499.980302 661.293388,503.962717 661.293388,508.898189 C661.293388,513.83366 665.92103,517.816075 671.637528,517.816075 C677.354027,517.816075 681.981668,513.83366 681.981668,508.898189 C681.981668,503.962717 677.354027,499.980302 671.637528,499.980302 Z M671.637528,515.586604 C667.333141,515.586604 663.845396,512.591283 663.845396,508.88117 C663.845396,505.171057 667.248074,502.175736 671.637528,502.175736 C676.026982,502.175736 679.42966,505.171057 679.42966,508.88117 C679.42966,512.591283 675.941916,515.671698 671.637528,515.671698 L671.637528,515.586604 Z" id="Shape" fill="#181E26" fill-rule="nonzero"></path>
                <path d="M671.637528,501.069509 C665.92103,501.069509 661.293388,505.051925 661.293388,509.987396 C661.293388,514.922868 665.92103,518.905283 671.637528,518.905283 C677.354027,518.905283 681.981668,514.922868 681.981668,509.987396 C681.981668,505.051925 677.354027,501.069509 671.637528,501.069509 Z M671.637528,516.675811 C667.333141,516.675811 663.845396,513.680491 663.845396,509.970377 C663.845396,506.260264 667.248074,503.264943 671.637528,503.264943 C676.026982,503.264943 679.42966,506.260264 679.42966,509.970377 C679.42966,513.680491 675.941916,516.675811 671.637528,516.675811 Z" id="Shape" fill="#394451" fill-rule="nonzero"></path>
                <polyline id="Shape" stroke="#FFFFFF" stroke-width="1.701" points="129.94826 296.60483 191.536725 356.068755 378.666982 460.462491 478.144264 470.758906"></polyline>
                <path d="M212.667353,345.295811 C215.457549,346.997698 217.192915,350.503585 217.192915,355.507132 L401.686097,462.028226 C401.686097,457.058717 399.984758,453.518792 397.160536,451.816906 L212.667353,345.295811 Z" id="Shape" fill="url(#linearGradient-13)" fill-rule="nonzero"></path>
                <path d="M185.207745,601.208528 L185.207745,373.921547 C185.207745,363.710226 192.370381,351.439623 201.183316,346.350981 C205.674851,343.747094 209.69001,343.542868 212.65034,345.295811 L397.160536,451.867962 C394.251246,450.166075 390.20206,450.336264 385.693512,452.923132 C376.863563,458.028792 369.71794,470.367472 369.71794,480.493698 L369.71794,707.780679 C369.71794,717.992 362.555304,730.262604 353.742369,735.351245 C349.369928,737.887057 345.388795,738.14234 342.513532,736.542566 L157.986323,629.970415 C160.878599,631.570189 164.791679,631.314906 169.21516,628.779094 C178.045108,623.690453 185.207745,611.334755 185.207745,601.208528 Z" id="Shape" fill="url(#linearGradient-14)" fill-rule="nonzero"></path>
                <path d="M157.986323,629.970415 C155.060021,628.268528 153.239588,624.762642 153.239588,619.656981 L337.749784,726.229132 C337.749784,731.334792 339.570216,734.908755 342.496519,736.542566 L157.986323,629.970415 Z" id="Shape" fill="url(#linearGradient-15)" fill-rule="nonzero"></path>
                <polygon id="Shape" fill="#181E26" fill-rule="nonzero" points="211.255242 470.758906 336.405726 543.038038 336.405726 540.008679 211.255242 467.729547"></polygon>
                <polygon id="Shape" fill="#181E26" fill-rule="nonzero" points="211.255242 495.827698 336.405726 568.10683 336.405726 565.060453 211.255242 492.781321"></polygon>
                <polygon id="Shape" fill="#181E26" fill-rule="nonzero" points="211.255242 520.879472 336.405726 593.158604 336.405726 590.129245 211.255242 517.850113"></polygon>
                <polygon id="Shape" fill="#181E26" fill-rule="nonzero" points="211.255242 545.948264 336.405726 618.210377 336.405726 615.181019 211.255242 542.901887"></polygon>
                <polygon id="Shape" fill="#181E26" fill-rule="nonzero" points="211.255242 571.000038 308.827024 627.349509 308.827024 624.303132 211.255242 567.970679"></polygon>
                <path d="M225.223234,436.925396 C225.109811,439.500918 224.457631,441.151748 223.266694,441.877887 C222.075757,442.604025 220.374418,442.343069 218.162678,441.095019 C215.913444,439.714202 214.13423,437.685245 213.058661,435.274566 C211.753186,432.539541 211.095327,429.54037 211.136148,426.509849 L211.136148,422.067925 C211.136148,418.857031 211.793999,416.695635 213.109701,415.583736 C214.425403,414.471836 216.21748,414.57395 218.485932,415.890075 C220.530078,417.051514 222.209407,418.760855 223.334748,420.825547 C224.517159,423.044081 225.158428,425.510844 225.20622,428.024528 L222.450051,426.441774 C222.415817,424.731798 222.033757,423.046716 221.327168,421.489283 C220.684258,420.248288 219.690131,419.224244 218.468919,418.545019 C216.994425,417.694075 215.860199,417.694075 215.066241,418.545019 C214.09314,420.05885 213.672454,421.862371 213.875304,423.650679 L213.875304,428.177698 C213.816292,430.362966 214.192202,432.538164 214.981174,434.576792 C215.598088,436.188983 216.735846,437.548742 218.213718,438.440075 C219.6315,439.256981 220.652303,439.444189 221.276128,439.001698 C221.899952,438.559208 222.285589,437.339522 222.433038,435.342642 L225.223234,436.925396 Z" id="Shape" fill="#181E26" fill-rule="nonzero"></path>
                <path d="M243.002225,444.873208 C243.002225,448.276981 242.372729,450.512126 241.113738,451.578642 C239.854748,452.645157 238.062671,452.520352 235.737508,451.204226 C233.454547,449.854448 231.615501,447.866928 230.446344,445.485887 C229.106697,442.789256 228.413511,439.817503 228.421751,436.806264 L228.421751,432.160113 C228.421751,428.858453 229.062588,426.640327 230.344264,425.505736 C231.625939,424.371145 233.412345,424.467585 235.703481,425.795057 C238.012273,427.146071 239.866225,429.154673 241.028671,431.564453 C242.353579,434.312159 243.023308,437.329826 242.985211,440.380226 L243.002225,444.873208 Z M240.280082,438.96766 C240.354126,436.752116 239.971915,434.545008 239.157199,432.483472 C238.476172,430.849196 237.281753,429.481145 235.754521,428.586151 C234.257343,427.723862 233.123117,427.723862 232.351843,428.586151 C231.385985,430.102673 230.971453,431.905568 231.17792,433.691811 L231.17792,438.116717 C231.120246,440.317631 231.513979,442.507027 232.33483,444.549849 C233.003425,446.213675 234.198628,447.612512 235.737508,448.532264 C237.268713,449.417245 238.402939,449.456956 239.140185,448.651396 C240.056511,447.171805 240.457333,445.430363 240.280082,443.698906 L240.280082,438.96766 Z" id="Shape" fill="#181E26" fill-rule="nonzero"></path>
                <polygon id="Shape" fill="#181E26" fill-rule="nonzero" points="261.35967 465.653245 258.620515 464.070491 249.943687 440.02283 249.943687 459.066943 247.204531 457.484189 247.204531 432.772792 249.943687 434.355547 258.603502 458.505321 258.603502 439.393132 261.30863 440.958868"></polygon>
                <polygon id="Shape" fill="#181E26" fill-rule="nonzero" points="278.305005 453.39966 272.60552 450.115019 272.60552 472.239547 269.883378 470.673811 269.883378 448.549283 264.200906 445.264642 264.200906 442.592679 278.305005 450.744717"></polygon>
                <path d="M288.053677,471.065245 L284.242678,468.869811 L284.242678,478.859887 L281.503522,477.277132 L281.503522,452.582755 L287.526262,456.10566 C291.614514,458.306614 294.110254,462.627809 293.974336,467.270038 C294.038485,468.468854 293.729389,469.658067 293.08964,470.673811 C292.512215,471.463064 291.561983,471.889836 290.588671,471.797057 L294.790978,484.731396 L294.790978,485.037736 L291.864676,483.335849 L288.053677,471.065245 Z M284.242678,466.197849 L287.543275,468.103962 C288.677501,468.762025 289.584882,468.869811 290.265417,468.427321 C291.050644,467.733361 291.434266,466.690852 291.28622,465.653245 C291.467104,462.804652 289.998533,460.104787 287.509248,458.709547 L284.242678,456.820453 L284.242678,466.197849 Z" id="Shape" fill="#181E26" fill-rule="nonzero"></path>
                <path d="M307.772194,485.990792 L300.456437,481.770113 L298.755098,487.267208 L295.964902,485.650415 L302.940391,464.972491 L305.271226,466.316981 L312.263728,495.061849 L309.473532,493.445057 L307.772194,485.990792 Z M301.136972,479.523623 L307.040618,482.927396 L304.080288,469.993057 L301.136972,479.523623 Z" id="Shape" fill="#181E26" fill-rule="nonzero"></path>
                <path d="M328.647621,496.661623 C328.522856,499.237145 327.870676,500.887975 326.691081,501.614113 C325.511486,502.340252 323.810148,502.079296 321.587065,500.831245 C319.337831,499.450428 317.558617,497.421471 316.483048,495.010792 C315.177573,492.275768 314.519714,489.276596 314.560536,486.246075 L314.560536,481.770113 C314.560536,478.55922 315.218387,476.397824 316.534089,475.285925 C317.849791,474.174025 319.641867,474.276138 321.910319,475.592264 C323.95391,476.754424 325.633063,478.463586 326.759135,480.527736 C327.941547,482.74627 328.582815,485.213033 328.630608,487.726717 L325.874439,486.143962 C325.840204,484.433987 325.458144,482.748905 324.751555,481.191472 C324.108646,479.950477 323.114518,478.926433 321.893306,478.247208 C320.418812,477.396264 319.284586,477.396264 318.490628,478.247208 C317.517527,479.761039 317.096841,481.564559 317.299691,483.352868 L317.299691,487.879887 C317.240679,490.065155 317.61659,492.240353 318.405561,494.278981 C319.022475,495.891172 320.160233,497.250931 321.638105,498.142264 C323.055887,498.95917 324.076691,499.146377 324.700515,498.703887 C325.324339,498.261396 325.709976,497.041711 325.857425,495.04483 L328.647621,496.661623 Z" id="Shape" fill="#181E26" fill-rule="nonzero"></path>
                <polygon id="Shape" fill="#181E26" fill-rule="nonzero" points="344.572152 491.658075 338.872667 488.441509 338.872667 510.566038 336.150525 509.000302 336.150525 486.739623 330.468054 483.454981 330.468054 480.783019 344.572152 488.935057"></polygon>
                <path d="M468.854954,561.163132 C464.125232,544.042151 449.782945,486.722604 463.750937,468.274151 C467.138853,463.77327 472.443905,461.126173 478.07621,461.126173 C483.708515,461.126173 489.013567,463.77327 492.401483,468.274151 C506.437528,486.705585 492.095242,544.025132 487.297467,561.163132 L478.07621,594.843472 L468.854954,561.163132 Z" id="Shape" fill="#00E5C4" fill-rule="nonzero"></path>
                <path d="M478.07621,470.758906 C502.320288,470.758906 478.07621,558.576264 478.07621,558.576264 C478.07621,558.576264 453.900185,470.758906 478.07621,470.758906 Z" id="Shape" fill="#00FFE2" fill-rule="nonzero"></path>
                <polygon id="Shape" fill="url(#linearGradient-4)" fill-rule="nonzero" points="514.093553 423.94 525.152255 446.064528 511.11621 445.213585"></polygon>
                <polygon id="Shape" fill="url(#linearGradient-4)" fill-rule="nonzero" points="442.211988 423.94 431.153285 446.064528 445.189331 445.213585"></polygon>
                <path d="M478.07621,279.994415 C466.384649,294.178254 456.719418,309.917952 449.357611,326.762264 C442.552255,342.232415 437.363172,360.374528 437.363172,379.316528 C437.363172,432.075019 456.571287,467.610415 456.571287,467.610415 C457.909058,469.752741 459.778907,471.511786 461.998558,472.716075 C470.9476,477.821736 485.40898,477.90683 494.323996,472.716075 C496.543647,471.511786 498.413497,469.752741 499.751267,467.610415 C499.751267,467.610415 518.908342,432.023962 518.908342,379.265472 C518.908342,360.357509 513.668218,342.232415 506.99897,326.779283 C499.575281,309.917208 489.840922,294.171108 478.07621,279.994415 Z" id="Shape" fill="url(#linearGradient-16)" fill-rule="nonzero"></path>
                <path d="M506.99897,326.762264 C509.567992,332.463585 506.99897,338.760566 499.291905,343.219509 C487.705788,349.907925 468.854954,349.873887 457.183769,343.219509 C449.442678,338.743547 446.805602,332.446566 449.306571,326.745245 C456.719484,309.903637 466.455064,294.184205 478.229331,280.045472 C489.934823,294.210467 499.617174,309.932889 506.99897,326.762264 Z" id="Shape" fill="#00E2C1" fill-rule="nonzero"></path>
                <polygon id="Shape" fill="url(#linearGradient-17)" fill-rule="nonzero" points="526.173059 499.673962 501.67378 429.65834 511.949866 423.718755 536.449145 493.734377"></polygon>
                <polygon id="Shape" fill="url(#linearGradient-18)" fill-rule="nonzero" points="526.173059 499.673962 501.67378 429.65834 486.191596 466.691396"></polygon>
                <polygon id="Shape" fill="url(#linearGradient-19)" fill-rule="nonzero" points="430.115469 499.673962 454.631761 429.65834 444.355675 423.718755 419.856395 493.734377"></polygon>
                <polygon id="Shape" fill="url(#linearGradient-4)" fill-rule="nonzero" points="430.115469 499.673962 454.631761 429.65834 470.096931 466.691396"></polygon>
                <ellipse id="Oval" fill="#00E5C4" fill-rule="nonzero" cx="478.144264" cy="390.106491" rx="16.1457055" ry="13.8873962"></ellipse>
                <ellipse id="Oval" fill="#00E5C4" fill-rule="nonzero" cx="478.144264" cy="390.106491" rx="12.1475592" ry="10.4495849"></ellipse>
                <path d="M478.07621,374.517208 C469.161195,374.517208 461.930505,380.746113 461.930505,388.404604 C461.930505,396.063094 469.161195,402.292 478.07621,402.292 C486.991226,402.292 494.221916,396.063094 494.221916,388.404604 C494.221916,380.746113 487.059279,374.517208 478.07621,374.517208 Z M478.07621,398.854189 C471.372935,398.854189 465.928651,394.174 465.928651,388.404604 C465.928651,382.635208 471.355922,377.955019 478.07621,377.955019 C484.796498,377.955019 490.223769,382.635208 490.223769,388.404604 C490.223769,394.174 484.881565,398.854189 478.07621,398.854189 Z" id="Shape" fill="#181E26" fill-rule="nonzero"></path>
                <path d="M478.07621,376.219094 C469.161195,376.219094 461.930505,382.448 461.930505,390.106491 C461.930505,397.764981 469.161195,403.993887 478.07621,403.993887 C486.991226,403.993887 494.221916,397.764981 494.221916,390.106491 C494.221916,382.448 487.059279,376.219094 478.07621,376.219094 Z M478.07621,400.556075 C471.372935,400.556075 465.928651,395.875887 465.928651,390.106491 C465.928651,384.337094 471.355922,379.656906 478.07621,379.656906 C484.796498,379.656906 490.223769,384.337094 490.223769,390.106491 C490.223769,395.875887 484.881565,400.556075 478.07621,400.556075 Z" id="Shape" fill="#394451" fill-rule="nonzero"></path>
                <path d="M120.641936,396.641736 C115.912214,379.520755 101.569928,322.201208 115.53792,303.752755 C118.925836,299.251874 124.230888,296.604777 129.863193,296.604777 C135.495498,296.604777 140.800549,299.251874 144.188465,303.752755 C158.224511,322.184189 143.882225,379.503736 139.084449,396.641736 L129.795139,430.322075 L120.641936,396.641736 Z" id="Shape" fill="#00E5C4" fill-rule="nonzero"></path>
                <path d="M129.94826,306.254528 C154.192338,306.254528 129.94826,394.071887 129.94826,394.071887 C129.94826,394.071887 105.704181,306.254528 129.94826,306.254528 Z" id="Shape" fill="#00FFE2" fill-rule="nonzero"></path>
                <polygon id="Shape" fill="url(#linearGradient-4)" fill-rule="nonzero" points="165.880536 259.418604 176.939238 281.543132 162.903193 280.692189"></polygon>
                <polygon id="Shape" fill="url(#linearGradient-5)" fill-rule="nonzero" points="93.9989701 259.418604 82.9402678 281.543132 96.9763131 280.692189"></polygon>
                <path d="M129.94826,115.473019 C118.22946,129.6412 108.535547,145.369529 101.144593,162.20683 C94.3392379,177.676981 89.1501545,195.819094 89.1501545,214.761094 C89.1501545,267.519585 108.35827,303.054981 108.35827,303.054981 C109.69604,305.197307 111.565889,306.956352 113.785541,308.160642 C122.734583,313.266302 137.195963,313.351396 146.110978,308.160642 C148.33063,306.956352 150.200479,305.197307 151.538249,303.054981 C151.538249,303.054981 170.746365,267.536604 170.746365,214.761094 C170.746365,195.853132 165.506241,177.728038 158.836993,162.274906 C151.425238,145.408839 141.702344,129.657031 129.94826,115.473019 Z" id="Shape" fill="url(#linearGradient-20)" fill-rule="nonzero"></path>
                <path d="M158.768939,162.274906 C161.337961,167.976226 158.768939,174.273208 151.061874,178.732151 C139.509784,185.420566 120.607909,185.386528 108.885685,178.698113 C101.144593,174.222151 98.507518,167.92517 101.008486,162.223849 C108.4214,145.382241 118.156979,129.662809 129.931246,115.524075 C141.663354,129.695441 151.36883,145.429677 158.768939,162.274906 Z" id="Shape" fill="#00E2C1" fill-rule="nonzero"></path>
                <polygon id="Shape" fill="url(#linearGradient-4)" fill-rule="nonzero" points="177.977055 335.152566 153.460762 265.136943 163.736849 259.214377 188.253141 329.212981"></polygon>
                <polygon id="Shape" fill="url(#linearGradient-5)" fill-rule="nonzero" points="177.977055 335.152566 153.460762 265.136943 137.995592 302.187019"></polygon>
                <polygon id="Shape" fill="url(#linearGradient-5)" fill-rule="nonzero" points="81.9194645 335.152566 106.418744 265.136943 96.1426571 259.214377 71.643378 329.212981"></polygon>
                <polygon id="Shape" fill="url(#linearGradient-4)" fill-rule="nonzero" points="81.9194645 335.152566 106.418744 265.136943 121.900927 302.187019"></polygon>
                <ellipse id="Oval" fill="#00E5C4" fill-rule="nonzero" cx="129.94826" cy="225.602113" rx="16.1457055" ry="13.8873962"></ellipse>
                <ellipse id="Oval" fill="#00E5C4" fill-rule="nonzero" cx="129.94826" cy="225.602113" rx="12.1475592" ry="10.4495849"></ellipse>
                <path d="M129.94826,209.995811 C121.033244,209.995811 113.802554,216.224717 113.802554,223.883208 C113.802554,231.541698 121.033244,237.770604 129.94826,237.770604 C138.863275,237.770604 146.093965,231.541698 146.093965,223.883208 C146.093965,216.224717 138.863275,209.995811 129.94826,209.995811 Z M129.94826,234.332792 C123.244985,234.332792 117.8007,229.652604 117.8007,223.883208 C117.8007,218.113811 123.227971,213.433623 129.94826,213.433623 C136.668548,213.433623 142.095819,218.113811 142.095819,223.883208 C142.095819,229.652604 136.651535,234.349811 129.94826,234.349811 L129.94826,234.332792 Z" id="Shape" fill="#181E26" fill-rule="nonzero"></path>
                <path d="M129.94826,211.697698 C121.033244,211.697698 113.802554,217.926604 113.802554,225.585094 C113.802554,233.243585 121.033244,239.472491 129.94826,239.472491 C138.863275,239.472491 146.093965,233.243585 146.093965,225.585094 C146.093965,217.926604 138.863275,211.697698 129.94826,211.697698 Z M129.94826,236.034679 C123.244985,236.034679 117.8007,231.354491 117.8007,225.585094 C117.8007,219.815698 123.227971,215.135509 129.94826,215.135509 C136.668548,215.135509 142.095819,219.815698 142.095819,225.585094 C142.095819,231.354491 136.651535,236.051698 129.94826,236.051698 L129.94826,236.034679 Z" id="Shape" fill="#394451" fill-rule="nonzero"></path>
                <path d="M629.495366,392.199811 C627.538826,385.136981 621.63518,361.565849 627.419732,353.89034 C628.817976,352.032829 631.007404,350.94038 633.331885,350.94038 C635.656366,350.94038 637.845793,352.032829 639.244037,353.89034 C645.028589,361.497774 639.124943,385.136981 637.168404,392.199811 L633.340391,406.087208 L629.495366,392.199811 Z" id="Shape" fill="#00E5C4" fill-rule="nonzero"></path>
                <path d="M633.408445,354.911472 C643.412317,354.911472 633.408445,391.127623 633.408445,391.127623 C633.408445,391.127623 623.404573,354.911472 633.408445,354.911472 Z" id="Shape" fill="#00FFE2" fill-rule="nonzero"></path>
                <polygon id="Shape" fill="url(#linearGradient-21)" fill-rule="nonzero" points="648.227106 335.595057 652.786694 344.734189 647.002142 344.376792"></polygon>
                <polygon id="Shape" fill="url(#linearGradient-21)" fill-rule="nonzero" points="618.589784 335.595057 614.030196 344.734189 619.814748 344.376792"></polygon>
                <path d="M633.408445,276.233245 C628.565361,282.071942 624.557209,288.555785 621.499073,295.498604 C618.38961,302.307158 616.7048,309.67985 616.548177,317.163623 C616.397254,329.742463 619.108379,342.190883 624.476416,353.566981 C625.033961,354.440831 625.807485,355.155985 626.722183,355.643283 C630.909149,357.766033 635.856701,357.766033 640.043666,355.643283 C640.958365,355.155985 641.731888,354.440831 642.289434,353.566981 C647.657471,342.190883 650.368596,329.742463 650.217673,317.163623 C650.065043,309.68668 648.386044,302.319871 645.28379,295.515623 C642.237393,288.568912 638.240721,282.079387 633.408445,276.233245 Z" id="Shape" fill="url(#linearGradient-22)" fill-rule="nonzero"></path>
                <path d="M645.300803,295.532642 C646.355633,297.881245 645.300803,300.485132 642.1193,302.340189 C636.660475,305.111549 630.207455,305.111549 624.74863,302.340189 C621.550113,300.502151 620.47827,297.898264 621.499073,295.532642 C624.549921,288.585989 628.558676,282.101171 633.408445,276.267283 C638.245365,282.107142 642.247745,288.590909 645.300803,295.532642 Z" id="Shape" fill="#00E2C1" fill-rule="nonzero"></path>
                <polygon id="Shape" fill="url(#linearGradient-23)" fill-rule="nonzero" points="653.212029 366.841698 643.106076 337.960679 647.34241 335.509962 657.465376 364.390981"></polygon>
                <polygon id="Shape" fill="url(#linearGradient-24)" fill-rule="nonzero" points="653.212029 366.841698 643.106076 337.960679 636.726056 353.243623"></polygon>
                <polygon id="Shape" fill="url(#linearGradient-25)" fill-rule="nonzero" points="613.604861 366.841698 623.710814 337.960679 619.47448 335.509962 609.368527 364.390981"></polygon>
                <polygon id="Shape" fill="url(#linearGradient-26)" fill-rule="nonzero" points="613.604861 366.841698 623.710814 337.960679 630.090834 353.243623"></polygon>
                <ellipse id="Oval" fill="#00E5C4" fill-rule="nonzero" cx="633.408445" cy="321.656604" rx="6.65223481" ry="5.73535849"></ellipse>
                <ellipse id="Oval" fill="#00E5C4" fill-rule="nonzero" cx="633.408445" cy="321.656604" rx="5.00193615" ry="4.30577358"></ellipse>
                <path d="M633.408445,315.223472 C630.363231,315.68564 628.214117,318.453706 628.520233,321.519507 C628.826349,324.585307 631.480322,326.873483 634.556759,326.724019 C637.633196,326.574555 640.053007,324.039876 640.06068,320.95883 C639.789007,317.54659 636.822338,314.988817 633.408445,315.223472 Z M633.408445,325.264604 C631.112414,324.919857 629.490363,322.834084 629.721086,320.523081 C629.95181,318.212077 631.954186,316.488389 634.273026,316.604674 C636.591866,316.720959 638.411868,318.636331 638.410381,320.95883 C638.202216,323.521649 635.972843,325.440741 633.408445,325.264604 Z" id="Shape" fill="#181E26" fill-rule="nonzero"></path>
                <path d="M633.408445,315.921245 C630.363231,316.383413 628.214117,319.15148 628.520233,322.21728 C628.826349,325.283081 631.480322,327.571257 634.556759,327.421793 C637.633196,327.272328 640.053007,324.737649 640.06068,321.656604 C639.789007,318.244363 636.822338,315.68659 633.408445,315.921245 Z M633.408445,325.962377 C631.112414,325.617631 629.490363,323.531858 629.721086,321.220854 C629.95181,318.909851 631.954186,317.186163 634.273026,317.302447 C636.591866,317.418732 638.411868,319.334104 638.410381,321.656604 C638.202216,324.219422 635.972843,326.138514 633.408445,325.962377 Z" id="Shape" fill="#394451" fill-rule="nonzero"></path>
                <path d="M26.9321936,738.244453 C24.3291452,728.833019 16.4519464,697.39917 24.1760247,687.187849 C26.0371738,684.715896 28.9510956,683.26213 32.0447168,683.26213 C35.138338,683.26213 38.0522597,684.715896 39.9134089,687.187849 C47.6204737,697.39917 39.743275,728.816 37.15724,738.244453 L32.0532235,756.743962 L26.9321936,738.244453 Z" id="Shape" fill="#00E5C4" fill-rule="nonzero"></path>
                <path d="M32.0362101,688.566377 C45.3576931,688.566377 32.0362101,736.814868 32.0362101,736.814868 C32.0362101,736.814868 18.7147271,688.566377 32.0362101,688.566377 Z" id="Shape" fill="#00FFE2" fill-rule="nonzero"></path>
                <polygon id="Shape" fill="url(#linearGradient-5)" fill-rule="nonzero" points="51.7887539 662.850868 57.8625335 675.00234 50.1384552 674.525811"></polygon>
                <polygon id="Shape" fill="url(#linearGradient-5)" fill-rule="nonzero" points="12.2836663 662.850868 6.20988671 675.00234 13.9169516 674.525811"></polygon>
                <path d="M32.0362101,583.74717 C25.5983822,591.533235 20.2733142,600.17637 16.213759,609.428642 C12.0611685,618.520482 9.81458607,628.366926 9.61256437,638.360717 C9.61256437,667.292792 20.1608651,686.864491 20.1608651,686.864491 C20.9010403,688.023286 21.9262077,688.972604 23.138208,689.621547 C28.7197323,692.456469 35.3186611,692.456469 40.9001854,689.621547 C42.1121857,688.972604 43.1373531,688.023286 43.8775283,686.864491 C43.8775283,686.864491 54.425829,667.343849 54.425829,638.360717 C54.2152851,628.402653 51.9748198,618.592393 47.8416478,609.530755 C43.7957176,600.243701 38.4761093,591.565766 32.0362101,583.74717 Z" id="Shape" fill="url(#linearGradient-27)" fill-rule="nonzero"></path>
                <path d="M47.8756746,609.462679 C49.2877858,612.594151 47.8756746,616.066 43.6393409,618.499698 C36.3697072,622.198202 27.7707665,622.198202 20.5011329,618.499698 C16.2477858,616.048981 14.8016478,612.577132 16.1797322,609.44566 C20.2385769,600.180281 25.5760226,591.529918 32.0362101,583.74717 C38.4827038,591.542701 43.8136271,600.197502 47.8756746,609.462679 Z" id="Shape" fill="#00E2C1" fill-rule="nonzero"></path>
                <polygon id="Shape" fill="url(#linearGradient-4)" fill-rule="nonzero" points="58.4239753 704.462 44.9663852 665.98234 50.5978167 662.731736 64.0724202 701.194377"></polygon>
                <polygon id="Shape" fill="url(#linearGradient-28)" fill-rule="nonzero" points="58.4239753 704.462 44.9663852 665.98234 36.459691 686.336906"></polygon>
                <polygon id="Shape" fill="url(#linearGradient-5)" fill-rule="nonzero" points="5.6484449 704.462 19.106035 665.98234 13.4746035 662.731736 0 701.194377"></polygon>
                <polygon id="Shape" fill="url(#linearGradient-29)" fill-rule="nonzero" points="5.6484449 704.462 19.106035 665.98234 27.6127291 686.336906"></polygon>
                <ellipse id="Oval" fill="#00E5C4" fill-rule="nonzero" cx="32.0362101" cy="644.266264" rx="8.86397528" ry="7.6414717"></ellipse>
                <ellipse id="Oval" fill="#00E5C4" fill-rule="nonzero" cx="32.0362101" cy="644.266264" rx="6.6692482" ry="5.73535849"></ellipse>
                <path d="M32.0362101,635.688755 C27.1363543,635.688755 23.1722348,639.092528 23.1722348,643.330226 C23.1722348,647.567925 27.1363543,650.971698 32.0362101,650.971698 C36.9360659,650.971698 40.8321318,647.533887 40.8321318,643.313208 C40.8321318,639.092528 36.9360659,635.688755 32.0362101,635.688755 Z M32.0362101,649.065585 C29.7873687,649.390398 27.5559677,648.3721 26.3271623,646.460264 C25.098357,644.548429 25.098357,642.095005 26.3271623,640.18317 C27.5559677,638.271334 29.7873687,637.253036 32.0362101,637.577849 C34.2850515,637.253036 36.5164525,638.271334 37.7452578,640.18317 C38.9740632,642.095005 38.9740632,644.548429 37.7452578,646.460264 C36.5164525,648.3721 34.2850515,649.390398 32.0362101,649.065585 Z" id="Shape" fill="#181E26" fill-rule="nonzero"></path>
                <path d="M32.0362101,636.624792 C27.1363543,636.624792 23.1722348,640.028566 23.1722348,644.266264 C23.1722348,648.503962 27.2214212,651.822642 32.0362101,651.822642 C36.850999,651.822642 40.8321318,648.418868 40.8321318,644.266264 C40.8321318,640.11366 36.9360659,636.624792 32.0362101,636.624792 Z M32.0362101,650.001623 C29.7873687,650.326436 27.5559677,649.308137 26.3271623,647.396302 C25.098357,645.484467 25.098357,643.031043 26.3271623,641.119207 C27.5559677,639.207372 29.7873687,638.189073 32.0362101,638.513887 C34.2850515,638.189073 36.5164525,639.207372 37.7452578,641.119207 C38.9740632,643.031043 38.9740632,645.484467 37.7452578,647.396302 C36.5164525,649.308137 34.2850515,650.326436 32.0362101,650.001623 Z" id="Shape" fill="#394451" fill-rule="nonzero"></path>
            </g>
        </g>
    </g>
</svg>