<?xml version="1.0" encoding="UTF-8"?>
<svg width="433px" height="419px" viewBox="0 0 433 419" version="1.1" xmlns="http://www.w3.org/2000/svg" xmlns:xlink="http://www.w3.org/1999/xlink">
    <!-- Generator: Sketch 50.2 (55047) - http://www.bohemiancoding.com/sketch -->
    <title>Asset 2</title>
    <desc>Created with Sketch.</desc>
    <defs>
        <linearGradient x1="0%" y1="50.0047202%" x2="100%" y2="50.0047202%" id="linearGradient-1">
            <stop stop-color="#83858A" offset="0%"></stop>
            <stop stop-color="#000000" offset="100%"></stop>
        </linearGradient>
        <linearGradient x1="0%" y1="50.0032099%" x2="100%" y2="50.0032099%" id="linearGradient-2">
            <stop stop-color="#83858A" offset="0%"></stop>
            <stop stop-color="#000000" offset="100%"></stop>
        </linearGradient>
        <linearGradient x1="0%" y1="49.9904343%" x2="100%" y2="49.9904343%" id="linearGradient-3">
            <stop stop-color="#83858A" offset="0%"></stop>
            <stop stop-color="#000000" offset="100%"></stop>
        </linearGradient>
        <linearGradient x1="0%" y1="50%" x2="100%" y2="50%" id="linearGradient-4">
            <stop stop-color="#83858A" offset="0%"></stop>
            <stop stop-color="#000000" offset="100%"></stop>
        </linearGradient>
    </defs>
    <g id="Page-1" stroke="none" stroke-width="1" fill="none" fill-rule="evenodd">
        <g id="market-dApp" transform="translate(-174.000000, -2160.000000)" fill-rule="nonzero">
            <g id="Asset-2" transform="translate(174.000000, 2160.000000)">
                <path d="M292.871654,5.92593792 C307.651614,-2.49805158 328.074213,-1.20205319 350.644764,11.8261411 C395.768819,37.8825297 432.335157,100.99424 432.335157,152.783018 C432.335157,178.549512 423.283071,196.659384 408.639488,205.134532 L392.563937,214.956835 C377.766929,223.48314 357.242047,222.289458 334.603307,209.193053 C289.445157,183.068454 252.861772,119.973796 252.861772,68.2532287 C252.861772,42.3503136 261.999094,24.1892836 276.727913,15.7652941 L292.871654,5.92593792 Z" id="Shape" fill="url(#linearGradient-1)"></path>
                <path d="M278.313307,207.99937 C272.193346,204.46948 272.159252,198.756855 278.313307,195.244018 C285.251051,191.72274 293.451744,191.72274 300.389488,195.244018 L411.196575,259.191306 C417.316535,262.721197 417.35063,268.433821 411.196575,271.946659 C404.258831,275.467936 396.058138,275.467936 389.120394,271.946659 L278.313307,207.99937 Z" id="Shape" fill="#000000" opacity="0.1"></path>
                <path d="M327.204803,113.459699 L322.192913,133.32599 C328.27878,138.578194 347.08189,156.364066 349.860591,145.160501 C352.877953,133.462411 333.307717,118.728955 327.204803,113.459699 Z" id="Shape" fill="#FFFFFF"></path>
                <path d="M333.938465,86.3460482 L329.455039,104.370657 C334.569213,108.753178 350.167441,123.708317 352.70748,113.510856 C355.36685,102.921185 339.018543,90.7285691 333.938465,86.3460482 Z" id="Shape" fill="#FFFFFF"></path>
                <path d="M354.156496,36.688847 C310.259843,-1.21910581 265.817677,3.77730902 254.890394,47.8583067 C243.96311,91.9393044 270.659094,158.376274 314.555748,196.216017 C358.452402,234.055759 402.911614,229.144607 413.855945,185.080662 C424.800276,141.016717 398.070197,74.6138523 354.156496,36.688847 Z M370.470709,123.947054 C369.294449,132.473359 364.862165,134.297988 358.997913,132.473359 C367.06126,141.95461 371.169646,151.708704 367.265827,162.264269 C362.407362,175.377727 350.883425,170.057312 335.557953,157.881749 L331.824606,172.836888 L322.840709,165.07795 L326.505866,150.31039 C324.170394,148.298182 321.800827,146.217763 319.346024,144.035029 L315.663819,158.8708 L306.679921,151.111862 L310.39622,136.105565 C308.299409,134.280936 306.168504,132.388096 303.986457,130.512309 L292.292047,120.400111 L296.758425,111.157596 C296.758425,111.157596 303.389803,117.006642 303.28752,116.80201 C305.827559,119.001797 306.969724,117.739904 307.412953,116.80201 L313.294252,93.1500397 L314.248898,93.968565 C313.890906,93.5934076 313.567008,93.3035132 313.311299,93.0818293 L317.504921,76.1997451 C317.557536,72.8771391 315.993779,69.7359222 313.311299,67.7757556 C313.447677,67.7757556 306.782205,62.1483942 306.782205,62.1483942 L309.168819,52.5136693 L321.562165,63.2227086 C323.420315,64.825654 325.346654,66.445652 327.307087,68.0827026 L330.989291,53.2639842 L339.973189,61.0229219 L336.359173,75.6370089 C338.762835,77.6662696 341.200591,79.6955302 343.570157,81.7418434 L347.150079,67.2982825 L356.133976,75.0572202 L352.451772,89.8759386 C363.805236,100.85782 372.107244,112.385384 370.487756,123.964107 L370.470709,123.947054 Z" id="Shape" fill="#FFFFFF"></path>
                <polygon id="Shape" fill="#181E26" points="285.456102 189.667814 262.050236 230.065448 262.050236 219.714514 207.925236 251.210685 207.925236 218.162726 262.050236 186.666555 262.050236 176.298568"></polygon>
                <polygon id="Shape" fill="#181E26" points="178.382362 212.006734 201.805276 171.592047 201.805276 181.942982 255.930276 150.44681 255.930276 183.511822 201.805276 215.007993 201.805276 225.358928"></polygon>
                <path d="M40.4019685,150.668494 C55.1648819,142.142189 75.5533858,143.506398 98.0898425,156.534592 C143.19685,182.556876 179.677953,245.566271 179.677953,297.320943 C179.677953,323.053332 170.642913,341.129099 155.999331,349.604246 L139.940827,359.42655 C125.160866,367.952855 104.670079,366.74212 81.9801969,353.662768 C36.9754724,327.623432 0.443228346,264.596984 0.443228346,212.876417 C0.443228346,187.007607 9.58055118,168.880682 24.3093701,160.456693 L40.4019685,150.668494 Z" id="Shape" fill="url(#linearGradient-2)"></path>
                <path d="M25.843622,352.43498 C19.7407087,348.905089 19.7066142,343.209518 25.843622,339.69668 C32.7707901,336.18142 40.9585406,336.18142 47.8857087,339.69668 L158.471181,403.558706 C164.574094,407.088596 164.608189,412.784168 158.471181,416.297005 C151.544013,419.812265 143.356263,419.812265 136.429094,416.297005 L25.843622,352.43498 Z" id="Shape" fill="#000000" opacity="0.1"></path>
                <path d="M74.6839764,258.099939 L69.7573228,277.932125 C75.843189,283.184329 94.6122047,300.936097 97.3909055,289.749584 C100.288937,278.000336 80.7698425,263.215723 74.6839764,258.099939 Z" id="Shape" fill="#FFFFFF"></path>
                <path d="M81.4005906,230.952184 L76.9342126,248.942688 C82.0483858,253.325209 97.6295669,268.263295 100.152559,258.082887 C102.794882,247.459111 86.4806693,235.334705 81.4005906,230.952184 Z" id="Shape" fill="#FFFFFF"></path>
                <path d="M101.601575,181.363193 C57.7731102,143.506398 13.3820866,148.48576 2.45480315,192.498548 C-8.47248031,236.511335 18.2064567,302.880094 62.017874,340.736889 C105.829291,378.593684 150.254409,373.631374 161.181693,329.618587 C172.108976,285.6058 145.447087,219.219988 101.601575,181.363193 Z" id="Shape" fill="#FFFFFF"></path>
                <polygon id="Shape" fill="url(#linearGradient-3)" points="43.0272441 241.234908 43.0272441 241.234908 53.6135827 254.518891 77.5479134 284.582643 77.5479134 284.582643 112.051535 281.086858 77.5479134 195.448649 77.5479134 195.448649 77.5479134 195.448649 77.5479134 195.448649 77.5479134 195.448649 43.0272441 241.234908"></polygon>
                <polygon id="Shape" fill="url(#linearGradient-4)" points="112.068583 288.624112 77.5479134 292.085792 77.5479134 292.085792 43.0272441 248.738056 77.5479134 324.485751 77.5479134 324.485751"></polygon>
            </g>
        </g>
    </g>
</svg>