<?xml version="1.0" encoding="UTF-8"?>
<svg width="759px" height="760px" viewBox="0 0 759 760" version="1.1" xmlns="http://www.w3.org/2000/svg" xmlns:xlink="http://www.w3.org/1999/xlink">
    <!-- Generator: Sketch 49 (51002) - http://www.bohemiancoding.com/sketch -->
    <title>Group 5</title>
    <desc>Created with Sketch.</desc>
    <defs>
        <filter x="-4.1%" y="-6.5%" width="108.3%" height="125.9%" filterUnits="objectBoundingBox" id="filter-1">
            <feOffset dx="0" dy="43" in="SourceAlpha" result="shadowOffsetOuter1"></feOffset>
            <feColorMatrix values="0 0 0 0 0   0 0 0 0 0.478431373   0 0 0 0 1  0 0 0 0.540732563 0" type="matrix" in="shadowOffsetOuter1" result="shadowMatrixOuter1"></feColorMatrix>
            <feMerge>
                <feMergeNode in="shadowMatrixOuter1"></feMergeNode>
                <feMergeNode in="SourceGraphic"></feMergeNode>
            </feMerge>
        </filter>
    </defs>
    <g id="Page-1" stroke="none" stroke-width="1" fill="none" fill-rule="evenodd">
        <g id="Market-v2" transform="translate(0.000000, -1747.000000)">
            <g id="simulated-exchange" transform="translate(0.000000, 1747.000000)">
                <g id="Group-5">
                    <polygon id="big-base" fill="#DEDEDE" opacity="0.200000003" points="0 1.13686838e-13 759 380.447751 0 760"></polygon>
                    <polygon id="base" fill="#3A3A3A" points="184 380 471.5 236 759 380 471.5 524"></polygon>
                    <g id="sim_Isometric" filter="url(#filter-1)" transform="translate(212.000000, 133.000000)">
                        <polygon id="sim_Left_Isometric" fill="#616161" points="260 332 0 202 0 152 260 282"></polygon>
                        <polygon id="sim_Right_Isometric" fill="#9C9C9C" points="260 332 520 202 520 152 260 282"></polygon>
                        <polygon id="sim_Top_Isometric" fill="#DEDEDE" points="0 152 260 22 520 152 260 282"></polygon>
                        <g id="illustration" transform="translate(23.000000, 0.000000)">
                            <g id="contracts">
                                <g id="Rectangle-7_Isometric" transform="translate(167.000000, 0.000000)">
                                    <polygon id="Rectangle-7_Left_Isometric" fill="#5C5C5C" points="63 99 0 67.5 0 31.5 63 63"></polygon>
                                    <polygon id="Rectangle-7_Right_Isometric" fill="#929292" points="63 99 126 67.5 126 31.5 63 63"></polygon>
                                    <polygon id="Rectangle-7_Top_Isometric" fill="#358EE9" points="0 31.5 63 0 126 31.5 63 63"></polygon>
                                    <g id="contracts" transform="translate(37.800000, 16.200000)" opacity="0.300000012">
                                        <g id="ic_blur_on_24px">
                                            <path d="M11.4631579,16.0342105 C10.3689474,16.0342105 9.47368421,16.5671053 9.47368421,17.2184211 C9.47368421,17.8697368 10.3689474,18.4026316 11.4631579,18.4026316 C12.5573684,18.4026316 13.4526316,17.8697368 13.4526316,17.2184211 C13.4526316,16.5671053 12.5573684,16.0342105 11.4631579,16.0342105 Z M11.4631579,20.7710526 C10.3689474,20.7710526 9.47368421,21.3039474 9.47368421,21.9552632 C9.47368421,22.6065789 10.3689474,23.1394737 11.4631579,23.1394737 C12.5573684,23.1394737 13.4526316,22.6065789 13.4526316,21.9552632 C13.4526316,21.3039474 12.5573684,20.7710526 11.4631579,20.7710526 Z M11.4631579,11.2973684 C10.3689474,11.2973684 9.47368421,11.8302632 9.47368421,12.4815789 C9.47368421,13.1328947 10.3689474,13.6657895 11.4631579,13.6657895 C12.5573684,13.6657895 13.4526316,13.1328947 13.4526316,12.4815789 C13.4526316,11.8302632 12.5573684,11.2973684 11.4631579,11.2973684 Z M5.49473684,11.8894737 C4.93768421,11.8894737 4.5,12.15 4.5,12.4815789 C4.5,12.8131579 4.93768421,13.0736842 5.49473684,13.0736842 C6.05178947,13.0736842 6.48947368,12.8131579 6.48947368,12.4815789 C6.48947368,12.15 6.05178947,11.8894737 5.49473684,11.8894737 Z M11.4631579,6.56052632 C10.3689474,6.56052632 9.47368421,7.09342105 9.47368421,7.74473684 C9.47368421,8.39605263 10.3689474,8.92894737 11.4631579,8.92894737 C12.5573684,8.92894737 13.4526316,8.39605263 13.4526316,7.74473684 C13.4526316,7.09342105 12.5573684,6.56052632 11.4631579,6.56052632 Z M41.3052632,13.0736842 C41.8623158,13.0736842 42.3,12.8131579 42.3,12.4815789 C42.3,12.15 41.8623158,11.8894737 41.3052632,11.8894737 C40.7482105,11.8894737 40.3105263,12.15 40.3105263,12.4815789 C40.3105263,12.8131579 40.7482105,13.0736842 41.3052632,13.0736842 Z M27.3789474,8.92894737 C28.4731579,8.92894737 29.3684211,8.39605263 29.3684211,7.74473684 C29.3684211,7.09342105 28.4731579,6.56052632 27.3789474,6.56052632 C26.2847368,6.56052632 25.3894737,7.09342105 25.3894737,7.74473684 C25.3894737,8.39605263 26.2847368,8.92894737 27.3789474,8.92894737 Z M27.3789474,4.78421053 C27.936,4.78421053 28.3736842,4.52368421 28.3736842,4.19210526 C28.3736842,3.86052632 27.936,3.6 27.3789474,3.6 C26.8218947,3.6 26.3842105,3.86052632 26.3842105,4.19210526 C26.3842105,4.52368421 26.8218947,4.78421053 27.3789474,4.78421053 Z M5.49473684,16.6263158 C4.93768421,16.6263158 4.5,16.8868421 4.5,17.2184211 C4.5,17.55 4.93768421,17.8105263 5.49473684,17.8105263 C6.05178947,17.8105263 6.48947368,17.55 6.48947368,17.2184211 C6.48947368,16.8868421 6.05178947,16.6263158 5.49473684,16.6263158 Z M19.4210526,24.9157895 C18.864,24.9157895 18.4263158,25.1763158 18.4263158,25.5078947 C18.4263158,25.8394737 18.864,26.1 19.4210526,26.1 C19.9781053,26.1 20.4157895,25.8394737 20.4157895,25.5078947 C20.4157895,25.1763158 19.9781053,24.9157895 19.4210526,24.9157895 Z M19.4210526,4.78421053 C19.9781053,4.78421053 20.4157895,4.52368421 20.4157895,4.19210526 C20.4157895,3.86052632 19.9781053,3.6 19.4210526,3.6 C18.864,3.6 18.4263158,3.86052632 18.4263158,4.19210526 C18.4263158,4.52368421 18.864,4.78421053 19.4210526,4.78421053 Z M19.4210526,8.92894737 C20.5152632,8.92894737 21.4105263,8.39605263 21.4105263,7.74473684 C21.4105263,7.09342105 20.5152632,6.56052632 19.4210526,6.56052632 C18.3268421,6.56052632 17.4315789,7.09342105 17.4315789,7.74473684 C17.4315789,8.39605263 18.3268421,8.92894737 19.4210526,8.92894737 Z M19.4210526,15.4421053 C17.7697895,15.4421053 16.4368421,16.2355263 16.4368421,17.2184211 C16.4368421,18.2013158 17.7697895,18.9947368 19.4210526,18.9947368 C21.0723158,18.9947368 22.4052632,18.2013158 22.4052632,17.2184211 C22.4052632,16.2355263 21.0723158,15.4421053 19.4210526,15.4421053 Z M35.3368421,16.0342105 C34.2426316,16.0342105 33.3473684,16.5671053 33.3473684,17.2184211 C33.3473684,17.8697368 34.2426316,18.4026316 35.3368421,18.4026316 C36.4310526,18.4026316 37.3263158,17.8697368 37.3263158,17.2184211 C37.3263158,16.5671053 36.4310526,16.0342105 35.3368421,16.0342105 Z M35.3368421,20.7710526 C34.2426316,20.7710526 33.3473684,21.3039474 33.3473684,21.9552632 C33.3473684,22.6065789 34.2426316,23.1394737 35.3368421,23.1394737 C36.4310526,23.1394737 37.3263158,22.6065789 37.3263158,21.9552632 C37.3263158,21.3039474 36.4310526,20.7710526 35.3368421,20.7710526 Z M35.3368421,11.2973684 C34.2426316,11.2973684 33.3473684,11.8302632 33.3473684,12.4815789 C33.3473684,13.1328947 34.2426316,13.6657895 35.3368421,13.6657895 C36.4310526,13.6657895 37.3263158,13.1328947 37.3263158,12.4815789 C37.3263158,11.8302632 36.4310526,11.2973684 35.3368421,11.2973684 Z M35.3368421,6.56052632 C34.2426316,6.56052632 33.3473684,7.09342105 33.3473684,7.74473684 C33.3473684,8.39605263 34.2426316,8.92894737 35.3368421,8.92894737 C36.4310526,8.92894737 37.3263158,8.39605263 37.3263158,7.74473684 C37.3263158,7.09342105 36.4310526,6.56052632 35.3368421,6.56052632 Z M41.3052632,16.6263158 C40.7482105,16.6263158 40.3105263,16.8868421 40.3105263,17.2184211 C40.3105263,17.55 40.7482105,17.8105263 41.3052632,17.8105263 C41.8623158,17.8105263 42.3,17.55 42.3,17.2184211 C42.3,16.8868421 41.8623158,16.6263158 41.3052632,16.6263158 Z M27.3789474,20.7710526 C26.2847368,20.7710526 25.3894737,21.3039474 25.3894737,21.9552632 C25.3894737,22.6065789 26.2847368,23.1394737 27.3789474,23.1394737 C28.4731579,23.1394737 29.3684211,22.6065789 29.3684211,21.9552632 C29.3684211,21.3039474 28.4731579,20.7710526 27.3789474,20.7710526 Z M27.3789474,24.9157895 C26.8218947,24.9157895 26.3842105,25.1763158 26.3842105,25.5078947 C26.3842105,25.8394737 26.8218947,26.1 27.3789474,26.1 C27.936,26.1 28.3736842,25.8394737 28.3736842,25.5078947 C28.3736842,25.1763158 27.936,24.9157895 27.3789474,24.9157895 Z M19.4210526,10.7052632 C17.7697895,10.7052632 16.4368421,11.4986842 16.4368421,12.4815789 C16.4368421,13.4644737 17.7697895,14.2578947 19.4210526,14.2578947 C21.0723158,14.2578947 22.4052632,13.4644737 22.4052632,12.4815789 C22.4052632,11.4986842 21.0723158,10.7052632 19.4210526,10.7052632 Z M19.4210526,20.7710526 C18.3268421,20.7710526 17.4315789,21.3039474 17.4315789,21.9552632 C17.4315789,22.6065789 18.3268421,23.1394737 19.4210526,23.1394737 C20.5152632,23.1394737 21.4105263,22.6065789 21.4105263,21.9552632 C21.4105263,21.3039474 20.5152632,20.7710526 19.4210526,20.7710526 Z M27.3789474,15.4421053 C25.7276842,15.4421053 24.3947368,16.2355263 24.3947368,17.2184211 C24.3947368,18.2013158 25.7276842,18.9947368 27.3789474,18.9947368 C29.0302105,18.9947368 30.3631579,18.2013158 30.3631579,17.2184211 C30.3631579,16.2355263 29.0302105,15.4421053 27.3789474,15.4421053 Z M27.3789474,10.7052632 C25.7276842,10.7052632 24.3947368,11.4986842 24.3947368,12.4815789 C24.3947368,13.4644737 25.7276842,14.2578947 27.3789474,14.2578947 C29.0302105,14.2578947 30.3631579,13.4644737 30.3631579,12.4815789 C30.3631579,11.4986842 29.0302105,10.7052632 27.3789474,10.7052632 Z" id="Shape" fill="#FFFFFF" fill-rule="nonzero"></path>
                                            <polygon id="Shape" points="0 0 46.8 0 46.8 27.9 0 27.9"></polygon>
                                        </g>
                                    </g>
                                </g>
                                <g id="Rectangle-7_Isometric" transform="translate(84.000000, 41.000000)">
                                    <polygon id="Rectangle-7_Left_Isometric" fill="#5C5C5C" points="63 99 0 67.5 0 31.5 63 63"></polygon>
                                    <polygon id="Rectangle-7_Right_Isometric" fill="#929292" points="63 99 126 67.5 126 31.5 63 63"></polygon>
                                    <polygon id="Rectangle-7_Top_Isometric" fill="#358EE9" points="0 31.5 63 0 126 31.5 63 63"></polygon>
                                    <g id="contracts" transform="translate(37.800000, 16.200000)" opacity="0.300000012">
                                        <g id="ic_blur_on_24px">
                                            <path d="M11.4631579,16.0342105 C10.3689474,16.0342105 9.47368421,16.5671053 9.47368421,17.2184211 C9.47368421,17.8697368 10.3689474,18.4026316 11.4631579,18.4026316 C12.5573684,18.4026316 13.4526316,17.8697368 13.4526316,17.2184211 C13.4526316,16.5671053 12.5573684,16.0342105 11.4631579,16.0342105 Z M11.4631579,20.7710526 C10.3689474,20.7710526 9.47368421,21.3039474 9.47368421,21.9552632 C9.47368421,22.6065789 10.3689474,23.1394737 11.4631579,23.1394737 C12.5573684,23.1394737 13.4526316,22.6065789 13.4526316,21.9552632 C13.4526316,21.3039474 12.5573684,20.7710526 11.4631579,20.7710526 Z M11.4631579,11.2973684 C10.3689474,11.2973684 9.47368421,11.8302632 9.47368421,12.4815789 C9.47368421,13.1328947 10.3689474,13.6657895 11.4631579,13.6657895 C12.5573684,13.6657895 13.4526316,13.1328947 13.4526316,12.4815789 C13.4526316,11.8302632 12.5573684,11.2973684 11.4631579,11.2973684 Z M5.49473684,11.8894737 C4.93768421,11.8894737 4.5,12.15 4.5,12.4815789 C4.5,12.8131579 4.93768421,13.0736842 5.49473684,13.0736842 C6.05178947,13.0736842 6.48947368,12.8131579 6.48947368,12.4815789 C6.48947368,12.15 6.05178947,11.8894737 5.49473684,11.8894737 Z M11.4631579,6.56052632 C10.3689474,6.56052632 9.47368421,7.09342105 9.47368421,7.74473684 C9.47368421,8.39605263 10.3689474,8.92894737 11.4631579,8.92894737 C12.5573684,8.92894737 13.4526316,8.39605263 13.4526316,7.74473684 C13.4526316,7.09342105 12.5573684,6.56052632 11.4631579,6.56052632 Z M41.3052632,13.0736842 C41.8623158,13.0736842 42.3,12.8131579 42.3,12.4815789 C42.3,12.15 41.8623158,11.8894737 41.3052632,11.8894737 C40.7482105,11.8894737 40.3105263,12.15 40.3105263,12.4815789 C40.3105263,12.8131579 40.7482105,13.0736842 41.3052632,13.0736842 Z M27.3789474,8.92894737 C28.4731579,8.92894737 29.3684211,8.39605263 29.3684211,7.74473684 C29.3684211,7.09342105 28.4731579,6.56052632 27.3789474,6.56052632 C26.2847368,6.56052632 25.3894737,7.09342105 25.3894737,7.74473684 C25.3894737,8.39605263 26.2847368,8.92894737 27.3789474,8.92894737 Z M27.3789474,4.78421053 C27.936,4.78421053 28.3736842,4.52368421 28.3736842,4.19210526 C28.3736842,3.86052632 27.936,3.6 27.3789474,3.6 C26.8218947,3.6 26.3842105,3.86052632 26.3842105,4.19210526 C26.3842105,4.52368421 26.8218947,4.78421053 27.3789474,4.78421053 Z M5.49473684,16.6263158 C4.93768421,16.6263158 4.5,16.8868421 4.5,17.2184211 C4.5,17.55 4.93768421,17.8105263 5.49473684,17.8105263 C6.05178947,17.8105263 6.48947368,17.55 6.48947368,17.2184211 C6.48947368,16.8868421 6.05178947,16.6263158 5.49473684,16.6263158 Z M19.4210526,24.9157895 C18.864,24.9157895 18.4263158,25.1763158 18.4263158,25.5078947 C18.4263158,25.8394737 18.864,26.1 19.4210526,26.1 C19.9781053,26.1 20.4157895,25.8394737 20.4157895,25.5078947 C20.4157895,25.1763158 19.9781053,24.9157895 19.4210526,24.9157895 Z M19.4210526,4.78421053 C19.9781053,4.78421053 20.4157895,4.52368421 20.4157895,4.19210526 C20.4157895,3.86052632 19.9781053,3.6 19.4210526,3.6 C18.864,3.6 18.4263158,3.86052632 18.4263158,4.19210526 C18.4263158,4.52368421 18.864,4.78421053 19.4210526,4.78421053 Z M19.4210526,8.92894737 C20.5152632,8.92894737 21.4105263,8.39605263 21.4105263,7.74473684 C21.4105263,7.09342105 20.5152632,6.56052632 19.4210526,6.56052632 C18.3268421,6.56052632 17.4315789,7.09342105 17.4315789,7.74473684 C17.4315789,8.39605263 18.3268421,8.92894737 19.4210526,8.92894737 Z M19.4210526,15.4421053 C17.7697895,15.4421053 16.4368421,16.2355263 16.4368421,17.2184211 C16.4368421,18.2013158 17.7697895,18.9947368 19.4210526,18.9947368 C21.0723158,18.9947368 22.4052632,18.2013158 22.4052632,17.2184211 C22.4052632,16.2355263 21.0723158,15.4421053 19.4210526,15.4421053 Z M35.3368421,16.0342105 C34.2426316,16.0342105 33.3473684,16.5671053 33.3473684,17.2184211 C33.3473684,17.8697368 34.2426316,18.4026316 35.3368421,18.4026316 C36.4310526,18.4026316 37.3263158,17.8697368 37.3263158,17.2184211 C37.3263158,16.5671053 36.4310526,16.0342105 35.3368421,16.0342105 Z M35.3368421,20.7710526 C34.2426316,20.7710526 33.3473684,21.3039474 33.3473684,21.9552632 C33.3473684,22.6065789 34.2426316,23.1394737 35.3368421,23.1394737 C36.4310526,23.1394737 37.3263158,22.6065789 37.3263158,21.9552632 C37.3263158,21.3039474 36.4310526,20.7710526 35.3368421,20.7710526 Z M35.3368421,11.2973684 C34.2426316,11.2973684 33.3473684,11.8302632 33.3473684,12.4815789 C33.3473684,13.1328947 34.2426316,13.6657895 35.3368421,13.6657895 C36.4310526,13.6657895 37.3263158,13.1328947 37.3263158,12.4815789 C37.3263158,11.8302632 36.4310526,11.2973684 35.3368421,11.2973684 Z M35.3368421,6.56052632 C34.2426316,6.56052632 33.3473684,7.09342105 33.3473684,7.74473684 C33.3473684,8.39605263 34.2426316,8.92894737 35.3368421,8.92894737 C36.4310526,8.92894737 37.3263158,8.39605263 37.3263158,7.74473684 C37.3263158,7.09342105 36.4310526,6.56052632 35.3368421,6.56052632 Z M41.3052632,16.6263158 C40.7482105,16.6263158 40.3105263,16.8868421 40.3105263,17.2184211 C40.3105263,17.55 40.7482105,17.8105263 41.3052632,17.8105263 C41.8623158,17.8105263 42.3,17.55 42.3,17.2184211 C42.3,16.8868421 41.8623158,16.6263158 41.3052632,16.6263158 Z M27.3789474,20.7710526 C26.2847368,20.7710526 25.3894737,21.3039474 25.3894737,21.9552632 C25.3894737,22.6065789 26.2847368,23.1394737 27.3789474,23.1394737 C28.4731579,23.1394737 29.3684211,22.6065789 29.3684211,21.9552632 C29.3684211,21.3039474 28.4731579,20.7710526 27.3789474,20.7710526 Z M27.3789474,24.9157895 C26.8218947,24.9157895 26.3842105,25.1763158 26.3842105,25.5078947 C26.3842105,25.8394737 26.8218947,26.1 27.3789474,26.1 C27.936,26.1 28.3736842,25.8394737 28.3736842,25.5078947 C28.3736842,25.1763158 27.936,24.9157895 27.3789474,24.9157895 Z M19.4210526,10.7052632 C17.7697895,10.7052632 16.4368421,11.4986842 16.4368421,12.4815789 C16.4368421,13.4644737 17.7697895,14.2578947 19.4210526,14.2578947 C21.0723158,14.2578947 22.4052632,13.4644737 22.4052632,12.4815789 C22.4052632,11.4986842 21.0723158,10.7052632 19.4210526,10.7052632 Z M19.4210526,20.7710526 C18.3268421,20.7710526 17.4315789,21.3039474 17.4315789,21.9552632 C17.4315789,22.6065789 18.3268421,23.1394737 19.4210526,23.1394737 C20.5152632,23.1394737 21.4105263,22.6065789 21.4105263,21.9552632 C21.4105263,21.3039474 20.5152632,20.7710526 19.4210526,20.7710526 Z M27.3789474,15.4421053 C25.7276842,15.4421053 24.3947368,16.2355263 24.3947368,17.2184211 C24.3947368,18.2013158 25.7276842,18.9947368 27.3789474,18.9947368 C29.0302105,18.9947368 30.3631579,18.2013158 30.3631579,17.2184211 C30.3631579,16.2355263 29.0302105,15.4421053 27.3789474,15.4421053 Z M27.3789474,10.7052632 C25.7276842,10.7052632 24.3947368,11.4986842 24.3947368,12.4815789 C24.3947368,13.4644737 25.7276842,14.2578947 27.3789474,14.2578947 C29.0302105,14.2578947 30.3631579,13.4644737 30.3631579,12.4815789 C30.3631579,11.4986842 29.0302105,10.7052632 27.3789474,10.7052632 Z" id="Shape" fill="#FFFFFF" fill-rule="nonzero"></path>
                                            <polygon id="Shape" points="0 0 46.8 0 46.8 27.9 0 27.9"></polygon>
                                        </g>
                                    </g>
                                </g>
                                <g id="Rectangle-7_Isometric" transform="translate(0.000000, 83.000000)">
                                    <polygon id="Rectangle-7_Left_Isometric" fill="#5C5C5C" points="63 99 0 67.5 0 31.5 63 63"></polygon>
                                    <polygon id="Rectangle-7_Right_Isometric" fill="#929292" points="63 99 126 67.5 126 31.5 63 63"></polygon>
                                    <polygon id="Rectangle-7_Top_Isometric" fill="#358EE9" points="0 31.5 63 0 126 31.5 63 63"></polygon>
                                    <g id="contracts" transform="translate(37.800000, 16.200000)" opacity="0.300000012">
                                        <g id="ic_blur_on_24px">
                                            <path d="M11.4631579,16.0342105 C10.3689474,16.0342105 9.47368421,16.5671053 9.47368421,17.2184211 C9.47368421,17.8697368 10.3689474,18.4026316 11.4631579,18.4026316 C12.5573684,18.4026316 13.4526316,17.8697368 13.4526316,17.2184211 C13.4526316,16.5671053 12.5573684,16.0342105 11.4631579,16.0342105 Z M11.4631579,20.7710526 C10.3689474,20.7710526 9.47368421,21.3039474 9.47368421,21.9552632 C9.47368421,22.6065789 10.3689474,23.1394737 11.4631579,23.1394737 C12.5573684,23.1394737 13.4526316,22.6065789 13.4526316,21.9552632 C13.4526316,21.3039474 12.5573684,20.7710526 11.4631579,20.7710526 Z M11.4631579,11.2973684 C10.3689474,11.2973684 9.47368421,11.8302632 9.47368421,12.4815789 C9.47368421,13.1328947 10.3689474,13.6657895 11.4631579,13.6657895 C12.5573684,13.6657895 13.4526316,13.1328947 13.4526316,12.4815789 C13.4526316,11.8302632 12.5573684,11.2973684 11.4631579,11.2973684 Z M5.49473684,11.8894737 C4.93768421,11.8894737 4.5,12.15 4.5,12.4815789 C4.5,12.8131579 4.93768421,13.0736842 5.49473684,13.0736842 C6.05178947,13.0736842 6.48947368,12.8131579 6.48947368,12.4815789 C6.48947368,12.15 6.05178947,11.8894737 5.49473684,11.8894737 Z M11.4631579,6.56052632 C10.3689474,6.56052632 9.47368421,7.09342105 9.47368421,7.74473684 C9.47368421,8.39605263 10.3689474,8.92894737 11.4631579,8.92894737 C12.5573684,8.92894737 13.4526316,8.39605263 13.4526316,7.74473684 C13.4526316,7.09342105 12.5573684,6.56052632 11.4631579,6.56052632 Z M41.3052632,13.0736842 C41.8623158,13.0736842 42.3,12.8131579 42.3,12.4815789 C42.3,12.15 41.8623158,11.8894737 41.3052632,11.8894737 C40.7482105,11.8894737 40.3105263,12.15 40.3105263,12.4815789 C40.3105263,12.8131579 40.7482105,13.0736842 41.3052632,13.0736842 Z M27.3789474,8.92894737 C28.4731579,8.92894737 29.3684211,8.39605263 29.3684211,7.74473684 C29.3684211,7.09342105 28.4731579,6.56052632 27.3789474,6.56052632 C26.2847368,6.56052632 25.3894737,7.09342105 25.3894737,7.74473684 C25.3894737,8.39605263 26.2847368,8.92894737 27.3789474,8.92894737 Z M27.3789474,4.78421053 C27.936,4.78421053 28.3736842,4.52368421 28.3736842,4.19210526 C28.3736842,3.86052632 27.936,3.6 27.3789474,3.6 C26.8218947,3.6 26.3842105,3.86052632 26.3842105,4.19210526 C26.3842105,4.52368421 26.8218947,4.78421053 27.3789474,4.78421053 Z M5.49473684,16.6263158 C4.93768421,16.6263158 4.5,16.8868421 4.5,17.2184211 C4.5,17.55 4.93768421,17.8105263 5.49473684,17.8105263 C6.05178947,17.8105263 6.48947368,17.55 6.48947368,17.2184211 C6.48947368,16.8868421 6.05178947,16.6263158 5.49473684,16.6263158 Z M19.4210526,24.9157895 C18.864,24.9157895 18.4263158,25.1763158 18.4263158,25.5078947 C18.4263158,25.8394737 18.864,26.1 19.4210526,26.1 C19.9781053,26.1 20.4157895,25.8394737 20.4157895,25.5078947 C20.4157895,25.1763158 19.9781053,24.9157895 19.4210526,24.9157895 Z M19.4210526,4.78421053 C19.9781053,4.78421053 20.4157895,4.52368421 20.4157895,4.19210526 C20.4157895,3.86052632 19.9781053,3.6 19.4210526,3.6 C18.864,3.6 18.4263158,3.86052632 18.4263158,4.19210526 C18.4263158,4.52368421 18.864,4.78421053 19.4210526,4.78421053 Z M19.4210526,8.92894737 C20.5152632,8.92894737 21.4105263,8.39605263 21.4105263,7.74473684 C21.4105263,7.09342105 20.5152632,6.56052632 19.4210526,6.56052632 C18.3268421,6.56052632 17.4315789,7.09342105 17.4315789,7.74473684 C17.4315789,8.39605263 18.3268421,8.92894737 19.4210526,8.92894737 Z M19.4210526,15.4421053 C17.7697895,15.4421053 16.4368421,16.2355263 16.4368421,17.2184211 C16.4368421,18.2013158 17.7697895,18.9947368 19.4210526,18.9947368 C21.0723158,18.9947368 22.4052632,18.2013158 22.4052632,17.2184211 C22.4052632,16.2355263 21.0723158,15.4421053 19.4210526,15.4421053 Z M35.3368421,16.0342105 C34.2426316,16.0342105 33.3473684,16.5671053 33.3473684,17.2184211 C33.3473684,17.8697368 34.2426316,18.4026316 35.3368421,18.4026316 C36.4310526,18.4026316 37.3263158,17.8697368 37.3263158,17.2184211 C37.3263158,16.5671053 36.4310526,16.0342105 35.3368421,16.0342105 Z M35.3368421,20.7710526 C34.2426316,20.7710526 33.3473684,21.3039474 33.3473684,21.9552632 C33.3473684,22.6065789 34.2426316,23.1394737 35.3368421,23.1394737 C36.4310526,23.1394737 37.3263158,22.6065789 37.3263158,21.9552632 C37.3263158,21.3039474 36.4310526,20.7710526 35.3368421,20.7710526 Z M35.3368421,11.2973684 C34.2426316,11.2973684 33.3473684,11.8302632 33.3473684,12.4815789 C33.3473684,13.1328947 34.2426316,13.6657895 35.3368421,13.6657895 C36.4310526,13.6657895 37.3263158,13.1328947 37.3263158,12.4815789 C37.3263158,11.8302632 36.4310526,11.2973684 35.3368421,11.2973684 Z M35.3368421,6.56052632 C34.2426316,6.56052632 33.3473684,7.09342105 33.3473684,7.74473684 C33.3473684,8.39605263 34.2426316,8.92894737 35.3368421,8.92894737 C36.4310526,8.92894737 37.3263158,8.39605263 37.3263158,7.74473684 C37.3263158,7.09342105 36.4310526,6.56052632 35.3368421,6.56052632 Z M41.3052632,16.6263158 C40.7482105,16.6263158 40.3105263,16.8868421 40.3105263,17.2184211 C40.3105263,17.55 40.7482105,17.8105263 41.3052632,17.8105263 C41.8623158,17.8105263 42.3,17.55 42.3,17.2184211 C42.3,16.8868421 41.8623158,16.6263158 41.3052632,16.6263158 Z M27.3789474,20.7710526 C26.2847368,20.7710526 25.3894737,21.3039474 25.3894737,21.9552632 C25.3894737,22.6065789 26.2847368,23.1394737 27.3789474,23.1394737 C28.4731579,23.1394737 29.3684211,22.6065789 29.3684211,21.9552632 C29.3684211,21.3039474 28.4731579,20.7710526 27.3789474,20.7710526 Z M27.3789474,24.9157895 C26.8218947,24.9157895 26.3842105,25.1763158 26.3842105,25.5078947 C26.3842105,25.8394737 26.8218947,26.1 27.3789474,26.1 C27.936,26.1 28.3736842,25.8394737 28.3736842,25.5078947 C28.3736842,25.1763158 27.936,24.9157895 27.3789474,24.9157895 Z M19.4210526,10.7052632 C17.7697895,10.7052632 16.4368421,11.4986842 16.4368421,12.4815789 C16.4368421,13.4644737 17.7697895,14.2578947 19.4210526,14.2578947 C21.0723158,14.2578947 22.4052632,13.4644737 22.4052632,12.4815789 C22.4052632,11.4986842 21.0723158,10.7052632 19.4210526,10.7052632 Z M19.4210526,20.7710526 C18.3268421,20.7710526 17.4315789,21.3039474 17.4315789,21.9552632 C17.4315789,22.6065789 18.3268421,23.1394737 19.4210526,23.1394737 C20.5152632,23.1394737 21.4105263,22.6065789 21.4105263,21.9552632 C21.4105263,21.3039474 20.5152632,20.7710526 19.4210526,20.7710526 Z M27.3789474,15.4421053 C25.7276842,15.4421053 24.3947368,16.2355263 24.3947368,17.2184211 C24.3947368,18.2013158 25.7276842,18.9947368 27.3789474,18.9947368 C29.0302105,18.9947368 30.3631579,18.2013158 30.3631579,17.2184211 C30.3631579,16.2355263 29.0302105,15.4421053 27.3789474,15.4421053 Z M27.3789474,10.7052632 C25.7276842,10.7052632 24.3947368,11.4986842 24.3947368,12.4815789 C24.3947368,13.4644737 25.7276842,14.2578947 27.3789474,14.2578947 C29.0302105,14.2578947 30.3631579,13.4644737 30.3631579,12.4815789 C30.3631579,11.4986842 29.0302105,10.7052632 27.3789474,10.7052632 Z" id="Shape" fill="#FFFFFF" fill-rule="nonzero"></path>
                                            <polygon id="Shape" points="0 0 46.8 0 46.8 27.9 0 27.9"></polygon>
                                        </g>
                                    </g>
                                </g>
                                <g id="Rectangle-7_Isometric" transform="translate(254.000000, 41.000000)">
                                    <polygon id="Rectangle-7_Left_Isometric" fill="#5C5C5C" points="63 99 0 67.5 0 31.5 63 63"></polygon>
                                    <polygon id="Rectangle-7_Right_Isometric" fill="#929292" points="63 99 126 67.5 126 31.5 63 63"></polygon>
                                    <polygon id="Rectangle-7_Top_Isometric" fill="#358EE9" points="0 31.5 63 0 126 31.5 63 63"></polygon>
                                    <g id="contracts" transform="translate(37.800000, 16.200000)" opacity="0.300000012">
                                        <g id="ic_blur_on_24px">
                                            <path d="M11.4631579,16.0342105 C10.3689474,16.0342105 9.47368421,16.5671053 9.47368421,17.2184211 C9.47368421,17.8697368 10.3689474,18.4026316 11.4631579,18.4026316 C12.5573684,18.4026316 13.4526316,17.8697368 13.4526316,17.2184211 C13.4526316,16.5671053 12.5573684,16.0342105 11.4631579,16.0342105 Z M11.4631579,20.7710526 C10.3689474,20.7710526 9.47368421,21.3039474 9.47368421,21.9552632 C9.47368421,22.6065789 10.3689474,23.1394737 11.4631579,23.1394737 C12.5573684,23.1394737 13.4526316,22.6065789 13.4526316,21.9552632 C13.4526316,21.3039474 12.5573684,20.7710526 11.4631579,20.7710526 Z M11.4631579,11.2973684 C10.3689474,11.2973684 9.47368421,11.8302632 9.47368421,12.4815789 C9.47368421,13.1328947 10.3689474,13.6657895 11.4631579,13.6657895 C12.5573684,13.6657895 13.4526316,13.1328947 13.4526316,12.4815789 C13.4526316,11.8302632 12.5573684,11.2973684 11.4631579,11.2973684 Z M5.49473684,11.8894737 C4.93768421,11.8894737 4.5,12.15 4.5,12.4815789 C4.5,12.8131579 4.93768421,13.0736842 5.49473684,13.0736842 C6.05178947,13.0736842 6.48947368,12.8131579 6.48947368,12.4815789 C6.48947368,12.15 6.05178947,11.8894737 5.49473684,11.8894737 Z M11.4631579,6.56052632 C10.3689474,6.56052632 9.47368421,7.09342105 9.47368421,7.74473684 C9.47368421,8.39605263 10.3689474,8.92894737 11.4631579,8.92894737 C12.5573684,8.92894737 13.4526316,8.39605263 13.4526316,7.74473684 C13.4526316,7.09342105 12.5573684,6.56052632 11.4631579,6.56052632 Z M41.3052632,13.0736842 C41.8623158,13.0736842 42.3,12.8131579 42.3,12.4815789 C42.3,12.15 41.8623158,11.8894737 41.3052632,11.8894737 C40.7482105,11.8894737 40.3105263,12.15 40.3105263,12.4815789 C40.3105263,12.8131579 40.7482105,13.0736842 41.3052632,13.0736842 Z M27.3789474,8.92894737 C28.4731579,8.92894737 29.3684211,8.39605263 29.3684211,7.74473684 C29.3684211,7.09342105 28.4731579,6.56052632 27.3789474,6.56052632 C26.2847368,6.56052632 25.3894737,7.09342105 25.3894737,7.74473684 C25.3894737,8.39605263 26.2847368,8.92894737 27.3789474,8.92894737 Z M27.3789474,4.78421053 C27.936,4.78421053 28.3736842,4.52368421 28.3736842,4.19210526 C28.3736842,3.86052632 27.936,3.6 27.3789474,3.6 C26.8218947,3.6 26.3842105,3.86052632 26.3842105,4.19210526 C26.3842105,4.52368421 26.8218947,4.78421053 27.3789474,4.78421053 Z M5.49473684,16.6263158 C4.93768421,16.6263158 4.5,16.8868421 4.5,17.2184211 C4.5,17.55 4.93768421,17.8105263 5.49473684,17.8105263 C6.05178947,17.8105263 6.48947368,17.55 6.48947368,17.2184211 C6.48947368,16.8868421 6.05178947,16.6263158 5.49473684,16.6263158 Z M19.4210526,24.9157895 C18.864,24.9157895 18.4263158,25.1763158 18.4263158,25.5078947 C18.4263158,25.8394737 18.864,26.1 19.4210526,26.1 C19.9781053,26.1 20.4157895,25.8394737 20.4157895,25.5078947 C20.4157895,25.1763158 19.9781053,24.9157895 19.4210526,24.9157895 Z M19.4210526,4.78421053 C19.9781053,4.78421053 20.4157895,4.52368421 20.4157895,4.19210526 C20.4157895,3.86052632 19.9781053,3.6 19.4210526,3.6 C18.864,3.6 18.4263158,3.86052632 18.4263158,4.19210526 C18.4263158,4.52368421 18.864,4.78421053 19.4210526,4.78421053 Z M19.4210526,8.92894737 C20.5152632,8.92894737 21.4105263,8.39605263 21.4105263,7.74473684 C21.4105263,7.09342105 20.5152632,6.56052632 19.4210526,6.56052632 C18.3268421,6.56052632 17.4315789,7.09342105 17.4315789,7.74473684 C17.4315789,8.39605263 18.3268421,8.92894737 19.4210526,8.92894737 Z M19.4210526,15.4421053 C17.7697895,15.4421053 16.4368421,16.2355263 16.4368421,17.2184211 C16.4368421,18.2013158 17.7697895,18.9947368 19.4210526,18.9947368 C21.0723158,18.9947368 22.4052632,18.2013158 22.4052632,17.2184211 C22.4052632,16.2355263 21.0723158,15.4421053 19.4210526,15.4421053 Z M35.3368421,16.0342105 C34.2426316,16.0342105 33.3473684,16.5671053 33.3473684,17.2184211 C33.3473684,17.8697368 34.2426316,18.4026316 35.3368421,18.4026316 C36.4310526,18.4026316 37.3263158,17.8697368 37.3263158,17.2184211 C37.3263158,16.5671053 36.4310526,16.0342105 35.3368421,16.0342105 Z M35.3368421,20.7710526 C34.2426316,20.7710526 33.3473684,21.3039474 33.3473684,21.9552632 C33.3473684,22.6065789 34.2426316,23.1394737 35.3368421,23.1394737 C36.4310526,23.1394737 37.3263158,22.6065789 37.3263158,21.9552632 C37.3263158,21.3039474 36.4310526,20.7710526 35.3368421,20.7710526 Z M35.3368421,11.2973684 C34.2426316,11.2973684 33.3473684,11.8302632 33.3473684,12.4815789 C33.3473684,13.1328947 34.2426316,13.6657895 35.3368421,13.6657895 C36.4310526,13.6657895 37.3263158,13.1328947 37.3263158,12.4815789 C37.3263158,11.8302632 36.4310526,11.2973684 35.3368421,11.2973684 Z M35.3368421,6.56052632 C34.2426316,6.56052632 33.3473684,7.09342105 33.3473684,7.74473684 C33.3473684,8.39605263 34.2426316,8.92894737 35.3368421,8.92894737 C36.4310526,8.92894737 37.3263158,8.39605263 37.3263158,7.74473684 C37.3263158,7.09342105 36.4310526,6.56052632 35.3368421,6.56052632 Z M41.3052632,16.6263158 C40.7482105,16.6263158 40.3105263,16.8868421 40.3105263,17.2184211 C40.3105263,17.55 40.7482105,17.8105263 41.3052632,17.8105263 C41.8623158,17.8105263 42.3,17.55 42.3,17.2184211 C42.3,16.8868421 41.8623158,16.6263158 41.3052632,16.6263158 Z M27.3789474,20.7710526 C26.2847368,20.7710526 25.3894737,21.3039474 25.3894737,21.9552632 C25.3894737,22.6065789 26.2847368,23.1394737 27.3789474,23.1394737 C28.4731579,23.1394737 29.3684211,22.6065789 29.3684211,21.9552632 C29.3684211,21.3039474 28.4731579,20.7710526 27.3789474,20.7710526 Z M27.3789474,24.9157895 C26.8218947,24.9157895 26.3842105,25.1763158 26.3842105,25.5078947 C26.3842105,25.8394737 26.8218947,26.1 27.3789474,26.1 C27.936,26.1 28.3736842,25.8394737 28.3736842,25.5078947 C28.3736842,25.1763158 27.936,24.9157895 27.3789474,24.9157895 Z M19.4210526,10.7052632 C17.7697895,10.7052632 16.4368421,11.4986842 16.4368421,12.4815789 C16.4368421,13.4644737 17.7697895,14.2578947 19.4210526,14.2578947 C21.0723158,14.2578947 22.4052632,13.4644737 22.4052632,12.4815789 C22.4052632,11.4986842 21.0723158,10.7052632 19.4210526,10.7052632 Z M19.4210526,20.7710526 C18.3268421,20.7710526 17.4315789,21.3039474 17.4315789,21.9552632 C17.4315789,22.6065789 18.3268421,23.1394737 19.4210526,23.1394737 C20.5152632,23.1394737 21.4105263,22.6065789 21.4105263,21.9552632 C21.4105263,21.3039474 20.5152632,20.7710526 19.4210526,20.7710526 Z M27.3789474,15.4421053 C25.7276842,15.4421053 24.3947368,16.2355263 24.3947368,17.2184211 C24.3947368,18.2013158 25.7276842,18.9947368 27.3789474,18.9947368 C29.0302105,18.9947368 30.3631579,18.2013158 30.3631579,17.2184211 C30.3631579,16.2355263 29.0302105,15.4421053 27.3789474,15.4421053 Z M27.3789474,10.7052632 C25.7276842,10.7052632 24.3947368,11.4986842 24.3947368,12.4815789 C24.3947368,13.4644737 25.7276842,14.2578947 27.3789474,14.2578947 C29.0302105,14.2578947 30.3631579,13.4644737 30.3631579,12.4815789 C30.3631579,11.4986842 29.0302105,10.7052632 27.3789474,10.7052632 Z" id="Shape" fill="#FFFFFF" fill-rule="nonzero"></path>
                                            <polygon id="Shape" points="0 0 46.8 0 46.8 27.9 0 27.9"></polygon>
                                        </g>
                                    </g>
                                </g>
                                <g id="Rectangle-7_Isometric" transform="translate(171.000000, 82.000000)">
                                    <polygon id="Rectangle-7_Left_Isometric" fill="#5C5C5C" points="63 99 0 67.5 0 31.5 63 63"></polygon>
                                    <polygon id="Rectangle-7_Right_Isometric" fill="#929292" points="63 99 126 67.5 126 31.5 63 63"></polygon>
                                    <polygon id="Rectangle-7_Top_Isometric" fill="#358EE9" points="0 31.5 63 0 126 31.5 63 63"></polygon>
                                    <g id="contracts" transform="translate(37.800000, 16.200000)" opacity="0.300000012">
                                        <g id="ic_blur_on_24px">
                                            <path d="M11.4631579,16.0342105 C10.3689474,16.0342105 9.47368421,16.5671053 9.47368421,17.2184211 C9.47368421,17.8697368 10.3689474,18.4026316 11.4631579,18.4026316 C12.5573684,18.4026316 13.4526316,17.8697368 13.4526316,17.2184211 C13.4526316,16.5671053 12.5573684,16.0342105 11.4631579,16.0342105 Z M11.4631579,20.7710526 C10.3689474,20.7710526 9.47368421,21.3039474 9.47368421,21.9552632 C9.47368421,22.6065789 10.3689474,23.1394737 11.4631579,23.1394737 C12.5573684,23.1394737 13.4526316,22.6065789 13.4526316,21.9552632 C13.4526316,21.3039474 12.5573684,20.7710526 11.4631579,20.7710526 Z M11.4631579,11.2973684 C10.3689474,11.2973684 9.47368421,11.8302632 9.47368421,12.4815789 C9.47368421,13.1328947 10.3689474,13.6657895 11.4631579,13.6657895 C12.5573684,13.6657895 13.4526316,13.1328947 13.4526316,12.4815789 C13.4526316,11.8302632 12.5573684,11.2973684 11.4631579,11.2973684 Z M5.49473684,11.8894737 C4.93768421,11.8894737 4.5,12.15 4.5,12.4815789 C4.5,12.8131579 4.93768421,13.0736842 5.49473684,13.0736842 C6.05178947,13.0736842 6.48947368,12.8131579 6.48947368,12.4815789 C6.48947368,12.15 6.05178947,11.8894737 5.49473684,11.8894737 Z M11.4631579,6.56052632 C10.3689474,6.56052632 9.47368421,7.09342105 9.47368421,7.74473684 C9.47368421,8.39605263 10.3689474,8.92894737 11.4631579,8.92894737 C12.5573684,8.92894737 13.4526316,8.39605263 13.4526316,7.74473684 C13.4526316,7.09342105 12.5573684,6.56052632 11.4631579,6.56052632 Z M41.3052632,13.0736842 C41.8623158,13.0736842 42.3,12.8131579 42.3,12.4815789 C42.3,12.15 41.8623158,11.8894737 41.3052632,11.8894737 C40.7482105,11.8894737 40.3105263,12.15 40.3105263,12.4815789 C40.3105263,12.8131579 40.7482105,13.0736842 41.3052632,13.0736842 Z M27.3789474,8.92894737 C28.4731579,8.92894737 29.3684211,8.39605263 29.3684211,7.74473684 C29.3684211,7.09342105 28.4731579,6.56052632 27.3789474,6.56052632 C26.2847368,6.56052632 25.3894737,7.09342105 25.3894737,7.74473684 C25.3894737,8.39605263 26.2847368,8.92894737 27.3789474,8.92894737 Z M27.3789474,4.78421053 C27.936,4.78421053 28.3736842,4.52368421 28.3736842,4.19210526 C28.3736842,3.86052632 27.936,3.6 27.3789474,3.6 C26.8218947,3.6 26.3842105,3.86052632 26.3842105,4.19210526 C26.3842105,4.52368421 26.8218947,4.78421053 27.3789474,4.78421053 Z M5.49473684,16.6263158 C4.93768421,16.6263158 4.5,16.8868421 4.5,17.2184211 C4.5,17.55 4.93768421,17.8105263 5.49473684,17.8105263 C6.05178947,17.8105263 6.48947368,17.55 6.48947368,17.2184211 C6.48947368,16.8868421 6.05178947,16.6263158 5.49473684,16.6263158 Z M19.4210526,24.9157895 C18.864,24.9157895 18.4263158,25.1763158 18.4263158,25.5078947 C18.4263158,25.8394737 18.864,26.1 19.4210526,26.1 C19.9781053,26.1 20.4157895,25.8394737 20.4157895,25.5078947 C20.4157895,25.1763158 19.9781053,24.9157895 19.4210526,24.9157895 Z M19.4210526,4.78421053 C19.9781053,4.78421053 20.4157895,4.52368421 20.4157895,4.19210526 C20.4157895,3.86052632 19.9781053,3.6 19.4210526,3.6 C18.864,3.6 18.4263158,3.86052632 18.4263158,4.19210526 C18.4263158,4.52368421 18.864,4.78421053 19.4210526,4.78421053 Z M19.4210526,8.92894737 C20.5152632,8.92894737 21.4105263,8.39605263 21.4105263,7.74473684 C21.4105263,7.09342105 20.5152632,6.56052632 19.4210526,6.56052632 C18.3268421,6.56052632 17.4315789,7.09342105 17.4315789,7.74473684 C17.4315789,8.39605263 18.3268421,8.92894737 19.4210526,8.92894737 Z M19.4210526,15.4421053 C17.7697895,15.4421053 16.4368421,16.2355263 16.4368421,17.2184211 C16.4368421,18.2013158 17.7697895,18.9947368 19.4210526,18.9947368 C21.0723158,18.9947368 22.4052632,18.2013158 22.4052632,17.2184211 C22.4052632,16.2355263 21.0723158,15.4421053 19.4210526,15.4421053 Z M35.3368421,16.0342105 C34.2426316,16.0342105 33.3473684,16.5671053 33.3473684,17.2184211 C33.3473684,17.8697368 34.2426316,18.4026316 35.3368421,18.4026316 C36.4310526,18.4026316 37.3263158,17.8697368 37.3263158,17.2184211 C37.3263158,16.5671053 36.4310526,16.0342105 35.3368421,16.0342105 Z M35.3368421,20.7710526 C34.2426316,20.7710526 33.3473684,21.3039474 33.3473684,21.9552632 C33.3473684,22.6065789 34.2426316,23.1394737 35.3368421,23.1394737 C36.4310526,23.1394737 37.3263158,22.6065789 37.3263158,21.9552632 C37.3263158,21.3039474 36.4310526,20.7710526 35.3368421,20.7710526 Z M35.3368421,11.2973684 C34.2426316,11.2973684 33.3473684,11.8302632 33.3473684,12.4815789 C33.3473684,13.1328947 34.2426316,13.6657895 35.3368421,13.6657895 C36.4310526,13.6657895 37.3263158,13.1328947 37.3263158,12.4815789 C37.3263158,11.8302632 36.4310526,11.2973684 35.3368421,11.2973684 Z M35.3368421,6.56052632 C34.2426316,6.56052632 33.3473684,7.09342105 33.3473684,7.74473684 C33.3473684,8.39605263 34.2426316,8.92894737 35.3368421,8.92894737 C36.4310526,8.92894737 37.3263158,8.39605263 37.3263158,7.74473684 C37.3263158,7.09342105 36.4310526,6.56052632 35.3368421,6.56052632 Z M41.3052632,16.6263158 C40.7482105,16.6263158 40.3105263,16.8868421 40.3105263,17.2184211 C40.3105263,17.55 40.7482105,17.8105263 41.3052632,17.8105263 C41.8623158,17.8105263 42.3,17.55 42.3,17.2184211 C42.3,16.8868421 41.8623158,16.6263158 41.3052632,16.6263158 Z M27.3789474,20.7710526 C26.2847368,20.7710526 25.3894737,21.3039474 25.3894737,21.9552632 C25.3894737,22.6065789 26.2847368,23.1394737 27.3789474,23.1394737 C28.4731579,23.1394737 29.3684211,22.6065789 29.3684211,21.9552632 C29.3684211,21.3039474 28.4731579,20.7710526 27.3789474,20.7710526 Z M27.3789474,24.9157895 C26.8218947,24.9157895 26.3842105,25.1763158 26.3842105,25.5078947 C26.3842105,25.8394737 26.8218947,26.1 27.3789474,26.1 C27.936,26.1 28.3736842,25.8394737 28.3736842,25.5078947 C28.3736842,25.1763158 27.936,24.9157895 27.3789474,24.9157895 Z M19.4210526,10.7052632 C17.7697895,10.7052632 16.4368421,11.4986842 16.4368421,12.4815789 C16.4368421,13.4644737 17.7697895,14.2578947 19.4210526,14.2578947 C21.0723158,14.2578947 22.4052632,13.4644737 22.4052632,12.4815789 C22.4052632,11.4986842 21.0723158,10.7052632 19.4210526,10.7052632 Z M19.4210526,20.7710526 C18.3268421,20.7710526 17.4315789,21.3039474 17.4315789,21.9552632 C17.4315789,22.6065789 18.3268421,23.1394737 19.4210526,23.1394737 C20.5152632,23.1394737 21.4105263,22.6065789 21.4105263,21.9552632 C21.4105263,21.3039474 20.5152632,20.7710526 19.4210526,20.7710526 Z M27.3789474,15.4421053 C25.7276842,15.4421053 24.3947368,16.2355263 24.3947368,17.2184211 C24.3947368,18.2013158 25.7276842,18.9947368 27.3789474,18.9947368 C29.0302105,18.9947368 30.3631579,18.2013158 30.3631579,17.2184211 C30.3631579,16.2355263 29.0302105,15.4421053 27.3789474,15.4421053 Z M27.3789474,10.7052632 C25.7276842,10.7052632 24.3947368,11.4986842 24.3947368,12.4815789 C24.3947368,13.4644737 25.7276842,14.2578947 27.3789474,14.2578947 C29.0302105,14.2578947 30.3631579,13.4644737 30.3631579,12.4815789 C30.3631579,11.4986842 29.0302105,10.7052632 27.3789474,10.7052632 Z" id="Shape" fill="#FFFFFF" fill-rule="nonzero"></path>
                                            <polygon id="Shape" points="0 0 46.8 0 46.8 27.9 0 27.9"></polygon>
                                        </g>
                                    </g>
                                </g>
                                <g id="Rectangle-7_Isometric" transform="translate(87.000000, 124.000000)">
                                    <polygon id="Rectangle-7_Left_Isometric" fill="#5C5C5C" points="63 99 0 67.5 0 31.5 63 63"></polygon>
                                    <polygon id="Rectangle-7_Right_Isometric" fill="#929292" points="63 99 126 67.5 126 31.5 63 63"></polygon>
                                    <polygon id="Rectangle-7_Top_Isometric" fill="#358EE9" points="0 31.5 63 0 126 31.5 63 63"></polygon>
                                    <g id="contracts" transform="translate(37.800000, 16.200000)" opacity="0.300000012">
                                        <g id="ic_blur_on_24px">
                                            <path d="M11.4631579,16.0342105 C10.3689474,16.0342105 9.47368421,16.5671053 9.47368421,17.2184211 C9.47368421,17.8697368 10.3689474,18.4026316 11.4631579,18.4026316 C12.5573684,18.4026316 13.4526316,17.8697368 13.4526316,17.2184211 C13.4526316,16.5671053 12.5573684,16.0342105 11.4631579,16.0342105 Z M11.4631579,20.7710526 C10.3689474,20.7710526 9.47368421,21.3039474 9.47368421,21.9552632 C9.47368421,22.6065789 10.3689474,23.1394737 11.4631579,23.1394737 C12.5573684,23.1394737 13.4526316,22.6065789 13.4526316,21.9552632 C13.4526316,21.3039474 12.5573684,20.7710526 11.4631579,20.7710526 Z M11.4631579,11.2973684 C10.3689474,11.2973684 9.47368421,11.8302632 9.47368421,12.4815789 C9.47368421,13.1328947 10.3689474,13.6657895 11.4631579,13.6657895 C12.5573684,13.6657895 13.4526316,13.1328947 13.4526316,12.4815789 C13.4526316,11.8302632 12.5573684,11.2973684 11.4631579,11.2973684 Z M5.49473684,11.8894737 C4.93768421,11.8894737 4.5,12.15 4.5,12.4815789 C4.5,12.8131579 4.93768421,13.0736842 5.49473684,13.0736842 C6.05178947,13.0736842 6.48947368,12.8131579 6.48947368,12.4815789 C6.48947368,12.15 6.05178947,11.8894737 5.49473684,11.8894737 Z M11.4631579,6.56052632 C10.3689474,6.56052632 9.47368421,7.09342105 9.47368421,7.74473684 C9.47368421,8.39605263 10.3689474,8.92894737 11.4631579,8.92894737 C12.5573684,8.92894737 13.4526316,8.39605263 13.4526316,7.74473684 C13.4526316,7.09342105 12.5573684,6.56052632 11.4631579,6.56052632 Z M41.3052632,13.0736842 C41.8623158,13.0736842 42.3,12.8131579 42.3,12.4815789 C42.3,12.15 41.8623158,11.8894737 41.3052632,11.8894737 C40.7482105,11.8894737 40.3105263,12.15 40.3105263,12.4815789 C40.3105263,12.8131579 40.7482105,13.0736842 41.3052632,13.0736842 Z M27.3789474,8.92894737 C28.4731579,8.92894737 29.3684211,8.39605263 29.3684211,7.74473684 C29.3684211,7.09342105 28.4731579,6.56052632 27.3789474,6.56052632 C26.2847368,6.56052632 25.3894737,7.09342105 25.3894737,7.74473684 C25.3894737,8.39605263 26.2847368,8.92894737 27.3789474,8.92894737 Z M27.3789474,4.78421053 C27.936,4.78421053 28.3736842,4.52368421 28.3736842,4.19210526 C28.3736842,3.86052632 27.936,3.6 27.3789474,3.6 C26.8218947,3.6 26.3842105,3.86052632 26.3842105,4.19210526 C26.3842105,4.52368421 26.8218947,4.78421053 27.3789474,4.78421053 Z M5.49473684,16.6263158 C4.93768421,16.6263158 4.5,16.8868421 4.5,17.2184211 C4.5,17.55 4.93768421,17.8105263 5.49473684,17.8105263 C6.05178947,17.8105263 6.48947368,17.55 6.48947368,17.2184211 C6.48947368,16.8868421 6.05178947,16.6263158 5.49473684,16.6263158 Z M19.4210526,24.9157895 C18.864,24.9157895 18.4263158,25.1763158 18.4263158,25.5078947 C18.4263158,25.8394737 18.864,26.1 19.4210526,26.1 C19.9781053,26.1 20.4157895,25.8394737 20.4157895,25.5078947 C20.4157895,25.1763158 19.9781053,24.9157895 19.4210526,24.9157895 Z M19.4210526,4.78421053 C19.9781053,4.78421053 20.4157895,4.52368421 20.4157895,4.19210526 C20.4157895,3.86052632 19.9781053,3.6 19.4210526,3.6 C18.864,3.6 18.4263158,3.86052632 18.4263158,4.19210526 C18.4263158,4.52368421 18.864,4.78421053 19.4210526,4.78421053 Z M19.4210526,8.92894737 C20.5152632,8.92894737 21.4105263,8.39605263 21.4105263,7.74473684 C21.4105263,7.09342105 20.5152632,6.56052632 19.4210526,6.56052632 C18.3268421,6.56052632 17.4315789,7.09342105 17.4315789,7.74473684 C17.4315789,8.39605263 18.3268421,8.92894737 19.4210526,8.92894737 Z M19.4210526,15.4421053 C17.7697895,15.4421053 16.4368421,16.2355263 16.4368421,17.2184211 C16.4368421,18.2013158 17.7697895,18.9947368 19.4210526,18.9947368 C21.0723158,18.9947368 22.4052632,18.2013158 22.4052632,17.2184211 C22.4052632,16.2355263 21.0723158,15.4421053 19.4210526,15.4421053 Z M35.3368421,16.0342105 C34.2426316,16.0342105 33.3473684,16.5671053 33.3473684,17.2184211 C33.3473684,17.8697368 34.2426316,18.4026316 35.3368421,18.4026316 C36.4310526,18.4026316 37.3263158,17.8697368 37.3263158,17.2184211 C37.3263158,16.5671053 36.4310526,16.0342105 35.3368421,16.0342105 Z M35.3368421,20.7710526 C34.2426316,20.7710526 33.3473684,21.3039474 33.3473684,21.9552632 C33.3473684,22.6065789 34.2426316,23.1394737 35.3368421,23.1394737 C36.4310526,23.1394737 37.3263158,22.6065789 37.3263158,21.9552632 C37.3263158,21.3039474 36.4310526,20.7710526 35.3368421,20.7710526 Z M35.3368421,11.2973684 C34.2426316,11.2973684 33.3473684,11.8302632 33.3473684,12.4815789 C33.3473684,13.1328947 34.2426316,13.6657895 35.3368421,13.6657895 C36.4310526,13.6657895 37.3263158,13.1328947 37.3263158,12.4815789 C37.3263158,11.8302632 36.4310526,11.2973684 35.3368421,11.2973684 Z M35.3368421,6.56052632 C34.2426316,6.56052632 33.3473684,7.09342105 33.3473684,7.74473684 C33.3473684,8.39605263 34.2426316,8.92894737 35.3368421,8.92894737 C36.4310526,8.92894737 37.3263158,8.39605263 37.3263158,7.74473684 C37.3263158,7.09342105 36.4310526,6.56052632 35.3368421,6.56052632 Z M41.3052632,16.6263158 C40.7482105,16.6263158 40.3105263,16.8868421 40.3105263,17.2184211 C40.3105263,17.55 40.7482105,17.8105263 41.3052632,17.8105263 C41.8623158,17.8105263 42.3,17.55 42.3,17.2184211 C42.3,16.8868421 41.8623158,16.6263158 41.3052632,16.6263158 Z M27.3789474,20.7710526 C26.2847368,20.7710526 25.3894737,21.3039474 25.3894737,21.9552632 C25.3894737,22.6065789 26.2847368,23.1394737 27.3789474,23.1394737 C28.4731579,23.1394737 29.3684211,22.6065789 29.3684211,21.9552632 C29.3684211,21.3039474 28.4731579,20.7710526 27.3789474,20.7710526 Z M27.3789474,24.9157895 C26.8218947,24.9157895 26.3842105,25.1763158 26.3842105,25.5078947 C26.3842105,25.8394737 26.8218947,26.1 27.3789474,26.1 C27.936,26.1 28.3736842,25.8394737 28.3736842,25.5078947 C28.3736842,25.1763158 27.936,24.9157895 27.3789474,24.9157895 Z M19.4210526,10.7052632 C17.7697895,10.7052632 16.4368421,11.4986842 16.4368421,12.4815789 C16.4368421,13.4644737 17.7697895,14.2578947 19.4210526,14.2578947 C21.0723158,14.2578947 22.4052632,13.4644737 22.4052632,12.4815789 C22.4052632,11.4986842 21.0723158,10.7052632 19.4210526,10.7052632 Z M19.4210526,20.7710526 C18.3268421,20.7710526 17.4315789,21.3039474 17.4315789,21.9552632 C17.4315789,22.6065789 18.3268421,23.1394737 19.4210526,23.1394737 C20.5152632,23.1394737 21.4105263,22.6065789 21.4105263,21.9552632 C21.4105263,21.3039474 20.5152632,20.7710526 19.4210526,20.7710526 Z M27.3789474,15.4421053 C25.7276842,15.4421053 24.3947368,16.2355263 24.3947368,17.2184211 C24.3947368,18.2013158 25.7276842,18.9947368 27.3789474,18.9947368 C29.0302105,18.9947368 30.3631579,18.2013158 30.3631579,17.2184211 C30.3631579,16.2355263 29.0302105,15.4421053 27.3789474,15.4421053 Z M27.3789474,10.7052632 C25.7276842,10.7052632 24.3947368,11.4986842 24.3947368,12.4815789 C24.3947368,13.4644737 25.7276842,14.2578947 27.3789474,14.2578947 C29.0302105,14.2578947 30.3631579,13.4644737 30.3631579,12.4815789 C30.3631579,11.4986842 29.0302105,10.7052632 27.3789474,10.7052632 Z" id="Shape" fill="#FFFFFF" fill-rule="nonzero"></path>
                                            <polygon id="Shape" points="0 0 46.8 0 46.8 27.9 0 27.9"></polygon>
                                        </g>
                                    </g>
                                </g>
                                <g id="Rectangle-7_Isometric" transform="translate(341.000000, 84.000000)">
                                    <polygon id="Rectangle-7_Left_Isometric" fill="#5C5C5C" points="63 99 0 67.5 0 31.5 63 63"></polygon>
                                    <polygon id="Rectangle-7_Right_Isometric" fill="#929292" points="63 99 126 67.5 126 31.5 63 63"></polygon>
                                    <polygon id="Rectangle-7_Top_Isometric" fill="#358EE9" points="0 31.5 63 0 126 31.5 63 63"></polygon>
                                    <g id="contracts" transform="translate(37.800000, 16.200000)" opacity="0.300000012">
                                        <g id="ic_blur_on_24px">
                                            <path d="M11.4631579,16.0342105 C10.3689474,16.0342105 9.47368421,16.5671053 9.47368421,17.2184211 C9.47368421,17.8697368 10.3689474,18.4026316 11.4631579,18.4026316 C12.5573684,18.4026316 13.4526316,17.8697368 13.4526316,17.2184211 C13.4526316,16.5671053 12.5573684,16.0342105 11.4631579,16.0342105 Z M11.4631579,20.7710526 C10.3689474,20.7710526 9.47368421,21.3039474 9.47368421,21.9552632 C9.47368421,22.6065789 10.3689474,23.1394737 11.4631579,23.1394737 C12.5573684,23.1394737 13.4526316,22.6065789 13.4526316,21.9552632 C13.4526316,21.3039474 12.5573684,20.7710526 11.4631579,20.7710526 Z M11.4631579,11.2973684 C10.3689474,11.2973684 9.47368421,11.8302632 9.47368421,12.4815789 C9.47368421,13.1328947 10.3689474,13.6657895 11.4631579,13.6657895 C12.5573684,13.6657895 13.4526316,13.1328947 13.4526316,12.4815789 C13.4526316,11.8302632 12.5573684,11.2973684 11.4631579,11.2973684 Z M5.49473684,11.8894737 C4.93768421,11.8894737 4.5,12.15 4.5,12.4815789 C4.5,12.8131579 4.93768421,13.0736842 5.49473684,13.0736842 C6.05178947,13.0736842 6.48947368,12.8131579 6.48947368,12.4815789 C6.48947368,12.15 6.05178947,11.8894737 5.49473684,11.8894737 Z M11.4631579,6.56052632 C10.3689474,6.56052632 9.47368421,7.09342105 9.47368421,7.74473684 C9.47368421,8.39605263 10.3689474,8.92894737 11.4631579,8.92894737 C12.5573684,8.92894737 13.4526316,8.39605263 13.4526316,7.74473684 C13.4526316,7.09342105 12.5573684,6.56052632 11.4631579,6.56052632 Z M41.3052632,13.0736842 C41.8623158,13.0736842 42.3,12.8131579 42.3,12.4815789 C42.3,12.15 41.8623158,11.8894737 41.3052632,11.8894737 C40.7482105,11.8894737 40.3105263,12.15 40.3105263,12.4815789 C40.3105263,12.8131579 40.7482105,13.0736842 41.3052632,13.0736842 Z M27.3789474,8.92894737 C28.4731579,8.92894737 29.3684211,8.39605263 29.3684211,7.74473684 C29.3684211,7.09342105 28.4731579,6.56052632 27.3789474,6.56052632 C26.2847368,6.56052632 25.3894737,7.09342105 25.3894737,7.74473684 C25.3894737,8.39605263 26.2847368,8.92894737 27.3789474,8.92894737 Z M27.3789474,4.78421053 C27.936,4.78421053 28.3736842,4.52368421 28.3736842,4.19210526 C28.3736842,3.86052632 27.936,3.6 27.3789474,3.6 C26.8218947,3.6 26.3842105,3.86052632 26.3842105,4.19210526 C26.3842105,4.52368421 26.8218947,4.78421053 27.3789474,4.78421053 Z M5.49473684,16.6263158 C4.93768421,16.6263158 4.5,16.8868421 4.5,17.2184211 C4.5,17.55 4.93768421,17.8105263 5.49473684,17.8105263 C6.05178947,17.8105263 6.48947368,17.55 6.48947368,17.2184211 C6.48947368,16.8868421 6.05178947,16.6263158 5.49473684,16.6263158 Z M19.4210526,24.9157895 C18.864,24.9157895 18.4263158,25.1763158 18.4263158,25.5078947 C18.4263158,25.8394737 18.864,26.1 19.4210526,26.1 C19.9781053,26.1 20.4157895,25.8394737 20.4157895,25.5078947 C20.4157895,25.1763158 19.9781053,24.9157895 19.4210526,24.9157895 Z M19.4210526,4.78421053 C19.9781053,4.78421053 20.4157895,4.52368421 20.4157895,4.19210526 C20.4157895,3.86052632 19.9781053,3.6 19.4210526,3.6 C18.864,3.6 18.4263158,3.86052632 18.4263158,4.19210526 C18.4263158,4.52368421 18.864,4.78421053 19.4210526,4.78421053 Z M19.4210526,8.92894737 C20.5152632,8.92894737 21.4105263,8.39605263 21.4105263,7.74473684 C21.4105263,7.09342105 20.5152632,6.56052632 19.4210526,6.56052632 C18.3268421,6.56052632 17.4315789,7.09342105 17.4315789,7.74473684 C17.4315789,8.39605263 18.3268421,8.92894737 19.4210526,8.92894737 Z M19.4210526,15.4421053 C17.7697895,15.4421053 16.4368421,16.2355263 16.4368421,17.2184211 C16.4368421,18.2013158 17.7697895,18.9947368 19.4210526,18.9947368 C21.0723158,18.9947368 22.4052632,18.2013158 22.4052632,17.2184211 C22.4052632,16.2355263 21.0723158,15.4421053 19.4210526,15.4421053 Z M35.3368421,16.0342105 C34.2426316,16.0342105 33.3473684,16.5671053 33.3473684,17.2184211 C33.3473684,17.8697368 34.2426316,18.4026316 35.3368421,18.4026316 C36.4310526,18.4026316 37.3263158,17.8697368 37.3263158,17.2184211 C37.3263158,16.5671053 36.4310526,16.0342105 35.3368421,16.0342105 Z M35.3368421,20.7710526 C34.2426316,20.7710526 33.3473684,21.3039474 33.3473684,21.9552632 C33.3473684,22.6065789 34.2426316,23.1394737 35.3368421,23.1394737 C36.4310526,23.1394737 37.3263158,22.6065789 37.3263158,21.9552632 C37.3263158,21.3039474 36.4310526,20.7710526 35.3368421,20.7710526 Z M35.3368421,11.2973684 C34.2426316,11.2973684 33.3473684,11.8302632 33.3473684,12.4815789 C33.3473684,13.1328947 34.2426316,13.6657895 35.3368421,13.6657895 C36.4310526,13.6657895 37.3263158,13.1328947 37.3263158,12.4815789 C37.3263158,11.8302632 36.4310526,11.2973684 35.3368421,11.2973684 Z M35.3368421,6.56052632 C34.2426316,6.56052632 33.3473684,7.09342105 33.3473684,7.74473684 C33.3473684,8.39605263 34.2426316,8.92894737 35.3368421,8.92894737 C36.4310526,8.92894737 37.3263158,8.39605263 37.3263158,7.74473684 C37.3263158,7.09342105 36.4310526,6.56052632 35.3368421,6.56052632 Z M41.3052632,16.6263158 C40.7482105,16.6263158 40.3105263,16.8868421 40.3105263,17.2184211 C40.3105263,17.55 40.7482105,17.8105263 41.3052632,17.8105263 C41.8623158,17.8105263 42.3,17.55 42.3,17.2184211 C42.3,16.8868421 41.8623158,16.6263158 41.3052632,16.6263158 Z M27.3789474,20.7710526 C26.2847368,20.7710526 25.3894737,21.3039474 25.3894737,21.9552632 C25.3894737,22.6065789 26.2847368,23.1394737 27.3789474,23.1394737 C28.4731579,23.1394737 29.3684211,22.6065789 29.3684211,21.9552632 C29.3684211,21.3039474 28.4731579,20.7710526 27.3789474,20.7710526 Z M27.3789474,24.9157895 C26.8218947,24.9157895 26.3842105,25.1763158 26.3842105,25.5078947 C26.3842105,25.8394737 26.8218947,26.1 27.3789474,26.1 C27.936,26.1 28.3736842,25.8394737 28.3736842,25.5078947 C28.3736842,25.1763158 27.936,24.9157895 27.3789474,24.9157895 Z M19.4210526,10.7052632 C17.7697895,10.7052632 16.4368421,11.4986842 16.4368421,12.4815789 C16.4368421,13.4644737 17.7697895,14.2578947 19.4210526,14.2578947 C21.0723158,14.2578947 22.4052632,13.4644737 22.4052632,12.4815789 C22.4052632,11.4986842 21.0723158,10.7052632 19.4210526,10.7052632 Z M19.4210526,20.7710526 C18.3268421,20.7710526 17.4315789,21.3039474 17.4315789,21.9552632 C17.4315789,22.6065789 18.3268421,23.1394737 19.4210526,23.1394737 C20.5152632,23.1394737 21.4105263,22.6065789 21.4105263,21.9552632 C21.4105263,21.3039474 20.5152632,20.7710526 19.4210526,20.7710526 Z M27.3789474,15.4421053 C25.7276842,15.4421053 24.3947368,16.2355263 24.3947368,17.2184211 C24.3947368,18.2013158 25.7276842,18.9947368 27.3789474,18.9947368 C29.0302105,18.9947368 30.3631579,18.2013158 30.3631579,17.2184211 C30.3631579,16.2355263 29.0302105,15.4421053 27.3789474,15.4421053 Z M27.3789474,10.7052632 C25.7276842,10.7052632 24.3947368,11.4986842 24.3947368,12.4815789 C24.3947368,13.4644737 25.7276842,14.2578947 27.3789474,14.2578947 C29.0302105,14.2578947 30.3631579,13.4644737 30.3631579,12.4815789 C30.3631579,11.4986842 29.0302105,10.7052632 27.3789474,10.7052632 Z" id="Shape" fill="#FFFFFF" fill-rule="nonzero"></path>
                                            <polygon id="Shape" points="0 0 46.8 0 46.8 27.9 0 27.9"></polygon>
                                        </g>
                                    </g>
                                </g>
                                <g id="Rectangle-7_Isometric" transform="translate(258.000000, 125.000000)">
                                    <polygon id="Rectangle-7_Left_Isometric" fill="#5C5C5C" points="63 99 0 67.5 0 31.5 63 63"></polygon>
                                    <polygon id="Rectangle-7_Right_Isometric" fill="#929292" points="63 99 126 67.5 126 31.5 63 63"></polygon>
                                    <polygon id="Rectangle-7_Top_Isometric" fill="#358EE9" points="0 31.5 63 0 126 31.5 63 63"></polygon>
                                    <g id="contracts" transform="translate(37.800000, 16.200000)" opacity="0.300000012">
                                        <g id="ic_blur_on_24px">
                                            <path d="M11.4631579,16.0342105 C10.3689474,16.0342105 9.47368421,16.5671053 9.47368421,17.2184211 C9.47368421,17.8697368 10.3689474,18.4026316 11.4631579,18.4026316 C12.5573684,18.4026316 13.4526316,17.8697368 13.4526316,17.2184211 C13.4526316,16.5671053 12.5573684,16.0342105 11.4631579,16.0342105 Z M11.4631579,20.7710526 C10.3689474,20.7710526 9.47368421,21.3039474 9.47368421,21.9552632 C9.47368421,22.6065789 10.3689474,23.1394737 11.4631579,23.1394737 C12.5573684,23.1394737 13.4526316,22.6065789 13.4526316,21.9552632 C13.4526316,21.3039474 12.5573684,20.7710526 11.4631579,20.7710526 Z M11.4631579,11.2973684 C10.3689474,11.2973684 9.47368421,11.8302632 9.47368421,12.4815789 C9.47368421,13.1328947 10.3689474,13.6657895 11.4631579,13.6657895 C12.5573684,13.6657895 13.4526316,13.1328947 13.4526316,12.4815789 C13.4526316,11.8302632 12.5573684,11.2973684 11.4631579,11.2973684 Z M5.49473684,11.8894737 C4.93768421,11.8894737 4.5,12.15 4.5,12.4815789 C4.5,12.8131579 4.93768421,13.0736842 5.49473684,13.0736842 C6.05178947,13.0736842 6.48947368,12.8131579 6.48947368,12.4815789 C6.48947368,12.15 6.05178947,11.8894737 5.49473684,11.8894737 Z M11.4631579,6.56052632 C10.3689474,6.56052632 9.47368421,7.09342105 9.47368421,7.74473684 C9.47368421,8.39605263 10.3689474,8.92894737 11.4631579,8.92894737 C12.5573684,8.92894737 13.4526316,8.39605263 13.4526316,7.74473684 C13.4526316,7.09342105 12.5573684,6.56052632 11.4631579,6.56052632 Z M41.3052632,13.0736842 C41.8623158,13.0736842 42.3,12.8131579 42.3,12.4815789 C42.3,12.15 41.8623158,11.8894737 41.3052632,11.8894737 C40.7482105,11.8894737 40.3105263,12.15 40.3105263,12.4815789 C40.3105263,12.8131579 40.7482105,13.0736842 41.3052632,13.0736842 Z M27.3789474,8.92894737 C28.4731579,8.92894737 29.3684211,8.39605263 29.3684211,7.74473684 C29.3684211,7.09342105 28.4731579,6.56052632 27.3789474,6.56052632 C26.2847368,6.56052632 25.3894737,7.09342105 25.3894737,7.74473684 C25.3894737,8.39605263 26.2847368,8.92894737 27.3789474,8.92894737 Z M27.3789474,4.78421053 C27.936,4.78421053 28.3736842,4.52368421 28.3736842,4.19210526 C28.3736842,3.86052632 27.936,3.6 27.3789474,3.6 C26.8218947,3.6 26.3842105,3.86052632 26.3842105,4.19210526 C26.3842105,4.52368421 26.8218947,4.78421053 27.3789474,4.78421053 Z M5.49473684,16.6263158 C4.93768421,16.6263158 4.5,16.8868421 4.5,17.2184211 C4.5,17.55 4.93768421,17.8105263 5.49473684,17.8105263 C6.05178947,17.8105263 6.48947368,17.55 6.48947368,17.2184211 C6.48947368,16.8868421 6.05178947,16.6263158 5.49473684,16.6263158 Z M19.4210526,24.9157895 C18.864,24.9157895 18.4263158,25.1763158 18.4263158,25.5078947 C18.4263158,25.8394737 18.864,26.1 19.4210526,26.1 C19.9781053,26.1 20.4157895,25.8394737 20.4157895,25.5078947 C20.4157895,25.1763158 19.9781053,24.9157895 19.4210526,24.9157895 Z M19.4210526,4.78421053 C19.9781053,4.78421053 20.4157895,4.52368421 20.4157895,4.19210526 C20.4157895,3.86052632 19.9781053,3.6 19.4210526,3.6 C18.864,3.6 18.4263158,3.86052632 18.4263158,4.19210526 C18.4263158,4.52368421 18.864,4.78421053 19.4210526,4.78421053 Z M19.4210526,8.92894737 C20.5152632,8.92894737 21.4105263,8.39605263 21.4105263,7.74473684 C21.4105263,7.09342105 20.5152632,6.56052632 19.4210526,6.56052632 C18.3268421,6.56052632 17.4315789,7.09342105 17.4315789,7.74473684 C17.4315789,8.39605263 18.3268421,8.92894737 19.4210526,8.92894737 Z M19.4210526,15.4421053 C17.7697895,15.4421053 16.4368421,16.2355263 16.4368421,17.2184211 C16.4368421,18.2013158 17.7697895,18.9947368 19.4210526,18.9947368 C21.0723158,18.9947368 22.4052632,18.2013158 22.4052632,17.2184211 C22.4052632,16.2355263 21.0723158,15.4421053 19.4210526,15.4421053 Z M35.3368421,16.0342105 C34.2426316,16.0342105 33.3473684,16.5671053 33.3473684,17.2184211 C33.3473684,17.8697368 34.2426316,18.4026316 35.3368421,18.4026316 C36.4310526,18.4026316 37.3263158,17.8697368 37.3263158,17.2184211 C37.3263158,16.5671053 36.4310526,16.0342105 35.3368421,16.0342105 Z M35.3368421,20.7710526 C34.2426316,20.7710526 33.3473684,21.3039474 33.3473684,21.9552632 C33.3473684,22.6065789 34.2426316,23.1394737 35.3368421,23.1394737 C36.4310526,23.1394737 37.3263158,22.6065789 37.3263158,21.9552632 C37.3263158,21.3039474 36.4310526,20.7710526 35.3368421,20.7710526 Z M35.3368421,11.2973684 C34.2426316,11.2973684 33.3473684,11.8302632 33.3473684,12.4815789 C33.3473684,13.1328947 34.2426316,13.6657895 35.3368421,13.6657895 C36.4310526,13.6657895 37.3263158,13.1328947 37.3263158,12.4815789 C37.3263158,11.8302632 36.4310526,11.2973684 35.3368421,11.2973684 Z M35.3368421,6.56052632 C34.2426316,6.56052632 33.3473684,7.09342105 33.3473684,7.74473684 C33.3473684,8.39605263 34.2426316,8.92894737 35.3368421,8.92894737 C36.4310526,8.92894737 37.3263158,8.39605263 37.3263158,7.74473684 C37.3263158,7.09342105 36.4310526,6.56052632 35.3368421,6.56052632 Z M41.3052632,16.6263158 C40.7482105,16.6263158 40.3105263,16.8868421 40.3105263,17.2184211 C40.3105263,17.55 40.7482105,17.8105263 41.3052632,17.8105263 C41.8623158,17.8105263 42.3,17.55 42.3,17.2184211 C42.3,16.8868421 41.8623158,16.6263158 41.3052632,16.6263158 Z M27.3789474,20.7710526 C26.2847368,20.7710526 25.3894737,21.3039474 25.3894737,21.9552632 C25.3894737,22.6065789 26.2847368,23.1394737 27.3789474,23.1394737 C28.4731579,23.1394737 29.3684211,22.6065789 29.3684211,21.9552632 C29.3684211,21.3039474 28.4731579,20.7710526 27.3789474,20.7710526 Z M27.3789474,24.9157895 C26.8218947,24.9157895 26.3842105,25.1763158 26.3842105,25.5078947 C26.3842105,25.8394737 26.8218947,26.1 27.3789474,26.1 C27.936,26.1 28.3736842,25.8394737 28.3736842,25.5078947 C28.3736842,25.1763158 27.936,24.9157895 27.3789474,24.9157895 Z M19.4210526,10.7052632 C17.7697895,10.7052632 16.4368421,11.4986842 16.4368421,12.4815789 C16.4368421,13.4644737 17.7697895,14.2578947 19.4210526,14.2578947 C21.0723158,14.2578947 22.4052632,13.4644737 22.4052632,12.4815789 C22.4052632,11.4986842 21.0723158,10.7052632 19.4210526,10.7052632 Z M19.4210526,20.7710526 C18.3268421,20.7710526 17.4315789,21.3039474 17.4315789,21.9552632 C17.4315789,22.6065789 18.3268421,23.1394737 19.4210526,23.1394737 C20.5152632,23.1394737 21.4105263,22.6065789 21.4105263,21.9552632 C21.4105263,21.3039474 20.5152632,20.7710526 19.4210526,20.7710526 Z M27.3789474,15.4421053 C25.7276842,15.4421053 24.3947368,16.2355263 24.3947368,17.2184211 C24.3947368,18.2013158 25.7276842,18.9947368 27.3789474,18.9947368 C29.0302105,18.9947368 30.3631579,18.2013158 30.3631579,17.2184211 C30.3631579,16.2355263 29.0302105,15.4421053 27.3789474,15.4421053 Z M27.3789474,10.7052632 C25.7276842,10.7052632 24.3947368,11.4986842 24.3947368,12.4815789 C24.3947368,13.4644737 25.7276842,14.2578947 27.3789474,14.2578947 C29.0302105,14.2578947 30.3631579,13.4644737 30.3631579,12.4815789 C30.3631579,11.4986842 29.0302105,10.7052632 27.3789474,10.7052632 Z" id="Shape" fill="#FFFFFF" fill-rule="nonzero"></path>
                                            <polygon id="Shape" points="0 0 46.8 0 46.8 27.9 0 27.9"></polygon>
                                        </g>
                                    </g>
                                </g>
                                <g id="Rectangle-7_Isometric" transform="translate(174.000000, 167.000000)">
                                    <polygon id="Rectangle-7_Left_Isometric" fill="#5C5C5C" points="63 99 0 67.5 0 31.5 63 63"></polygon>
                                    <polygon id="Rectangle-7_Right_Isometric" fill="#929292" points="63 99 126 67.5 126 31.5 63 63"></polygon>
                                    <polygon id="Rectangle-7_Top_Isometric" fill="#358EE9" points="0 31.5 63 0 126 31.5 63 63"></polygon>
                                    <g id="contracts" transform="translate(37.800000, 16.200000)" opacity="0.300000012">
                                        <g id="ic_blur_on_24px">
                                            <path d="M11.4631579,16.0342105 C10.3689474,16.0342105 9.47368421,16.5671053 9.47368421,17.2184211 C9.47368421,17.8697368 10.3689474,18.4026316 11.4631579,18.4026316 C12.5573684,18.4026316 13.4526316,17.8697368 13.4526316,17.2184211 C13.4526316,16.5671053 12.5573684,16.0342105 11.4631579,16.0342105 Z M11.4631579,20.7710526 C10.3689474,20.7710526 9.47368421,21.3039474 9.47368421,21.9552632 C9.47368421,22.6065789 10.3689474,23.1394737 11.4631579,23.1394737 C12.5573684,23.1394737 13.4526316,22.6065789 13.4526316,21.9552632 C13.4526316,21.3039474 12.5573684,20.7710526 11.4631579,20.7710526 Z M11.4631579,11.2973684 C10.3689474,11.2973684 9.47368421,11.8302632 9.47368421,12.4815789 C9.47368421,13.1328947 10.3689474,13.6657895 11.4631579,13.6657895 C12.5573684,13.6657895 13.4526316,13.1328947 13.4526316,12.4815789 C13.4526316,11.8302632 12.5573684,11.2973684 11.4631579,11.2973684 Z M5.49473684,11.8894737 C4.93768421,11.8894737 4.5,12.15 4.5,12.4815789 C4.5,12.8131579 4.93768421,13.0736842 5.49473684,13.0736842 C6.05178947,13.0736842 6.48947368,12.8131579 6.48947368,12.4815789 C6.48947368,12.15 6.05178947,11.8894737 5.49473684,11.8894737 Z M11.4631579,6.56052632 C10.3689474,6.56052632 9.47368421,7.09342105 9.47368421,7.74473684 C9.47368421,8.39605263 10.3689474,8.92894737 11.4631579,8.92894737 C12.5573684,8.92894737 13.4526316,8.39605263 13.4526316,7.74473684 C13.4526316,7.09342105 12.5573684,6.56052632 11.4631579,6.56052632 Z M41.3052632,13.0736842 C41.8623158,13.0736842 42.3,12.8131579 42.3,12.4815789 C42.3,12.15 41.8623158,11.8894737 41.3052632,11.8894737 C40.7482105,11.8894737 40.3105263,12.15 40.3105263,12.4815789 C40.3105263,12.8131579 40.7482105,13.0736842 41.3052632,13.0736842 Z M27.3789474,8.92894737 C28.4731579,8.92894737 29.3684211,8.39605263 29.3684211,7.74473684 C29.3684211,7.09342105 28.4731579,6.56052632 27.3789474,6.56052632 C26.2847368,6.56052632 25.3894737,7.09342105 25.3894737,7.74473684 C25.3894737,8.39605263 26.2847368,8.92894737 27.3789474,8.92894737 Z M27.3789474,4.78421053 C27.936,4.78421053 28.3736842,4.52368421 28.3736842,4.19210526 C28.3736842,3.86052632 27.936,3.6 27.3789474,3.6 C26.8218947,3.6 26.3842105,3.86052632 26.3842105,4.19210526 C26.3842105,4.52368421 26.8218947,4.78421053 27.3789474,4.78421053 Z M5.49473684,16.6263158 C4.93768421,16.6263158 4.5,16.8868421 4.5,17.2184211 C4.5,17.55 4.93768421,17.8105263 5.49473684,17.8105263 C6.05178947,17.8105263 6.48947368,17.55 6.48947368,17.2184211 C6.48947368,16.8868421 6.05178947,16.6263158 5.49473684,16.6263158 Z M19.4210526,24.9157895 C18.864,24.9157895 18.4263158,25.1763158 18.4263158,25.5078947 C18.4263158,25.8394737 18.864,26.1 19.4210526,26.1 C19.9781053,26.1 20.4157895,25.8394737 20.4157895,25.5078947 C20.4157895,25.1763158 19.9781053,24.9157895 19.4210526,24.9157895 Z M19.4210526,4.78421053 C19.9781053,4.78421053 20.4157895,4.52368421 20.4157895,4.19210526 C20.4157895,3.86052632 19.9781053,3.6 19.4210526,3.6 C18.864,3.6 18.4263158,3.86052632 18.4263158,4.19210526 C18.4263158,4.52368421 18.864,4.78421053 19.4210526,4.78421053 Z M19.4210526,8.92894737 C20.5152632,8.92894737 21.4105263,8.39605263 21.4105263,7.74473684 C21.4105263,7.09342105 20.5152632,6.56052632 19.4210526,6.56052632 C18.3268421,6.56052632 17.4315789,7.09342105 17.4315789,7.74473684 C17.4315789,8.39605263 18.3268421,8.92894737 19.4210526,8.92894737 Z M19.4210526,15.4421053 C17.7697895,15.4421053 16.4368421,16.2355263 16.4368421,17.2184211 C16.4368421,18.2013158 17.7697895,18.9947368 19.4210526,18.9947368 C21.0723158,18.9947368 22.4052632,18.2013158 22.4052632,17.2184211 C22.4052632,16.2355263 21.0723158,15.4421053 19.4210526,15.4421053 Z M35.3368421,16.0342105 C34.2426316,16.0342105 33.3473684,16.5671053 33.3473684,17.2184211 C33.3473684,17.8697368 34.2426316,18.4026316 35.3368421,18.4026316 C36.4310526,18.4026316 37.3263158,17.8697368 37.3263158,17.2184211 C37.3263158,16.5671053 36.4310526,16.0342105 35.3368421,16.0342105 Z M35.3368421,20.7710526 C34.2426316,20.7710526 33.3473684,21.3039474 33.3473684,21.9552632 C33.3473684,22.6065789 34.2426316,23.1394737 35.3368421,23.1394737 C36.4310526,23.1394737 37.3263158,22.6065789 37.3263158,21.9552632 C37.3263158,21.3039474 36.4310526,20.7710526 35.3368421,20.7710526 Z M35.3368421,11.2973684 C34.2426316,11.2973684 33.3473684,11.8302632 33.3473684,12.4815789 C33.3473684,13.1328947 34.2426316,13.6657895 35.3368421,13.6657895 C36.4310526,13.6657895 37.3263158,13.1328947 37.3263158,12.4815789 C37.3263158,11.8302632 36.4310526,11.2973684 35.3368421,11.2973684 Z M35.3368421,6.56052632 C34.2426316,6.56052632 33.3473684,7.09342105 33.3473684,7.74473684 C33.3473684,8.39605263 34.2426316,8.92894737 35.3368421,8.92894737 C36.4310526,8.92894737 37.3263158,8.39605263 37.3263158,7.74473684 C37.3263158,7.09342105 36.4310526,6.56052632 35.3368421,6.56052632 Z M41.3052632,16.6263158 C40.7482105,16.6263158 40.3105263,16.8868421 40.3105263,17.2184211 C40.3105263,17.55 40.7482105,17.8105263 41.3052632,17.8105263 C41.8623158,17.8105263 42.3,17.55 42.3,17.2184211 C42.3,16.8868421 41.8623158,16.6263158 41.3052632,16.6263158 Z M27.3789474,20.7710526 C26.2847368,20.7710526 25.3894737,21.3039474 25.3894737,21.9552632 C25.3894737,22.6065789 26.2847368,23.1394737 27.3789474,23.1394737 C28.4731579,23.1394737 29.3684211,22.6065789 29.3684211,21.9552632 C29.3684211,21.3039474 28.4731579,20.7710526 27.3789474,20.7710526 Z M27.3789474,24.9157895 C26.8218947,24.9157895 26.3842105,25.1763158 26.3842105,25.5078947 C26.3842105,25.8394737 26.8218947,26.1 27.3789474,26.1 C27.936,26.1 28.3736842,25.8394737 28.3736842,25.5078947 C28.3736842,25.1763158 27.936,24.9157895 27.3789474,24.9157895 Z M19.4210526,10.7052632 C17.7697895,10.7052632 16.4368421,11.4986842 16.4368421,12.4815789 C16.4368421,13.4644737 17.7697895,14.2578947 19.4210526,14.2578947 C21.0723158,14.2578947 22.4052632,13.4644737 22.4052632,12.4815789 C22.4052632,11.4986842 21.0723158,10.7052632 19.4210526,10.7052632 Z M19.4210526,20.7710526 C18.3268421,20.7710526 17.4315789,21.3039474 17.4315789,21.9552632 C17.4315789,22.6065789 18.3268421,23.1394737 19.4210526,23.1394737 C20.5152632,23.1394737 21.4105263,22.6065789 21.4105263,21.9552632 C21.4105263,21.3039474 20.5152632,20.7710526 19.4210526,20.7710526 Z M27.3789474,15.4421053 C25.7276842,15.4421053 24.3947368,16.2355263 24.3947368,17.2184211 C24.3947368,18.2013158 25.7276842,18.9947368 27.3789474,18.9947368 C29.0302105,18.9947368 30.3631579,18.2013158 30.3631579,17.2184211 C30.3631579,16.2355263 29.0302105,15.4421053 27.3789474,15.4421053 Z M27.3789474,10.7052632 C25.7276842,10.7052632 24.3947368,11.4986842 24.3947368,12.4815789 C24.3947368,13.4644737 25.7276842,14.2578947 27.3789474,14.2578947 C29.0302105,14.2578947 30.3631579,13.4644737 30.3631579,12.4815789 C30.3631579,11.4986842 29.0302105,10.7052632 27.3789474,10.7052632 Z" id="Shape" fill="#FFFFFF" fill-rule="nonzero"></path>
                                            <polygon id="Shape" points="0 0 46.8 0 46.8 27.9 0 27.9"></polygon>
                                        </g>
                                    </g>
                                </g>
                            </g>
                            <g id="comp-text" transform="translate(460.787356, 194.561798) scale(-1, 1) translate(-460.787356, -194.561798) translate(432.287356, 166.561798)">
                                <g id="Group-17">
                                    <g id="Rectangle-9_Isometric" transform="translate(1.204598, 13.249438)">
                                        <polygon id="Rectangle-9_Left_Isometric" fill="#007AFF" points="19.2735632 18.0674157 0 8.43146067 0 2.40898876 19.2735632 12.0449438"></polygon>
                                        <polygon id="Rectangle-9_Right_Isometric" fill="#036BDD" points="19.2735632 18.0674157 24.091954 15.658427 24.091954 9.63595506 19.2735632 12.0449438"></polygon>
                                        <polygon id="Rectangle-9_Top_Isometric" fill="#3495FF" points="0 2.40898876 4.8183908 0 24.091954 9.63595506 19.2735632 12.0449438"></polygon>
                                    </g>
                                    <g id="Rectangle-9_Isometric" transform="translate(0.000000, 25.294382)">
                                        <polygon id="Rectangle-9_Left_Isometric" fill="#007AFF" points="24.091954 20.4764045 0 8.43146067 0 2.40898876 24.091954 14.4539326"></polygon>
                                        <polygon id="Rectangle-9_Right_Isometric" fill="#036BDD" points="24.091954 20.4764045 28.9103448 18.0674157 28.9103448 12.0449438 24.091954 14.4539326"></polygon>
                                        <polygon id="Rectangle-9_Top_Isometric" fill="#3495FF" points="0 2.40898876 4.8183908 0 28.9103448 12.0449438 24.091954 14.4539326"></polygon>
                                    </g>
                                    <g id="Rectangle-9_Isometric" transform="translate(31.319540, 28.907865)">
                                        <polygon id="Rectangle-9_Left_Isometric" fill="#007AFF" points="7.22758621 12.0449438 0 8.43146067 0 2.40898876 7.22758621 6.02247191"></polygon>
                                        <polygon id="Rectangle-9_Right_Isometric" fill="#036BDD" points="7.22758621 12.0449438 12.045977 9.63595506 12.045977 3.61348315 7.22758621 6.02247191"></polygon>
                                        <polygon id="Rectangle-9_Top_Isometric" fill="#3495FF" points="0 2.40898876 4.8183908 0 12.045977 3.61348315 7.22758621 6.02247191"></polygon>
                                    </g>
                                    <g id="Rectangle-9_Isometric" transform="translate(30.114943, 40.952809)">
                                        <polygon id="Rectangle-9_Left_Isometric" fill="#007AFF" points="12.045977 14.4539326 0 8.43146067 0 2.40898876 12.045977 8.43146067"></polygon>
                                        <polygon id="Rectangle-9_Right_Isometric" fill="#036BDD" points="12.045977 14.4539326 16.8643678 12.0449438 16.8643678 6.02247191 12.045977 8.43146067"></polygon>
                                        <polygon id="Rectangle-9_Top_Isometric" fill="#3495FF" points="0 2.40898876 4.8183908 0 16.8643678 6.02247191 12.045977 8.43146067"></polygon>
                                    </g>
                                    <g id="Rectangle-9_Isometric" transform="translate(1.204598, 0.000000)">
                                        <polygon id="Rectangle-9_Left_Isometric" fill="#007AFF" points="49.3885057 33.7258427 0 9.03370787 0 3.01123596 49.3885057 27.7033708"></polygon>
                                        <polygon id="Rectangle-9_Right_Isometric" fill="#036BDD" points="49.3885057 33.7258427 54.2068966 31.3168539 54.2068966 25.294382 49.3885057 27.7033708"></polygon>
                                        <polygon id="Rectangle-9_Top_Isometric" fill="#3495FF" points="0 3.01123596 4.8183908 0.602247191 54.2068966 25.294382 49.3885057 27.7033708"></polygon>
                                    </g>
                                </g>
                            </g>
                            <g id="connections" transform="translate(19.000000, 140.000000)">
                                <g id="connection" transform="translate(8.000000, 35.000000) scale(-1, 1) translate(-8.000000, -35.000000) ">
                                    <ellipse id="Oval-6" fill="#3A3A3A" cx="5" cy="3.5" rx="2" ry="3.5"></ellipse>
                                    <ellipse id="Oval-6" fill="#3A3A3A" cx="2" cy="62.5" rx="2" ry="3.5"></ellipse>
                                    <polyline id="Path-2" stroke="#3A3A3A" stroke-width="2" stroke-linecap="round" stroke-linejoin="round" points="4.89752855 3.04952973 15.3285573 8.31292924 15.3285573 69.7730823 1.32108392 62.3263181"></polyline>
                                </g>
                                <g id="connection" transform="translate(93.000000, 77.000000) scale(-1, 1) translate(-93.000000, -77.000000) translate(85.000000, 42.000000)">
                                    <ellipse id="Oval-6" fill="#3A3A3A" cx="5" cy="3.5" rx="2" ry="3.5"></ellipse>
                                    <ellipse id="Oval-6" fill="#3A3A3A" cx="2" cy="62.5" rx="2" ry="3.5"></ellipse>
                                    <polyline id="Path-2" stroke="#3A3A3A" stroke-width="2" stroke-linecap="round" stroke-linejoin="round" points="4.89752855 3.04952973 15.3285573 8.31292924 15.3285573 69.7730823 1.32108392 62.3263181"></polyline>
                                </g>
                                <g id="connection" transform="translate(179.000000, 118.000000) scale(-1, 1) translate(-179.000000, -118.000000) translate(171.000000, 83.000000)">
                                    <ellipse id="Oval-6" fill="#3A3A3A" cx="5" cy="3.5" rx="2" ry="3.5"></ellipse>
                                    <ellipse id="Oval-6" fill="#3A3A3A" cx="2" cy="62.5" rx="2" ry="3.5"></ellipse>
                                    <polyline id="Path-2" stroke="#3A3A3A" stroke-width="2" stroke-linecap="round" stroke-linejoin="round" points="4.89752855 3.04952973 15.3285573 8.31292924 15.3285573 69.7730823 1.32108392 62.3263181"></polyline>
                                </g>
                            </g>
                        </g>
                        <g id="Rectangle-9_Isometric" transform="translate(272.000000, 213.000000)">
                            <polygon id="Rectangle-9_Right_Isometric" fill="#007AFF" points="8 94 178 9 178 4 8 89"></polygon>
                            <polygon id="Rectangle-9_Left_Isometric" fill="#036BDD" points="8 94 0 90 0 85 8 89"></polygon>
                            <polygon id="Rectangle-9_Top_Isometric" fill="#3495FF" points="178 4 170 0 0 85 8 89"></polygon>
                        </g>
                    </g>
                </g>
            </g>
        </g>
    </g>
</svg>