<?xml version="1.0" encoding="UTF-8"?>
<svg width="80px" height="20px" viewBox="0 0 80 20" version="1.1" xmlns="http://www.w3.org/2000/svg" xmlns:xlink="http://www.w3.org/1999/xlink">
    <!-- Generator: Sketch 49 (51002) - http://www.bohemiancoding.com/sketch -->
    <title>icons</title>
    <desc>Created with Sketch.</desc>
    <defs></defs>
    <g id="Page-1" stroke="none" stroke-width="1" fill="none" fill-rule="evenodd" opacity="0.300000012">
        <g id="Market-v2" transform="translate(-850.000000, -1960.000000)">
            <g id="simulated-exchange" transform="translate(0.000000, 1747.000000)">
                <g id="text" transform="translate(844.000000, 211.000000)">
                    <g id="icons">
                        <g id="ic/attach_money/grey600">
                            <g id="ic_attach_money_24px">
                                <path d="M11.8,10.9 C9.53,10.31 8.8,9.7 8.8,8.75 C8.8,7.66 9.81,6.9 11.5,6.9 C13.28,6.9 13.94,7.75 14,9 L16.21,9 C16.14,7.28 15.09,5.7 13,5.19 L13,3 L10,3 L10,5.16 C8.06,5.58 6.5,6.84 6.5,8.77 C6.5,11.08 8.41,12.23 11.2,12.9 C13.7,13.5 14.2,14.38 14.2,15.31 C14.2,16 13.71,17.1 11.5,17.1 C9.44,17.1 8.63,16.18 8.52,15 L6.32,15 C6.44,17.19 8.08,18.42 10,18.83 L10,21 L13,21 L13,18.85 C14.95,18.48 16.5,17.35 16.5,15.3 C16.5,12.46 14.07,11.49 11.8,10.9 Z" id="Shape" fill="#757575" fill-rule="nonzero"></path>
                                <polygon id="Shape" points="0 0 24 0 24 24 0 24"></polygon>
                            </g>
                        </g>
                        <g id="ic/drive_text/grey600" transform="translate(31.000000, 0.000000)">
                            <g id="ic_drive_text_24px">
                                <polygon id="Shape" points="0 0 24 0 24 24 0 24"></polygon>
                                <path d="M14,2 L6,2 C4.9,2 4.01,2.9 4.01,4 L4,20 C4,21.1 4.89,22 5.99,22 L18,22 C19.1,22 20,21.1 20,20 L20,8 L14,2 Z M16,18 L8,18 L8,16 L16,16 L16,18 Z M16,14 L8,14 L8,12 L16,12 L16,14 Z M13,9 L13,3.5 L18.5,9 L13,9 Z" id="Shape" fill="#757575" fill-rule="nonzero"></path>
                            </g>
                        </g>
                        <g id="ic/account_balance_wallet/grey600" transform="translate(64.000000, 0.000000)">
                            <g id="ic_account_balance_wallet_24px">
                                <polygon id="Shape" points="0 0 24 0 24 24 0 24"></polygon>
                                <path d="M21,18 L21,19 C21,20.1 20.1,21 19,21 L5,21 C3.89,21 3,20.1 3,19 L3,5 C3,3.9 3.89,3 5,3 L19,3 C20.1,3 21,3.9 21,5 L21,6 L12,6 C10.89,6 10,6.9 10,8 L10,16 C10,17.1 10.89,18 12,18 L21,18 Z M12,16 L22,16 L22,8 L12,8 L12,16 Z M16,13.5 C15.17,13.5 14.5,12.83 14.5,12 C14.5,11.17 15.17,10.5 16,10.5 C16.83,10.5 17.5,11.17 17.5,12 C17.5,12.83 16.83,13.5 16,13.5 Z" id="Shape" fill="#757575" fill-rule="nonzero"></path>
                            </g>
                        </g>
                    </g>
                </g>
            </g>
        </g>
    </g>
</svg>