<?xml version="1.0" encoding="UTF-8"?>
<svg width="780px" height="760px" viewBox="0 0 780 760" version="1.1" xmlns="http://www.w3.org/2000/svg" xmlns:xlink="http://www.w3.org/1999/xlink">
    <!-- Generator: Sketch 49.3 (51167) - http://www.bohemiancoding.com/sketch -->
    <title>Group 8</title>
    <desc>Created with Sketch.</desc>
    <defs>
        <filter x="-18.5%" y="-14.5%" width="136.9%" height="157.8%" filterUnits="objectBoundingBox" id="filter-1">
            <feOffset dx="0" dy="48" in="SourceAlpha" result="shadowOffsetOuter1"></feOffset>
            <feGaussianBlur stdDeviation="24" in="shadowOffsetOuter1" result="shadowBlurOuter1"></feGaussianBlur>
            <feColorMatrix values="0 0 0 0 0   0 0 0 0 0   0 0 0 0 0  0 0 0 0.5 0" type="matrix" in="shadowBlurOuter1" result="shadowMatrixOuter1"></feColorMatrix>
            <feMerge>
                <feMergeNode in="shadowMatrixOuter1"></feMergeNode>
                <feMergeNode in="SourceGraphic"></feMergeNode>
            </feMerge>
        </filter>
    </defs>
    <g id="Page-1" stroke="none" stroke-width="1" fill="none" fill-rule="evenodd">
        <g id="Market-v3" transform="translate(0.000000, -1747.000000)">
            <g id="simulated-exchange" transform="translate(0.000000, 1233.000000)">
                <g id="Group-8" transform="translate(0.000000, 514.000000)">
                    <polygon id="big-base" fill="#0F1821" points="0 1.13686838e-13 759 380.447751 0 760"></polygon>
                    <g id="Group-5" transform="translate(187.000000, 133.000000)">
                        <polygon id="base" fill="#383F4C" points="0 247 287.5 103 575 247 287.5 391"></polygon>
                        <g id="sim_Isometric" filter="url(#filter-1)" transform="translate(25.000000, 0.000000)">
                            <polygon id="sim_Left_Isometric" fill="#677383" points="260 332 0 202 0 152 260 282"></polygon>
                            <polygon id="sim_Right_Isometric" fill="#445064" points="260 332 520 202 520 152 260 282"></polygon>
                            <polygon id="sim_Top_Isometric" fill="#909AA6" points="0 152 260 22 520 152 260 282"></polygon>
                            <g id="illustration" transform="translate(23.000000, 0.000000)">
                                <g id="contracts">
                                    <g id="Rectangle-7_Isometric" transform="translate(167.000000, 0.000000)">
                                        <polygon id="Rectangle-7_Left_Isometric" fill="#677383" points="63 99 0 67.5 0 31.5 63 63"></polygon>
                                        <polygon id="Rectangle-7_Right_Isometric" fill="#445064" points="63 99 126 67.5 126 31.5 63 63"></polygon>
                                        <polygon id="Rectangle-7_Top_Isometric" fill="#00FEE1" points="0 31.5 63 0 126 31.5 63 63"></polygon>
                                        <g id="contracts" transform="translate(37.800000, 16.200000)" fill="#000000" opacity="0.5">
                                            <g id="ic_blur_on_24px" transform="translate(4.500000, 3.600000)">
                                                <path d="M6.96315789,12.4342105 C5.86894737,12.4342105 4.97368421,12.9671053 4.97368421,13.6184211 C4.97368421,14.2697368 5.86894737,14.8026316 6.96315789,14.8026316 C8.05736842,14.8026316 8.95263158,14.2697368 8.95263158,13.6184211 C8.95263158,12.9671053 8.05736842,12.4342105 6.96315789,12.4342105 Z M6.96315789,17.1710526 C5.86894737,17.1710526 4.97368421,17.7039474 4.97368421,18.3552632 C4.97368421,19.0065789 5.86894737,19.5394737 6.96315789,19.5394737 C8.05736842,19.5394737 8.95263158,19.0065789 8.95263158,18.3552632 C8.95263158,17.7039474 8.05736842,17.1710526 6.96315789,17.1710526 Z M6.96315789,7.69736842 C5.86894737,7.69736842 4.97368421,8.23026316 4.97368421,8.88157895 C4.97368421,9.53289474 5.86894737,10.0657895 6.96315789,10.0657895 C8.05736842,10.0657895 8.95263158,9.53289474 8.95263158,8.88157895 C8.95263158,8.23026316 8.05736842,7.69736842 6.96315789,7.69736842 Z M0.994736842,8.28947368 C0.437684211,8.28947368 0,8.55 0,8.88157895 C0,9.21315789 0.437684211,9.47368421 0.994736842,9.47368421 C1.55178947,9.47368421 1.98947368,9.21315789 1.98947368,8.88157895 C1.98947368,8.55 1.55178947,8.28947368 0.994736842,8.28947368 Z M6.96315789,2.96052632 C5.86894737,2.96052632 4.97368421,3.49342105 4.97368421,4.14473684 C4.97368421,4.79605263 5.86894737,5.32894737 6.96315789,5.32894737 C8.05736842,5.32894737 8.95263158,4.79605263 8.95263158,4.14473684 C8.95263158,3.49342105 8.05736842,2.96052632 6.96315789,2.96052632 Z M36.8052632,9.47368421 C37.3623158,9.47368421 37.8,9.21315789 37.8,8.88157895 C37.8,8.55 37.3623158,8.28947368 36.8052632,8.28947368 C36.2482105,8.28947368 35.8105263,8.55 35.8105263,8.88157895 C35.8105263,9.21315789 36.2482105,9.47368421 36.8052632,9.47368421 Z M22.8789474,5.32894737 C23.9731579,5.32894737 24.8684211,4.79605263 24.8684211,4.14473684 C24.8684211,3.49342105 23.9731579,2.96052632 22.8789474,2.96052632 C21.7847368,2.96052632 20.8894737,3.49342105 20.8894737,4.14473684 C20.8894737,4.79605263 21.7847368,5.32894737 22.8789474,5.32894737 Z M22.8789474,1.18421053 C23.436,1.18421053 23.8736842,0.923684211 23.8736842,0.592105263 C23.8736842,0.260526316 23.436,0 22.8789474,0 C22.3218947,0 21.8842105,0.260526316 21.8842105,0.592105263 C21.8842105,0.923684211 22.3218947,1.18421053 22.8789474,1.18421053 Z M0.994736842,13.0263158 C0.437684211,13.0263158 0,13.2868421 0,13.6184211 C0,13.95 0.437684211,14.2105263 0.994736842,14.2105263 C1.55178947,14.2105263 1.98947368,13.95 1.98947368,13.6184211 C1.98947368,13.2868421 1.55178947,13.0263158 0.994736842,13.0263158 Z M14.9210526,21.3157895 C14.364,21.3157895 13.9263158,21.5763158 13.9263158,21.9078947 C13.9263158,22.2394737 14.364,22.5 14.9210526,22.5 C15.4781053,22.5 15.9157895,22.2394737 15.9157895,21.9078947 C15.9157895,21.5763158 15.4781053,21.3157895 14.9210526,21.3157895 Z M14.9210526,1.18421053 C15.4781053,1.18421053 15.9157895,0.923684211 15.9157895,0.592105263 C15.9157895,0.260526316 15.4781053,0 14.9210526,0 C14.364,0 13.9263158,0.260526316 13.9263158,0.592105263 C13.9263158,0.923684211 14.364,1.18421053 14.9210526,1.18421053 Z M14.9210526,5.32894737 C16.0152632,5.32894737 16.9105263,4.79605263 16.9105263,4.14473684 C16.9105263,3.49342105 16.0152632,2.96052632 14.9210526,2.96052632 C13.8268421,2.96052632 12.9315789,3.49342105 12.9315789,4.14473684 C12.9315789,4.79605263 13.8268421,5.32894737 14.9210526,5.32894737 Z M14.9210526,11.8421053 C13.2697895,11.8421053 11.9368421,12.6355263 11.9368421,13.6184211 C11.9368421,14.6013158 13.2697895,15.3947368 14.9210526,15.3947368 C16.5723158,15.3947368 17.9052632,14.6013158 17.9052632,13.6184211 C17.9052632,12.6355263 16.5723158,11.8421053 14.9210526,11.8421053 Z M30.8368421,12.4342105 C29.7426316,12.4342105 28.8473684,12.9671053 28.8473684,13.6184211 C28.8473684,14.2697368 29.7426316,14.8026316 30.8368421,14.8026316 C31.9310526,14.8026316 32.8263158,14.2697368 32.8263158,13.6184211 C32.8263158,12.9671053 31.9310526,12.4342105 30.8368421,12.4342105 Z M30.8368421,17.1710526 C29.7426316,17.1710526 28.8473684,17.7039474 28.8473684,18.3552632 C28.8473684,19.0065789 29.7426316,19.5394737 30.8368421,19.5394737 C31.9310526,19.5394737 32.8263158,19.0065789 32.8263158,18.3552632 C32.8263158,17.7039474 31.9310526,17.1710526 30.8368421,17.1710526 Z M30.8368421,7.69736842 C29.7426316,7.69736842 28.8473684,8.23026316 28.8473684,8.88157895 C28.8473684,9.53289474 29.7426316,10.0657895 30.8368421,10.0657895 C31.9310526,10.0657895 32.8263158,9.53289474 32.8263158,8.88157895 C32.8263158,8.23026316 31.9310526,7.69736842 30.8368421,7.69736842 Z M30.8368421,2.96052632 C29.7426316,2.96052632 28.8473684,3.49342105 28.8473684,4.14473684 C28.8473684,4.79605263 29.7426316,5.32894737 30.8368421,5.32894737 C31.9310526,5.32894737 32.8263158,4.79605263 32.8263158,4.14473684 C32.8263158,3.49342105 31.9310526,2.96052632 30.8368421,2.96052632 Z M36.8052632,13.0263158 C36.2482105,13.0263158 35.8105263,13.2868421 35.8105263,13.6184211 C35.8105263,13.95 36.2482105,14.2105263 36.8052632,14.2105263 C37.3623158,14.2105263 37.8,13.95 37.8,13.6184211 C37.8,13.2868421 37.3623158,13.0263158 36.8052632,13.0263158 Z M22.8789474,17.1710526 C21.7847368,17.1710526 20.8894737,17.7039474 20.8894737,18.3552632 C20.8894737,19.0065789 21.7847368,19.5394737 22.8789474,19.5394737 C23.9731579,19.5394737 24.8684211,19.0065789 24.8684211,18.3552632 C24.8684211,17.7039474 23.9731579,17.1710526 22.8789474,17.1710526 Z M22.8789474,21.3157895 C22.3218947,21.3157895 21.8842105,21.5763158 21.8842105,21.9078947 C21.8842105,22.2394737 22.3218947,22.5 22.8789474,22.5 C23.436,22.5 23.8736842,22.2394737 23.8736842,21.9078947 C23.8736842,21.5763158 23.436,21.3157895 22.8789474,21.3157895 Z M14.9210526,7.10526316 C13.2697895,7.10526316 11.9368421,7.89868421 11.9368421,8.88157895 C11.9368421,9.86447368 13.2697895,10.6578947 14.9210526,10.6578947 C16.5723158,10.6578947 17.9052632,9.86447368 17.9052632,8.88157895 C17.9052632,7.89868421 16.5723158,7.10526316 14.9210526,7.10526316 Z M14.9210526,17.1710526 C13.8268421,17.1710526 12.9315789,17.7039474 12.9315789,18.3552632 C12.9315789,19.0065789 13.8268421,19.5394737 14.9210526,19.5394737 C16.0152632,19.5394737 16.9105263,19.0065789 16.9105263,18.3552632 C16.9105263,17.7039474 16.0152632,17.1710526 14.9210526,17.1710526 Z M22.8789474,11.8421053 C21.2276842,11.8421053 19.8947368,12.6355263 19.8947368,13.6184211 C19.8947368,14.6013158 21.2276842,15.3947368 22.8789474,15.3947368 C24.5302105,15.3947368 25.8631579,14.6013158 25.8631579,13.6184211 C25.8631579,12.6355263 24.5302105,11.8421053 22.8789474,11.8421053 Z M22.8789474,7.10526316 C21.2276842,7.10526316 19.8947368,7.89868421 19.8947368,8.88157895 C19.8947368,9.86447368 21.2276842,10.6578947 22.8789474,10.6578947 C24.5302105,10.6578947 25.8631579,9.86447368 25.8631579,8.88157895 C25.8631579,7.89868421 24.5302105,7.10526316 22.8789474,7.10526316 Z" id="Shape" fill-rule="nonzero"></path>
                                            </g>
                                        </g>
                                    </g>
                                    <g id="Rectangle-7_Isometric" transform="translate(84.000000, 41.000000)">
                                        <polygon id="Rectangle-7_Left_Isometric" fill="#677383" points="63 99 0 67.5 0 31.5 63 63"></polygon>
                                        <polygon id="Rectangle-7_Right_Isometric" fill="#445064" points="63 99 126 67.5 126 31.5 63 63"></polygon>
                                        <polygon id="Rectangle-7_Top_Isometric" fill="#00FEE1" points="0 31.5 63 0 126 31.5 63 63"></polygon>
                                        <g id="contracts" transform="translate(37.800000, 16.200000)" fill="#000000" opacity="0.5">
                                            <g id="ic_blur_on_24px" transform="translate(4.500000, 3.600000)">
                                                <path d="M6.96315789,12.4342105 C5.86894737,12.4342105 4.97368421,12.9671053 4.97368421,13.6184211 C4.97368421,14.2697368 5.86894737,14.8026316 6.96315789,14.8026316 C8.05736842,14.8026316 8.95263158,14.2697368 8.95263158,13.6184211 C8.95263158,12.9671053 8.05736842,12.4342105 6.96315789,12.4342105 Z M6.96315789,17.1710526 C5.86894737,17.1710526 4.97368421,17.7039474 4.97368421,18.3552632 C4.97368421,19.0065789 5.86894737,19.5394737 6.96315789,19.5394737 C8.05736842,19.5394737 8.95263158,19.0065789 8.95263158,18.3552632 C8.95263158,17.7039474 8.05736842,17.1710526 6.96315789,17.1710526 Z M6.96315789,7.69736842 C5.86894737,7.69736842 4.97368421,8.23026316 4.97368421,8.88157895 C4.97368421,9.53289474 5.86894737,10.0657895 6.96315789,10.0657895 C8.05736842,10.0657895 8.95263158,9.53289474 8.95263158,8.88157895 C8.95263158,8.23026316 8.05736842,7.69736842 6.96315789,7.69736842 Z M0.994736842,8.28947368 C0.437684211,8.28947368 0,8.55 0,8.88157895 C0,9.21315789 0.437684211,9.47368421 0.994736842,9.47368421 C1.55178947,9.47368421 1.98947368,9.21315789 1.98947368,8.88157895 C1.98947368,8.55 1.55178947,8.28947368 0.994736842,8.28947368 Z M6.96315789,2.96052632 C5.86894737,2.96052632 4.97368421,3.49342105 4.97368421,4.14473684 C4.97368421,4.79605263 5.86894737,5.32894737 6.96315789,5.32894737 C8.05736842,5.32894737 8.95263158,4.79605263 8.95263158,4.14473684 C8.95263158,3.49342105 8.05736842,2.96052632 6.96315789,2.96052632 Z M36.8052632,9.47368421 C37.3623158,9.47368421 37.8,9.21315789 37.8,8.88157895 C37.8,8.55 37.3623158,8.28947368 36.8052632,8.28947368 C36.2482105,8.28947368 35.8105263,8.55 35.8105263,8.88157895 C35.8105263,9.21315789 36.2482105,9.47368421 36.8052632,9.47368421 Z M22.8789474,5.32894737 C23.9731579,5.32894737 24.8684211,4.79605263 24.8684211,4.14473684 C24.8684211,3.49342105 23.9731579,2.96052632 22.8789474,2.96052632 C21.7847368,2.96052632 20.8894737,3.49342105 20.8894737,4.14473684 C20.8894737,4.79605263 21.7847368,5.32894737 22.8789474,5.32894737 Z M22.8789474,1.18421053 C23.436,1.18421053 23.8736842,0.923684211 23.8736842,0.592105263 C23.8736842,0.260526316 23.436,0 22.8789474,0 C22.3218947,0 21.8842105,0.260526316 21.8842105,0.592105263 C21.8842105,0.923684211 22.3218947,1.18421053 22.8789474,1.18421053 Z M0.994736842,13.0263158 C0.437684211,13.0263158 0,13.2868421 0,13.6184211 C0,13.95 0.437684211,14.2105263 0.994736842,14.2105263 C1.55178947,14.2105263 1.98947368,13.95 1.98947368,13.6184211 C1.98947368,13.2868421 1.55178947,13.0263158 0.994736842,13.0263158 Z M14.9210526,21.3157895 C14.364,21.3157895 13.9263158,21.5763158 13.9263158,21.9078947 C13.9263158,22.2394737 14.364,22.5 14.9210526,22.5 C15.4781053,22.5 15.9157895,22.2394737 15.9157895,21.9078947 C15.9157895,21.5763158 15.4781053,21.3157895 14.9210526,21.3157895 Z M14.9210526,1.18421053 C15.4781053,1.18421053 15.9157895,0.923684211 15.9157895,0.592105263 C15.9157895,0.260526316 15.4781053,0 14.9210526,0 C14.364,0 13.9263158,0.260526316 13.9263158,0.592105263 C13.9263158,0.923684211 14.364,1.18421053 14.9210526,1.18421053 Z M14.9210526,5.32894737 C16.0152632,5.32894737 16.9105263,4.79605263 16.9105263,4.14473684 C16.9105263,3.49342105 16.0152632,2.96052632 14.9210526,2.96052632 C13.8268421,2.96052632 12.9315789,3.49342105 12.9315789,4.14473684 C12.9315789,4.79605263 13.8268421,5.32894737 14.9210526,5.32894737 Z M14.9210526,11.8421053 C13.2697895,11.8421053 11.9368421,12.6355263 11.9368421,13.6184211 C11.9368421,14.6013158 13.2697895,15.3947368 14.9210526,15.3947368 C16.5723158,15.3947368 17.9052632,14.6013158 17.9052632,13.6184211 C17.9052632,12.6355263 16.5723158,11.8421053 14.9210526,11.8421053 Z M30.8368421,12.4342105 C29.7426316,12.4342105 28.8473684,12.9671053 28.8473684,13.6184211 C28.8473684,14.2697368 29.7426316,14.8026316 30.8368421,14.8026316 C31.9310526,14.8026316 32.8263158,14.2697368 32.8263158,13.6184211 C32.8263158,12.9671053 31.9310526,12.4342105 30.8368421,12.4342105 Z M30.8368421,17.1710526 C29.7426316,17.1710526 28.8473684,17.7039474 28.8473684,18.3552632 C28.8473684,19.0065789 29.7426316,19.5394737 30.8368421,19.5394737 C31.9310526,19.5394737 32.8263158,19.0065789 32.8263158,18.3552632 C32.8263158,17.7039474 31.9310526,17.1710526 30.8368421,17.1710526 Z M30.8368421,7.69736842 C29.7426316,7.69736842 28.8473684,8.23026316 28.8473684,8.88157895 C28.8473684,9.53289474 29.7426316,10.0657895 30.8368421,10.0657895 C31.9310526,10.0657895 32.8263158,9.53289474 32.8263158,8.88157895 C32.8263158,8.23026316 31.9310526,7.69736842 30.8368421,7.69736842 Z M30.8368421,2.96052632 C29.7426316,2.96052632 28.8473684,3.49342105 28.8473684,4.14473684 C28.8473684,4.79605263 29.7426316,5.32894737 30.8368421,5.32894737 C31.9310526,5.32894737 32.8263158,4.79605263 32.8263158,4.14473684 C32.8263158,3.49342105 31.9310526,2.96052632 30.8368421,2.96052632 Z M36.8052632,13.0263158 C36.2482105,13.0263158 35.8105263,13.2868421 35.8105263,13.6184211 C35.8105263,13.95 36.2482105,14.2105263 36.8052632,14.2105263 C37.3623158,14.2105263 37.8,13.95 37.8,13.6184211 C37.8,13.2868421 37.3623158,13.0263158 36.8052632,13.0263158 Z M22.8789474,17.1710526 C21.7847368,17.1710526 20.8894737,17.7039474 20.8894737,18.3552632 C20.8894737,19.0065789 21.7847368,19.5394737 22.8789474,19.5394737 C23.9731579,19.5394737 24.8684211,19.0065789 24.8684211,18.3552632 C24.8684211,17.7039474 23.9731579,17.1710526 22.8789474,17.1710526 Z M22.8789474,21.3157895 C22.3218947,21.3157895 21.8842105,21.5763158 21.8842105,21.9078947 C21.8842105,22.2394737 22.3218947,22.5 22.8789474,22.5 C23.436,22.5 23.8736842,22.2394737 23.8736842,21.9078947 C23.8736842,21.5763158 23.436,21.3157895 22.8789474,21.3157895 Z M14.9210526,7.10526316 C13.2697895,7.10526316 11.9368421,7.89868421 11.9368421,8.88157895 C11.9368421,9.86447368 13.2697895,10.6578947 14.9210526,10.6578947 C16.5723158,10.6578947 17.9052632,9.86447368 17.9052632,8.88157895 C17.9052632,7.89868421 16.5723158,7.10526316 14.9210526,7.10526316 Z M14.9210526,17.1710526 C13.8268421,17.1710526 12.9315789,17.7039474 12.9315789,18.3552632 C12.9315789,19.0065789 13.8268421,19.5394737 14.9210526,19.5394737 C16.0152632,19.5394737 16.9105263,19.0065789 16.9105263,18.3552632 C16.9105263,17.7039474 16.0152632,17.1710526 14.9210526,17.1710526 Z M22.8789474,11.8421053 C21.2276842,11.8421053 19.8947368,12.6355263 19.8947368,13.6184211 C19.8947368,14.6013158 21.2276842,15.3947368 22.8789474,15.3947368 C24.5302105,15.3947368 25.8631579,14.6013158 25.8631579,13.6184211 C25.8631579,12.6355263 24.5302105,11.8421053 22.8789474,11.8421053 Z M22.8789474,7.10526316 C21.2276842,7.10526316 19.8947368,7.89868421 19.8947368,8.88157895 C19.8947368,9.86447368 21.2276842,10.6578947 22.8789474,10.6578947 C24.5302105,10.6578947 25.8631579,9.86447368 25.8631579,8.88157895 C25.8631579,7.89868421 24.5302105,7.10526316 22.8789474,7.10526316 Z" id="Shape" fill-rule="nonzero"></path>
                                            </g>
                                        </g>
                                    </g>
                                    <g id="Rectangle-7_Isometric" transform="translate(0.000000, 83.000000)">
                                        <polygon id="Rectangle-7_Left_Isometric" fill="#677383" points="63 99 0 67.5 0 31.5 63 63"></polygon>
                                        <polygon id="Rectangle-7_Right_Isometric" fill="#445064" points="63 99 126 67.5 126 31.5 63 63"></polygon>
                                        <polygon id="Rectangle-7_Top_Isometric" fill="#00FEE1" points="0 31.5 63 0 126 31.5 63 63"></polygon>
                                        <g id="contracts" transform="translate(37.800000, 16.200000)" fill="#000000" opacity="0.5">
                                            <g id="ic_blur_on_24px" transform="translate(4.500000, 3.600000)">
                                                <path d="M6.96315789,12.4342105 C5.86894737,12.4342105 4.97368421,12.9671053 4.97368421,13.6184211 C4.97368421,14.2697368 5.86894737,14.8026316 6.96315789,14.8026316 C8.05736842,14.8026316 8.95263158,14.2697368 8.95263158,13.6184211 C8.95263158,12.9671053 8.05736842,12.4342105 6.96315789,12.4342105 Z M6.96315789,17.1710526 C5.86894737,17.1710526 4.97368421,17.7039474 4.97368421,18.3552632 C4.97368421,19.0065789 5.86894737,19.5394737 6.96315789,19.5394737 C8.05736842,19.5394737 8.95263158,19.0065789 8.95263158,18.3552632 C8.95263158,17.7039474 8.05736842,17.1710526 6.96315789,17.1710526 Z M6.96315789,7.69736842 C5.86894737,7.69736842 4.97368421,8.23026316 4.97368421,8.88157895 C4.97368421,9.53289474 5.86894737,10.0657895 6.96315789,10.0657895 C8.05736842,10.0657895 8.95263158,9.53289474 8.95263158,8.88157895 C8.95263158,8.23026316 8.05736842,7.69736842 6.96315789,7.69736842 Z M0.994736842,8.28947368 C0.437684211,8.28947368 0,8.55 0,8.88157895 C0,9.21315789 0.437684211,9.47368421 0.994736842,9.47368421 C1.55178947,9.47368421 1.98947368,9.21315789 1.98947368,8.88157895 C1.98947368,8.55 1.55178947,8.28947368 0.994736842,8.28947368 Z M6.96315789,2.96052632 C5.86894737,2.96052632 4.97368421,3.49342105 4.97368421,4.14473684 C4.97368421,4.79605263 5.86894737,5.32894737 6.96315789,5.32894737 C8.05736842,5.32894737 8.95263158,4.79605263 8.95263158,4.14473684 C8.95263158,3.49342105 8.05736842,2.96052632 6.96315789,2.96052632 Z M36.8052632,9.47368421 C37.3623158,9.47368421 37.8,9.21315789 37.8,8.88157895 C37.8,8.55 37.3623158,8.28947368 36.8052632,8.28947368 C36.2482105,8.28947368 35.8105263,8.55 35.8105263,8.88157895 C35.8105263,9.21315789 36.2482105,9.47368421 36.8052632,9.47368421 Z M22.8789474,5.32894737 C23.9731579,5.32894737 24.8684211,4.79605263 24.8684211,4.14473684 C24.8684211,3.49342105 23.9731579,2.96052632 22.8789474,2.96052632 C21.7847368,2.96052632 20.8894737,3.49342105 20.8894737,4.14473684 C20.8894737,4.79605263 21.7847368,5.32894737 22.8789474,5.32894737 Z M22.8789474,1.18421053 C23.436,1.18421053 23.8736842,0.923684211 23.8736842,0.592105263 C23.8736842,0.260526316 23.436,0 22.8789474,0 C22.3218947,0 21.8842105,0.260526316 21.8842105,0.592105263 C21.8842105,0.923684211 22.3218947,1.18421053 22.8789474,1.18421053 Z M0.994736842,13.0263158 C0.437684211,13.0263158 0,13.2868421 0,13.6184211 C0,13.95 0.437684211,14.2105263 0.994736842,14.2105263 C1.55178947,14.2105263 1.98947368,13.95 1.98947368,13.6184211 C1.98947368,13.2868421 1.55178947,13.0263158 0.994736842,13.0263158 Z M14.9210526,21.3157895 C14.364,21.3157895 13.9263158,21.5763158 13.9263158,21.9078947 C13.9263158,22.2394737 14.364,22.5 14.9210526,22.5 C15.4781053,22.5 15.9157895,22.2394737 15.9157895,21.9078947 C15.9157895,21.5763158 15.4781053,21.3157895 14.9210526,21.3157895 Z M14.9210526,1.18421053 C15.4781053,1.18421053 15.9157895,0.923684211 15.9157895,0.592105263 C15.9157895,0.260526316 15.4781053,0 14.9210526,0 C14.364,0 13.9263158,0.260526316 13.9263158,0.592105263 C13.9263158,0.923684211 14.364,1.18421053 14.9210526,1.18421053 Z M14.9210526,5.32894737 C16.0152632,5.32894737 16.9105263,4.79605263 16.9105263,4.14473684 C16.9105263,3.49342105 16.0152632,2.96052632 14.9210526,2.96052632 C13.8268421,2.96052632 12.9315789,3.49342105 12.9315789,4.14473684 C12.9315789,4.79605263 13.8268421,5.32894737 14.9210526,5.32894737 Z M14.9210526,11.8421053 C13.2697895,11.8421053 11.9368421,12.6355263 11.9368421,13.6184211 C11.9368421,14.6013158 13.2697895,15.3947368 14.9210526,15.3947368 C16.5723158,15.3947368 17.9052632,14.6013158 17.9052632,13.6184211 C17.9052632,12.6355263 16.5723158,11.8421053 14.9210526,11.8421053 Z M30.8368421,12.4342105 C29.7426316,12.4342105 28.8473684,12.9671053 28.8473684,13.6184211 C28.8473684,14.2697368 29.7426316,14.8026316 30.8368421,14.8026316 C31.9310526,14.8026316 32.8263158,14.2697368 32.8263158,13.6184211 C32.8263158,12.9671053 31.9310526,12.4342105 30.8368421,12.4342105 Z M30.8368421,17.1710526 C29.7426316,17.1710526 28.8473684,17.7039474 28.8473684,18.3552632 C28.8473684,19.0065789 29.7426316,19.5394737 30.8368421,19.5394737 C31.9310526,19.5394737 32.8263158,19.0065789 32.8263158,18.3552632 C32.8263158,17.7039474 31.9310526,17.1710526 30.8368421,17.1710526 Z M30.8368421,7.69736842 C29.7426316,7.69736842 28.8473684,8.23026316 28.8473684,8.88157895 C28.8473684,9.53289474 29.7426316,10.0657895 30.8368421,10.0657895 C31.9310526,10.0657895 32.8263158,9.53289474 32.8263158,8.88157895 C32.8263158,8.23026316 31.9310526,7.69736842 30.8368421,7.69736842 Z M30.8368421,2.96052632 C29.7426316,2.96052632 28.8473684,3.49342105 28.8473684,4.14473684 C28.8473684,4.79605263 29.7426316,5.32894737 30.8368421,5.32894737 C31.9310526,5.32894737 32.8263158,4.79605263 32.8263158,4.14473684 C32.8263158,3.49342105 31.9310526,2.96052632 30.8368421,2.96052632 Z M36.8052632,13.0263158 C36.2482105,13.0263158 35.8105263,13.2868421 35.8105263,13.6184211 C35.8105263,13.95 36.2482105,14.2105263 36.8052632,14.2105263 C37.3623158,14.2105263 37.8,13.95 37.8,13.6184211 C37.8,13.2868421 37.3623158,13.0263158 36.8052632,13.0263158 Z M22.8789474,17.1710526 C21.7847368,17.1710526 20.8894737,17.7039474 20.8894737,18.3552632 C20.8894737,19.0065789 21.7847368,19.5394737 22.8789474,19.5394737 C23.9731579,19.5394737 24.8684211,19.0065789 24.8684211,18.3552632 C24.8684211,17.7039474 23.9731579,17.1710526 22.8789474,17.1710526 Z M22.8789474,21.3157895 C22.3218947,21.3157895 21.8842105,21.5763158 21.8842105,21.9078947 C21.8842105,22.2394737 22.3218947,22.5 22.8789474,22.5 C23.436,22.5 23.8736842,22.2394737 23.8736842,21.9078947 C23.8736842,21.5763158 23.436,21.3157895 22.8789474,21.3157895 Z M14.9210526,7.10526316 C13.2697895,7.10526316 11.9368421,7.89868421 11.9368421,8.88157895 C11.9368421,9.86447368 13.2697895,10.6578947 14.9210526,10.6578947 C16.5723158,10.6578947 17.9052632,9.86447368 17.9052632,8.88157895 C17.9052632,7.89868421 16.5723158,7.10526316 14.9210526,7.10526316 Z M14.9210526,17.1710526 C13.8268421,17.1710526 12.9315789,17.7039474 12.9315789,18.3552632 C12.9315789,19.0065789 13.8268421,19.5394737 14.9210526,19.5394737 C16.0152632,19.5394737 16.9105263,19.0065789 16.9105263,18.3552632 C16.9105263,17.7039474 16.0152632,17.1710526 14.9210526,17.1710526 Z M22.8789474,11.8421053 C21.2276842,11.8421053 19.8947368,12.6355263 19.8947368,13.6184211 C19.8947368,14.6013158 21.2276842,15.3947368 22.8789474,15.3947368 C24.5302105,15.3947368 25.8631579,14.6013158 25.8631579,13.6184211 C25.8631579,12.6355263 24.5302105,11.8421053 22.8789474,11.8421053 Z M22.8789474,7.10526316 C21.2276842,7.10526316 19.8947368,7.89868421 19.8947368,8.88157895 C19.8947368,9.86447368 21.2276842,10.6578947 22.8789474,10.6578947 C24.5302105,10.6578947 25.8631579,9.86447368 25.8631579,8.88157895 C25.8631579,7.89868421 24.5302105,7.10526316 22.8789474,7.10526316 Z" id="Shape" fill-rule="nonzero"></path>
                                            </g>
                                        </g>
                                    </g>
                                    <g id="Rectangle-7_Isometric" transform="translate(254.000000, 41.000000)">
                                        <polygon id="Rectangle-7_Left_Isometric" fill="#677383" points="63 99 0 67.5 0 31.5 63 63"></polygon>
                                        <polygon id="Rectangle-7_Right_Isometric" fill="#445064" points="63 99 126 67.5 126 31.5 63 63"></polygon>
                                        <polygon id="Rectangle-7_Top_Isometric" fill="#00E3C1" points="0 31.5 63 0 126 31.5 63 63"></polygon>
                                        <g id="contracts" transform="translate(37.800000, 16.200000)" fill="#000000" opacity="0.5">
                                            <g id="ic_blur_on_24px" transform="translate(4.500000, 3.600000)">
                                                <path d="M6.96315789,12.4342105 C5.86894737,12.4342105 4.97368421,12.9671053 4.97368421,13.6184211 C4.97368421,14.2697368 5.86894737,14.8026316 6.96315789,14.8026316 C8.05736842,14.8026316 8.95263158,14.2697368 8.95263158,13.6184211 C8.95263158,12.9671053 8.05736842,12.4342105 6.96315789,12.4342105 Z M6.96315789,17.1710526 C5.86894737,17.1710526 4.97368421,17.7039474 4.97368421,18.3552632 C4.97368421,19.0065789 5.86894737,19.5394737 6.96315789,19.5394737 C8.05736842,19.5394737 8.95263158,19.0065789 8.95263158,18.3552632 C8.95263158,17.7039474 8.05736842,17.1710526 6.96315789,17.1710526 Z M6.96315789,7.69736842 C5.86894737,7.69736842 4.97368421,8.23026316 4.97368421,8.88157895 C4.97368421,9.53289474 5.86894737,10.0657895 6.96315789,10.0657895 C8.05736842,10.0657895 8.95263158,9.53289474 8.95263158,8.88157895 C8.95263158,8.23026316 8.05736842,7.69736842 6.96315789,7.69736842 Z M0.994736842,8.28947368 C0.437684211,8.28947368 0,8.55 0,8.88157895 C0,9.21315789 0.437684211,9.47368421 0.994736842,9.47368421 C1.55178947,9.47368421 1.98947368,9.21315789 1.98947368,8.88157895 C1.98947368,8.55 1.55178947,8.28947368 0.994736842,8.28947368 Z M6.96315789,2.96052632 C5.86894737,2.96052632 4.97368421,3.49342105 4.97368421,4.14473684 C4.97368421,4.79605263 5.86894737,5.32894737 6.96315789,5.32894737 C8.05736842,5.32894737 8.95263158,4.79605263 8.95263158,4.14473684 C8.95263158,3.49342105 8.05736842,2.96052632 6.96315789,2.96052632 Z M36.8052632,9.47368421 C37.3623158,9.47368421 37.8,9.21315789 37.8,8.88157895 C37.8,8.55 37.3623158,8.28947368 36.8052632,8.28947368 C36.2482105,8.28947368 35.8105263,8.55 35.8105263,8.88157895 C35.8105263,9.21315789 36.2482105,9.47368421 36.8052632,9.47368421 Z M22.8789474,5.32894737 C23.9731579,5.32894737 24.8684211,4.79605263 24.8684211,4.14473684 C24.8684211,3.49342105 23.9731579,2.96052632 22.8789474,2.96052632 C21.7847368,2.96052632 20.8894737,3.49342105 20.8894737,4.14473684 C20.8894737,4.79605263 21.7847368,5.32894737 22.8789474,5.32894737 Z M22.8789474,1.18421053 C23.436,1.18421053 23.8736842,0.923684211 23.8736842,0.592105263 C23.8736842,0.260526316 23.436,0 22.8789474,0 C22.3218947,0 21.8842105,0.260526316 21.8842105,0.592105263 C21.8842105,0.923684211 22.3218947,1.18421053 22.8789474,1.18421053 Z M0.994736842,13.0263158 C0.437684211,13.0263158 0,13.2868421 0,13.6184211 C0,13.95 0.437684211,14.2105263 0.994736842,14.2105263 C1.55178947,14.2105263 1.98947368,13.95 1.98947368,13.6184211 C1.98947368,13.2868421 1.55178947,13.0263158 0.994736842,13.0263158 Z M14.9210526,21.3157895 C14.364,21.3157895 13.9263158,21.5763158 13.9263158,21.9078947 C13.9263158,22.2394737 14.364,22.5 14.9210526,22.5 C15.4781053,22.5 15.9157895,22.2394737 15.9157895,21.9078947 C15.9157895,21.5763158 15.4781053,21.3157895 14.9210526,21.3157895 Z M14.9210526,1.18421053 C15.4781053,1.18421053 15.9157895,0.923684211 15.9157895,0.592105263 C15.9157895,0.260526316 15.4781053,0 14.9210526,0 C14.364,0 13.9263158,0.260526316 13.9263158,0.592105263 C13.9263158,0.923684211 14.364,1.18421053 14.9210526,1.18421053 Z M14.9210526,5.32894737 C16.0152632,5.32894737 16.9105263,4.79605263 16.9105263,4.14473684 C16.9105263,3.49342105 16.0152632,2.96052632 14.9210526,2.96052632 C13.8268421,2.96052632 12.9315789,3.49342105 12.9315789,4.14473684 C12.9315789,4.79605263 13.8268421,5.32894737 14.9210526,5.32894737 Z M14.9210526,11.8421053 C13.2697895,11.8421053 11.9368421,12.6355263 11.9368421,13.6184211 C11.9368421,14.6013158 13.2697895,15.3947368 14.9210526,15.3947368 C16.5723158,15.3947368 17.9052632,14.6013158 17.9052632,13.6184211 C17.9052632,12.6355263 16.5723158,11.8421053 14.9210526,11.8421053 Z M30.8368421,12.4342105 C29.7426316,12.4342105 28.8473684,12.9671053 28.8473684,13.6184211 C28.8473684,14.2697368 29.7426316,14.8026316 30.8368421,14.8026316 C31.9310526,14.8026316 32.8263158,14.2697368 32.8263158,13.6184211 C32.8263158,12.9671053 31.9310526,12.4342105 30.8368421,12.4342105 Z M30.8368421,17.1710526 C29.7426316,17.1710526 28.8473684,17.7039474 28.8473684,18.3552632 C28.8473684,19.0065789 29.7426316,19.5394737 30.8368421,19.5394737 C31.9310526,19.5394737 32.8263158,19.0065789 32.8263158,18.3552632 C32.8263158,17.7039474 31.9310526,17.1710526 30.8368421,17.1710526 Z M30.8368421,7.69736842 C29.7426316,7.69736842 28.8473684,8.23026316 28.8473684,8.88157895 C28.8473684,9.53289474 29.7426316,10.0657895 30.8368421,10.0657895 C31.9310526,10.0657895 32.8263158,9.53289474 32.8263158,8.88157895 C32.8263158,8.23026316 31.9310526,7.69736842 30.8368421,7.69736842 Z M30.8368421,2.96052632 C29.7426316,2.96052632 28.8473684,3.49342105 28.8473684,4.14473684 C28.8473684,4.79605263 29.7426316,5.32894737 30.8368421,5.32894737 C31.9310526,5.32894737 32.8263158,4.79605263 32.8263158,4.14473684 C32.8263158,3.49342105 31.9310526,2.96052632 30.8368421,2.96052632 Z M36.8052632,13.0263158 C36.2482105,13.0263158 35.8105263,13.2868421 35.8105263,13.6184211 C35.8105263,13.95 36.2482105,14.2105263 36.8052632,14.2105263 C37.3623158,14.2105263 37.8,13.95 37.8,13.6184211 C37.8,13.2868421 37.3623158,13.0263158 36.8052632,13.0263158 Z M22.8789474,17.1710526 C21.7847368,17.1710526 20.8894737,17.7039474 20.8894737,18.3552632 C20.8894737,19.0065789 21.7847368,19.5394737 22.8789474,19.5394737 C23.9731579,19.5394737 24.8684211,19.0065789 24.8684211,18.3552632 C24.8684211,17.7039474 23.9731579,17.1710526 22.8789474,17.1710526 Z M22.8789474,21.3157895 C22.3218947,21.3157895 21.8842105,21.5763158 21.8842105,21.9078947 C21.8842105,22.2394737 22.3218947,22.5 22.8789474,22.5 C23.436,22.5 23.8736842,22.2394737 23.8736842,21.9078947 C23.8736842,21.5763158 23.436,21.3157895 22.8789474,21.3157895 Z M14.9210526,7.10526316 C13.2697895,7.10526316 11.9368421,7.89868421 11.9368421,8.88157895 C11.9368421,9.86447368 13.2697895,10.6578947 14.9210526,10.6578947 C16.5723158,10.6578947 17.9052632,9.86447368 17.9052632,8.88157895 C17.9052632,7.89868421 16.5723158,7.10526316 14.9210526,7.10526316 Z M14.9210526,17.1710526 C13.8268421,17.1710526 12.9315789,17.7039474 12.9315789,18.3552632 C12.9315789,19.0065789 13.8268421,19.5394737 14.9210526,19.5394737 C16.0152632,19.5394737 16.9105263,19.0065789 16.9105263,18.3552632 C16.9105263,17.7039474 16.0152632,17.1710526 14.9210526,17.1710526 Z M22.8789474,11.8421053 C21.2276842,11.8421053 19.8947368,12.6355263 19.8947368,13.6184211 C19.8947368,14.6013158 21.2276842,15.3947368 22.8789474,15.3947368 C24.5302105,15.3947368 25.8631579,14.6013158 25.8631579,13.6184211 C25.8631579,12.6355263 24.5302105,11.8421053 22.8789474,11.8421053 Z M22.8789474,7.10526316 C21.2276842,7.10526316 19.8947368,7.89868421 19.8947368,8.88157895 C19.8947368,9.86447368 21.2276842,10.6578947 22.8789474,10.6578947 C24.5302105,10.6578947 25.8631579,9.86447368 25.8631579,8.88157895 C25.8631579,7.89868421 24.5302105,7.10526316 22.8789474,7.10526316 Z" id="Shape" fill-rule="nonzero"></path>
                                            </g>
                                        </g>
                                    </g>
                                    <g id="Rectangle-7_Isometric" transform="translate(171.000000, 82.000000)">
                                        <polygon id="Rectangle-7_Left_Isometric" fill="#677383" points="63 99 0 67.5 0 31.5 63 63"></polygon>
                                        <polygon id="Rectangle-7_Right_Isometric" fill="#445064" points="63 99 126 67.5 126 31.5 63 63"></polygon>
                                        <polygon id="Rectangle-7_Top_Isometric" fill="#00FEE1" points="0 31.5 63 0 126 31.5 63 63"></polygon>
                                        <g id="contracts" transform="translate(37.800000, 16.200000)" fill="#000000" opacity="0.5">
                                            <g id="ic_blur_on_24px" transform="translate(4.500000, 3.600000)">
                                                <path d="M6.96315789,12.4342105 C5.86894737,12.4342105 4.97368421,12.9671053 4.97368421,13.6184211 C4.97368421,14.2697368 5.86894737,14.8026316 6.96315789,14.8026316 C8.05736842,14.8026316 8.95263158,14.2697368 8.95263158,13.6184211 C8.95263158,12.9671053 8.05736842,12.4342105 6.96315789,12.4342105 Z M6.96315789,17.1710526 C5.86894737,17.1710526 4.97368421,17.7039474 4.97368421,18.3552632 C4.97368421,19.0065789 5.86894737,19.5394737 6.96315789,19.5394737 C8.05736842,19.5394737 8.95263158,19.0065789 8.95263158,18.3552632 C8.95263158,17.7039474 8.05736842,17.1710526 6.96315789,17.1710526 Z M6.96315789,7.69736842 C5.86894737,7.69736842 4.97368421,8.23026316 4.97368421,8.88157895 C4.97368421,9.53289474 5.86894737,10.0657895 6.96315789,10.0657895 C8.05736842,10.0657895 8.95263158,9.53289474 8.95263158,8.88157895 C8.95263158,8.23026316 8.05736842,7.69736842 6.96315789,7.69736842 Z M0.994736842,8.28947368 C0.437684211,8.28947368 0,8.55 0,8.88157895 C0,9.21315789 0.437684211,9.47368421 0.994736842,9.47368421 C1.55178947,9.47368421 1.98947368,9.21315789 1.98947368,8.88157895 C1.98947368,8.55 1.55178947,8.28947368 0.994736842,8.28947368 Z M6.96315789,2.96052632 C5.86894737,2.96052632 4.97368421,3.49342105 4.97368421,4.14473684 C4.97368421,4.79605263 5.86894737,5.32894737 6.96315789,5.32894737 C8.05736842,5.32894737 8.95263158,4.79605263 8.95263158,4.14473684 C8.95263158,3.49342105 8.05736842,2.96052632 6.96315789,2.96052632 Z M36.8052632,9.47368421 C37.3623158,9.47368421 37.8,9.21315789 37.8,8.88157895 C37.8,8.55 37.3623158,8.28947368 36.8052632,8.28947368 C36.2482105,8.28947368 35.8105263,8.55 35.8105263,8.88157895 C35.8105263,9.21315789 36.2482105,9.47368421 36.8052632,9.47368421 Z M22.8789474,5.32894737 C23.9731579,5.32894737 24.8684211,4.79605263 24.8684211,4.14473684 C24.8684211,3.49342105 23.9731579,2.96052632 22.8789474,2.96052632 C21.7847368,2.96052632 20.8894737,3.49342105 20.8894737,4.14473684 C20.8894737,4.79605263 21.7847368,5.32894737 22.8789474,5.32894737 Z M22.8789474,1.18421053 C23.436,1.18421053 23.8736842,0.923684211 23.8736842,0.592105263 C23.8736842,0.260526316 23.436,0 22.8789474,0 C22.3218947,0 21.8842105,0.260526316 21.8842105,0.592105263 C21.8842105,0.923684211 22.3218947,1.18421053 22.8789474,1.18421053 Z M0.994736842,13.0263158 C0.437684211,13.0263158 0,13.2868421 0,13.6184211 C0,13.95 0.437684211,14.2105263 0.994736842,14.2105263 C1.55178947,14.2105263 1.98947368,13.95 1.98947368,13.6184211 C1.98947368,13.2868421 1.55178947,13.0263158 0.994736842,13.0263158 Z M14.9210526,21.3157895 C14.364,21.3157895 13.9263158,21.5763158 13.9263158,21.9078947 C13.9263158,22.2394737 14.364,22.5 14.9210526,22.5 C15.4781053,22.5 15.9157895,22.2394737 15.9157895,21.9078947 C15.9157895,21.5763158 15.4781053,21.3157895 14.9210526,21.3157895 Z M14.9210526,1.18421053 C15.4781053,1.18421053 15.9157895,0.923684211 15.9157895,0.592105263 C15.9157895,0.260526316 15.4781053,0 14.9210526,0 C14.364,0 13.9263158,0.260526316 13.9263158,0.592105263 C13.9263158,0.923684211 14.364,1.18421053 14.9210526,1.18421053 Z M14.9210526,5.32894737 C16.0152632,5.32894737 16.9105263,4.79605263 16.9105263,4.14473684 C16.9105263,3.49342105 16.0152632,2.96052632 14.9210526,2.96052632 C13.8268421,2.96052632 12.9315789,3.49342105 12.9315789,4.14473684 C12.9315789,4.79605263 13.8268421,5.32894737 14.9210526,5.32894737 Z M14.9210526,11.8421053 C13.2697895,11.8421053 11.9368421,12.6355263 11.9368421,13.6184211 C11.9368421,14.6013158 13.2697895,15.3947368 14.9210526,15.3947368 C16.5723158,15.3947368 17.9052632,14.6013158 17.9052632,13.6184211 C17.9052632,12.6355263 16.5723158,11.8421053 14.9210526,11.8421053 Z M30.8368421,12.4342105 C29.7426316,12.4342105 28.8473684,12.9671053 28.8473684,13.6184211 C28.8473684,14.2697368 29.7426316,14.8026316 30.8368421,14.8026316 C31.9310526,14.8026316 32.8263158,14.2697368 32.8263158,13.6184211 C32.8263158,12.9671053 31.9310526,12.4342105 30.8368421,12.4342105 Z M30.8368421,17.1710526 C29.7426316,17.1710526 28.8473684,17.7039474 28.8473684,18.3552632 C28.8473684,19.0065789 29.7426316,19.5394737 30.8368421,19.5394737 C31.9310526,19.5394737 32.8263158,19.0065789 32.8263158,18.3552632 C32.8263158,17.7039474 31.9310526,17.1710526 30.8368421,17.1710526 Z M30.8368421,7.69736842 C29.7426316,7.69736842 28.8473684,8.23026316 28.8473684,8.88157895 C28.8473684,9.53289474 29.7426316,10.0657895 30.8368421,10.0657895 C31.9310526,10.0657895 32.8263158,9.53289474 32.8263158,8.88157895 C32.8263158,8.23026316 31.9310526,7.69736842 30.8368421,7.69736842 Z M30.8368421,2.96052632 C29.7426316,2.96052632 28.8473684,3.49342105 28.8473684,4.14473684 C28.8473684,4.79605263 29.7426316,5.32894737 30.8368421,5.32894737 C31.9310526,5.32894737 32.8263158,4.79605263 32.8263158,4.14473684 C32.8263158,3.49342105 31.9310526,2.96052632 30.8368421,2.96052632 Z M36.8052632,13.0263158 C36.2482105,13.0263158 35.8105263,13.2868421 35.8105263,13.6184211 C35.8105263,13.95 36.2482105,14.2105263 36.8052632,14.2105263 C37.3623158,14.2105263 37.8,13.95 37.8,13.6184211 C37.8,13.2868421 37.3623158,13.0263158 36.8052632,13.0263158 Z M22.8789474,17.1710526 C21.7847368,17.1710526 20.8894737,17.7039474 20.8894737,18.3552632 C20.8894737,19.0065789 21.7847368,19.5394737 22.8789474,19.5394737 C23.9731579,19.5394737 24.8684211,19.0065789 24.8684211,18.3552632 C24.8684211,17.7039474 23.9731579,17.1710526 22.8789474,17.1710526 Z M22.8789474,21.3157895 C22.3218947,21.3157895 21.8842105,21.5763158 21.8842105,21.9078947 C21.8842105,22.2394737 22.3218947,22.5 22.8789474,22.5 C23.436,22.5 23.8736842,22.2394737 23.8736842,21.9078947 C23.8736842,21.5763158 23.436,21.3157895 22.8789474,21.3157895 Z M14.9210526,7.10526316 C13.2697895,7.10526316 11.9368421,7.89868421 11.9368421,8.88157895 C11.9368421,9.86447368 13.2697895,10.6578947 14.9210526,10.6578947 C16.5723158,10.6578947 17.9052632,9.86447368 17.9052632,8.88157895 C17.9052632,7.89868421 16.5723158,7.10526316 14.9210526,7.10526316 Z M14.9210526,17.1710526 C13.8268421,17.1710526 12.9315789,17.7039474 12.9315789,18.3552632 C12.9315789,19.0065789 13.8268421,19.5394737 14.9210526,19.5394737 C16.0152632,19.5394737 16.9105263,19.0065789 16.9105263,18.3552632 C16.9105263,17.7039474 16.0152632,17.1710526 14.9210526,17.1710526 Z M22.8789474,11.8421053 C21.2276842,11.8421053 19.8947368,12.6355263 19.8947368,13.6184211 C19.8947368,14.6013158 21.2276842,15.3947368 22.8789474,15.3947368 C24.5302105,15.3947368 25.8631579,14.6013158 25.8631579,13.6184211 C25.8631579,12.6355263 24.5302105,11.8421053 22.8789474,11.8421053 Z M22.8789474,7.10526316 C21.2276842,7.10526316 19.8947368,7.89868421 19.8947368,8.88157895 C19.8947368,9.86447368 21.2276842,10.6578947 22.8789474,10.6578947 C24.5302105,10.6578947 25.8631579,9.86447368 25.8631579,8.88157895 C25.8631579,7.89868421 24.5302105,7.10526316 22.8789474,7.10526316 Z" id="Shape" fill-rule="nonzero"></path>
                                            </g>
                                        </g>
                                    </g>
                                    <g id="Rectangle-7_Isometric" transform="translate(87.000000, 124.000000)">
                                        <polygon id="Rectangle-7_Left_Isometric" fill="#677383" points="63 99 0 67.5 0 31.5 63 63"></polygon>
                                        <polygon id="Rectangle-7_Right_Isometric" fill="#445064" points="63 99 126 67.5 126 31.5 63 63"></polygon>
                                        <polygon id="Rectangle-7_Top_Isometric" fill="#00FEE1" points="0 31.5 63 0 126 31.5 63 63"></polygon>
                                        <g id="contracts" transform="translate(37.800000, 16.200000)" fill="#000000" opacity="0.5">
                                            <g id="ic_blur_on_24px" transform="translate(4.500000, 3.600000)">
                                                <path d="M6.96315789,12.4342105 C5.86894737,12.4342105 4.97368421,12.9671053 4.97368421,13.6184211 C4.97368421,14.2697368 5.86894737,14.8026316 6.96315789,14.8026316 C8.05736842,14.8026316 8.95263158,14.2697368 8.95263158,13.6184211 C8.95263158,12.9671053 8.05736842,12.4342105 6.96315789,12.4342105 Z M6.96315789,17.1710526 C5.86894737,17.1710526 4.97368421,17.7039474 4.97368421,18.3552632 C4.97368421,19.0065789 5.86894737,19.5394737 6.96315789,19.5394737 C8.05736842,19.5394737 8.95263158,19.0065789 8.95263158,18.3552632 C8.95263158,17.7039474 8.05736842,17.1710526 6.96315789,17.1710526 Z M6.96315789,7.69736842 C5.86894737,7.69736842 4.97368421,8.23026316 4.97368421,8.88157895 C4.97368421,9.53289474 5.86894737,10.0657895 6.96315789,10.0657895 C8.05736842,10.0657895 8.95263158,9.53289474 8.95263158,8.88157895 C8.95263158,8.23026316 8.05736842,7.69736842 6.96315789,7.69736842 Z M0.994736842,8.28947368 C0.437684211,8.28947368 0,8.55 0,8.88157895 C0,9.21315789 0.437684211,9.47368421 0.994736842,9.47368421 C1.55178947,9.47368421 1.98947368,9.21315789 1.98947368,8.88157895 C1.98947368,8.55 1.55178947,8.28947368 0.994736842,8.28947368 Z M6.96315789,2.96052632 C5.86894737,2.96052632 4.97368421,3.49342105 4.97368421,4.14473684 C4.97368421,4.79605263 5.86894737,5.32894737 6.96315789,5.32894737 C8.05736842,5.32894737 8.95263158,4.79605263 8.95263158,4.14473684 C8.95263158,3.49342105 8.05736842,2.96052632 6.96315789,2.96052632 Z M36.8052632,9.47368421 C37.3623158,9.47368421 37.8,9.21315789 37.8,8.88157895 C37.8,8.55 37.3623158,8.28947368 36.8052632,8.28947368 C36.2482105,8.28947368 35.8105263,8.55 35.8105263,8.88157895 C35.8105263,9.21315789 36.2482105,9.47368421 36.8052632,9.47368421 Z M22.8789474,5.32894737 C23.9731579,5.32894737 24.8684211,4.79605263 24.8684211,4.14473684 C24.8684211,3.49342105 23.9731579,2.96052632 22.8789474,2.96052632 C21.7847368,2.96052632 20.8894737,3.49342105 20.8894737,4.14473684 C20.8894737,4.79605263 21.7847368,5.32894737 22.8789474,5.32894737 Z M22.8789474,1.18421053 C23.436,1.18421053 23.8736842,0.923684211 23.8736842,0.592105263 C23.8736842,0.260526316 23.436,0 22.8789474,0 C22.3218947,0 21.8842105,0.260526316 21.8842105,0.592105263 C21.8842105,0.923684211 22.3218947,1.18421053 22.8789474,1.18421053 Z M0.994736842,13.0263158 C0.437684211,13.0263158 0,13.2868421 0,13.6184211 C0,13.95 0.437684211,14.2105263 0.994736842,14.2105263 C1.55178947,14.2105263 1.98947368,13.95 1.98947368,13.6184211 C1.98947368,13.2868421 1.55178947,13.0263158 0.994736842,13.0263158 Z M14.9210526,21.3157895 C14.364,21.3157895 13.9263158,21.5763158 13.9263158,21.9078947 C13.9263158,22.2394737 14.364,22.5 14.9210526,22.5 C15.4781053,22.5 15.9157895,22.2394737 15.9157895,21.9078947 C15.9157895,21.5763158 15.4781053,21.3157895 14.9210526,21.3157895 Z M14.9210526,1.18421053 C15.4781053,1.18421053 15.9157895,0.923684211 15.9157895,0.592105263 C15.9157895,0.260526316 15.4781053,0 14.9210526,0 C14.364,0 13.9263158,0.260526316 13.9263158,0.592105263 C13.9263158,0.923684211 14.364,1.18421053 14.9210526,1.18421053 Z M14.9210526,5.32894737 C16.0152632,5.32894737 16.9105263,4.79605263 16.9105263,4.14473684 C16.9105263,3.49342105 16.0152632,2.96052632 14.9210526,2.96052632 C13.8268421,2.96052632 12.9315789,3.49342105 12.9315789,4.14473684 C12.9315789,4.79605263 13.8268421,5.32894737 14.9210526,5.32894737 Z M14.9210526,11.8421053 C13.2697895,11.8421053 11.9368421,12.6355263 11.9368421,13.6184211 C11.9368421,14.6013158 13.2697895,15.3947368 14.9210526,15.3947368 C16.5723158,15.3947368 17.9052632,14.6013158 17.9052632,13.6184211 C17.9052632,12.6355263 16.5723158,11.8421053 14.9210526,11.8421053 Z M30.8368421,12.4342105 C29.7426316,12.4342105 28.8473684,12.9671053 28.8473684,13.6184211 C28.8473684,14.2697368 29.7426316,14.8026316 30.8368421,14.8026316 C31.9310526,14.8026316 32.8263158,14.2697368 32.8263158,13.6184211 C32.8263158,12.9671053 31.9310526,12.4342105 30.8368421,12.4342105 Z M30.8368421,17.1710526 C29.7426316,17.1710526 28.8473684,17.7039474 28.8473684,18.3552632 C28.8473684,19.0065789 29.7426316,19.5394737 30.8368421,19.5394737 C31.9310526,19.5394737 32.8263158,19.0065789 32.8263158,18.3552632 C32.8263158,17.7039474 31.9310526,17.1710526 30.8368421,17.1710526 Z M30.8368421,7.69736842 C29.7426316,7.69736842 28.8473684,8.23026316 28.8473684,8.88157895 C28.8473684,9.53289474 29.7426316,10.0657895 30.8368421,10.0657895 C31.9310526,10.0657895 32.8263158,9.53289474 32.8263158,8.88157895 C32.8263158,8.23026316 31.9310526,7.69736842 30.8368421,7.69736842 Z M30.8368421,2.96052632 C29.7426316,2.96052632 28.8473684,3.49342105 28.8473684,4.14473684 C28.8473684,4.79605263 29.7426316,5.32894737 30.8368421,5.32894737 C31.9310526,5.32894737 32.8263158,4.79605263 32.8263158,4.14473684 C32.8263158,3.49342105 31.9310526,2.96052632 30.8368421,2.96052632 Z M36.8052632,13.0263158 C36.2482105,13.0263158 35.8105263,13.2868421 35.8105263,13.6184211 C35.8105263,13.95 36.2482105,14.2105263 36.8052632,14.2105263 C37.3623158,14.2105263 37.8,13.95 37.8,13.6184211 C37.8,13.2868421 37.3623158,13.0263158 36.8052632,13.0263158 Z M22.8789474,17.1710526 C21.7847368,17.1710526 20.8894737,17.7039474 20.8894737,18.3552632 C20.8894737,19.0065789 21.7847368,19.5394737 22.8789474,19.5394737 C23.9731579,19.5394737 24.8684211,19.0065789 24.8684211,18.3552632 C24.8684211,17.7039474 23.9731579,17.1710526 22.8789474,17.1710526 Z M22.8789474,21.3157895 C22.3218947,21.3157895 21.8842105,21.5763158 21.8842105,21.9078947 C21.8842105,22.2394737 22.3218947,22.5 22.8789474,22.5 C23.436,22.5 23.8736842,22.2394737 23.8736842,21.9078947 C23.8736842,21.5763158 23.436,21.3157895 22.8789474,21.3157895 Z M14.9210526,7.10526316 C13.2697895,7.10526316 11.9368421,7.89868421 11.9368421,8.88157895 C11.9368421,9.86447368 13.2697895,10.6578947 14.9210526,10.6578947 C16.5723158,10.6578947 17.9052632,9.86447368 17.9052632,8.88157895 C17.9052632,7.89868421 16.5723158,7.10526316 14.9210526,7.10526316 Z M14.9210526,17.1710526 C13.8268421,17.1710526 12.9315789,17.7039474 12.9315789,18.3552632 C12.9315789,19.0065789 13.8268421,19.5394737 14.9210526,19.5394737 C16.0152632,19.5394737 16.9105263,19.0065789 16.9105263,18.3552632 C16.9105263,17.7039474 16.0152632,17.1710526 14.9210526,17.1710526 Z M22.8789474,11.8421053 C21.2276842,11.8421053 19.8947368,12.6355263 19.8947368,13.6184211 C19.8947368,14.6013158 21.2276842,15.3947368 22.8789474,15.3947368 C24.5302105,15.3947368 25.8631579,14.6013158 25.8631579,13.6184211 C25.8631579,12.6355263 24.5302105,11.8421053 22.8789474,11.8421053 Z M22.8789474,7.10526316 C21.2276842,7.10526316 19.8947368,7.89868421 19.8947368,8.88157895 C19.8947368,9.86447368 21.2276842,10.6578947 22.8789474,10.6578947 C24.5302105,10.6578947 25.8631579,9.86447368 25.8631579,8.88157895 C25.8631579,7.89868421 24.5302105,7.10526316 22.8789474,7.10526316 Z" id="Shape" fill-rule="nonzero"></path>
                                            </g>
                                        </g>
                                    </g>
                                    <g id="Rectangle-7_Isometric" transform="translate(341.000000, 84.000000)">
                                        <polygon id="Rectangle-7_Left_Isometric" fill="#677383" points="63 99 0 67.5 0 31.5 63 63"></polygon>
                                        <polygon id="Rectangle-7_Right_Isometric" fill="#445064" points="63 99 126 67.5 126 31.5 63 63"></polygon>
                                        <polygon id="Rectangle-7_Top_Isometric" fill="#00FEE1" points="0 31.5 63 0 126 31.5 63 63"></polygon>
                                        <g id="contracts" transform="translate(37.800000, 16.200000)" fill="#000000" opacity="0.5">
                                            <g id="ic_blur_on_24px" transform="translate(4.500000, 3.600000)">
                                                <path d="M6.96315789,12.4342105 C5.86894737,12.4342105 4.97368421,12.9671053 4.97368421,13.6184211 C4.97368421,14.2697368 5.86894737,14.8026316 6.96315789,14.8026316 C8.05736842,14.8026316 8.95263158,14.2697368 8.95263158,13.6184211 C8.95263158,12.9671053 8.05736842,12.4342105 6.96315789,12.4342105 Z M6.96315789,17.1710526 C5.86894737,17.1710526 4.97368421,17.7039474 4.97368421,18.3552632 C4.97368421,19.0065789 5.86894737,19.5394737 6.96315789,19.5394737 C8.05736842,19.5394737 8.95263158,19.0065789 8.95263158,18.3552632 C8.95263158,17.7039474 8.05736842,17.1710526 6.96315789,17.1710526 Z M6.96315789,7.69736842 C5.86894737,7.69736842 4.97368421,8.23026316 4.97368421,8.88157895 C4.97368421,9.53289474 5.86894737,10.0657895 6.96315789,10.0657895 C8.05736842,10.0657895 8.95263158,9.53289474 8.95263158,8.88157895 C8.95263158,8.23026316 8.05736842,7.69736842 6.96315789,7.69736842 Z M0.994736842,8.28947368 C0.437684211,8.28947368 0,8.55 0,8.88157895 C0,9.21315789 0.437684211,9.47368421 0.994736842,9.47368421 C1.55178947,9.47368421 1.98947368,9.21315789 1.98947368,8.88157895 C1.98947368,8.55 1.55178947,8.28947368 0.994736842,8.28947368 Z M6.96315789,2.96052632 C5.86894737,2.96052632 4.97368421,3.49342105 4.97368421,4.14473684 C4.97368421,4.79605263 5.86894737,5.32894737 6.96315789,5.32894737 C8.05736842,5.32894737 8.95263158,4.79605263 8.95263158,4.14473684 C8.95263158,3.49342105 8.05736842,2.96052632 6.96315789,2.96052632 Z M36.8052632,9.47368421 C37.3623158,9.47368421 37.8,9.21315789 37.8,8.88157895 C37.8,8.55 37.3623158,8.28947368 36.8052632,8.28947368 C36.2482105,8.28947368 35.8105263,8.55 35.8105263,8.88157895 C35.8105263,9.21315789 36.2482105,9.47368421 36.8052632,9.47368421 Z M22.8789474,5.32894737 C23.9731579,5.32894737 24.8684211,4.79605263 24.8684211,4.14473684 C24.8684211,3.49342105 23.9731579,2.96052632 22.8789474,2.96052632 C21.7847368,2.96052632 20.8894737,3.49342105 20.8894737,4.14473684 C20.8894737,4.79605263 21.7847368,5.32894737 22.8789474,5.32894737 Z M22.8789474,1.18421053 C23.436,1.18421053 23.8736842,0.923684211 23.8736842,0.592105263 C23.8736842,0.260526316 23.436,0 22.8789474,0 C22.3218947,0 21.8842105,0.260526316 21.8842105,0.592105263 C21.8842105,0.923684211 22.3218947,1.18421053 22.8789474,1.18421053 Z M0.994736842,13.0263158 C0.437684211,13.0263158 0,13.2868421 0,13.6184211 C0,13.95 0.437684211,14.2105263 0.994736842,14.2105263 C1.55178947,14.2105263 1.98947368,13.95 1.98947368,13.6184211 C1.98947368,13.2868421 1.55178947,13.0263158 0.994736842,13.0263158 Z M14.9210526,21.3157895 C14.364,21.3157895 13.9263158,21.5763158 13.9263158,21.9078947 C13.9263158,22.2394737 14.364,22.5 14.9210526,22.5 C15.4781053,22.5 15.9157895,22.2394737 15.9157895,21.9078947 C15.9157895,21.5763158 15.4781053,21.3157895 14.9210526,21.3157895 Z M14.9210526,1.18421053 C15.4781053,1.18421053 15.9157895,0.923684211 15.9157895,0.592105263 C15.9157895,0.260526316 15.4781053,0 14.9210526,0 C14.364,0 13.9263158,0.260526316 13.9263158,0.592105263 C13.9263158,0.923684211 14.364,1.18421053 14.9210526,1.18421053 Z M14.9210526,5.32894737 C16.0152632,5.32894737 16.9105263,4.79605263 16.9105263,4.14473684 C16.9105263,3.49342105 16.0152632,2.96052632 14.9210526,2.96052632 C13.8268421,2.96052632 12.9315789,3.49342105 12.9315789,4.14473684 C12.9315789,4.79605263 13.8268421,5.32894737 14.9210526,5.32894737 Z M14.9210526,11.8421053 C13.2697895,11.8421053 11.9368421,12.6355263 11.9368421,13.6184211 C11.9368421,14.6013158 13.2697895,15.3947368 14.9210526,15.3947368 C16.5723158,15.3947368 17.9052632,14.6013158 17.9052632,13.6184211 C17.9052632,12.6355263 16.5723158,11.8421053 14.9210526,11.8421053 Z M30.8368421,12.4342105 C29.7426316,12.4342105 28.8473684,12.9671053 28.8473684,13.6184211 C28.8473684,14.2697368 29.7426316,14.8026316 30.8368421,14.8026316 C31.9310526,14.8026316 32.8263158,14.2697368 32.8263158,13.6184211 C32.8263158,12.9671053 31.9310526,12.4342105 30.8368421,12.4342105 Z M30.8368421,17.1710526 C29.7426316,17.1710526 28.8473684,17.7039474 28.8473684,18.3552632 C28.8473684,19.0065789 29.7426316,19.5394737 30.8368421,19.5394737 C31.9310526,19.5394737 32.8263158,19.0065789 32.8263158,18.3552632 C32.8263158,17.7039474 31.9310526,17.1710526 30.8368421,17.1710526 Z M30.8368421,7.69736842 C29.7426316,7.69736842 28.8473684,8.23026316 28.8473684,8.88157895 C28.8473684,9.53289474 29.7426316,10.0657895 30.8368421,10.0657895 C31.9310526,10.0657895 32.8263158,9.53289474 32.8263158,8.88157895 C32.8263158,8.23026316 31.9310526,7.69736842 30.8368421,7.69736842 Z M30.8368421,2.96052632 C29.7426316,2.96052632 28.8473684,3.49342105 28.8473684,4.14473684 C28.8473684,4.79605263 29.7426316,5.32894737 30.8368421,5.32894737 C31.9310526,5.32894737 32.8263158,4.79605263 32.8263158,4.14473684 C32.8263158,3.49342105 31.9310526,2.96052632 30.8368421,2.96052632 Z M36.8052632,13.0263158 C36.2482105,13.0263158 35.8105263,13.2868421 35.8105263,13.6184211 C35.8105263,13.95 36.2482105,14.2105263 36.8052632,14.2105263 C37.3623158,14.2105263 37.8,13.95 37.8,13.6184211 C37.8,13.2868421 37.3623158,13.0263158 36.8052632,13.0263158 Z M22.8789474,17.1710526 C21.7847368,17.1710526 20.8894737,17.7039474 20.8894737,18.3552632 C20.8894737,19.0065789 21.7847368,19.5394737 22.8789474,19.5394737 C23.9731579,19.5394737 24.8684211,19.0065789 24.8684211,18.3552632 C24.8684211,17.7039474 23.9731579,17.1710526 22.8789474,17.1710526 Z M22.8789474,21.3157895 C22.3218947,21.3157895 21.8842105,21.5763158 21.8842105,21.9078947 C21.8842105,22.2394737 22.3218947,22.5 22.8789474,22.5 C23.436,22.5 23.8736842,22.2394737 23.8736842,21.9078947 C23.8736842,21.5763158 23.436,21.3157895 22.8789474,21.3157895 Z M14.9210526,7.10526316 C13.2697895,7.10526316 11.9368421,7.89868421 11.9368421,8.88157895 C11.9368421,9.86447368 13.2697895,10.6578947 14.9210526,10.6578947 C16.5723158,10.6578947 17.9052632,9.86447368 17.9052632,8.88157895 C17.9052632,7.89868421 16.5723158,7.10526316 14.9210526,7.10526316 Z M14.9210526,17.1710526 C13.8268421,17.1710526 12.9315789,17.7039474 12.9315789,18.3552632 C12.9315789,19.0065789 13.8268421,19.5394737 14.9210526,19.5394737 C16.0152632,19.5394737 16.9105263,19.0065789 16.9105263,18.3552632 C16.9105263,17.7039474 16.0152632,17.1710526 14.9210526,17.1710526 Z M22.8789474,11.8421053 C21.2276842,11.8421053 19.8947368,12.6355263 19.8947368,13.6184211 C19.8947368,14.6013158 21.2276842,15.3947368 22.8789474,15.3947368 C24.5302105,15.3947368 25.8631579,14.6013158 25.8631579,13.6184211 C25.8631579,12.6355263 24.5302105,11.8421053 22.8789474,11.8421053 Z M22.8789474,7.10526316 C21.2276842,7.10526316 19.8947368,7.89868421 19.8947368,8.88157895 C19.8947368,9.86447368 21.2276842,10.6578947 22.8789474,10.6578947 C24.5302105,10.6578947 25.8631579,9.86447368 25.8631579,8.88157895 C25.8631579,7.89868421 24.5302105,7.10526316 22.8789474,7.10526316 Z" id="Shape" fill-rule="nonzero"></path>
                                            </g>
                                        </g>
                                    </g>
                                    <g id="Rectangle-7_Isometric" transform="translate(258.000000, 125.000000)">
                                        <polygon id="Rectangle-7_Left_Isometric" fill="#677383" points="63 99 0 67.5 0 31.5 63 63"></polygon>
                                        <polygon id="Rectangle-7_Right_Isometric" fill="#445064" points="63 99 126 67.5 126 31.5 63 63"></polygon>
                                        <polygon id="Rectangle-7_Top_Isometric" fill="#00FEE1" points="0 31.5 63 0 126 31.5 63 63"></polygon>
                                        <g id="contracts" transform="translate(37.800000, 16.200000)" fill="#000000" opacity="0.5">
                                            <g id="ic_blur_on_24px" transform="translate(4.500000, 3.600000)">
                                                <path d="M6.96315789,12.4342105 C5.86894737,12.4342105 4.97368421,12.9671053 4.97368421,13.6184211 C4.97368421,14.2697368 5.86894737,14.8026316 6.96315789,14.8026316 C8.05736842,14.8026316 8.95263158,14.2697368 8.95263158,13.6184211 C8.95263158,12.9671053 8.05736842,12.4342105 6.96315789,12.4342105 Z M6.96315789,17.1710526 C5.86894737,17.1710526 4.97368421,17.7039474 4.97368421,18.3552632 C4.97368421,19.0065789 5.86894737,19.5394737 6.96315789,19.5394737 C8.05736842,19.5394737 8.95263158,19.0065789 8.95263158,18.3552632 C8.95263158,17.7039474 8.05736842,17.1710526 6.96315789,17.1710526 Z M6.96315789,7.69736842 C5.86894737,7.69736842 4.97368421,8.23026316 4.97368421,8.88157895 C4.97368421,9.53289474 5.86894737,10.0657895 6.96315789,10.0657895 C8.05736842,10.0657895 8.95263158,9.53289474 8.95263158,8.88157895 C8.95263158,8.23026316 8.05736842,7.69736842 6.96315789,7.69736842 Z M0.994736842,8.28947368 C0.437684211,8.28947368 0,8.55 0,8.88157895 C0,9.21315789 0.437684211,9.47368421 0.994736842,9.47368421 C1.55178947,9.47368421 1.98947368,9.21315789 1.98947368,8.88157895 C1.98947368,8.55 1.55178947,8.28947368 0.994736842,8.28947368 Z M6.96315789,2.96052632 C5.86894737,2.96052632 4.97368421,3.49342105 4.97368421,4.14473684 C4.97368421,4.79605263 5.86894737,5.32894737 6.96315789,5.32894737 C8.05736842,5.32894737 8.95263158,4.79605263 8.95263158,4.14473684 C8.95263158,3.49342105 8.05736842,2.96052632 6.96315789,2.96052632 Z M36.8052632,9.47368421 C37.3623158,9.47368421 37.8,9.21315789 37.8,8.88157895 C37.8,8.55 37.3623158,8.28947368 36.8052632,8.28947368 C36.2482105,8.28947368 35.8105263,8.55 35.8105263,8.88157895 C35.8105263,9.21315789 36.2482105,9.47368421 36.8052632,9.47368421 Z M22.8789474,5.32894737 C23.9731579,5.32894737 24.8684211,4.79605263 24.8684211,4.14473684 C24.8684211,3.49342105 23.9731579,2.96052632 22.8789474,2.96052632 C21.7847368,2.96052632 20.8894737,3.49342105 20.8894737,4.14473684 C20.8894737,4.79605263 21.7847368,5.32894737 22.8789474,5.32894737 Z M22.8789474,1.18421053 C23.436,1.18421053 23.8736842,0.923684211 23.8736842,0.592105263 C23.8736842,0.260526316 23.436,0 22.8789474,0 C22.3218947,0 21.8842105,0.260526316 21.8842105,0.592105263 C21.8842105,0.923684211 22.3218947,1.18421053 22.8789474,1.18421053 Z M0.994736842,13.0263158 C0.437684211,13.0263158 0,13.2868421 0,13.6184211 C0,13.95 0.437684211,14.2105263 0.994736842,14.2105263 C1.55178947,14.2105263 1.98947368,13.95 1.98947368,13.6184211 C1.98947368,13.2868421 1.55178947,13.0263158 0.994736842,13.0263158 Z M14.9210526,21.3157895 C14.364,21.3157895 13.9263158,21.5763158 13.9263158,21.9078947 C13.9263158,22.2394737 14.364,22.5 14.9210526,22.5 C15.4781053,22.5 15.9157895,22.2394737 15.9157895,21.9078947 C15.9157895,21.5763158 15.4781053,21.3157895 14.9210526,21.3157895 Z M14.9210526,1.18421053 C15.4781053,1.18421053 15.9157895,0.923684211 15.9157895,0.592105263 C15.9157895,0.260526316 15.4781053,0 14.9210526,0 C14.364,0 13.9263158,0.260526316 13.9263158,0.592105263 C13.9263158,0.923684211 14.364,1.18421053 14.9210526,1.18421053 Z M14.9210526,5.32894737 C16.0152632,5.32894737 16.9105263,4.79605263 16.9105263,4.14473684 C16.9105263,3.49342105 16.0152632,2.96052632 14.9210526,2.96052632 C13.8268421,2.96052632 12.9315789,3.49342105 12.9315789,4.14473684 C12.9315789,4.79605263 13.8268421,5.32894737 14.9210526,5.32894737 Z M14.9210526,11.8421053 C13.2697895,11.8421053 11.9368421,12.6355263 11.9368421,13.6184211 C11.9368421,14.6013158 13.2697895,15.3947368 14.9210526,15.3947368 C16.5723158,15.3947368 17.9052632,14.6013158 17.9052632,13.6184211 C17.9052632,12.6355263 16.5723158,11.8421053 14.9210526,11.8421053 Z M30.8368421,12.4342105 C29.7426316,12.4342105 28.8473684,12.9671053 28.8473684,13.6184211 C28.8473684,14.2697368 29.7426316,14.8026316 30.8368421,14.8026316 C31.9310526,14.8026316 32.8263158,14.2697368 32.8263158,13.6184211 C32.8263158,12.9671053 31.9310526,12.4342105 30.8368421,12.4342105 Z M30.8368421,17.1710526 C29.7426316,17.1710526 28.8473684,17.7039474 28.8473684,18.3552632 C28.8473684,19.0065789 29.7426316,19.5394737 30.8368421,19.5394737 C31.9310526,19.5394737 32.8263158,19.0065789 32.8263158,18.3552632 C32.8263158,17.7039474 31.9310526,17.1710526 30.8368421,17.1710526 Z M30.8368421,7.69736842 C29.7426316,7.69736842 28.8473684,8.23026316 28.8473684,8.88157895 C28.8473684,9.53289474 29.7426316,10.0657895 30.8368421,10.0657895 C31.9310526,10.0657895 32.8263158,9.53289474 32.8263158,8.88157895 C32.8263158,8.23026316 31.9310526,7.69736842 30.8368421,7.69736842 Z M30.8368421,2.96052632 C29.7426316,2.96052632 28.8473684,3.49342105 28.8473684,4.14473684 C28.8473684,4.79605263 29.7426316,5.32894737 30.8368421,5.32894737 C31.9310526,5.32894737 32.8263158,4.79605263 32.8263158,4.14473684 C32.8263158,3.49342105 31.9310526,2.96052632 30.8368421,2.96052632 Z M36.8052632,13.0263158 C36.2482105,13.0263158 35.8105263,13.2868421 35.8105263,13.6184211 C35.8105263,13.95 36.2482105,14.2105263 36.8052632,14.2105263 C37.3623158,14.2105263 37.8,13.95 37.8,13.6184211 C37.8,13.2868421 37.3623158,13.0263158 36.8052632,13.0263158 Z M22.8789474,17.1710526 C21.7847368,17.1710526 20.8894737,17.7039474 20.8894737,18.3552632 C20.8894737,19.0065789 21.7847368,19.5394737 22.8789474,19.5394737 C23.9731579,19.5394737 24.8684211,19.0065789 24.8684211,18.3552632 C24.8684211,17.7039474 23.9731579,17.1710526 22.8789474,17.1710526 Z M22.8789474,21.3157895 C22.3218947,21.3157895 21.8842105,21.5763158 21.8842105,21.9078947 C21.8842105,22.2394737 22.3218947,22.5 22.8789474,22.5 C23.436,22.5 23.8736842,22.2394737 23.8736842,21.9078947 C23.8736842,21.5763158 23.436,21.3157895 22.8789474,21.3157895 Z M14.9210526,7.10526316 C13.2697895,7.10526316 11.9368421,7.89868421 11.9368421,8.88157895 C11.9368421,9.86447368 13.2697895,10.6578947 14.9210526,10.6578947 C16.5723158,10.6578947 17.9052632,9.86447368 17.9052632,8.88157895 C17.9052632,7.89868421 16.5723158,7.10526316 14.9210526,7.10526316 Z M14.9210526,17.1710526 C13.8268421,17.1710526 12.9315789,17.7039474 12.9315789,18.3552632 C12.9315789,19.0065789 13.8268421,19.5394737 14.9210526,19.5394737 C16.0152632,19.5394737 16.9105263,19.0065789 16.9105263,18.3552632 C16.9105263,17.7039474 16.0152632,17.1710526 14.9210526,17.1710526 Z M22.8789474,11.8421053 C21.2276842,11.8421053 19.8947368,12.6355263 19.8947368,13.6184211 C19.8947368,14.6013158 21.2276842,15.3947368 22.8789474,15.3947368 C24.5302105,15.3947368 25.8631579,14.6013158 25.8631579,13.6184211 C25.8631579,12.6355263 24.5302105,11.8421053 22.8789474,11.8421053 Z M22.8789474,7.10526316 C21.2276842,7.10526316 19.8947368,7.89868421 19.8947368,8.88157895 C19.8947368,9.86447368 21.2276842,10.6578947 22.8789474,10.6578947 C24.5302105,10.6578947 25.8631579,9.86447368 25.8631579,8.88157895 C25.8631579,7.89868421 24.5302105,7.10526316 22.8789474,7.10526316 Z" id="Shape" fill-rule="nonzero"></path>
                                            </g>
                                        </g>
                                    </g>
                                    <g id="Rectangle-7_Isometric" transform="translate(174.000000, 167.000000)">
                                        <polygon id="Rectangle-7_Left_Isometric" fill="#677383" points="63 99 0 67.5 0 31.5 63 63"></polygon>
                                        <polygon id="Rectangle-7_Right_Isometric" fill="#445064" points="63 99 126 67.5 126 31.5 63 63"></polygon>
                                        <polygon id="Rectangle-7_Top_Isometric" fill="#00FEE1" points="0 31.5 63 0 126 31.5 63 63"></polygon>
                                        <g id="contracts" transform="translate(37.800000, 16.200000)" fill="#000000" opacity="0.5">
                                            <g id="ic_blur_on_24px" transform="translate(4.500000, 3.600000)">
                                                <path d="M6.96315789,12.4342105 C5.86894737,12.4342105 4.97368421,12.9671053 4.97368421,13.6184211 C4.97368421,14.2697368 5.86894737,14.8026316 6.96315789,14.8026316 C8.05736842,14.8026316 8.95263158,14.2697368 8.95263158,13.6184211 C8.95263158,12.9671053 8.05736842,12.4342105 6.96315789,12.4342105 Z M6.96315789,17.1710526 C5.86894737,17.1710526 4.97368421,17.7039474 4.97368421,18.3552632 C4.97368421,19.0065789 5.86894737,19.5394737 6.96315789,19.5394737 C8.05736842,19.5394737 8.95263158,19.0065789 8.95263158,18.3552632 C8.95263158,17.7039474 8.05736842,17.1710526 6.96315789,17.1710526 Z M6.96315789,7.69736842 C5.86894737,7.69736842 4.97368421,8.23026316 4.97368421,8.88157895 C4.97368421,9.53289474 5.86894737,10.0657895 6.96315789,10.0657895 C8.05736842,10.0657895 8.95263158,9.53289474 8.95263158,8.88157895 C8.95263158,8.23026316 8.05736842,7.69736842 6.96315789,7.69736842 Z M0.994736842,8.28947368 C0.437684211,8.28947368 0,8.55 0,8.88157895 C0,9.21315789 0.437684211,9.47368421 0.994736842,9.47368421 C1.55178947,9.47368421 1.98947368,9.21315789 1.98947368,8.88157895 C1.98947368,8.55 1.55178947,8.28947368 0.994736842,8.28947368 Z M6.96315789,2.96052632 C5.86894737,2.96052632 4.97368421,3.49342105 4.97368421,4.14473684 C4.97368421,4.79605263 5.86894737,5.32894737 6.96315789,5.32894737 C8.05736842,5.32894737 8.95263158,4.79605263 8.95263158,4.14473684 C8.95263158,3.49342105 8.05736842,2.96052632 6.96315789,2.96052632 Z M36.8052632,9.47368421 C37.3623158,9.47368421 37.8,9.21315789 37.8,8.88157895 C37.8,8.55 37.3623158,8.28947368 36.8052632,8.28947368 C36.2482105,8.28947368 35.8105263,8.55 35.8105263,8.88157895 C35.8105263,9.21315789 36.2482105,9.47368421 36.8052632,9.47368421 Z M22.8789474,5.32894737 C23.9731579,5.32894737 24.8684211,4.79605263 24.8684211,4.14473684 C24.8684211,3.49342105 23.9731579,2.96052632 22.8789474,2.96052632 C21.7847368,2.96052632 20.8894737,3.49342105 20.8894737,4.14473684 C20.8894737,4.79605263 21.7847368,5.32894737 22.8789474,5.32894737 Z M22.8789474,1.18421053 C23.436,1.18421053 23.8736842,0.923684211 23.8736842,0.592105263 C23.8736842,0.260526316 23.436,0 22.8789474,0 C22.3218947,0 21.8842105,0.260526316 21.8842105,0.592105263 C21.8842105,0.923684211 22.3218947,1.18421053 22.8789474,1.18421053 Z M0.994736842,13.0263158 C0.437684211,13.0263158 0,13.2868421 0,13.6184211 C0,13.95 0.437684211,14.2105263 0.994736842,14.2105263 C1.55178947,14.2105263 1.98947368,13.95 1.98947368,13.6184211 C1.98947368,13.2868421 1.55178947,13.0263158 0.994736842,13.0263158 Z M14.9210526,21.3157895 C14.364,21.3157895 13.9263158,21.5763158 13.9263158,21.9078947 C13.9263158,22.2394737 14.364,22.5 14.9210526,22.5 C15.4781053,22.5 15.9157895,22.2394737 15.9157895,21.9078947 C15.9157895,21.5763158 15.4781053,21.3157895 14.9210526,21.3157895 Z M14.9210526,1.18421053 C15.4781053,1.18421053 15.9157895,0.923684211 15.9157895,0.592105263 C15.9157895,0.260526316 15.4781053,0 14.9210526,0 C14.364,0 13.9263158,0.260526316 13.9263158,0.592105263 C13.9263158,0.923684211 14.364,1.18421053 14.9210526,1.18421053 Z M14.9210526,5.32894737 C16.0152632,5.32894737 16.9105263,4.79605263 16.9105263,4.14473684 C16.9105263,3.49342105 16.0152632,2.96052632 14.9210526,2.96052632 C13.8268421,2.96052632 12.9315789,3.49342105 12.9315789,4.14473684 C12.9315789,4.79605263 13.8268421,5.32894737 14.9210526,5.32894737 Z M14.9210526,11.8421053 C13.2697895,11.8421053 11.9368421,12.6355263 11.9368421,13.6184211 C11.9368421,14.6013158 13.2697895,15.3947368 14.9210526,15.3947368 C16.5723158,15.3947368 17.9052632,14.6013158 17.9052632,13.6184211 C17.9052632,12.6355263 16.5723158,11.8421053 14.9210526,11.8421053 Z M30.8368421,12.4342105 C29.7426316,12.4342105 28.8473684,12.9671053 28.8473684,13.6184211 C28.8473684,14.2697368 29.7426316,14.8026316 30.8368421,14.8026316 C31.9310526,14.8026316 32.8263158,14.2697368 32.8263158,13.6184211 C32.8263158,12.9671053 31.9310526,12.4342105 30.8368421,12.4342105 Z M30.8368421,17.1710526 C29.7426316,17.1710526 28.8473684,17.7039474 28.8473684,18.3552632 C28.8473684,19.0065789 29.7426316,19.5394737 30.8368421,19.5394737 C31.9310526,19.5394737 32.8263158,19.0065789 32.8263158,18.3552632 C32.8263158,17.7039474 31.9310526,17.1710526 30.8368421,17.1710526 Z M30.8368421,7.69736842 C29.7426316,7.69736842 28.8473684,8.23026316 28.8473684,8.88157895 C28.8473684,9.53289474 29.7426316,10.0657895 30.8368421,10.0657895 C31.9310526,10.0657895 32.8263158,9.53289474 32.8263158,8.88157895 C32.8263158,8.23026316 31.9310526,7.69736842 30.8368421,7.69736842 Z M30.8368421,2.96052632 C29.7426316,2.96052632 28.8473684,3.49342105 28.8473684,4.14473684 C28.8473684,4.79605263 29.7426316,5.32894737 30.8368421,5.32894737 C31.9310526,5.32894737 32.8263158,4.79605263 32.8263158,4.14473684 C32.8263158,3.49342105 31.9310526,2.96052632 30.8368421,2.96052632 Z M36.8052632,13.0263158 C36.2482105,13.0263158 35.8105263,13.2868421 35.8105263,13.6184211 C35.8105263,13.95 36.2482105,14.2105263 36.8052632,14.2105263 C37.3623158,14.2105263 37.8,13.95 37.8,13.6184211 C37.8,13.2868421 37.3623158,13.0263158 36.8052632,13.0263158 Z M22.8789474,17.1710526 C21.7847368,17.1710526 20.8894737,17.7039474 20.8894737,18.3552632 C20.8894737,19.0065789 21.7847368,19.5394737 22.8789474,19.5394737 C23.9731579,19.5394737 24.8684211,19.0065789 24.8684211,18.3552632 C24.8684211,17.7039474 23.9731579,17.1710526 22.8789474,17.1710526 Z M22.8789474,21.3157895 C22.3218947,21.3157895 21.8842105,21.5763158 21.8842105,21.9078947 C21.8842105,22.2394737 22.3218947,22.5 22.8789474,22.5 C23.436,22.5 23.8736842,22.2394737 23.8736842,21.9078947 C23.8736842,21.5763158 23.436,21.3157895 22.8789474,21.3157895 Z M14.9210526,7.10526316 C13.2697895,7.10526316 11.9368421,7.89868421 11.9368421,8.88157895 C11.9368421,9.86447368 13.2697895,10.6578947 14.9210526,10.6578947 C16.5723158,10.6578947 17.9052632,9.86447368 17.9052632,8.88157895 C17.9052632,7.89868421 16.5723158,7.10526316 14.9210526,7.10526316 Z M14.9210526,17.1710526 C13.8268421,17.1710526 12.9315789,17.7039474 12.9315789,18.3552632 C12.9315789,19.0065789 13.8268421,19.5394737 14.9210526,19.5394737 C16.0152632,19.5394737 16.9105263,19.0065789 16.9105263,18.3552632 C16.9105263,17.7039474 16.0152632,17.1710526 14.9210526,17.1710526 Z M22.8789474,11.8421053 C21.2276842,11.8421053 19.8947368,12.6355263 19.8947368,13.6184211 C19.8947368,14.6013158 21.2276842,15.3947368 22.8789474,15.3947368 C24.5302105,15.3947368 25.8631579,14.6013158 25.8631579,13.6184211 C25.8631579,12.6355263 24.5302105,11.8421053 22.8789474,11.8421053 Z M22.8789474,7.10526316 C21.2276842,7.10526316 19.8947368,7.89868421 19.8947368,8.88157895 C19.8947368,9.86447368 21.2276842,10.6578947 22.8789474,10.6578947 C24.5302105,10.6578947 25.8631579,9.86447368 25.8631579,8.88157895 C25.8631579,7.89868421 24.5302105,7.10526316 22.8789474,7.10526316 Z" id="Shape" fill-rule="nonzero"></path>
                                            </g>
                                        </g>
                                    </g>
                                </g>
                                <g id="comp-text" transform="translate(460.787356, 194.561798) scale(-1, 1) translate(-460.787356, -194.561798) translate(432.287356, 166.561798)">
                                    <g id="Group-17">
                                        <g id="Rectangle-9_Isometric" transform="translate(1.204598, 13.249438)">
                                            <polygon id="Rectangle-9_Left_Isometric" fill="#36C0AC" points="19.2735632 18.0674157 0 8.43146067 0 2.40898876 19.2735632 12.0449438"></polygon>
                                            <polygon id="Rectangle-9_Right_Isometric" fill="#30A695" points="19.2735632 18.0674157 24.091954 15.658427 24.091954 9.63595506 19.2735632 12.0449438"></polygon>
                                            <polygon id="Rectangle-9_Top_Isometric" fill="#00E3C1" points="0 2.40898876 4.8183908 0 24.091954 9.63595506 19.2735632 12.0449438"></polygon>
                                        </g>
                                        <g id="Rectangle-9_Isometric" transform="translate(0.000000, 25.294382)">
                                            <polygon id="Rectangle-9_Left_Isometric" fill="#36C0AC" points="24.091954 20.4764045 0 8.43146067 0 2.40898876 24.091954 14.4539326"></polygon>
                                            <polygon id="Rectangle-9_Right_Isometric" fill="#30A695" points="24.091954 20.4764045 28.9103448 18.0674157 28.9103448 12.0449438 24.091954 14.4539326"></polygon>
                                            <polygon id="Rectangle-9_Top_Isometric" fill="#00E3C1" points="0 2.40898876 4.8183908 0 28.9103448 12.0449438 24.091954 14.4539326"></polygon>
                                        </g>
                                        <g id="Rectangle-9_Isometric" transform="translate(31.319540, 28.907865)">
                                            <polygon id="Rectangle-9_Left_Isometric" fill="#36C0AC" points="7.22758621 12.0449438 0 8.43146067 0 2.40898876 7.22758621 6.02247191"></polygon>
                                            <polygon id="Rectangle-9_Right_Isometric" fill="#30A695" points="7.22758621 12.0449438 12.045977 9.63595506 12.045977 3.61348315 7.22758621 6.02247191"></polygon>
                                            <polygon id="Rectangle-9_Top_Isometric" fill="#00E3C1" points="0 2.40898876 4.8183908 0 12.045977 3.61348315 7.22758621 6.02247191"></polygon>
                                        </g>
                                        <g id="Rectangle-9_Isometric" transform="translate(30.114943, 40.952809)">
                                            <polygon id="Rectangle-9_Left_Isometric" fill="#36C0AC" points="12.045977 14.4539326 0 8.43146067 0 2.40898876 12.045977 8.43146067"></polygon>
                                            <polygon id="Rectangle-9_Right_Isometric" fill="#30A695" points="12.045977 14.4539326 16.8643678 12.0449438 16.8643678 6.02247191 12.045977 8.43146067"></polygon>
                                            <polygon id="Rectangle-9_Top_Isometric" fill="#00E3C1" points="0 2.40898876 4.8183908 0 16.8643678 6.02247191 12.045977 8.43146067"></polygon>
                                        </g>
                                        <g id="Rectangle-9_Isometric" transform="translate(1.204598, 0.000000)">
                                            <polygon id="Rectangle-9_Left_Isometric" fill="#36C0AC" points="49.3885057 33.7258427 0 9.03370787 0 3.01123596 49.3885057 27.7033708"></polygon>
                                            <polygon id="Rectangle-9_Right_Isometric" fill="#30A695" points="49.3885057 33.7258427 54.2068966 31.3168539 54.2068966 25.294382 49.3885057 27.7033708"></polygon>
                                            <polygon id="Rectangle-9_Top_Isometric" fill="#00E3C1" points="0 3.01123596 4.8183908 0.602247191 54.2068966 25.294382 49.3885057 27.7033708"></polygon>
                                        </g>
                                    </g>
                                </g>
                                <g id="connections" transform="translate(19.000000, 140.000000)">
                                    <g id="connection" transform="translate(8.000000, 35.000000) scale(-1, 1) translate(-8.000000, -35.000000) ">
                                        <ellipse id="Oval-6" fill="#3A3A3A" cx="5" cy="3.5" rx="2" ry="3.5"></ellipse>
                                        <ellipse id="Oval-6" fill="#3A3A3A" cx="2" cy="62.5" rx="2" ry="3.5"></ellipse>
                                        <polyline id="Path-2" stroke="#3A3A3A" stroke-width="2" stroke-linecap="round" stroke-linejoin="round" points="4.89752855 3.04952973 15.3285573 8.31292924 15.3285573 69.7730823 1.32108392 62.3263181"></polyline>
                                    </g>
                                    <g id="connection" transform="translate(93.000000, 77.000000) scale(-1, 1) translate(-93.000000, -77.000000) translate(85.000000, 42.000000)">
                                        <ellipse id="Oval-6" fill="#3A3A3A" cx="5" cy="3.5" rx="2" ry="3.5"></ellipse>
                                        <ellipse id="Oval-6" fill="#3A3A3A" cx="2" cy="62.5" rx="2" ry="3.5"></ellipse>
                                        <polyline id="Path-2" stroke="#3A3A3A" stroke-width="2" stroke-linecap="round" stroke-linejoin="round" points="4.89752855 3.04952973 15.3285573 8.31292924 15.3285573 69.7730823 1.32108392 62.3263181"></polyline>
                                    </g>
                                    <g id="connection" transform="translate(179.000000, 118.000000) scale(-1, 1) translate(-179.000000, -118.000000) translate(171.000000, 83.000000)">
                                        <ellipse id="Oval-6" fill="#3A3A3A" cx="5" cy="3.5" rx="2" ry="3.5"></ellipse>
                                        <ellipse id="Oval-6" fill="#3A3A3A" cx="2" cy="62.5" rx="2" ry="3.5"></ellipse>
                                        <polyline id="Path-2" stroke="#3A3A3A" stroke-width="2" stroke-linecap="round" stroke-linejoin="round" points="4.89752855 3.04952973 15.3285573 8.31292924 15.3285573 69.7730823 1.32108392 62.3263181"></polyline>
                                    </g>
                                </g>
                            </g>
                            <g id="Rectangle-9_Isometric" transform="translate(272.000000, 213.000000)">
                                <polygon id="Rectangle-9_Right_Isometric" fill="#36C0AC" points="8 94 178 9 178 4 8 89"></polygon>
                                <polygon id="Rectangle-9_Left_Isometric" fill="#30A695" points="8 94 0 90 0 85 8 89"></polygon>
                                <polygon id="Rectangle-9_Top_Isometric" fill="#00E3C1" points="178 4 170 0 0 85 8 89"></polygon>
                            </g>
                        </g>
                    </g>
                </g>
            </g>
        </g>
    </g>
</svg>